<svg width="151" height="26" viewBox="0 0 151 26" fill="none" xmlns="http://www.w3.org/2000/svg">
<g clip-path="url(#clip0_3844_23678)">
<path d="M77.7138 0.0959641L87.7059 0.0498047C90.1026 0.0500545 92.401 1.00223 94.0957 2.69692C95.7904 4.39161 96.7426 6.69004 96.7428 9.08669V16.8754C96.7428 18.0621 96.5091 19.2372 96.0549 20.3335C95.6007 21.4299 94.9351 22.426 94.0959 23.2651C93.2568 24.1042 92.2605 24.7697 91.1641 25.2238C90.0677 25.6778 88.8926 25.9115 87.7059 25.9113H77.7713C76.5846 25.9114 75.4096 25.6777 74.3133 25.2237C73.2169 24.7697 72.2207 24.1041 71.3816 23.2651C70.5426 22.4259 69.877 21.4298 69.423 20.3334C68.9689 19.2371 68.7353 18.062 68.7354 16.8754V9.08669C68.7354 4.09488 72.723 0.0959641 77.7138 0.0959641Z" fill="black"/>
<path d="M80.1405 14.6715V14.2326H77.4962V12.2788H82.651V14.6028C82.651 18.2607 80.9045 20.3859 77.5989 20.3859C74.1916 20.3859 72.2114 17.7011 72.2114 12.9674C72.2114 8.35148 74.3724 5.52539 78.3346 5.52539C79.8324 5.52539 81.123 5.92198 81.8286 6.43822V8.44945C80.8149 7.82129 79.6477 7.48459 78.4552 7.47633C75.8561 7.47633 74.7549 9.24075 74.7549 12.9674C74.7549 16.582 75.6668 18.4312 77.646 18.4312C79.5376 18.4406 80.1405 16.9776 80.1405 14.6715ZM93.343 14.9466C93.343 18.4585 91.4495 20.3944 88.7271 20.3944C86.0046 20.3944 84.1111 18.4585 84.1111 14.973C84.1111 11.4611 86.0037 9.52525 88.7271 9.52525C91.4505 9.52525 93.343 11.4526 93.343 14.9466ZM90.7873 14.9466C90.7873 12.5369 90.0987 11.479 88.7308 11.479C87.363 11.479 86.6734 12.5369 86.6734 14.973C86.6734 17.3827 87.3621 18.4416 88.7308 18.4416C90.0996 18.4416 90.7873 17.3742 90.7873 14.9466Z" fill="white"/>
<path d="M13.0699 7.69205H11.9394C9.88581 7.69205 8.80436 8.73299 8.80436 10.2742C8.80436 12.0207 9.55233 12.8299 11.0935 13.8708L12.3586 14.7234L8.70074 20.1871H5.97827L9.25747 15.2989C7.364 13.949 6.30516 12.6405 6.30516 10.4117C6.30516 7.62328 8.23914 5.73828 11.9131 5.73828H15.57V20.1881H13.0614V7.69205H13.0699ZM25.9107 9.73154V20.1881H23.4407V15.8246H20.1351V20.1881H17.6651V9.73154H20.1351V13.8708H23.4407V9.73154H25.9107ZM37.0728 22.5723H34.7836V20.1796H29.2323V22.5723H26.9431V18.2305H27.7175C28.587 16.484 28.7594 13.1784 28.7594 10.6227V9.72777H35.9706V18.2305H37.0728V22.5723ZM33.5006 11.6853H30.8846V11.9952C30.8846 13.802 30.6962 16.6507 30.0066 18.2343H33.5006V11.6853ZM42.6232 20.3859C39.4655 20.3859 37.6747 18.6215 37.6747 14.9815C37.6747 11.8228 39.1123 9.5177 42.1249 9.5177C44.5949 9.5177 46.1954 10.894 46.1954 14.5265V15.834H40.2314C40.3341 17.5815 41.0227 18.4331 42.8304 18.4331C44.0353 18.4331 45.3259 17.9771 46.0917 17.4524V19.474C45.3692 19.9733 44.2067 20.3859 42.6232 20.3859ZM40.2314 14.0093H43.682V13.803C43.682 12.4955 43.3052 11.4799 42.0806 11.4799C40.9021 11.4705 40.3002 12.3476 40.2314 14.0093ZM50.3346 15.0502V20.1881H47.8562V9.73154H50.3346V14.551L53.8333 9.73154H56.3297L52.8357 14.551L56.8026 20.1796H53.9925L50.3346 15.0502ZM56.6604 14.9645C56.6604 11.7795 58.3042 9.51676 61.4647 9.51676C62.6894 9.51676 63.6078 9.72306 64.1241 10.016V12.1158C63.6248 11.8059 62.6865 11.4705 61.7313 11.4705C60.1129 11.4705 59.218 12.632 59.218 14.9042C59.218 17.0643 59.9499 18.4415 61.7144 18.4415C62.7553 18.4415 63.5042 18.174 64.1241 17.735V19.7491C63.5212 20.1881 62.711 20.3944 61.5674 20.3944C58.2609 20.3859 56.6594 18.4585 56.6594 14.9645H56.6604ZM100.207 5.73828H109.583V7.69205H106.152V20.1871H103.637V7.69205H100.207V5.73828ZM116.671 17.6295C116.671 18.4818 116.713 19.3343 116.796 20.1871H114.384C114.285 19.9193 114.222 19.6396 114.196 19.3553H114.092C113.614 19.8546 112.99 20.3322 111.535 20.3322C109.622 20.3322 108.332 19.1471 108.332 17.0266C108.332 14.9061 110.015 13.6589 113.795 13.6589H114.19V13.0767C114.19 11.9547 113.649 11.5384 112.464 11.5384C111.196 11.5384 109.741 12.0791 109.073 12.5746V10.52C110.198 9.88449 111.471 9.55483 112.763 9.56386C115.383 9.56386 116.671 10.52 116.671 13.056V17.6295ZM114.198 15.3018H113.841C111.72 15.3018 110.868 15.7379 110.868 16.9644C110.868 17.8999 111.388 18.5235 112.427 18.5235C113.3 18.5235 113.882 18.1467 114.194 17.6926L114.198 15.3018ZM121.14 15.0521V20.1871H118.667V9.7306H121.14V14.5566L124.633 9.73343H127.128L123.638 14.5566L127.608 20.1909H124.801L121.14 15.0521ZM127.5 14.9692C127.5 11.788 129.142 9.52241 132.304 9.52241C133.529 9.52241 134.446 9.72966 134.966 10.0207V12.1205C134.466 11.8087 133.531 11.4762 132.575 11.4762C130.953 11.4762 130.059 12.6405 130.059 14.9061C130.059 17.0728 130.787 18.4406 132.554 18.4406C133.59 18.4406 134.344 18.1702 134.966 17.7341V19.75C134.363 20.1871 133.553 20.3953 132.408 20.3953C129.101 20.3972 127.5 18.4613 127.5 14.9692ZM139.04 9.72966V16.1957L142.864 9.72966H145.007V20.1862H142.595V13.721L138.77 20.1871H136.628V9.7306L139.04 9.72966Z" fill="black"/>
</g>
<defs>
<clipPath id="clip0_3844_23678">
<rect width="139.043" height="26" fill="white" transform="translate(5.97827)"/>
</clipPath>
</defs>
</svg>
