<svg width="151" height="26" viewBox="0 0 151 26" fill="none" xmlns="http://www.w3.org/2000/svg">
<g clip-path="url(#clip0_3990_94944)">
<path d="M31.5371 2.8584V21.7799H34.7904V5.41756H40.5979V21.7799H43.8513V2.8584H31.5371Z" fill="black"/>
<path d="M49.4873 8.08573H46.5298V25.7276H49.7292V20.1737C50.5359 21.3989 51.7189 22.0522 53.0902 22.0522C56.209 22.0522 58.3599 19.5203 58.3599 14.9193C58.3599 10.3454 56.2627 7.81348 53.2515 7.81348C51.7458 7.81348 50.509 8.52133 49.6486 9.85534L49.4873 8.08573ZM52.2835 19.4931C50.5896 19.4931 49.7292 18.1046 49.7292 14.9464C49.7292 11.7611 50.6435 10.3726 52.4449 10.3726C54.1925 10.3726 55.0529 11.7611 55.0529 14.9193C55.0529 18.1046 54.1387 19.4931 52.2835 19.4931Z" fill="black"/>
<path d="M70.4763 12.442C70.4763 9.12053 68.8095 7.86816 65.4217 7.86816C63.2977 7.86816 61.6307 8.5488 60.6627 9.12053V11.8158C61.5231 11.1624 63.4052 10.4545 65.0452 10.4545C66.5778 10.4545 67.2769 10.9991 67.2769 12.4693V13.2315H66.7661C61.8727 13.2315 59.6948 14.865 59.6948 17.642C59.6948 20.4189 61.3618 21.9708 63.8354 21.9708C65.7174 21.9708 66.5241 21.3446 67.1425 20.6912H67.2769C67.3038 21.0451 67.4113 21.5079 67.5189 21.7802H70.6377C70.5302 20.664 70.4763 19.5477 70.4763 18.4315V12.442ZM67.2769 18.5132C66.8735 19.1122 66.1208 19.6022 64.9915 19.6022C63.6471 19.6022 62.975 18.8399 62.975 17.6693C62.975 16.1173 64.0774 15.5456 66.8198 15.5456H67.2769V18.5132Z" fill="black"/>
<path d="M80.9805 21.7802H84.6102L79.4748 14.5111L83.9917 8.08594H80.7653L76.2484 14.5111V8.08594H73.0488V21.7802H76.2484V15.1645L80.9805 21.7802Z" fill="black"/>
<path d="M95.3369 10.6451V8.08594H84.6091V10.6451H88.3733V21.7802H91.5728V10.6451H95.3369Z" fill="black"/>
<path d="M97.2314 8.08594V21.7802H100.081L104.975 13.3132V21.7802H108.067V8.08594H105.216L100.324 16.553V8.08594H97.2314Z" fill="black"/>
<path d="M118.685 21.7802H122.315L117.179 14.5111L121.697 8.08594H118.47L113.953 14.5111V8.08594H110.753V21.7802H113.953V15.1645L118.685 21.7802Z" fill="black"/>
<path d="M125.129 26.0001C128.115 26.0001 129.216 23.8493 130.131 21.0451L134.352 8.08594H131.26L128.275 18.377L125.291 8.08594H121.93L126.582 22.3792C126.232 23.0325 125.722 23.4409 124.834 23.4409C124.242 23.4409 123.731 23.2504 123.383 22.8964V25.5372C123.383 25.5372 123.866 26.0001 125.129 26.0001Z" fill="black"/>
<path d="M147.1 21.7802H150.219L150.165 8.08594H145.783L142.851 17.2063L140.217 8.08594H135.566V21.7802H138.281V11.5435L141.212 21.7802H143.819L147.1 11.5435V21.7802Z" fill="black"/>
<path d="M12.5185 25.037C19.4323 25.037 25.037 19.4323 25.037 12.5185C25.037 5.60473 19.4323 0 12.5185 0C5.60473 0 0 5.60473 0 12.5185C0 19.4323 5.60473 25.037 12.5185 25.037Z" fill="black"/>
<path d="M14.489 20.3425H17.218V4.69434H13.2455C9.24998 4.69434 7.15435 6.7394 7.15435 9.76106C7.15435 12.3691 8.51305 13.8397 10.9196 15.4367L12.3819 16.4017L10.5051 14.8277L6.78589 20.3425H9.74509L13.7176 14.4141L12.3358 13.495C10.6663 12.3691 9.84871 11.4958 9.84871 9.60018C9.84871 7.93426 11.0232 6.80833 13.257 6.80833H14.4776V20.3425H14.489Z" fill="white"/>
</g>
<defs>
<clipPath id="clip0_3990_94944">
<rect width="150.222" height="26" fill="white"/>
</clipPath>
</defs>
</svg>
