<svg width="151" height="26" viewBox="0 0 151 26" fill="none" xmlns="http://www.w3.org/2000/svg">
<path d="M0 0H25.9875V13.0748C25.9875 16.4276 24.2052 19.5187 21.3011 21.2013L13 26L4.69895 21.2013C1.79482 19.5312 0.0124639 16.4276 0.0124639 13.0748V0H0Z" fill="#E5E5E5"/>
<path fill-rule="evenodd" clip-rule="evenodd" d="M7.12964 6.87988V10.9432C7.69052 10.32 8.70011 9.89618 9.8468 9.89618H11.1057V14.6201C11.1057 15.8789 10.7691 16.9758 10.2581 17.5865H15.7174C15.2063 16.9758 14.8698 15.8789 14.8698 14.6201V9.89618H16.1287C17.2878 9.89618 18.2974 10.32 18.8458 10.9432V6.87988H7.12964Z" fill="black"/>
<path d="M143.524 6.26953V7.3539C147.637 7.44115 150.092 9.17365 150.092 12.2273C150.092 15.281 147.637 16.8764 143.524 16.9761V18.0605H140.27V16.9761C136.182 16.8889 133.727 15.2935 133.727 12.2273C133.727 9.17365 136.182 7.44115 140.27 7.3539V6.26953H143.524ZM140.27 14.6828V9.67222C138.027 9.75946 137.03 10.794 137.03 12.2398C137.03 13.6732 138.027 14.5955 140.27 14.6828ZM143.524 9.67222V14.6828C145.792 14.5955 146.764 13.6732 146.764 12.2273C146.764 10.794 145.804 9.75946 143.524 9.67222Z" fill="black"/>
<path d="M126.124 6.26953V7.3539C130.237 7.44115 132.692 9.17365 132.692 12.2273C132.692 15.281 130.237 16.8764 126.124 16.9761V18.0605H122.871V16.9761C118.782 16.8889 116.327 15.2935 116.327 12.2273C116.327 9.17365 118.782 7.44115 122.871 7.3539V6.26953H126.124ZM122.858 14.6828V9.67222C120.615 9.75946 119.617 10.794 119.617 12.2398C119.63 13.6732 120.615 14.5955 122.858 14.6828ZM126.124 9.67222V14.6828C128.392 14.5955 129.364 13.6732 129.364 12.2273C129.364 10.794 128.392 9.75946 126.124 9.67222Z" fill="black"/>
<path d="M108.275 6.59375C112.637 6.59375 115.267 9.06163 115.267 12.2524C115.267 15.4432 112.637 17.9111 108.275 17.9111C103.888 17.9111 101.258 15.4432 101.258 12.2524C101.27 9.06163 103.9 6.59375 108.275 6.59375ZM108.275 15.3061C110.431 15.3061 111.852 13.9974 111.852 12.2524C111.852 10.495 110.431 9.22366 108.275 9.22366C106.094 9.22366 104.698 10.5075 104.698 12.2524C104.698 14.0099 106.094 15.3061 108.275 15.3061Z" fill="black"/>
<path d="M93.3432 13.5359H92.4457V17.5867H89.1926V6.89258H92.4457V10.9185H93.3432L97.2818 6.89258H101.37L96.16 12.0028L101.582 17.5743H97.2444L93.3432 13.5359Z" fill="black"/>
<path d="M82.6738 17.5867H76.0679V6.89258H79.3334V9.75931H82.6863C83.4964 9.75931 84.344 9.78424 85.0669 10.046C86.5751 10.6069 87.5223 11.8408 87.5223 13.6232C87.5223 15.4928 86.4255 16.8638 84.7304 17.3374C84.0823 17.5119 83.4092 17.5867 82.6738 17.5867ZM82.1005 12.277H79.3085V14.9942H82.1005C82.6613 14.9942 83.0228 14.9942 83.3843 14.8322C83.8953 14.6078 84.2194 14.1342 84.2194 13.5733C84.2194 13.0374 83.9078 12.5886 83.3593 12.4017C82.9854 12.277 82.5492 12.277 82.1005 12.277Z" fill="black"/>
<path d="M70.3345 13.598H65.0996V17.574H61.8464V6.87988H65.0996V10.7936H70.3345V6.87988H73.5876V17.574H70.3345V13.598Z" fill="black"/>
<path d="M50.8657 13.1119L56.4869 6.87988H59.3661V17.574H56.113V11.342L50.4917 17.574H47.6125V6.87988H50.8657V13.1119Z" fill="black"/>
<path d="M41.6299 17.5867H38.2521V9.74684H33.6155V6.89258H46.254V9.74684H41.6299V17.5867Z" fill="black"/>
</svg>
