<svg width="151" height="26" viewBox="0 0 151 26" fill="none" xmlns="http://www.w3.org/2000/svg">
<g clip-path="url(#clip0_3844_24057)">
<path d="M31.926 2.85876V21.7803H35.1793V5.41793H40.9868V21.7803H44.2402V2.85876H31.926Z" fill="black"/>
<path d="M49.8762 8.08597H46.9187V25.7278H50.1181V20.1739C50.9248 21.3991 52.1078 22.0525 53.4791 22.0525C56.5979 22.0525 58.7488 19.5206 58.7488 14.9195C58.7488 10.3456 56.6517 7.81372 53.6404 7.81372C52.1347 7.81372 50.898 8.52158 50.0375 9.85559L49.8762 8.08597ZM52.6724 19.4933C50.9786 19.4933 50.1181 18.1048 50.1181 14.9467C50.1181 11.7614 51.0324 10.3729 52.8338 10.3729C54.5814 10.3729 55.4418 11.7614 55.4418 14.9195C55.4418 18.1048 54.5277 19.4933 52.6724 19.4933Z" fill="black"/>
<path d="M70.8653 12.4421C70.8653 9.12065 69.1984 7.86829 65.8106 7.86829C63.6866 7.86829 62.0196 8.54892 61.0516 9.12065V11.8159C61.912 11.1625 63.7941 10.4547 65.4342 10.4547C66.9667 10.4547 67.6658 10.9992 67.6658 12.4694V13.2317H67.155C62.2616 13.2317 60.0837 14.8651 60.0837 17.6421C60.0837 20.419 61.7507 21.9709 64.2243 21.9709C66.1063 21.9709 66.913 21.3447 67.5314 20.6914H67.6658C67.6927 21.0452 67.8003 21.508 67.9078 21.7804H71.0267C70.9191 20.6641 70.8653 19.5478 70.8653 18.4317V12.4421ZM67.6658 18.5133C67.2624 19.1123 66.5097 19.6023 65.3804 19.6023C64.036 19.6023 63.3639 18.8401 63.3639 17.6694C63.3639 16.1175 64.4663 15.5458 67.2087 15.5458H67.6658V18.5133Z" fill="black"/>
<path d="M81.3694 21.7802H84.9991L79.8637 14.5111L84.3807 8.08594H81.1543L76.6373 14.5111V8.08594H73.4377V21.7802H76.6373V15.1645L81.3694 21.7802Z" fill="black"/>
<path d="M95.7258 10.6451V8.08594H84.998V10.6451H88.7622V21.7802H91.9617V10.6451H95.7258Z" fill="black"/>
<path d="M97.6204 8.08594V21.7802H100.47L105.364 13.3132V21.7802H108.456V8.08594H105.605L100.712 16.553V8.08594H97.6204Z" fill="black"/>
<path d="M119.074 21.7802H122.704L117.568 14.5111L122.085 8.08594H118.859L114.342 14.5111V8.08594H111.142V21.7802H114.342V15.1645L119.074 21.7802Z" fill="black"/>
<path d="M125.518 26.0001C128.503 26.0001 129.605 23.8493 130.52 21.0451L134.741 8.08594H131.649L128.664 18.377L125.68 8.08594H122.319L126.97 22.3792C126.621 23.0325 126.111 23.4409 125.223 23.4409C124.631 23.4409 124.12 23.2504 123.771 22.8964V25.5372C123.771 25.5372 124.255 26.0001 125.518 26.0001Z" fill="black"/>
<path d="M147.489 21.7802H150.608L150.554 8.08594H146.172L143.24 17.2063L140.606 8.08594H135.955V21.7802H138.67V11.5435L141.6 21.7802H144.208L147.489 11.5435V21.7802Z" fill="black"/>
<path d="M12.9074 25.037C19.8212 25.037 25.426 19.4323 25.426 12.5185C25.426 5.60473 19.8212 0 12.9074 0C5.99365 0 0.388916 5.60473 0.388916 12.5185C0.388916 19.4323 5.99365 25.037 12.9074 25.037Z" fill="black"/>
<path d="M14.878 20.3426H17.6069V4.69446H13.6344C9.63889 4.69446 7.54326 6.73952 7.54326 9.76118C7.54326 12.3692 8.90197 13.8398 11.3085 15.4368L12.7708 16.4019L10.894 14.8278L7.1748 20.3426H10.134L14.1065 14.4142L12.7248 13.4951C11.0552 12.3692 10.2376 11.496 10.2376 9.6003C10.2376 7.93439 11.4122 6.80845 13.6459 6.80845H14.8665V20.3426H14.878Z" fill="white"/>
</g>
<defs>
<clipPath id="clip0_3844_24057">
<rect width="150.222" height="26" fill="white" transform="translate(0.388916)"/>
</clipPath>
</defs>
</svg>
