<svg width="151" height="26" viewBox="0 0 151 26" fill="none" xmlns="http://www.w3.org/2000/svg">
<path d="M75.7182 13.1247V16.8978C75.7182 17.0379 75.6037 17.1591 75.456 17.1591H72.4773C70.0714 17.1203 69.1056 16.0106 69.0687 13.5981C69.1056 11.2604 69.9672 10.0939 72.4915 10.0589V10.0642H78.7699V7.48124H72.4915C68.0187 7.50396 66.1761 9.40613 66.0871 13.4491L66.0834 13.7663L66.0871 13.7716C66.1828 17.6952 68.0215 19.622 72.3655 19.6864V19.6894H76.9624C78.0238 19.6894 78.785 18.8032 78.785 17.8687V13.1241L75.7182 13.1247ZM100.331 19.6832V14.6565H107.971V12.1625H100.331V8.39606C100.331 8.25214 100.447 8.13284 100.594 8.13284H108.148V5.55085H99.0879C98.0274 5.55085 97.2643 6.43518 97.2643 7.37159V19.6832H100.331ZM56.5165 17.1144C56.3669 17.1144 56.2533 16.9942 56.2533 16.8521V14.6707H63.8904V12.1786H56.2533V10.32C56.2533 10.178 56.3669 10.0568 56.5165 10.0568H64.0713V7.47385H55.0101C53.9478 7.47385 53.1847 8.36197 53.1847 9.29649V17.8747C53.1847 18.8121 53.9478 19.6983 55.0101 19.6983H64.0713V17.1144H56.5165ZM48.1839 5.26074C46.7495 5.26074 45.8339 6.02578 45.155 7.56437L41.1613 16.7637L37.1648 7.56437C36.4849 6.02578 35.5694 5.26074 34.134 5.26074C32.7914 5.26074 31.4043 6.22177 31.4043 8.30952V19.6989H34.4654V8.62102L38.4856 17.7427C39.0262 19.0172 39.8945 19.8172 41.1585 19.8191H41.1615C42.4246 19.8168 43.2947 19.0172 43.8344 17.7427L47.8537 8.62102V19.6989H50.9148V8.30952C50.9148 6.22177 49.5256 5.26074 48.1839 5.26074ZM85.7602 14.6709L87.6453 10.2331C87.7049 10.0939 87.8129 10.057 87.8943 10.057H87.8958C87.9772 10.057 88.0871 10.0939 88.1448 10.2331L90.0328 14.6709H85.7602ZM90.4138 8.83841C89.8997 7.72495 88.8781 7.18242 87.8962 7.18242H87.8947C86.9119 7.18242 85.8903 7.72495 85.3799 8.83841L80.3703 19.6985H83.6292L84.7209 17.1174H91.0713L92.1639 19.6985H95.4229L90.4138 8.83841ZM135.588 7.47413V15.6443L130.325 8.46262C129.881 7.90399 129.386 7.47413 128.371 7.47413C127.438 7.47413 126.286 8.21171 126.286 9.61206V19.7062H129.351V11.5379L134.591 18.7432C135.048 19.3644 135.519 19.7062 136.568 19.7062C137.502 19.7062 138.653 19.0368 138.653 17.5673V7.47413H135.588ZM117.218 17.2868C114.088 17.2868 113.188 16.1374 113.188 13.5781V13.5649C113.188 11.0813 114.047 9.86089 117.218 9.86089C120.394 9.86089 121.251 11.0813 121.251 13.5649V13.5781C121.251 16.1374 120.349 17.2868 117.218 17.2868ZM124.235 13.5649C124.235 9.28522 122.526 7.28931 117.218 7.28931C111.914 7.28931 110.205 9.28522 110.202 13.5649V13.5734C110.202 17.7868 111.959 19.8187 117.218 19.8187C122.48 19.8187 124.235 17.7868 124.235 13.5734V13.5649Z" fill="black"/>
<path d="M10.6484 10.8484C9.80193 10.8484 9.11453 10.162 9.11453 9.31645C9.11453 8.46904 9.80193 7.7826 10.6484 7.7826C11.4949 7.7826 12.1804 8.46904 12.1804 9.31645C12.1804 10.162 11.4949 10.8484 10.6484 10.8484ZM12.9994 0.736328C6.22483 0.736328 0.736084 6.22602 0.736084 12.9996C0.736084 18.8775 4.87276 23.7896 10.3918 24.9855V13.9805L10.3926 13.9798C10.4049 13.4486 10.8281 13.0206 11.3545 13.0007L11.8649 13H12.9035C12.9755 13 13.0342 12.9432 13.038 12.8722L13.0387 0.738525M21.4501 19.6895C20.6046 19.6895 19.9172 19.0031 19.9172 18.1556C19.9172 17.3111 20.6046 16.6246 21.4501 16.6246C22.2957 16.6246 22.9831 17.3111 22.9831 18.1556C22.9831 19.0031 22.2957 19.6895 21.4501 19.6895ZM17.8569 19.6895C17.0114 19.6895 16.325 19.0031 16.325 18.1556C16.325 17.3111 17.0114 16.6246 17.8569 16.6246C18.7034 16.6246 19.3899 17.3111 19.3899 18.1556C19.3899 19.0031 18.7034 19.6895 17.8569 19.6895ZM14.2619 19.6895C13.4163 19.6895 12.728 19.0031 12.728 18.1556C12.728 17.3111 13.4163 16.6246 14.2619 16.6246C15.1093 16.6246 15.7957 17.3111 15.7957 18.1556C15.7957 19.0031 15.1093 19.6895 14.2619 19.6895ZM14.5128 0.828753V12.9992V13.4726V13.4812L14.5097 13.4842C14.5052 14.0315 14.059 14.4737 13.5099 14.4737H13.0384H12.0006C11.9249 14.4737 11.8643 14.5343 11.8643 14.6091V25.2116C12.2383 25.2457 12.6151 25.2646 12.9986 25.2646C19.7722 25.2646 25.2619 19.773 25.2619 12.9995C25.2619 6.74001 20.5715 1.57485 14.5128 0.828753Z" fill="black"/>
</svg>
