<svg width="151" height="26" viewBox="0 0 151 26" fill="none" xmlns="http://www.w3.org/2000/svg">
<path d="M81.5239 13.1247V16.8978C81.5239 17.0379 81.4093 17.1591 81.2616 17.1591H78.2829C75.877 17.1203 74.9113 16.0106 74.8744 13.5981C74.9112 11.2604 75.7729 10.0939 78.2971 10.0589V10.0642H84.5755V7.48124H78.2971C73.8243 7.50396 71.9818 9.40613 71.8928 13.4491L71.889 13.7663L71.8928 13.7716C71.9884 17.6952 73.8272 19.622 78.1712 19.6864V19.6894H82.768C83.8294 19.6894 84.5907 18.8032 84.5907 17.8687V13.1241L81.5239 13.1247ZM106.137 19.6832V14.6565H113.777V12.1625H106.137V8.39606C106.137 8.25214 106.253 8.13284 106.4 8.13284H113.954V5.55085H104.894C103.833 5.55085 103.07 6.43518 103.07 7.37159V19.6832H106.137ZM62.3222 17.1144C62.1726 17.1144 62.059 16.9942 62.059 16.8521V14.6707H69.6961V12.1786H62.059V10.32C62.059 10.178 62.1726 10.0568 62.3222 10.0568H69.8769V7.47385H60.8158C59.7535 7.47385 58.9903 8.36197 58.9903 9.29649V17.8747C58.9903 18.8121 59.7535 19.6983 60.8158 19.6983H69.8769V17.1144H62.3222ZM53.9896 5.26074C52.5551 5.26074 51.6396 6.02578 50.9607 7.56437L46.967 16.7637L42.9704 7.56437C42.2906 6.02578 41.375 5.26074 39.9396 5.26074C38.5971 5.26074 37.21 6.22177 37.21 8.30952V19.6989H40.271V8.62102L44.2913 17.7427C44.8319 19.0172 45.7001 19.8172 46.9641 19.8191H46.9672C48.2302 19.8168 49.1004 19.0172 49.6401 17.7427L53.6593 8.62102V19.6989H56.7204V8.30952C56.7204 6.22177 55.3312 5.26074 53.9896 5.26074ZM91.5658 14.6709L93.451 10.2331C93.5106 10.0939 93.6185 10.057 93.7 10.057H93.7015C93.7829 10.057 93.8927 10.0939 93.9505 10.2331L95.8385 14.6709H91.5658ZM96.2195 8.83841C95.7054 7.72495 94.6837 7.18242 93.7019 7.18242H93.7004C92.7176 7.18242 91.6959 7.72495 91.1856 8.83841L86.1759 19.6985H89.4349L90.5266 17.1174H96.8769L97.9696 19.6985H101.229L96.2195 8.83841ZM141.394 7.47413V15.6443L136.13 8.46262C135.686 7.90399 135.192 7.47413 134.176 7.47413C133.244 7.47413 132.091 8.21171 132.091 9.61206V19.7062H135.157V11.5379L140.397 18.7432C140.853 19.3644 141.325 19.7062 142.374 19.7062C143.307 19.7062 144.459 19.0368 144.459 17.5673V7.47413H141.394ZM123.024 17.2868C119.894 17.2868 118.993 16.1374 118.993 13.5781V13.5649C118.993 11.0813 119.852 9.86089 123.024 9.86089C126.2 9.86089 127.057 11.0813 127.057 13.5649V13.5781C127.057 16.1374 126.154 17.2868 123.024 17.2868ZM130.041 13.5649C130.04 9.28522 128.332 7.28931 123.024 7.28931C117.72 7.28931 116.011 9.28522 116.008 13.5649V13.5734C116.008 17.7868 117.764 19.8187 123.024 19.8187C128.286 19.8187 130.041 17.7868 130.041 13.5734V13.5649Z" fill="black"/>
<path d="M16.4541 10.8484C15.6076 10.8484 14.9202 10.162 14.9202 9.31645C14.9202 8.46904 15.6076 7.7826 16.4541 7.7826C17.3005 7.7826 17.986 8.46904 17.986 9.31645C17.986 10.162 17.3005 10.8484 16.4541 10.8484ZM18.805 0.736328C12.0305 0.736328 6.54175 6.22602 6.54175 12.9996C6.54175 18.8775 10.6784 23.7896 16.1975 24.9855V13.9805L16.1982 13.9798C16.2106 13.4486 16.6338 13.0206 17.1602 13.0007L17.6705 13H18.7092C18.7812 13 18.8399 12.9432 18.8436 12.8722L18.8444 0.738525M27.2558 19.6895C26.4103 19.6895 25.7229 19.0031 25.7229 18.1556C25.7229 17.3111 26.4103 16.6246 27.2558 16.6246C28.1013 16.6246 28.7887 17.3111 28.7887 18.1556C28.7887 19.0031 28.1013 19.6895 27.2558 19.6895ZM23.6626 19.6895C22.8171 19.6895 22.1306 19.0031 22.1306 18.1556C22.1306 17.3111 22.8171 16.6246 23.6626 16.6246C24.5091 16.6246 25.1955 17.3111 25.1955 18.1556C25.1955 19.0031 24.5091 19.6895 23.6626 19.6895ZM20.0675 19.6895C19.222 19.6895 18.5337 19.0031 18.5337 18.1556C18.5337 17.3111 19.222 16.6246 20.0675 16.6246C20.9149 16.6246 21.6014 17.3111 21.6014 18.1556C21.6014 19.0031 20.9149 19.6895 20.0675 19.6895ZM20.3184 0.828753V12.9992V13.4726V13.4812L20.3154 13.4842C20.3108 14.0315 19.8647 14.4737 19.3155 14.4737H18.844H17.8063C17.7306 14.4737 17.67 14.5343 17.67 14.6091V25.2116C18.044 25.2457 18.4208 25.2646 18.8043 25.2646C25.5778 25.2646 31.0675 19.773 31.0675 12.9995C31.0675 6.74001 26.3772 1.57485 20.3184 0.828753Z" fill="black"/>
</svg>
