<svg width="151" height="26" viewBox="0 0 151 26" fill="none" xmlns="http://www.w3.org/2000/svg">
<path d="M0.453857 0H26.4414V13.0748C26.4414 16.4276 24.659 19.5187 21.7549 21.2013L13.4539 26L5.1528 21.2013C2.24868 19.5312 0.466321 16.4276 0.466321 13.0748V0H0.453857Z" fill="#E5E5E5"/>
<path fill-rule="evenodd" clip-rule="evenodd" d="M7.5835 6.87988V10.9432C8.14438 10.32 9.15397 9.89618 10.3007 9.89618H11.5595V14.6201C11.5595 15.8789 11.223 16.9758 10.712 17.5865H16.1712C15.6602 16.9758 15.3237 15.8789 15.3237 14.6201V9.89618H16.5825C17.7417 9.89618 18.7513 10.32 19.2997 10.9432V6.87988H7.5835Z" fill="black"/>
<path d="M143.977 6.26953V7.3539C148.091 7.44115 150.546 9.17365 150.546 12.2273C150.546 15.281 148.091 16.8764 143.977 16.9761V18.0605H140.724V16.9761C136.636 16.8889 134.181 15.2935 134.181 12.2273C134.181 9.17365 136.636 7.44115 140.724 7.3539V6.26953H143.977ZM140.724 14.6828V9.67222C138.481 9.75946 137.484 10.794 137.484 12.2398C137.484 13.6732 138.481 14.5955 140.724 14.6828ZM143.977 9.67222V14.6828C146.246 14.5955 147.218 13.6732 147.218 12.2273C147.218 10.794 146.258 9.75946 143.977 9.67222Z" fill="black"/>
<path d="M126.577 6.26953V7.3539C130.691 7.44115 133.146 9.17365 133.146 12.2273C133.146 15.281 130.691 16.8764 126.577 16.9761V18.0605H123.324V16.9761C119.236 16.8889 116.781 15.2935 116.781 12.2273C116.781 9.17365 119.236 7.44115 123.324 7.3539V6.26953H126.577ZM123.312 14.6828V9.67222C121.068 9.75946 120.071 10.794 120.071 12.2398C120.084 13.6732 121.068 14.5955 123.312 14.6828ZM126.577 9.67222V14.6828C128.846 14.5955 129.818 13.6732 129.818 12.2273C129.818 10.794 128.846 9.75946 126.577 9.67222Z" fill="black"/>
<path d="M108.729 6.59375C113.091 6.59375 115.721 9.06163 115.721 12.2524C115.721 15.4432 113.091 17.9111 108.729 17.9111C104.342 17.9111 101.712 15.4432 101.712 12.2524C101.724 9.06163 104.354 6.59375 108.729 6.59375ZM108.729 15.3061C110.885 15.3061 112.306 13.9974 112.306 12.2524C112.306 10.495 110.885 9.22366 108.729 9.22366C106.548 9.22366 105.152 10.5075 105.152 12.2524C105.152 14.0099 106.548 15.3061 108.729 15.3061Z" fill="black"/>
<path d="M93.797 13.5359H92.8996V17.5867H89.6465V6.89258H92.8996V10.9185H93.797L97.7356 6.89258H101.824L96.6139 12.0028L102.036 17.5743H97.6983L93.797 13.5359Z" fill="black"/>
<path d="M83.1277 17.5867H76.5217V6.89258H79.7873V9.75931H83.1401C83.9503 9.75931 84.7978 9.78424 85.5208 10.046C87.0289 10.6069 87.9762 11.8408 87.9762 13.6232C87.9762 15.4928 86.8794 16.8638 85.1842 17.3374C84.5361 17.5119 83.8631 17.5867 83.1277 17.5867ZM82.5543 12.277H79.7624V14.9942H82.5543C83.1152 14.9942 83.4767 14.9942 83.8381 14.8322C84.3491 14.6078 84.6732 14.1342 84.6732 13.5733C84.6732 13.0374 84.3616 12.5886 83.8132 12.4017C83.4393 12.277 83.003 12.277 82.5543 12.277Z" fill="black"/>
<path d="M70.7883 13.598H65.5534V17.574H62.3003V6.87988H65.5534V10.7936H70.7883V6.87988H74.0414V17.574H70.7883V13.598Z" fill="black"/>
<path d="M51.3195 13.1119L56.9408 6.87988H59.82V17.574H56.5669V11.342L50.9456 17.574H48.0664V6.87988H51.3195V13.1119Z" fill="black"/>
<path d="M42.0837 17.5867H38.706V9.74684H34.0693V6.89258H46.7079V9.74684H42.0837V17.5867Z" fill="black"/>
</svg>
