<svg width="40" height="40" viewBox="0 0 40 40" fill="none" xmlns="http://www.w3.org/2000/svg">
<rect width="40" height="40" rx="20" fill="black"/>
<path d="M17.6351 22.3093C19.185 22.7193 20.815 22.7193 22.3649 22.3093C22.7959 22.1946 23.2558 22.3032 23.5904 22.5983L29.2541 27.5912C28.6917 28.284 28.0512 28.9133 27.3471 29.4646L22.6851 25.3551C22.4819 25.1747 22.2006 25.1091 21.9379 25.1788C21.5807 25.2731 21.3343 25.5949 21.3343 25.9638V31.9242C20.8971 31.9734 20.4516 32 20 32C19.5484 32 19.1029 31.9734 18.6657 31.9242V25.9638C18.6657 25.5949 18.4173 25.2731 18.0621 25.1788C17.7994 25.1091 17.5202 25.1747 17.3149 25.3551L12.6529 29.4646C11.9488 28.9133 11.3083 28.284 10.7459 27.5912L16.4096 22.5983C16.7442 22.3032 17.2041 22.1946 17.6351 22.3093Z" fill="white"/>
<path d="M23.3026 20.6876C22.8832 19.1425 22.0682 17.7331 20.9377 16.598C20.6226 16.2826 20.4869 15.8307 20.5756 15.3938L22.0745 8C22.9566 8.13997 23.8226 8.37916 24.6529 8.71232L23.4194 14.7982C23.3646 15.0641 23.4483 15.3401 23.6402 15.5324C23.9005 15.7941 24.3028 15.8462 24.6228 15.6618L29.7927 12.6816C30.054 13.0351 30.2998 13.407 30.5256 13.7975C30.7514 14.188 30.951 14.5865 31.127 14.9892L25.9572 17.9693C25.6372 18.1538 25.4822 18.5295 25.578 18.8837C25.649 19.1457 25.8454 19.3543 26.1045 19.4417L32 21.418C31.8738 22.3025 31.6483 23.171 31.3286 24.0037L24.166 21.6028C23.7427 21.4611 23.4186 21.1178 23.3026 20.6876Z" fill="white"/>
<path d="M19.0623 16.598C17.9318 17.7332 17.1168 19.1425 16.6974 20.6876C16.5814 21.1178 16.2573 21.4611 15.834 21.6028L8.67137 24.0037C8.35171 23.171 8.12617 22.3025 8 21.418L13.8955 19.4417C14.1535 19.3561 14.351 19.1457 14.422 18.8837C14.5188 18.5277 14.3628 18.1538 14.0428 17.9693L8.873 14.9892C9.04896 14.5865 9.24858 14.188 9.47439 13.7975C9.7002 13.407 9.94605 13.0351 10.2073 12.6816L15.3772 15.6618C15.6972 15.8463 16.1005 15.7924 16.3598 15.5324C16.5517 15.3401 16.6344 15.0659 16.5806 14.7982L15.3471 8.71233C16.1773 8.37917 17.0434 8.13998 17.9255 8.00001L19.4244 15.3938C19.5131 15.8307 19.3774 16.2826 19.0623 16.598Z" fill="white"/>
</svg>
