<svg width="1521" height="280" viewBox="0 0 1521 280" fill="none" xmlns="http://www.w3.org/2000/svg">
<path d="M79.6197 0C90.4244 0.0864374 101.233 -0.00720268 112.037 0.0792347C123.213 0.284524 134.396 0.100842 145.575 0.0324127C157.813 0.0540221 170.055 0.0360182 182.293 0.0252136C182.318 5.33391 182.297 10.6426 182.304 15.9513C192.986 15.7712 203.675 15.9405 214.361 15.8757C214.383 21.2276 214.329 26.5795 214.394 31.9278C219.782 31.7586 225.177 31.9963 230.565 31.8378C230.557 37.1357 230.579 42.4336 230.554 47.7315C235.895 47.4469 241.258 47.6991 246.61 47.5946C246.494 58.1292 246.595 68.6637 246.595 79.1983C251.879 79.1479 257.162 79.1839 262.446 79.1731C262.323 105.378 262.424 131.587 262.406 157.795C257.155 157.716 251.897 157.871 246.649 157.727C246.703 162.971 246.732 168.214 246.66 173.458C241.297 173.368 235.917 173.617 230.561 173.332C230.565 178.688 230.572 184.043 230.557 189.399C225.155 189.395 219.749 189.428 214.347 189.352C214.386 194.679 214.368 200.005 214.372 205.332C201.284 205.289 188.192 205.437 175.108 205.289C175.093 220.912 175.104 236.54 175.101 252.167C169.579 252.224 164.055 252.127 158.533 252.167C158.613 236.54 158.544 220.912 158.569 205.285C153.315 205.365 148.057 205.354 142.802 205.303C142.928 194.614 142.773 183.924 142.87 173.235C131.288 173.48 119.698 173.278 108.112 173.368C101.506 173.159 94.8903 173.332 88.2814 173.282C85.4002 173.332 82.5117 173.177 79.6377 173.39C79.5729 168.135 79.5584 162.873 79.6557 157.619C74.862 157.64 70.0683 157.608 65.2783 157.633C64.7812 157.633 64.295 157.557 63.8124 157.471C63.8412 152.169 63.7944 146.861 63.8917 141.559C54.985 141.779 46.0603 141.613 37.1465 141.603C30.109 141.905 23.05 141.646 16.0053 141.793C16.0377 136.532 15.9009 131.266 16.0774 126.011C10.7182 126.047 5.35912 126.015 0 126.022C0.0936405 110.395 0.0576245 94.7714 0.0108042 79.1443C5.35192 79.2199 10.6894 79.1299 16.0305 79.1947C15.8829 70.3204 16.1818 61.4426 16.0017 52.5684C15.9981 50.9152 16.0089 49.2621 16.0089 47.609C21.3789 47.663 26.7488 47.5262 32.1187 47.6486C31.9854 42.3832 32.0899 37.1105 32.1187 31.845C37.5102 31.8702 42.9018 31.845 48.2933 31.8774C48.2609 26.5507 48.2753 21.224 48.2717 15.8937C58.7054 16.0161 69.1463 16.0377 79.5837 16.0197C79.5332 10.6822 79.4684 5.33751 79.6197 0Z" fill="white"/>
<path d="M489.436 0C525.165 0.0591089 560.898 0.0236453 596.628 0.00788288C596.628 4.59868 596.628 9.18553 596.628 13.7724C606.266 13.7251 615.905 13.8 625.544 13.7409C625.512 18.4617 625.583 23.1865 625.492 27.9112C630.194 27.9112 634.895 27.9112 639.596 27.9112C639.568 32.64 639.584 37.3687 639.584 42.1013C644.313 42.0934 649.038 42.1013 653.766 42.0974C653.762 46.6961 653.77 51.2947 653.762 55.8934C658.361 55.8855 662.96 55.8934 667.558 55.8895C667.554 64.9528 667.562 74.0162 667.554 83.0796C672.283 83.0756 677.012 83.0796 681.744 83.0796C681.737 106.428 681.76 129.78 681.733 153.128C677.008 153.108 672.283 153.104 667.558 153.124C667.558 157.793 667.554 162.467 667.558 167.14C662.964 167.05 658.369 167.156 653.774 167.085C653.758 171.794 653.766 176.503 653.77 181.208C649.041 181.196 644.313 181.193 639.584 181.216C639.588 185.937 639.564 190.666 639.612 195.391C621.721 195.383 603.827 195.391 585.937 195.387C586.031 209.049 585.945 222.711 585.98 236.373C590.098 236.361 594.216 236.369 598.338 236.369C598.259 250.661 598.35 264.954 598.291 279.242C593.932 279.152 589.566 279.168 585.208 279.215C585.192 265.194 585.2 251.174 585.2 237.153C580.601 237.161 576.003 237.153 571.404 237.157C571.416 227.829 571.4 218.502 571.412 209.175C566.813 209.183 562.214 209.175 557.616 209.179C557.616 199.851 557.612 190.524 557.62 181.196C553.151 181.212 548.682 181.181 544.218 181.212C544.218 176.507 544.218 171.802 544.218 167.097C525.827 167.129 507.44 167.073 489.049 167.125C489.049 162.459 489.049 157.793 489.049 153.128C484.325 153.124 479.596 153.08 474.871 153.151C474.851 148.537 474.867 143.922 474.863 139.308C460.953 139.383 447.047 139.3 433.136 139.355C433.187 134.634 433.14 129.91 433.148 125.189C428.534 125.224 423.915 125.169 419.301 125.232C419.301 106.715 419.301 88.1984 419.301 69.6816C423.899 69.6855 428.502 69.6776 433.105 69.6855C433.109 60.4881 433.109 51.2947 433.101 42.0974C437.522 42.0895 441.94 42.1131 446.361 42.0856C446.282 37.3608 446.357 32.636 446.31 27.9112C451.027 27.9152 455.747 27.9073 460.464 27.9112C460.448 23.1983 460.515 18.4853 460.425 13.7763C470.095 13.7448 479.769 13.7645 489.443 13.7645C489.439 9.17371 489.451 4.58685 489.436 0Z" fill="white"/>
<path d="M945.328 0.0252024C950.794 0.00315081 956.259 0.0598544 961.722 0C961.735 4.37567 961.697 8.75134 961.744 13.1239C961.621 13.6814 960.969 13.6216 960.541 13.5838C945.079 13.5365 929.615 13.6342 914.154 13.5397C914.176 15.6724 914.147 17.8019 914.16 19.9347C925.605 19.9347 937.046 19.9347 948.491 19.9347C949.647 19.9315 950.81 19.9536 951.966 19.8717C951.912 24.2851 952.022 28.7112 951.909 33.1184C949.54 33.2286 947.155 33.1341 944.783 33.1656C944.837 35.4747 944.771 37.7839 944.808 40.0961C942.569 40.0961 940.329 40.0993 938.092 40.093C938.092 44.5663 938.089 49.0365 938.095 53.5098C934.548 53.4783 931.004 53.4878 927.457 53.513C927.514 51.2479 927.451 48.9766 927.514 46.7116C925.145 46.7085 922.776 46.7053 920.407 46.7085C920.4 42.1942 920.388 37.6799 920.407 33.1656C916.116 33.1656 911.826 33.1625 907.538 33.1688C907.532 35.4779 907.551 37.787 907.522 40.0961C909.69 40.0961 911.854 40.0961 914.018 40.0961C913.93 44.5379 913.924 48.9861 914.012 53.431C911.753 53.5791 909.488 53.4373 907.226 53.5098C907.22 55.7843 907.223 58.0619 907.223 60.3363C917.509 60.1536 927.807 60.3175 938.095 60.2513C938.089 66.977 938.098 73.6996 938.092 80.4222C940.345 80.4128 942.594 80.4411 944.843 80.4096C944.771 85.031 944.843 89.6555 944.793 94.2769C939.021 94.2832 933.247 94.2769 927.476 94.2801C927.498 91.9489 927.463 89.6146 927.495 87.2834C925.245 87.3086 922.996 87.2708 920.75 87.296C920.775 82.8006 920.766 78.3021 920.766 73.8067C918.476 73.8004 916.185 73.8036 913.898 73.8036C913.936 80.523 913.961 87.2456 913.902 93.965C916.185 93.965 918.472 93.9619 920.76 93.9682C920.76 96.2742 920.772 98.5833 920.756 100.892C918.517 100.889 916.277 100.896 914.034 100.886C914.043 103.094 914.05 105.303 914.018 107.511C918.517 107.59 923.018 107.546 927.52 107.517C927.4 105.211 927.539 102.899 927.444 100.59C935.613 100.618 943.785 100.593 951.956 100.603C951.956 102.905 951.95 105.205 951.959 107.508C954.158 107.511 956.357 107.52 958.559 107.505C958.54 105.205 958.556 102.905 958.515 100.603C960.969 100.656 963.423 100.606 965.88 100.615C965.792 98.5045 965.921 96.3907 965.786 94.2832C981.231 94.2769 996.68 94.2801 1012.13 94.2801C1012.13 91.8638 1012.13 89.4508 1012.13 87.0345C1014.32 87.0282 1016.51 87.044 1018.71 87.0251C1018.74 82.6179 1018.71 78.2108 1018.72 73.8036C1016.51 73.8036 1014.29 73.8036 1012.08 73.8036C1012.13 76.015 1012.07 78.2265 1012.12 80.438C1005.4 80.4443 998.684 80.4317 991.964 80.4443C991.977 78.2297 991.942 76.0182 991.983 73.8036C989.768 73.8004 987.557 73.8067 985.346 73.8036C985.352 76.0182 985.342 78.2328 985.355 80.4506C983.162 80.4222 980.97 80.4726 978.777 80.4128C978.831 82.7187 978.809 85.0247 978.777 87.3307C971.967 87.1763 965.153 87.2834 958.342 87.2047C958.439 89.5642 958.291 91.9268 958.43 94.2864C956.181 94.2675 953.935 94.2958 951.689 94.2675C951.745 89.6587 951.657 85.0468 951.736 80.4411C949.458 80.4947 947.174 80.501 944.897 80.4443C945.12 75.5079 944.947 70.5557 944.997 65.613C944.988 57.1137 944.997 48.6143 944.997 40.1119C947.316 40.0835 949.635 40.0993 951.953 40.0993C951.909 37.976 951.918 35.8559 951.941 33.7327C951.978 33.6256 952.057 33.4113 952.098 33.3042C954.083 32.9766 956.174 33.2601 958.203 33.1656C958.083 30.8533 958.238 28.5348 958.118 26.2225C959.236 26.6698 960.452 26.5155 961.627 26.5344C961.58 22.4013 961.662 18.2682 961.577 14.1351C961.637 13.6594 962.141 13.4641 962.566 13.5302C964.806 13.5743 967.043 13.5365 969.283 13.5649C969.283 9.05061 969.283 4.53633 969.283 0.0220515C975.079 0.0189013 980.879 0.0409537 986.675 0.0031509C986.593 2.23351 986.64 4.46702 986.621 6.70054C984.413 6.65643 982.202 6.66589 979.996 6.64069C979.99 11.0731 979.993 15.5054 979.993 19.941C977.829 20.0071 975.665 20.0166 973.501 19.9441C973.551 24.3513 973.472 28.7616 973.548 33.1656C971.286 33.1625 969.024 33.1656 966.762 33.1656C966.747 37.6736 966.743 42.1847 966.759 46.6927C964.343 46.7211 961.93 46.6896 959.52 46.7148C959.514 53.5382 959.523 60.3647 959.514 67.1881C961.93 67.1881 964.349 67.185 966.766 67.1881C966.762 60.3584 966.778 53.5287 966.762 46.699C969.071 46.699 971.381 46.7085 973.693 46.7116C973.693 42.1973 973.696 37.6799 973.69 33.1656C975.882 33.1593 978.075 33.1656 980.267 33.1656C980.242 28.7553 980.277 24.345 980.255 19.9347C982.444 19.9378 984.634 19.9315 986.823 19.9347C986.678 15.5306 986.861 11.1203 986.688 6.71944C999.263 6.69109 1011.84 6.74149 1024.41 6.69424C1024.41 8.99706 1024.41 11.303 1024.41 13.6058C1029.49 13.5019 1034.57 13.6436 1039.66 13.5302C1039.41 15.6503 1039.58 17.7956 1039.54 19.9252C1043.81 19.9441 1048.09 19.9284 1052.36 19.9347C1052.23 21.9666 1052.4 24.0079 1052.24 26.0398C1054.72 26.2005 1057.22 26.0934 1059.71 26.1186C1059.69 28.4655 1059.71 30.8155 1059.7 33.1656C1062.09 33.1656 1064.47 33.1656 1066.86 33.1656C1066.74 35.4716 1066.9 37.787 1066.78 40.0961C1069.1 40.0961 1071.43 40.0993 1073.76 40.093C1073.66 44.6073 1073.8 49.1278 1073.69 53.6421C1076.06 53.5854 1078.43 53.6862 1080.8 53.5697C1080.8 58.1091 1080.8 62.6486 1080.8 67.1881C1083.01 67.185 1085.21 67.1913 1087.42 67.1881C1087.42 71.5984 1087.42 76.0087 1087.42 80.4191C1089.72 80.4222 1092.03 80.4254 1094.34 80.4191C1094.32 87.1921 1094.34 93.965 1094.34 100.738C1096.57 100.662 1098.8 100.785 1101.02 100.637C1101.03 111.972 1101 123.306 1101.05 134.641C1098.81 134.575 1096.56 134.616 1094.32 134.603C1094.34 139.117 1094.32 143.632 1094.34 148.149C1092.03 148.149 1089.73 148.149 1087.42 148.149C1087.44 150.354 1087.43 152.559 1087.44 154.764C1085.23 154.764 1083.02 154.764 1080.81 154.764C1080.88 156.976 1080.75 159.191 1080.9 161.399C1069.42 161.377 1057.94 161.38 1046.46 161.399C1046.46 159.187 1046.46 156.976 1046.46 154.764C1028.4 154.764 1010.34 154.764 992.279 154.764C992.374 156.982 992.292 159.203 992.367 161.424C974.165 161.345 955.963 161.408 937.761 161.386C937.799 159.178 937.768 156.973 937.777 154.764C929.791 154.761 921.805 154.764 913.82 154.764C913.823 152.559 913.829 150.354 913.82 148.149C911.624 148.146 909.425 148.155 907.229 148.143C907.223 145.852 907.22 143.562 907.226 141.272C905.021 141.294 902.816 141.241 900.611 141.288C900.636 134.581 900.604 127.877 900.62 121.17C902.819 121.129 905.021 121.139 907.223 121.183C907.204 118.83 907.264 116.477 907.188 114.127C909.472 114.127 911.756 114.127 914.043 114.127C913.911 111.921 914.128 109.707 913.892 107.511C911.665 107.511 909.441 107.508 907.217 107.511C907.229 105.284 907.217 103.06 907.223 100.833C905.03 100.877 902.835 100.833 900.642 100.864C900.573 98.5644 900.62 96.2647 900.608 93.965C898.412 93.965 896.219 93.9651 894.027 93.9682C894.087 91.6559 894.061 89.3437 894.046 87.0345C891.822 87.0345 889.601 87.0345 887.377 87.0345C887.373 91.6591 887.38 96.2836 887.373 100.908C891.784 100.877 896.197 100.905 900.608 100.896C900.608 105.41 900.608 109.924 900.608 114.442C893.885 114.442 887.166 114.442 880.443 114.442C880.449 112.221 880.443 110.003 880.446 107.785C878.093 107.902 875.736 107.735 873.39 107.895C873.557 103.359 873.39 98.8164 873.494 94.2801C871.087 94.2801 868.677 94.2801 866.27 94.2801C866.27 101.034 866.27 107.785 866.27 114.539C868.696 114.454 871.125 114.555 873.55 114.482C873.553 116.703 873.569 118.921 873.541 121.142C880.459 121.126 887.38 121.211 894.298 121.104C894.241 123.41 894.25 125.716 894.282 128.022C882.629 128.025 870.976 127.988 859.321 128.041C859.355 125.719 859.33 123.394 859.34 121.073C857.056 121.111 854.775 121.038 852.491 121.12C852.589 118.896 852.485 116.666 852.579 114.442C850.235 114.442 847.888 114.442 845.545 114.442C845.661 109.899 845.652 105.35 845.551 100.807C847.873 100.817 850.198 100.713 852.513 100.848C852.541 98.6305 852.56 96.4159 852.538 94.1982C854.803 94.3147 857.075 94.2202 859.343 94.2801C859.33 89.6618 859.349 85.0405 859.336 80.4191C861.69 80.4254 864.046 80.4191 866.399 80.4191C866.223 78.2171 866.396 76.0056 866.298 73.7973C868.73 73.8067 871.159 73.8067 873.591 73.7973C873.506 76.0056 873.588 78.2171 873.538 80.4285C882.56 80.4191 891.582 80.4285 900.608 80.4222C900.608 76.0119 900.608 71.5984 900.608 67.1849C902.813 67.1912 905.018 67.1913 907.223 67.1881C907.223 64.9798 907.223 62.7683 907.223 60.56C902.813 60.5821 898.402 60.5726 893.992 60.5695C894.083 55.9512 894.005 51.333 894.058 46.7148C891.831 46.7022 889.604 46.7116 887.377 46.699C887.377 53.5287 887.377 60.3584 887.377 67.1881C889.673 67.1881 891.973 67.1881 894.272 67.1913C894.231 69.3964 894.197 71.6016 894.279 73.8067C889.667 73.8004 885.055 73.8036 880.446 73.8067C880.449 71.5984 880.443 69.3933 880.446 67.1881C878.099 67.1881 875.752 67.185 873.408 67.1913C873.503 64.9073 873.399 62.6203 873.478 60.3332C871.077 60.2922 868.674 60.3111 866.27 60.2985C866.273 62.5951 866.267 64.8916 866.27 67.1913C863.86 67.1818 861.453 67.1944 859.043 67.1849C859.138 69.3901 859.018 71.6016 859.106 73.8099C856.911 73.7973 854.715 73.8067 852.519 73.8036C852.576 78.3651 852.5 82.9298 852.551 87.4913C850.194 87.4094 847.835 87.5071 845.475 87.4189C845.526 89.7091 845.494 91.9993 845.501 94.2895C843.207 94.2706 840.914 94.2832 838.62 94.2801C838.683 89.6618 838.731 85.0341 838.602 80.4159C840.952 80.4254 843.299 80.4128 845.649 80.438C845.535 76.0213 845.702 71.6016 845.567 67.1849C847.888 67.1912 850.21 67.185 852.529 67.1881C852.497 62.6549 852.626 58.1186 852.494 53.5886C859.488 53.6799 866.487 53.5634 873.484 53.639C873.421 49.1278 873.481 44.6199 873.434 40.1119C871.052 40.0741 868.671 40.115 866.292 40.0867C866.276 37.7807 866.295 35.4716 866.279 33.1656C868.686 33.1751 871.093 33.1562 873.5 33.1719C873.509 35.481 873.569 37.7902 873.443 40.0961C875.774 40.0961 878.109 40.0993 880.443 40.093C880.449 37.7839 880.446 35.4747 880.446 33.1656C887.166 33.1688 893.888 33.1625 900.608 33.1688C900.608 30.9605 900.604 28.7553 900.611 26.5501C893.888 26.5501 887.169 26.5501 880.446 26.5501C880.44 24.3387 880.456 22.1272 880.437 19.9158C884.979 19.9567 889.522 19.9252 894.065 19.9315C894.008 17.802 894.109 15.6724 894.005 13.546C898.412 13.5995 902.822 13.5208 907.229 13.5838C907.214 11.2841 907.232 8.98131 907.217 6.68164C919.918 6.72574 932.62 6.71629 945.322 6.68794C945.331 4.46702 945.341 2.24611 945.328 0.0252024ZM1005.2 13.6058C1005.2 15.7133 1005.2 17.8208 1005.19 19.9284C1002.99 20.026 1000.78 19.9819 998.58 19.9504C998.577 24.2568 998.586 28.56 998.577 32.8663C996.371 32.8317 994.166 32.942 991.964 32.8853C991.964 37.4909 991.967 42.0934 991.961 46.699C989.759 46.7085 987.554 46.699 985.352 46.7085C985.349 51.2227 985.342 55.7402 985.355 60.2576C987.557 60.2576 989.762 60.2576 991.967 60.2576C991.958 55.7402 991.974 51.2227 991.964 46.7053C994.28 46.7053 996.595 46.7053 998.91 46.7116C998.898 42.169 998.907 37.6232 998.91 33.0806C1001.08 32.9672 1003.26 33.0491 1005.43 33.0365C1005.45 28.6702 1005.36 24.2977 1005.49 19.9347C1011.79 19.9347 1018.09 19.9347 1024.39 19.9347C1024.35 17.8366 1024.39 15.7385 1024.35 13.6373C1017.96 13.5428 1011.58 13.6153 1005.2 13.6058ZM900.611 20.0827C900.608 22.2375 900.601 24.3922 900.614 26.547C905.15 26.5281 909.686 26.5155 914.22 26.547C914.116 24.367 914.207 22.1839 914.166 20.0008C909.649 20.1331 905.128 20.0103 900.611 20.0827ZM1018.74 32.8537C1018.74 37.472 1018.74 42.0902 1018.74 46.7085C1016.53 46.7085 1014.32 46.6927 1012.11 46.7116C1012.13 48.964 1012.11 51.2164 1012.11 53.4657C1009.7 53.4941 1007.29 53.5067 1004.88 53.4783C1004.88 55.737 1004.88 57.9989 1004.88 60.2576C1009.5 60.2639 1014.11 60.2544 1018.73 60.2607C1018.67 58.0367 1018.79 55.8095 1018.66 53.5886C1023.21 53.6642 1027.75 53.5949 1032.3 53.6358C1032.37 49.1215 1032.29 44.6104 1032.31 40.0961C1029.99 40.0961 1027.68 40.0961 1025.36 40.0961C1025.38 37.6894 1025.35 35.2794 1025.38 32.8727C1023.16 32.8632 1020.95 32.8789 1018.74 32.8537ZM1039.22 32.8632C1039.22 37.494 1039.21 42.1217 1039.22 46.7526C1043.94 46.8219 1048.67 46.8061 1053.38 46.7652C1053.33 55.7748 1053.37 64.7876 1053.37 73.7973C1055.59 73.8004 1057.8 73.813 1060.01 73.791C1060.01 75.9993 1060.01 78.2076 1060.01 80.4159C1062.27 80.4285 1064.54 80.46 1066.81 80.4222C1066.79 87.1732 1066.73 93.9273 1066.83 100.681C1064.56 100.581 1062.29 100.675 1060.02 100.64C1060 105.24 1060.02 109.842 1060.01 114.442C1057.8 114.438 1055.6 114.442 1053.39 114.442C1053.4 118.956 1053.39 123.473 1053.39 127.988C1055.6 127.984 1057.8 127.988 1060.01 127.988C1060.01 125.71 1060.01 123.432 1060.01 121.155C1062.28 121.186 1064.55 121.057 1066.82 121.215C1066.76 116.662 1066.82 112.107 1066.78 107.555C1069.07 107.565 1071.35 107.536 1073.64 107.546C1073.66 105.246 1073.7 102.946 1073.65 100.65C1075.93 100.754 1078.22 100.489 1080.49 100.795C1080.49 98.6211 1080.48 96.4506 1080.49 94.2801C1078.2 94.2801 1075.91 94.2801 1073.62 94.2801C1073.75 87.4567 1073.61 80.627 1073.68 73.8036C1071.37 73.8036 1069.05 73.8036 1066.74 73.8036C1066.88 71.5984 1066.7 69.387 1066.83 67.1818C1064.55 67.1913 1062.28 67.185 1060.01 67.1881C1060.01 58.1564 1060.01 49.1278 1060.01 40.0961C1055.41 40.0867 1050.81 40.1182 1046.22 40.0772C1046.17 37.6799 1046.27 35.2794 1046.18 32.8821C1043.86 32.8506 1041.54 32.8758 1039.22 32.8632ZM1032.63 53.5476C1032.57 60.2985 1032.61 67.0495 1032.61 73.8004C1034.81 73.8067 1037.01 73.8036 1039.22 73.8036C1039.23 67.0211 1039.19 60.2418 1039.22 53.4625C1037.02 53.5634 1034.82 53.4058 1032.63 53.5476ZM1046.75 87.3212C1046.72 91.763 1046.7 96.208 1046.76 100.653C1044.37 100.625 1041.98 100.647 1039.59 100.615C1039.63 102.912 1039.61 105.211 1039.57 107.511C1037.25 107.511 1034.92 107.508 1032.6 107.511C1032.6 109.82 1032.6 112.132 1032.61 114.442C1014.66 114.419 996.721 114.486 978.781 114.407C978.916 116.647 978.673 118.899 978.954 121.126C965.329 120.997 951.701 121.129 938.076 121.066C938.102 123.379 938.086 125.694 938.095 128.006C932.217 128.006 926.339 128.025 920.46 128.006C920.445 132.407 920.457 136.811 920.457 141.215C922.798 141.215 925.142 141.218 927.485 141.209C927.454 139.007 927.517 136.805 927.444 134.606C933.288 134.616 939.132 134.609 944.975 134.609C944.871 132.401 945.12 130.18 944.846 127.988C958.348 127.988 971.847 127.988 985.349 127.988C985.346 125.7 985.349 123.417 985.349 121.129C1003.41 121.211 1021.47 121.111 1039.52 121.174C1039.49 118.918 1039.55 116.662 1039.5 114.41C1041.83 114.476 1044.15 114.419 1046.48 114.448C1046.44 112.158 1046.47 109.864 1046.46 107.571C1048.77 107.555 1051.08 107.502 1053.39 107.587C1053.39 100.839 1053.39 94.0911 1053.39 87.3433C1051.18 87.2992 1048.96 87.3338 1046.75 87.3212ZM1073.72 114.442C1073.7 121.177 1073.76 127.915 1073.71 134.65C1075.97 134.628 1078.23 134.631 1080.49 134.66C1080.49 127.918 1080.48 121.18 1080.49 114.442C1078.23 114.442 1075.97 114.442 1073.72 114.442ZM999.241 134.603C999.339 136.827 999.197 139.057 999.333 141.285C992.49 141.253 985.648 141.297 978.803 141.266C978.881 143.559 978.749 145.856 978.881 148.149C969.906 148.149 960.931 148.146 951.956 148.152C951.956 150.37 951.956 152.591 951.956 154.809C963.086 154.818 974.219 154.787 985.349 154.818C985.346 152.581 985.349 150.348 985.349 148.111C992.194 148.168 999.04 148.077 1005.88 148.14C1005.79 145.834 1005.89 143.524 1005.83 141.219C1017.15 141.193 1028.48 141.269 1039.8 141.181C1039.67 143.496 1039.8 145.818 1039.74 148.133C1046.49 148.127 1053.25 148.111 1060.01 148.136C1060.01 145.84 1060.01 143.547 1060.01 141.253C1055.49 141.31 1050.98 141.237 1046.46 141.285C1046.46 139.057 1046.46 136.833 1046.46 134.606C1030.72 134.609 1014.98 134.606 999.241 134.603Z" fill="white"/>
<path d="M873.406 26.531C875.741 26.5499 878.078 26.5184 880.412 26.5499C880.362 28.7551 880.39 30.9571 880.412 33.1622C878.1 33.1685 875.788 33.1622 873.479 33.1654C873.391 30.9539 873.526 28.7425 873.406 26.531Z" fill="white"/>
<path d="M859.026 40.0959C861.442 40.0959 863.855 40.0959 866.271 40.0959C866.265 42.2948 866.281 44.4968 866.268 46.6957C863.852 46.7177 861.436 46.6957 859.02 46.7114C859.032 44.5063 859.023 42.3011 859.026 40.0959Z" fill="white"/>
<path d="M999.151 161.374C1012.65 161.386 1026.14 161.367 1039.63 161.38C1039.57 163.585 1039.64 165.793 1039.6 168.002C1048.74 168.024 1057.88 168.039 1067.02 167.995C1066.98 170.304 1066.92 172.62 1067.06 174.926C1055.58 174.92 1044.09 174.897 1032.6 174.923C1032.6 172.651 1032.6 170.38 1032.59 168.109C1021.44 168.118 1010.29 168.159 999.145 168.099C999.173 165.856 999.151 163.616 999.151 161.374Z" fill="white"/>
<path d="M973.062 167.995C979.448 168.042 985.834 168.02 992.219 168.011C992.172 172.503 992.254 176.995 992.197 181.488C994.497 181.491 996.793 181.484 999.093 181.522C999.058 179.216 999.153 176.91 999.049 174.611C1008 174.601 1016.95 174.63 1025.9 174.595C1025.63 176.895 1025.96 179.216 1025.72 181.519C1037.25 181.431 1048.79 181.525 1060.32 181.466C1060.32 183.699 1060.32 185.933 1060.32 188.166C1044.26 188.144 1028.19 188.166 1012.13 188.157C1012.18 185.951 1012.03 183.74 1012.21 181.541C1007.88 181.544 1003.55 181.538 999.228 181.544C999.191 183.775 999.213 186.005 999.209 188.238C1001.42 188.21 1003.63 188.27 1005.84 188.204C1005.81 197.191 1005.82 206.179 1005.84 215.167C1008.04 215.189 1010.24 215.208 1012.44 215.135C1012.44 221.892 1012.44 228.65 1012.44 235.407C1014.54 235.382 1016.65 235.432 1018.75 235.366C1018.76 242.063 1018.71 248.767 1018.79 255.464C1016.67 255.553 1014.54 255.565 1012.42 255.546C1012.33 248.843 1012.44 242.136 1012.36 235.432C1010.18 235.388 1008 235.413 1005.82 235.416C1005.82 228.694 1005.82 221.971 1005.82 215.249C1003.54 215.252 1001.25 215.239 998.964 215.255C999.168 210.845 998.961 206.422 999.061 202.005C996.68 202.021 994.298 202.014 991.917 202.018C992.021 199.708 991.942 197.396 991.964 195.087C989.759 195.084 987.554 195.087 985.348 195.087C985.348 190.57 985.348 186.052 985.348 181.538C983.25 181.551 981.152 181.529 979.054 181.551C979.073 179.342 979.067 177.134 979.064 174.926C977.063 174.926 975.063 174.922 973.066 174.935C973.072 172.623 973.066 170.307 973.062 167.995Z" fill="white"/>
<path d="M1018.93 255.386C1021.19 255.304 1023.45 255.38 1025.71 255.358C1025.67 257.629 1025.68 259.9 1025.72 262.175C1023.45 262.118 1021.19 262.137 1018.92 262.153C1018.93 259.897 1018.94 257.642 1018.93 255.386Z" fill="white"/>
<path d="M1386.93 0.389362C1389.9 0.229766 1392.89 0.478736 1395.85 0.0605948C1398.68 -0.0383547 1401.52 0.00632985 1404.34 0.038249C1404.45 1.19053 1404.42 2.35239 1404.38 3.50787C1402.73 3.53021 1401 3.36423 1399.51 4.21647C1399.5 5.35279 1399.49 6.48912 1399.52 7.62225C1395.47 8.59578 1391.3 8.05635 1387.19 8.17126C1387.11 6.59764 1387.37 4.98572 1386.95 3.44403C1386.78 2.43538 1386.86 1.40439 1386.93 0.389362Z" fill="white"/>
<path d="M1362.92 0.647705C1368.35 0.647705 1373.78 0.647705 1379.2 0.647705C1379.31 2.349 1378.96 4.04391 1379.17 5.73881C1379.23 8.04019 1379.21 10.3448 1379.18 12.6493C1377.47 12.6334 1375.77 12.7163 1374.08 12.477C1370.36 12.4259 1366.64 12.477 1362.92 12.4578C1362.92 10.8874 1362.93 9.31695 1362.92 7.74653C1360.68 7.78164 1358.44 7.72419 1356.22 8.07211C1352.58 8.1136 1348.95 8.0753 1345.32 8.14233C1345.4 6.39635 1345.35 4.64399 1345.38 2.89482C1351.23 2.8597 1357.08 2.89801 1362.92 2.89162C1362.92 2.14152 1362.92 1.39461 1362.92 0.647705Z" fill="white"/>
<path d="M1404.64 3.84937C1412.79 3.88767 1420.94 3.89086 1429.08 3.89405C1429.08 5.1006 1429.05 6.30714 1429.08 7.51369C1432.46 7.67328 1435.84 7.65094 1439.22 7.68924C1440.08 7.76585 1440.95 7.73074 1441.79 7.53284C1441.73 9.25647 1441.82 10.9865 1441.7 12.7069C1439.38 12.8155 1437.06 12.7452 1434.73 12.7484C1432.85 12.8378 1430.99 12.193 1429.11 12.5282C1427.6 12.8729 1426.05 12.7612 1424.53 12.7772C1424.53 13.9486 1424.53 15.1168 1424.53 16.2883C1423.14 16.2883 1421.76 16.2851 1420.38 16.2915C1420.41 17.6768 1420.49 19.0652 1420.41 20.4505C1419.07 20.4952 1417.72 20.4314 1416.37 20.4729C1416.3 20.7027 1416.16 21.1591 1416.09 21.389C1414.97 21.4017 1413.85 21.3921 1412.72 21.3953C1412.87 23.9489 1412.5 26.5343 1412.99 29.0655C1412.84 28.4718 1412.7 27.8717 1412.46 27.31C1412.09 29.2826 1412.12 31.2999 1411.92 33.2916C1410.72 33.6076 1409.48 33.7353 1408.24 33.7672C1408.29 35.9281 1407.87 38.0859 1408.19 40.2404C1408.19 42.0694 1408.81 43.8345 1408.69 45.6667C1410.05 45.6794 1411.42 45.6858 1412.77 45.4975C1412.82 42.9025 1412.73 40.3074 1412.86 37.7188C1414.19 37.7156 1415.53 37.6422 1416.87 37.7092C1416.75 35.7398 1417.17 33.7608 1416.86 31.8042C1416.37 32.5032 1416.42 33.3586 1416.36 34.1694C1416.09 30.9519 1416.34 27.7345 1416.5 24.517C1416.69 25.066 1416.82 25.6246 1416.99 26.1768C1417.6 24.6415 1419.41 25.1267 1420.7 24.9256C1420.7 23.4829 1420.7 22.0369 1420.7 20.5942C1422.16 20.5974 1423.61 20.4537 1425.07 20.3739C1425.04 19.1387 1425.01 17.9034 1424.98 16.6681C1430.44 16.5372 1435.9 16.6298 1441.36 16.6202C1441.27 17.9321 1441.23 19.2504 1441.33 20.5654C1443.71 20.4058 1446.1 20.4346 1448.48 20.441C1449.21 20.3356 1449.66 21.1176 1450.37 21.0634C1451.66 21.0921 1452.96 21.0793 1454.25 21.0538C1454.15 22.8764 1454.31 24.6894 1454.48 26.5024C1455.8 26.5024 1457.12 26.5024 1458.45 26.5024C1458.84 24.45 1458.97 22.3625 1458.95 20.2782C1457.43 20.5495 1455.87 20.425 1454.33 20.4058C1454.24 19.1514 1454.22 17.8938 1454.21 16.6394C1451.26 16.6713 1448.3 16.5277 1445.35 16.6521C1445.57 15.1583 1445.62 13.6454 1445.6 12.1388C1447.39 12.11 1449.18 12.1994 1450.97 12.0877C1452.05 11.9409 1453.16 11.8866 1454.24 12.1132C1454.24 13.4985 1454.11 14.8774 1454.14 16.2627C1455.53 16.4957 1456.93 16.4734 1458.33 16.566C1458.56 17.1629 1458.86 17.7406 1459.12 18.3279C1459.27 19.0365 1459.14 19.7707 1459.15 20.492C1462.82 20.6899 1466.5 20.5942 1470.17 20.7633C1470.17 22.1454 1470.19 23.5275 1470.15 24.9096C1471.75 24.9033 1473.36 24.9064 1474.96 24.9064C1474.96 26.2375 1474.96 27.5685 1474.96 28.9027C1476.34 28.8102 1477.72 28.7208 1479.11 28.7304C1479.21 31.718 1479 34.6929 1478.87 37.6741C1481.61 37.6805 1484.35 37.6582 1487.09 37.6869C1487.12 39.069 1487.05 40.4511 1486.89 41.8236C1488.41 41.8268 1489.93 41.8108 1491.46 41.8364C1491.66 44.1856 1491.13 46.503 1491.24 48.849C1491.25 50.5503 1491.2 52.2516 1491.2 53.9529C1492.65 53.9529 1494.12 53.9529 1495.58 53.9529C1495.57 55.3956 1495.64 56.8384 1495.76 58.2748C1497.02 58.2652 1498.27 58.2173 1499.53 58.2013C1499.47 59.6569 1499.49 61.1156 1499.47 62.5711C1500.87 62.5711 1502.28 62.5679 1503.69 62.5711C1503.69 65.3768 1503.69 68.1793 1503.69 70.985C1505.03 70.9594 1506.37 70.9211 1507.7 71.0392C1507.69 71.9202 1507.64 72.8107 1507.76 73.6885C1508.14 75.5845 1507.98 77.5316 1508.04 79.4563C1509.42 79.3925 1510.81 79.118 1512.19 79.3765C1512 82.1822 1512.4 84.9815 1512.24 87.7872C1513.67 87.7808 1515.11 87.816 1516.54 87.7138C1516.41 90.3025 1516.67 92.9039 1516.4 95.4861C1516.31 95.3202 1516.15 94.9914 1516.06 94.8286C1515.91 92.5783 1516.12 90.3152 1515.97 88.0649C1515.88 91.9335 1516.03 95.8021 1515.81 99.6707C1514.53 99.6229 1513.23 99.6452 1511.94 99.6452C1511.93 101.193 1511.96 102.741 1511.95 104.289C1514.69 104.283 1517.43 104.222 1520.17 104.331C1520.24 108.707 1520.12 113.09 1520.13 117.469C1520.55 122.78 1520.23 128.111 1520.24 133.432C1518.81 133.441 1517.38 133.409 1515.95 133.454C1516.13 137.584 1516.31 141.743 1515.85 145.864C1514.46 145.89 1513.07 145.877 1511.68 145.88C1511.82 147.259 1511.83 148.648 1511.92 150.03C1510.49 150.03 1509.07 150.03 1507.64 150.03C1508.03 151.37 1508.27 152.749 1508.45 154.131C1506.97 154.217 1505.49 154.163 1504.01 154.179C1504 155.769 1504.01 157.358 1504.01 158.951C1491.87 158.865 1479.73 158.983 1467.6 158.935C1467.13 158.916 1466.66 158.881 1466.19 158.849C1466.16 157.486 1466.15 156.123 1466.03 154.77C1463.47 154.843 1460.89 154.907 1458.36 154.505C1444.25 154.492 1430.15 154.502 1416.04 154.498C1416.01 155.935 1416.51 157.307 1416.49 158.747C1420.23 158.609 1423.98 158.712 1427.72 158.798C1434.85 158.68 1441.98 158.744 1449.11 158.728C1453.47 158.795 1457.84 158.498 1462.21 158.664C1462.22 160.119 1462.15 161.572 1462.09 163.027C1469.23 162.944 1476.37 162.925 1483.51 163.04C1483.4 164.432 1483.67 165.814 1483.75 167.202C1484.86 167.221 1485.98 167.218 1487.1 167.234C1487.07 168.607 1487.15 169.982 1486.99 171.348C1482.78 171.534 1478.57 171.307 1474.37 171.467C1474.74 172.778 1475.62 174.78 1474.14 175.677C1474.05 174.467 1474.07 173.254 1473.89 172.057C1473.85 173.241 1473.79 174.429 1473.83 175.619C1470.7 175.942 1467.56 175.648 1464.43 175.744C1456.53 175.709 1448.63 175.792 1440.74 175.702C1440.73 174.272 1440.68 172.842 1440.7 171.415C1438.19 171.428 1435.67 171.39 1433.16 171.431C1431.48 171.591 1429.8 171.693 1428.12 171.738C1428.25 173.174 1427.89 174.585 1427.88 176.018C1430.91 175.817 1433.94 175.881 1436.98 175.884C1438.27 175.897 1439.56 175.756 1440.85 175.961C1440.96 177.206 1440.95 178.463 1440.88 179.714C1451.92 179.711 1462.96 179.714 1474 179.714C1474.01 178.39 1473.99 177.065 1474.03 175.741C1477.08 175.993 1480.15 175.651 1483.2 175.76C1483.14 177.049 1482.92 178.323 1482.88 179.616C1481.62 179.73 1480.37 179.718 1479.11 179.714C1479.1 181.036 1479.12 182.361 1479.09 183.685C1477.29 183.676 1475.48 183.714 1473.68 183.717C1471.23 183.647 1468.79 184.068 1466.34 183.918C1466.36 185.358 1466.29 186.804 1466.43 188.24C1468.08 188.09 1469.73 188.084 1471.38 188.24C1471.35 189.179 1471.35 190.12 1471.2 191.055C1470.96 190.187 1471.06 189.281 1470.98 188.4C1470.65 189.657 1470.56 190.969 1470.49 192.265C1462.73 192.048 1454.95 192.217 1447.19 192.163C1443.47 192.224 1439.73 191.984 1436.02 192.431C1433.66 192.437 1431.29 192.329 1428.93 192.236C1429.04 190.947 1428.99 189.654 1429 188.365C1427.65 188.39 1426.3 188.262 1424.97 188.441C1423.52 188.776 1422.04 188.61 1420.57 188.655C1420.57 189.099 1420.57 189.549 1420.57 189.999C1420.24 190.142 1419.92 190.302 1419.6 190.478C1419.27 191.454 1419.72 192.437 1419.72 193.424C1419.73 194.493 1419.71 195.562 1419.73 196.635C1421.22 196.625 1422.72 196.632 1424.21 196.632C1424.25 199.399 1424.3 202.166 1424.1 204.931C1424.33 207.724 1424.18 210.529 1424.21 213.332C1425.7 213.383 1427.19 213.437 1428.68 213.52C1428.62 217.574 1428.79 221.628 1428.68 225.681C1430.06 225.675 1431.44 225.678 1432.83 225.678C1432.75 231.21 1432.98 236.751 1432.7 242.276C1434.15 242.276 1435.6 242.273 1437.05 242.276C1437.01 246.432 1437.04 250.591 1436.99 254.747C1438.4 254.766 1439.83 254.654 1441.22 254.942C1441.57 255.286 1441.36 255.858 1441.43 256.301C1441.33 258.753 1441.3 261.207 1441.26 263.662C1439.86 263.662 1438.47 263.659 1437.07 263.662C1437.05 262.178 1437.05 260.697 1437.02 259.216C1435.74 259.014 1434.45 258.804 1433.15 258.871C1433.13 255.963 1433.2 253.058 1433.12 250.154C1431.75 250.262 1430.37 250.103 1429 250.189C1428.99 244.689 1429.02 239.193 1428.98 233.696C1427.6 233.639 1426.23 233.661 1424.85 233.658C1424.82 231.031 1424.91 228.404 1424.81 225.783C1423.43 225.646 1422.05 225.681 1420.68 225.678C1420.72 221.679 1420.69 217.679 1420.69 213.68C1419.29 213.597 1417.89 213.51 1416.49 213.549C1416.3 210.58 1416.07 207.574 1416.51 204.618C1415.03 204.602 1413.56 204.611 1412.08 204.611C1412.08 203.331 1412.08 202.055 1412.08 200.781C1410.61 200.759 1409.14 200.842 1407.68 200.695C1407.6 197.959 1407.6 195.218 1407.67 192.482C1406.3 192.482 1404.93 192.482 1403.56 192.482C1403.41 189.609 1403.45 186.73 1403.5 183.858C1403.72 182.479 1403.78 181.087 1403.72 179.695C1402.36 179.711 1400.99 179.718 1399.63 179.714C1399.63 178.38 1399.54 177.03 1399.83 175.718C1398.44 175.779 1397.04 175.785 1395.65 175.836C1395.65 174.263 1395.65 172.689 1395.8 171.125C1394.4 171.154 1393 171.131 1391.6 171.096C1391.47 169.823 1391.45 168.54 1391.57 167.266C1390.1 167.269 1388.65 167.307 1387.18 167.339C1387.19 165.884 1387.17 164.428 1387.19 162.976C1391.44 162.804 1395.7 163.184 1399.95 163.078C1402.58 163.024 1405.2 163.123 1407.82 163.139C1407.82 165.472 1408.05 167.825 1407.71 170.145C1407.52 171.518 1407.78 172.89 1407.92 174.256C1407.95 176.095 1407.92 177.937 1407.93 179.775C1409.21 179.679 1410.5 179.724 1411.79 179.714C1412.23 181.138 1412.05 182.635 1412.06 184.1C1413.43 183.902 1414.86 184.196 1416.19 183.829C1416.57 182.549 1416.16 181.16 1416.31 179.836C1418.82 179.606 1421.34 179.759 1423.85 179.714C1423.81 178.339 1423.86 176.966 1423.9 175.594C1421.46 175.779 1419.01 175.836 1416.56 175.814C1416.64 177.011 1416.66 178.208 1416.65 179.408C1415.22 179.963 1413.65 179.625 1412.16 179.705C1412.15 176.625 1412.54 173.525 1412.09 170.461C1412.06 168.016 1411.82 165.562 1412.07 163.123C1413.54 163.129 1415.03 162.973 1416.49 163.219C1416.61 164.572 1416.67 165.929 1416.68 167.288C1427.81 167.304 1438.93 167.288 1450.06 167.301C1450.06 165.874 1450.06 164.451 1450.06 163.027C1441.98 163.056 1433.89 163.027 1425.81 163.011C1422.56 163.014 1419.31 163.148 1416.07 162.883C1416.1 161.584 1416.16 160.285 1416.23 158.989C1412.07 158.945 1407.92 158.957 1403.77 158.967C1402.27 159.034 1400.82 158.479 1399.32 158.645C1395.69 158.52 1392.09 158.903 1388.46 158.836C1385.31 158.865 1382.15 158.833 1379 158.839C1378.98 160.196 1379.04 161.552 1379.19 162.903C1376.54 162.89 1373.88 162.982 1371.23 162.8C1365.38 162.778 1359.53 162.852 1353.67 162.951C1353.66 161.479 1353.67 160.008 1353.68 158.539C1351.13 158.744 1348.57 158.91 1346.02 158.785C1342.94 158.533 1339.84 158.696 1336.76 158.641C1336.74 157.157 1336.77 155.673 1336.75 154.189C1334.07 154.166 1331.39 154.186 1328.72 154.179C1328.71 152.893 1328.58 151.619 1328.42 150.349C1327.07 150.352 1325.73 150.326 1324.39 150.39C1324.63 149.008 1324.49 147.61 1324.27 146.238C1323.01 146.305 1321.75 146.356 1320.49 146.432C1320.38 145.29 1319.95 144.188 1320.03 143.036C1320.1 141.332 1320.38 139.637 1320.27 137.929C1318.81 137.971 1317.35 138.098 1315.9 138.041C1315.91 132.512 1315.65 126.949 1316.45 121.465C1317.67 121.178 1319.06 121.449 1320.19 120.964C1320.44 119.496 1320.26 117.996 1320.33 116.514C1321.68 116.511 1323.04 116.514 1324.39 116.514C1324.41 114.063 1324.66 111.609 1325.33 109.24C1327.79 108.879 1330.27 108.672 1332.72 108.139C1332.68 106.932 1332.58 105.726 1332.77 104.526C1334.09 104.36 1335.41 104.583 1336.73 104.577C1339.82 104.593 1342.91 104.577 1346 104.58C1346.02 103.096 1346.1 101.548 1345.4 100.191C1345.33 98.9302 1345.39 97.6662 1345.36 96.4086C1342.62 96.0958 1339.96 96.9576 1337.22 96.7246C1337.3 98.0141 1337.25 99.3069 1337.32 100.596C1334.26 100.81 1331.19 100.6 1328.13 100.386C1328.13 99.0579 1328.13 97.7332 1328.13 96.4086C1325.58 96.399 1323.02 96.4277 1320.47 96.3958C1320.3 95.001 1320.2 93.6029 1320.13 92.2016C1318.52 91.9782 1316.9 91.924 1315.28 91.7835C1315.31 90.1652 1313.68 89.23 1313.06 87.8447C1311.13 87.733 1309.21 87.8096 1307.28 87.7872C1307.22 89.2683 1307.17 90.7493 1307.15 92.2336C1308.72 92.2719 1310.28 92.2495 1311.85 92.2559C1311.49 93.6157 1311.51 95.0233 1311.52 96.4182C1314.39 96.5139 1317.26 96.3895 1320.12 96.4086C1320.17 97.7843 1320.15 99.1632 1320.15 100.542C1321.63 100.466 1323.13 100.469 1324.62 100.443C1324.63 103.3 1324.54 106.157 1324.29 109.004C1323.11 109.017 1321.93 109.116 1320.75 109.109C1320.37 110.443 1320.35 111.835 1320.32 113.211C1318.12 113.345 1315.78 112.754 1313.7 113.693C1312.94 113.916 1312.14 113.779 1311.37 113.846C1311.26 115.295 1311.95 116.645 1311.97 118.082C1311.85 121.05 1311.74 124.031 1311.99 126.994C1312.52 124.354 1311.93 121.599 1312.31 118.928C1312.67 122.669 1312.37 126.445 1312.3 130.195C1310.86 130.355 1309.44 130.045 1308.03 129.818C1303.75 129.643 1299.48 129.56 1295.2 129.589C1295.28 128.21 1295.29 126.831 1295.28 125.452C1291.04 125.458 1286.81 125.436 1282.58 125.465C1282.63 123.971 1282.64 122.477 1282.62 120.983C1279.81 121.06 1277.02 121.392 1274.21 121.302C1274.13 119.812 1274.04 118.324 1274.15 116.834C1272.78 116.834 1271.41 116.834 1270.04 116.834C1270.04 114.127 1270.04 111.417 1270.04 108.71C1268.77 108.707 1267.5 108.717 1266.23 108.672C1266.08 105.921 1266.42 103.179 1266.32 100.434C1264.97 100.398 1263.62 100.402 1262.28 100.363C1261.78 98.9047 1262.31 97.4492 1262.48 95.9968C1260.95 96.0224 1259.44 95.7926 1257.91 95.7511C1257.92 93.156 1257.9 90.5642 1257.92 87.9692C1260.68 87.6883 1263.45 87.816 1266.21 87.7872C1266.22 85.4603 1266.19 83.1334 1266.23 80.8097C1266.2 80.3788 1266.64 80.1298 1266.84 79.7979C1265.39 79.817 1263.93 79.9447 1262.5 79.651C1262.36 80.9246 1262.31 82.2109 1262.17 83.4877C1261.85 82.2684 1262 80.9948 1261.93 79.75C1261.32 80.8544 1260.75 82.0258 1259.78 82.8557C1259.11 83.0345 1258.51 82.6929 1257.99 82.329C1257.83 79.4627 1257.94 76.59 1257.91 73.7204C1257.85 72.9129 1258.29 71.9106 1259.24 71.9745C1260.21 71.7063 1261.49 72.15 1262.22 71.3329C1260.99 71.2403 1259.76 71.3137 1258.52 71.3233C1259.82 71.052 1261.14 71.0903 1262.44 71.2722C1263.66 71.4031 1265.01 70.7775 1266.14 71.2531C1266.27 73.9503 1266.25 76.7049 1266.13 79.418C1267.59 79.2265 1269.07 79.1435 1270.55 79.1435C1270.54 77.0209 1270.6 74.8951 1270.63 72.7724C1270.55 72.1149 1271.01 71.6106 1271.29 71.0616C1273.46 70.969 1275.64 70.8062 1277.81 71.0073C1276.32 71.202 1274.81 71.1733 1273.31 71.2435L1273.28 71.7159C1275.04 71.6042 1276.8 71.9202 1278.56 71.7734C1278.92 71.4925 1278.78 70.9499 1278.87 70.5541C1278.9 69.2901 1278.94 68.0229 1278.93 66.7589C1276.08 66.9919 1273.2 66.9695 1270.35 66.8099C1270.36 68.275 1270.38 69.7401 1270.33 71.202C1269.2 71.4797 1268.03 71.5787 1266.86 71.4989C1266.43 71.1318 1265.95 70.7966 1265.63 70.3274C1265.56 69.4656 1265.62 68.6006 1265.67 67.7388C1265.99 64.7224 1265.92 61.6805 1265.79 58.6546C1267.22 58.6769 1268.61 58.3482 1270.03 58.2556C1270.05 56.8703 1270.09 55.4754 1269.79 54.1189C1275.5 54.138 1281.22 54.3359 1286.93 54.2338C1286.99 51.2653 1286.94 48.2968 1286.96 45.3315C1287 44.1697 1286.71 43.0174 1286.89 41.8587C1285.48 41.5491 1283.96 41.9641 1282.5 41.8172C1282.65 44.7059 1282.48 47.5978 1282.57 50.4833C1280.75 50.0205 1278.64 50.3588 1277.06 49.1874C1276.43 48.2872 1275.69 47.4031 1275.38 46.3306C1275.18 44.8591 1275.61 43.4036 1275.58 41.9321C1276.55 41.8938 1277.52 41.8204 1278.49 41.8108C1278.49 40.4351 1278.49 39.0594 1278.46 37.6837C1279.89 37.6965 1281.33 37.6997 1282.74 37.4156C1282.62 36.1133 1282.66 34.7982 1282.52 33.4959C1284.08 33.3044 1285.65 33.3682 1287.21 33.3842C1287.27 32.034 1287.2 30.6838 1287.16 29.3336C1288.35 29.2889 1289.54 29.2506 1290.73 29.2187C1290.83 27.8941 1290.76 26.5631 1290.8 25.2384C1292.17 25.1458 1293.6 25.4172 1294.92 24.9447C1295.88 24.0063 1295.19 22.5636 1295.23 21.3953C1298.11 21.3698 1301.01 21.5166 1303.87 21.1208C1303.87 19.7228 1303.87 18.3247 1303.87 16.9267C1308.02 16.8564 1312.19 17.1309 1316.32 16.6266C1316.32 15.353 1316.34 14.0795 1316.3 12.8091C1318.99 12.5952 1321.67 12.1356 1324.39 12.3335C1323.13 11.9377 1321.73 12.2665 1320.51 11.7143C1321.78 11.3791 1323.1 11.3855 1324.4 11.427C1324.42 10.412 1324.48 9.40011 1324.53 8.38827C1327.11 8.27336 1329.71 8.39147 1332.3 8.2989C1336.51 7.80415 1340.77 8.01482 1345.01 8.02759C1345.06 9.39692 1345.05 10.7663 1345.03 12.1388C1343.42 12.1547 1341.79 12.0334 1340.2 12.4133C1337.78 12.5154 1335.34 12.4292 1332.91 12.458C1332.47 13.805 1332.26 15.203 1332.28 16.6202C1329.62 16.799 1326.97 17.1022 1324.3 17.0033C1324.29 18.1492 1324.31 19.2951 1324.38 20.441C1322.44 20.6708 1320.46 20.6963 1318.56 21.2134C1317.93 21.3123 1317.28 21.3698 1316.64 21.44C1316.64 22.5955 1316.64 23.7478 1316.64 24.9033C1314.92 24.7213 1313.26 25.3437 1311.54 25.2256C1308.75 25.2416 1305.96 25.1905 1303.17 25.2607C1303.26 26.279 1303.24 27.3291 1303.63 28.2899C1303.45 28.641 1303.29 28.9953 1303.12 29.3528C1300.48 29.4102 1297.84 29.2443 1295.22 29.7199C1295.21 30.8817 1295.27 32.0468 1295.29 33.2086C1293.8 33.3555 1292.31 33.3555 1290.81 33.3906C1290.89 34.811 1290.96 36.2346 1290.92 37.6582C1289.6 37.6901 1288.28 37.7954 1286.96 37.7443C1287.12 39.0307 1286.62 40.467 1287.14 41.6481C1288.31 41.9194 1289.57 41.6002 1290.77 41.6991C1290.8 40.4415 1290.48 39.0594 1291.13 37.9103C1291.2 39.235 1291.09 40.5788 1291.37 41.8906C1291.69 40.6171 1291.54 39.2924 1291.56 37.9965C1292.84 37.7667 1294.13 37.6071 1295.43 37.6741C1295.43 36.3495 1295.4 35.0216 1295.39 33.697C1298.22 33.6523 1301.05 33.4863 1303.87 33.3778C1303.87 32.1106 1303.87 30.8434 1303.88 29.5762C1307.6 29.4134 1311.32 29.3432 1315.05 29.3719C1316.66 29.4294 1318.23 29.0176 1319.83 29.04C1319.83 27.7504 1319.83 26.4609 1319.83 25.1746C1321.54 25.0309 1323.26 25.0373 1324.95 24.7373C1324.98 23.4765 1324.97 22.2189 1324.94 20.958C1327.57 20.9038 1330.19 20.7761 1332.8 20.6516C1332.77 19.41 1332.76 18.1683 1332.77 16.9298C1336.98 16.866 1341.18 16.5628 1345.4 16.6553C1345.35 15.3626 1345.37 14.0699 1345.37 12.7772C1349.42 12.7708 1353.46 12.7931 1357.51 12.7676C1359.22 12.5888 1360.93 12.3782 1362.65 12.4835C1362.87 14.0795 1362.64 15.685 1362.68 17.2873C1365.36 16.8181 1368.1 16.9426 1370.81 16.9267C1370.85 20.8591 1370.74 24.7947 1370.74 28.7272C1369.32 28.7559 1367.9 28.6953 1366.48 28.7846C1366.4 30.2465 1366.45 31.7084 1366.44 33.1703C1364.93 33.1639 1363.47 33.5917 1361.97 33.5534C1361.96 34.9003 1361.98 36.2473 1361.95 37.5943C1360.62 38.0763 1359.2 38.0125 1357.81 37.9933C1357.73 42.1109 1357.87 46.2285 1357.86 50.346C1354.12 50.595 1350.36 50.3971 1346.63 50.1226C1344.88 50.3875 1343.13 50.5088 1341.37 50.4322C1341.41 47.8468 1341.36 45.2422 1341 42.679C1340.93 42.5897 1340.79 42.4077 1340.73 42.3184C1339.65 42.1109 1338.54 42.1683 1337.45 42.079C1337.27 39.2573 1337.57 36.4165 1337.21 33.6076C1337.05 32.1585 1337.22 30.6998 1337.34 29.2538C1334.38 28.9761 1331.42 29.3113 1328.45 29.2538C1328.45 30.6487 1328.45 32.0436 1328.45 33.4384C1329.87 33.4033 1331.3 33.4161 1332.74 33.3938C1332.74 34.8078 1332.61 36.2218 1332.73 37.6358C1333.08 40.3011 1332.75 42.9855 1332.83 45.6635C1334.24 45.705 1335.65 45.6252 1337.04 45.4145C1337.06 46.87 1337.05 48.3256 1337.07 49.7843C1335.65 49.8449 1334.25 50.0907 1332.83 50.1545C1332.86 51.543 1332.79 52.9347 1332.82 54.3232C1338.34 54.2083 1343.87 54.154 1349.4 54.2753C1349.48 55.8425 1349.46 57.4129 1349.48 58.9802C1352.17 58.7057 1354.88 58.7216 1357.59 58.7408C1357.55 62.8232 1357.78 66.9121 1357.54 70.9914C1358.8 70.9786 1360.06 71.0392 1361.32 70.9626C1361.27 72.3192 1361.64 73.647 1361.65 75.0004C1361.65 76.4974 1361.64 77.9944 1361.66 79.4946C1363 79.4116 1364.35 79.3191 1365.69 79.3638C1365.65 76.6474 1365.81 73.9279 1365.44 71.2276C1364.31 71.2116 1363.18 71.2084 1362.05 71.1956C1361.93 65.9705 1361.42 60.7517 1361.73 55.5233C1362.1 52.2357 1361.9 48.9224 1361.99 45.622C1362.33 43.0717 1362.45 40.5022 1362.57 37.9359C1363.97 37.805 1365.37 37.7507 1366.76 37.5433C1366.76 36.209 1366.76 34.8748 1366.76 33.5438C1368.05 33.5119 1369.33 33.3331 1370.62 33.3076C1370.79 32.05 1370.25 30.5146 1370.95 29.4326C1372.29 29.3432 1373.61 29.0751 1374.94 28.8963C1374.99 26.0364 1374.68 23.1381 1375.23 20.3101C1375.43 19.2025 1375.36 18.0757 1375.37 16.9618C1376.59 16.882 1377.78 16.6426 1379 16.5723C1379.19 15.3977 1378.61 13.805 1379.65 12.9431C1383.65 12.7197 1387.66 12.7835 1391.67 12.7772C1393.02 12.825 1394.34 12.4356 1395.69 12.3431C1396.03 15.2158 1395.62 18.1204 1395.91 20.9963C1396.21 22.2699 1396.17 23.5946 1395.95 24.8777C1394.61 24.9288 1393.27 24.8969 1391.94 24.9064C1391.95 27.5525 1392.22 30.1859 1391.86 32.8224C1390.56 32.9756 1389.25 33.0395 1387.95 33.0075C1387.99 34.4886 1388.04 35.9792 1387.82 37.4539C1386.65 37.5305 1385.48 37.6358 1384.31 37.6837C1384.27 38.9317 1384.39 40.1894 1384.24 41.431C1383.95 42.1524 1383.09 42.2226 1382.42 42.2258C1381.24 42.2034 1380.07 42.1173 1378.88 42.1428C1378.88 47.7127 1378.88 53.2826 1378.88 58.8493C1380.27 58.8238 1381.66 58.6897 1383.03 58.8525C1383.13 54.5179 1382.79 50.1545 1383.32 45.8422C1384.65 45.7816 1385.98 45.7656 1387.29 45.4975C1388.35 43.0238 1387.37 40.2819 1388.13 37.7571C1389.41 37.639 1390.69 37.6805 1391.97 37.6741C1391.98 36.209 1391.93 34.7407 1392.02 33.2757C1393.32 33.1767 1394.61 33.2214 1395.91 33.1767C1395.9 32.101 1395.96 31.0285 1396.08 29.9624C1396.25 28.392 1395.9 26.8152 1396.12 25.248C1397.49 25.2288 1398.85 25.2448 1400.21 25.0756C1400.17 21.4911 1400.33 17.9066 1400.11 14.3252C1399.98 12.292 1400.25 10.2683 1400.41 8.24464C1401.81 8.06589 1403.21 8.0595 1404.6 8.1808C1404.61 6.73486 1404.59 5.29211 1404.64 3.84937ZM1458.58 17.9768C1458.4 18.5513 1458.24 19.6302 1458.69 20.0196C1458.86 19.4578 1459.08 18.3183 1458.58 17.9768ZM1459.19 33.6044C1459.01 34.8716 1459.59 36.4005 1458.85 37.4986C1458.74 36.5218 1458.7 35.5355 1458.53 34.5652C1458.09 35.5355 1458.27 36.624 1458.17 37.6518C1459.67 37.6614 1461.17 37.6773 1462.67 37.6773C1462.66 39.1647 1462.67 40.6554 1462.72 42.1428C1464.48 42.2864 1466.18 41.6959 1467.94 41.8236C1470.29 41.9066 1472.62 41.731 1474.96 41.5236C1474.96 40.3234 1474.96 39.1264 1474.96 37.9295C1472.1 37.6837 1469.22 37.8178 1466.35 37.7954C1466.36 36.5984 1466.31 35.4047 1466.23 34.2109C1465.32 34.8748 1464.16 34.6418 1463.12 34.6546C1463.43 34.2875 1463.75 33.9268 1464.06 33.5597C1462.43 33.4608 1460.81 33.6012 1459.19 33.6044ZM1437.89 37.2273C1437.84 40.1191 1438.04 43.0078 1437.93 45.8997L1437.62 45.9061C1437.64 43.9079 1437.55 41.9098 1437.56 39.9117C1437.53 39.0626 1437.82 38.0955 1437.21 37.3805C1437.09 38.6508 1437.39 39.9085 1437.36 41.1788C1437.33 42.7301 1437.28 44.2846 1437.28 45.8359C1435.82 45.7848 1434.36 45.8422 1432.9 45.855C1432.98 47.3265 1432.87 48.8011 1432.79 50.2726C1431.41 50.745 1429.94 50.6971 1428.54 51.0642C1428.51 51.7281 1428.45 52.3952 1428.45 53.0624C1428.66 52.3761 1428.39 51.4058 1429.09 50.9716C1429.21 52.0665 1429.22 53.1709 1429.28 54.2721C1427.64 54.3359 1426 54.3679 1424.37 54.2657C1424.41 55.6478 1424.41 57.0299 1424.43 58.4152C1427.31 58.3131 1430.19 58.2907 1433.07 58.4216C1433.14 56.9342 1433.15 55.4435 1433.18 53.9561C1437.31 54.0391 1441.46 53.7135 1445.57 54.2529C1447.06 54.2944 1448.56 54.2593 1450.06 54.2721C1450.07 55.7595 1450.06 57.247 1450.07 58.7344C1451.38 58.7887 1452.75 58.5269 1454.02 58.9993C1455.23 59.3951 1456.5 59.1462 1457.75 59.21C1456.41 59.3185 1455.06 59.2834 1453.73 59.1876C1453.91 60.1995 1454.27 61.189 1454.22 62.2295C1454.19 65.447 1454.25 68.6645 1454.24 71.8787C1455.63 71.8468 1457.04 71.8085 1458.43 71.9936C1458.3 67.493 1458.4 62.9924 1458.36 58.4918C1456.89 58.4535 1455.42 58.4088 1453.95 58.5078C1454 55.6638 1454 52.823 1454.07 49.9822C1452.87 50.1322 1451.66 50.0939 1450.45 50.1513C1449.95 50.4641 1449.45 50.8504 1448.81 50.7578C1446.09 50.6971 1443.36 50.9493 1440.65 50.5631C1440.74 49.5034 1440.37 48.2426 1441.12 47.368C1441.22 48.3128 1440.97 49.2289 1440.82 50.1545C1442 47.451 1441.14 44.4474 1441.54 41.6161C1441.78 40.1319 1441.61 38.6285 1441.49 37.1443C1440.29 37.24 1439.09 37.2368 1437.89 37.2273ZM1475.12 41.8651C1474.66 44.6197 1474.54 47.3999 1474.64 50.1896C1476.02 50.1034 1477.4 50.1226 1478.79 50.1226C1478.73 58.5684 1478.85 67.0142 1478.8 75.4568C1480.88 75.575 1483.05 75.3483 1485.04 76.0857C1485 77.0879 1484.97 78.0902 1485.04 79.0924C1484.78 79.2233 1484.51 79.3574 1484.25 79.4914C1488.08 79.4468 1491.93 79.6415 1495.76 79.3414C1494.26 79.0893 1492.75 79.1946 1491.24 79.1563C1491.25 77.9529 1491.22 76.7496 1491.21 75.543C1489.84 75.6133 1488.46 75.4856 1487.09 75.4281C1487.09 74.2918 1487.09 73.1523 1487.09 72.016C1485.62 72.016 1484.16 72.0351 1482.69 72C1484.15 71.8532 1485.63 71.9904 1487.09 71.9681C1487.09 71.783 1487.09 71.4127 1487.09 71.2276C1485.61 71.2212 1484.13 71.218 1482.65 71.3137C1482.78 69.6699 1482.53 68.0005 1482.87 66.3758C1483.08 63.5191 1482.87 60.6559 1482.7 57.8024C1482.72 53.7295 1482.61 49.6566 1482.62 45.5805C1481.22 45.5997 1479.84 45.8422 1478.43 45.8071C1478.43 44.4059 1478.34 43.0078 1478.41 41.6098C1477.31 41.6927 1476.22 41.8045 1475.12 41.8651ZM1311.88 45.7976C1311.84 50.2215 1311.38 54.6296 1311.54 59.06C1312.97 59.0312 1314.42 59.0472 1315.86 59.028C1315.85 60.1165 1315.82 61.2113 1315.97 62.2966C1316.36 60.7134 1315.99 59.0855 1316.01 57.4832C1316 53.6082 1316.01 49.7364 1316 45.8614C1314.63 45.8135 1313.25 45.8454 1311.88 45.7976ZM1403.78 45.8167C1403.79 50.0013 1403.77 54.1891 1403.79 58.3769C1405.28 58.4375 1406.76 58.4216 1408.25 58.4216C1408.25 54.2051 1408.25 49.9917 1408.25 45.7752C1406.76 45.8614 1405.27 45.8007 1403.78 45.8167ZM1329.08 54.2721C1327.46 54.2051 1325.87 54.719 1324.25 54.4764C1324.51 55.8074 1324.72 57.1448 1324.62 58.511C1321.95 58.6163 1319.3 58.8397 1316.62 58.7408C1316.6 61.5656 1316.76 64.4 1316.52 67.2153C1316.11 68.441 1315.58 69.6476 1315.64 70.9786C1311.72 71.068 1307.78 70.8222 1303.88 71.2212C1303.87 69.7689 1303.87 68.3165 1303.87 66.8642C1302.4 66.9025 1300.92 66.8546 1299.44 66.778C1299.5 65.3768 1299.4 63.9723 1299.4 62.5711C1296.64 62.5679 1293.88 62.5838 1291.12 62.5615C1291.37 63.9468 1291.28 65.364 1291.24 66.7653C1292.64 66.7365 1294.04 66.7174 1295.44 66.7206C1295.37 68.141 1295.39 69.5678 1295.33 70.9882C1296.73 70.9977 1298.13 70.9435 1299.53 70.9531C1299.5 72.4628 1299.59 73.9662 1299.74 75.4696C1302.18 75.4792 1304.63 75.6101 1307.06 75.3579C1311.41 74.9302 1315.74 75.8303 1320.09 75.6579C1320.04 72.5331 1319.93 69.3763 1320.48 66.2865C1321.8 66.1077 1323.13 66.0503 1324.47 66.0854C1324.47 64.8693 1324.54 63.6563 1324.64 62.4466C1325.97 62.1274 1327.33 61.8593 1328.69 62.1529C1328.54 60.924 1328.4 59.6888 1328.54 58.4535C1329.92 58.428 1331.3 58.3833 1332.67 58.1311C1332.57 56.7969 1332.6 55.4563 1332.72 54.1221C1331.5 54.1444 1330.3 54.2881 1329.08 54.2721ZM1403.88 75.0228C1403.9 76.4017 1403.9 77.7838 1403.84 79.1627C1401.8 79.1754 1399.76 79.1659 1397.72 79.1691C1397.72 80.5926 1397.72 82.0162 1397.72 83.443C1394.63 83.5643 1391.55 83.7111 1388.46 83.625C1386.69 83.7048 1384.9 83.2547 1383.16 83.7175C1381.78 84.1293 1380.33 83.8548 1378.92 84.0335C1378.67 86.6349 1379.41 89.23 1379.01 91.825L1378.83 92.0261C1375.12 92.2304 1371.41 92.374 1367.7 92.1761C1365.25 92.1857 1362.81 91.7675 1360.36 92.074C1356.8 91.9878 1353.25 92.3644 1349.69 92.2495C1349.66 90.7621 1349.66 89.2747 1349.7 87.7872C1348.15 87.7872 1346.6 87.7936 1345.04 87.7649C1345.32 83.6313 1344.97 79.4851 1345.32 75.3515C1343.85 75.2558 1342.37 75.3068 1340.9 75.2526C1340.94 77.0592 1340.79 78.885 1341.08 80.6788C1341.42 83.3409 1341.27 86.0317 1341.36 88.7065C1342.55 88.965 1343.7 89.3832 1344.91 89.5045C1344.92 90.2801 1344.72 91.1132 1345.02 91.8537C1345.82 93.2263 1345.38 94.8829 1345.51 96.3958C1348.54 96.3703 1351.58 96.5395 1354.6 96.2075C1359.5 96.0415 1364.41 96.2203 1369.31 96.1245C1371.07 96.5139 1372.87 96.3799 1374.67 96.4214C1374.78 97.9088 1374.71 99.4026 1374.74 100.893C1376.14 101.05 1377.55 101.053 1378.95 100.989C1379.32 99.5079 1379.17 98.0141 1378.86 96.5427C1380.23 96.2458 1381.63 96.1341 1383.03 96.2075C1383.04 94.4934 1382.98 92.7762 1383.17 91.0717C1384.51 90.9345 1385.85 90.893 1387.18 91.0717C1387.18 89.9737 1387.18 88.8757 1387.18 87.7808C1388.89 87.7808 1390.61 87.8064 1392.32 87.7681C1397.5 87.1712 1402.73 87.5957 1407.94 87.5223C1409.86 87.4904 1411.76 87.8606 1413.68 87.7872C1418.75 87.7872 1423.82 87.7872 1428.9 87.7872C1429.03 88.8789 1429.13 89.9737 1429.13 91.0717C1430.4 91.1068 1431.68 91.1132 1432.96 91.1579C1432.98 88.7448 1433.36 86.3445 1433.22 83.9282C1434.55 83.7048 1435.89 83.6282 1437.23 83.6601C1437.13 82.345 1437.24 81.0331 1437.2 79.7181C1438.62 79.7436 1440.04 79.683 1441.45 79.5393C1441.45 78.2019 1441.44 76.8645 1441.45 75.5271C1438.57 75.6962 1435.7 75.3515 1432.83 75.4313C1432.78 76.7496 1432.94 78.0902 1432.75 79.3957C1431.91 80.4873 1431.47 81.8247 1430.63 82.8972C1429.29 83.0632 1428.35 81.8662 1427.91 80.7554C1427.92 81.5406 1427.94 82.329 1427.83 83.1111C1426.85 83.2643 1425.86 83.2228 1424.88 83.1398C1425.13 82.744 1425.4 82.3673 1425.66 81.9779C1425.01 82.4886 1424.51 83.3696 1423.58 83.3217C1419.81 83.4462 1416.04 83.4877 1412.3 83.9473C1412.32 82.4248 1412.31 80.9055 1412.3 79.3829C1410.9 79.2552 1409.5 79.3223 1408.1 79.3191C1408.39 77.9019 1408.34 76.4559 1408.35 75.0196C1406.86 75.0228 1405.37 75.0132 1403.88 75.0228ZM1491.22 79.8394C1491.17 86.6956 1491.3 93.5518 1491.21 100.408C1489.84 100.45 1488.47 100.593 1487.1 100.564C1487.17 101.841 1486.94 103.099 1486.74 104.35L1486.89 104.554C1488.4 104.57 1489.92 104.42 1491.43 104.567C1491.43 103.22 1491.44 101.87 1491.46 100.523C1494.13 100.402 1496.8 100.542 1499.47 100.421C1499.39 99.2877 1499.46 98.1546 1499.38 97.0246C1499.31 97.9854 1499.34 98.9462 1499.3 99.9069L1498.86 99.7058C1498.59 98.7355 1498.75 97.7141 1498.77 96.7278C1497.71 96.7342 1496.66 96.6767 1495.6 96.6225C1495.61 91.0334 1495.62 85.4444 1495.58 79.8585C1494.13 79.8425 1492.67 79.8425 1491.22 79.8394ZM1345.53 87.5957C1345.83 86.1402 1345.99 84.6049 1345.68 83.1366C1345.16 84.5634 1345.53 86.1179 1345.53 87.5957ZM1282.81 84.2187C1282.8 89.7535 1282.83 95.285 1282.79 100.82C1284.18 100.766 1285.57 100.721 1286.96 100.718C1286.93 102.668 1287.04 104.618 1286.92 106.565C1286.74 107.58 1286.58 108.599 1286.63 109.633C1288.12 109.527 1289.61 109.55 1291.11 109.495C1291.1 110.641 1291.13 111.787 1291.04 112.93C1293.31 112.933 1295.59 112.413 1297.85 112.873C1301.47 112.936 1305.09 112.949 1308.71 112.863C1308.58 111.522 1308.52 110.175 1308.55 108.832C1306.56 108.988 1304.54 109.237 1302.57 108.825C1300.11 108.63 1297.61 109.058 1295.18 108.484C1295.27 107.264 1295.3 106.042 1295.53 104.838C1294.11 104.829 1292.69 104.867 1291.27 104.88C1291.1 102.16 1290.85 99.4409 1291.07 96.715C1289.75 96.7342 1288.43 96.7214 1287.12 96.7246C1287.6 92.5591 1286.93 88.3777 1287.15 84.2027C1285.7 84.174 1284.26 84.2857 1282.81 84.2187ZM1471.45 87.7872C1471.45 89.1183 1471.46 90.4493 1471.44 91.7803C1469.87 92.0293 1468.33 91.4739 1466.77 91.742C1466.74 93.0954 1466.81 94.4488 1466.76 95.8021C1465.33 95.9266 1463.94 96.3097 1462.51 96.4565C1462.51 97.8099 1462.51 99.16 1462.51 100.513C1461.34 100.558 1460.17 100.647 1459 100.587C1458.99 101.793 1459.04 103.006 1458.91 104.21C1458.46 103.613 1458.61 102.824 1458.51 102.132C1458.51 102.92 1458.53 103.709 1458.4 104.491C1457.41 104.519 1456.38 104.491 1455.48 104.947C1454.99 105.218 1454.43 105.253 1453.89 105.263C1453.89 106.485 1454 107.708 1453.97 108.934C1452.67 109.081 1451.36 109.135 1450.06 109.045C1450.06 110.188 1450.07 111.331 1450.04 112.474C1449.91 112.93 1450.39 113.473 1450.86 113.297C1451.97 113.128 1453.09 113.102 1454.21 113.131C1454.22 111.765 1454.19 110.402 1454.26 109.039C1457.04 109.215 1459.74 108.401 1462.51 108.535C1462.53 107.181 1462.47 105.831 1462.56 104.481C1463.92 104.35 1465.29 104.315 1466.66 104.369C1466.71 103.019 1466.55 101.656 1466.78 100.322C1467.13 99.0323 1466.94 97.6822 1466.97 96.3639C1467.93 96.3607 1468.92 96.4309 1469.86 96.1596C1471.44 95.6617 1473.11 96.0415 1474.73 95.9777C1475.17 93.2773 1475.4 90.5387 1475.24 87.8032C1473.98 87.7713 1472.71 87.7936 1471.45 87.7872ZM1384.11 91.6175L1384.14 91.9559C1385.15 91.9463 1386.17 91.9367 1387.19 91.9527L1387.18 91.6431C1386.16 91.6239 1385.13 91.608 1384.11 91.6175ZM1428.95 92.0931C1430.19 92.2623 1431.46 92.2623 1432.7 92.125C1432.78 91.9718 1432.92 91.6654 1433 91.509C1431.68 91.8282 1430.12 91.3462 1428.95 92.0931ZM1482.93 104.408C1484.07 104.388 1485.35 104.909 1486.41 104.347C1486.38 104.267 1486.31 104.104 1486.27 104.025C1485.15 104.098 1484.04 104.248 1482.93 104.408ZM1479.11 105.107C1479.07 106.916 1479.22 108.742 1478.96 110.542C1478.71 112.531 1478.85 114.542 1478.81 116.543C1477.52 116.454 1476.23 116.569 1474.96 116.808C1474.96 118.091 1474.96 119.374 1474.96 120.661C1473.36 120.68 1471.77 120.942 1470.17 121.002C1470.17 122.487 1470.17 123.968 1470.21 125.452C1471.8 125.516 1473.38 125.286 1474.96 125.136C1474.96 123.859 1474.96 122.589 1474.96 121.315C1476.24 121.293 1477.52 121.334 1478.8 121.242C1478.92 119.901 1478.84 118.557 1478.9 117.214C1480.09 117.118 1481.28 117.076 1482.48 116.965C1483.63 115.959 1482.74 114.204 1482.93 112.869C1484.32 112.777 1485.71 112.796 1487.1 112.805C1487.05 110.214 1486.45 107.673 1486.57 105.071C1484.08 105.043 1481.6 105.247 1479.11 105.107ZM1486.94 104.845C1487.04 106.24 1486.66 107.73 1487.39 109.013C1488.28 108.081 1487.78 106.718 1487.86 105.576C1488.61 105.416 1489.36 105.285 1490.12 105.129C1489.06 104.973 1488 104.902 1486.94 104.845ZM1394.97 113.054C1395.05 114.532 1394.85 115.997 1394.83 117.472C1391.22 117.364 1387.57 117.708 1383.99 117.217C1381.01 117.242 1378.03 117.108 1375.05 117.268C1375.04 118.605 1375.03 119.949 1375.21 121.28C1372.28 121.27 1369.36 121.133 1366.44 121.264C1362.16 121.047 1357.87 121.12 1353.6 121.334C1353.6 122.598 1353.56 123.862 1353.6 125.126C1358.83 125.155 1364.06 125.101 1369.29 125.155C1371.28 125.666 1373.34 125.378 1375.37 125.452C1375.37 124.143 1375.37 122.834 1375.38 121.526C1376.76 121.491 1378.15 121.618 1379.51 121.36C1380.69 121.156 1381.84 121.567 1383.01 121.612C1387.15 121.835 1391.3 121.714 1395.44 121.74C1395.93 120.444 1395.52 118.873 1395.69 117.472C1413.86 117.469 1432.03 117.475 1450.2 117.472C1450.23 116.262 1450.22 115.049 1450.22 113.843C1450.02 112.821 1448.84 113.358 1448.15 113.316C1444.63 113.319 1441.1 113.393 1437.58 113.265C1433.66 112.888 1429.72 113.163 1425.79 113.083C1424.3 112.997 1422.83 113.383 1421.34 113.332C1415.91 113.307 1410.48 113.527 1405.06 113.291C1401.69 113.383 1398.33 113.281 1394.97 113.054ZM1491.1 112.997C1491.14 117.137 1491.15 121.274 1491.16 125.414C1493.95 124.964 1496.72 125.943 1499.53 125.72C1499.57 127.865 1499.45 130.016 1499.7 132.152C1499.93 134.016 1499.85 135.896 1499.88 137.769C1501.22 137.639 1502.57 137.709 1503.92 137.766C1504.09 133.914 1504.04 130.048 1503.82 126.199C1503.59 124.545 1503.72 122.876 1503.69 121.216C1501.24 121.229 1498.79 121.293 1496.34 121.242C1495.41 121.382 1495.49 120.313 1495.42 119.703C1495.36 117.45 1495.47 115.196 1495.4 112.943C1493.97 112.917 1492.53 112.946 1491.1 112.997ZM1308.67 114.101C1308.36 114.385 1308.48 115.043 1308.91 115.136C1309.47 115.053 1309.27 113.766 1308.67 114.101ZM1345.6 125.678C1345.7 126.981 1345.69 128.286 1345.67 129.589C1344.08 129.611 1342.49 129.598 1340.9 129.598C1340.9 130.872 1340.9 132.148 1340.9 133.422C1341.8 133.416 1342.71 133.377 1343.59 133.572C1345.51 133.958 1347.56 133.802 1349.36 133.01C1349.5 131.861 1349.53 130.706 1349.52 129.55C1350.84 129.531 1352.17 129.477 1353.49 129.356C1353.41 127.948 1353.43 126.534 1353.61 125.136C1350.91 124.903 1348.28 125.573 1345.6 125.678ZM1460.3 133.78C1442.83 133.732 1425.37 133.748 1407.9 133.764C1408.05 135.158 1408.28 136.557 1408.14 137.964C1414.98 137.817 1421.83 137.942 1428.68 137.9C1438.57 137.9 1448.47 137.9 1458.36 137.9C1458.34 139.282 1458.37 140.665 1458.36 142.047C1463.89 142.146 1469.42 141.999 1474.95 142.069C1475.01 143.448 1474.92 144.827 1474.78 146.199C1477.46 146.199 1480.14 146.199 1482.82 146.199C1482.68 144.82 1482.59 143.435 1482.62 142.05C1481.29 142.05 1479.97 142.05 1478.64 142.05C1478.64 140.61 1478.64 139.168 1478.79 137.738C1474.55 137.715 1470.31 137.84 1466.08 137.702C1465.92 136.301 1466.34 134.775 1465.6 133.495C1463.82 133.422 1462.06 133.674 1460.3 133.78ZM1400.09 138.101C1400.12 139.417 1400.05 140.732 1400.04 142.05C1390.22 142.117 1380.4 141.922 1370.59 141.98C1370.59 143.387 1370.59 144.792 1370.59 146.199C1380.39 146.199 1390.2 146.199 1400 146.199C1399.93 144.929 1399.91 143.652 1400.03 142.385C1402.76 142.621 1405.52 142.816 1408.25 142.449C1408.25 140.99 1408.27 139.531 1408.29 138.076C1405.57 138.43 1402.82 138.031 1400.09 138.101ZM1340.9 150.01C1340.9 151.479 1340.9 152.944 1340.9 154.412C1345.16 154.297 1349.42 154.377 1353.67 154.179C1353.67 152.835 1353.67 151.492 1353.67 150.148C1349.41 150.215 1345.16 149.848 1340.9 150.01ZM1453.69 167.122C1453.48 168.54 1453.61 169.979 1453.58 171.406C1458.47 171.463 1463.37 171.32 1468.26 171.505C1470.18 171.495 1472.11 171.291 1474.03 171.534C1474.29 170.123 1474.15 168.686 1474.12 167.266C1467.45 167.307 1460.78 167.183 1454.12 167.333C1454.12 168.616 1454.27 169.922 1454.03 171.192C1453.83 169.842 1454.19 168.421 1453.69 167.122ZM1424.56 179.829C1425.19 181.138 1425.1 182.587 1425.03 184.001C1427.62 184.084 1430.2 183.985 1432.79 184.068C1432.83 182.696 1432.83 181.326 1432.83 179.957C1430.09 179.6 1427.31 179.785 1424.56 179.829ZM1432.82 184.183C1433.59 185.227 1433.27 186.59 1433.41 187.8C1433.24 187.286 1433.11 186.762 1432.94 186.258C1432.91 186.947 1432.92 187.64 1432.9 188.336C1442.77 188.326 1452.64 188.339 1462.51 188.329C1462.51 186.963 1462.52 185.597 1462.46 184.234C1458.65 184.221 1454.82 184.375 1451.04 183.902C1446.99 183.928 1442.94 183.909 1438.89 183.905C1436.86 183.874 1434.85 184.282 1432.82 184.183ZM1416.58 184.221C1416.17 185.466 1416.56 186.832 1416.39 188.128C1417.71 188.128 1419.05 188.087 1420.36 188.317C1420.49 186.951 1420.44 185.581 1420.42 184.218C1419.14 184.298 1417.83 183.953 1416.58 184.221Z" fill="white"/>
<path d="M1478.88 74.5792C1481.43 74.4579 1483.97 74.7036 1486.52 74.86C1484.16 75.1186 1481.78 75.2367 1479.41 75.0962C1479.28 74.9686 1479.01 74.7068 1478.88 74.5792Z" fill="white"/>
<path d="M1395.21 115.694C1395.57 115.991 1395.6 116.904 1395.38 117.363C1394.84 117.178 1395.01 116.135 1395.21 115.694Z" fill="white"/>
</svg>
