<svg width="231" height="70" viewBox="0 0 231 70" fill="none" xmlns="http://www.w3.org/2000/svg">
<path d="M210.438 43.7061V43.1061H210.587C212.237 43.1061 212.987 42.9561 213.587 42.5061H213.887V45.6561C213.887 45.6561 216.737 42.6561 218.987 42.6561C221.387 42.6561 222.587 44.4561 222.587 46.2561V54.3561C222.587 55.8561 222.887 56.3061 224.237 56.3061H224.387V56.9061H219.137V56.3061H219.287C220.637 56.3061 220.938 55.8561 220.938 54.3561V46.2561C220.938 44.9061 220.037 43.7061 218.387 43.7061C216.437 43.7061 213.887 46.4061 213.887 46.4061V54.3561C213.887 55.8561 214.187 56.3061 215.537 56.3061H215.688V56.9061H210.438V56.3061H210.587C211.937 56.3061 212.237 55.8561 212.237 54.3561V45.6561C212.237 44.1561 211.937 43.7061 210.587 43.7061H210.438Z" fill="black"/>
<path d="M201.891 63.656C197.841 63.656 195.141 62.156 195.141 59.606C195.141 57.386 197.151 56.246 198.591 55.706C197.121 55.286 196.041 54.746 196.041 53.756C196.041 52.616 197.421 51.836 198.261 51.446C196.851 50.606 196.041 49.166 196.041 47.456C196.041 44.756 198.141 42.656 201.441 42.656C202.881 42.656 204.081 43.076 205.011 43.736C205.551 42.956 206.481 41.906 207.741 41.906C209.121 41.906 209.541 42.656 209.541 43.256C209.541 43.856 209.121 44.366 208.491 44.366C207.531 44.366 207.441 43.406 206.391 43.406C206.031 43.406 205.671 43.736 205.431 44.096C206.331 44.936 206.841 46.136 206.841 47.456C206.841 50.156 204.741 52.256 201.441 52.256C200.451 52.256 199.581 52.076 198.831 51.746C198.471 51.926 197.541 52.436 197.541 53.156C197.541 55.046 208.491 54.296 208.491 59.306C208.491 61.856 205.341 63.656 201.891 63.656ZM196.791 59.456C196.791 61.556 198.741 62.906 201.891 62.906C205.191 62.906 206.991 61.256 206.991 59.756C206.991 57.116 202.611 56.696 199.371 55.916C198.381 56.306 196.791 57.206 196.791 59.456ZM201.441 43.406C199.191 43.406 197.841 45.206 197.841 47.456C197.841 49.706 199.191 51.506 201.441 51.506C203.691 51.506 205.041 49.706 205.041 47.456C205.041 45.206 203.691 43.406 201.441 43.406Z" fill="black"/>
<path d="M194.238 56.9061H182.988V56.3061H184.938C187.638 56.3061 187.788 56.0061 187.788 54.0561V45.0561C187.788 43.8561 187.788 43.7061 186.438 43.7061H183.888V43.1061H185.238C187.488 43.1061 188.538 42.9561 189.138 42.5061H189.438V54.0561C189.438 56.0061 189.588 56.3061 192.288 56.3061H194.238V56.9061ZM188.238 39.5061C187.398 39.5061 186.738 38.8461 186.738 38.0061C186.738 37.1661 187.398 36.5061 188.238 36.5061C189.078 36.5061 189.738 37.1661 189.738 38.0061C189.738 38.8461 189.078 39.5061 188.238 39.5061Z" fill="black"/>
<path d="M168.961 52.256L169.561 52.106C169.561 52.106 170.911 56.606 175.561 56.606C178.261 56.606 179.461 55.106 179.461 53.606C179.461 49.136 169.261 51.806 169.261 46.556C169.261 44.306 171.661 42.656 174.511 42.656C176.911 42.656 178.111 43.706 178.111 43.706L179.461 42.656L180.661 47.756L180.061 47.906C180.061 47.906 178.711 43.406 174.511 43.406C172.111 43.406 170.761 44.756 170.761 46.106C170.761 49.946 180.961 47.456 180.961 53.156C180.961 55.706 178.711 57.356 175.411 57.356C173.011 57.356 171.511 56.306 171.511 56.306L170.161 57.356L168.961 52.256Z" fill="black"/>
<path d="M160.841 57.356C157.241 57.356 154.391 54.506 154.391 50.006C154.391 45.356 157.391 42.656 160.991 42.656C165.041 42.656 166.991 45.656 166.991 48.806V49.106H156.371C156.341 49.406 156.341 49.706 156.341 50.006C156.341 54.356 159.041 56.306 161.441 56.306C165.191 56.306 166.091 52.856 166.091 52.856L166.691 53.006C166.691 53.006 165.791 57.356 160.841 57.356ZM156.431 48.356H165.041C165.041 45.206 163.391 43.406 160.841 43.406C158.741 43.406 156.881 44.996 156.431 48.356Z" fill="black"/>
<path d="M139.004 56.906V56.306H139.154C140.804 56.306 141.104 55.856 141.104 54.356V38.456C141.104 36.956 140.804 36.506 139.154 36.506H139.004V35.906H144.254C149.054 35.906 152.954 39.506 152.954 46.406C152.954 53.306 149.054 56.906 144.254 56.906H139.004ZM142.904 38.456V54.356C142.904 55.706 143.204 56.156 144.254 56.156C147.584 56.156 150.854 53.456 150.854 46.406C150.854 39.356 147.554 36.656 144.254 36.656C143.204 36.656 142.904 37.106 142.904 38.456Z" fill="black"/>
<path d="M121.002 57.3561C117.702 57.3561 115.152 55.1061 115.152 51.2061C115.152 48.0261 116.892 46.0461 118.782 44.3961C118.302 42.8961 118.002 41.4861 118.002 40.4061C118.002 37.4061 119.502 35.4561 121.902 35.4561C123.852 35.4561 125.052 36.7461 125.052 38.3061C125.052 40.6761 122.652 41.9361 120.492 43.8861C121.602 47.1561 123.582 50.7561 125.352 53.0661C126.192 51.2061 126.672 48.8061 127.062 46.4361C127.332 44.7561 126.972 43.7061 125.472 43.7061H125.322V43.1061H130.152V43.7061C128.352 43.7061 128.112 44.8761 127.812 46.5561C127.302 49.4361 126.702 51.8661 125.832 53.6961C126.792 54.8361 127.632 55.5561 128.202 55.5561C129.282 55.5561 129.252 54.0561 129.252 53.9061H129.852C129.852 54.4461 129.852 57.3561 127.902 57.3561C127.062 57.3561 125.982 56.5761 124.872 55.3461C123.912 56.6361 122.652 57.3561 121.002 57.3561ZM119.112 45.3261C118.032 46.6761 117.252 48.3561 117.252 50.7561C117.252 54.8061 119.352 56.3061 121.452 56.3061C122.682 56.3061 123.612 55.7361 124.362 54.7761C122.382 52.3461 120.342 48.6261 119.112 45.3261ZM121.812 36.2061C120.702 36.2061 119.652 37.2561 119.652 39.6561C119.652 40.6761 119.862 41.8761 120.252 43.1661C121.932 41.7561 123.402 40.4061 123.402 38.4561C123.402 37.0161 122.772 36.2061 121.812 36.2061Z" fill="black"/>
<path d="M92.8164 43.1061H94.7664C97.0164 43.1061 97.3764 42.7161 97.7664 40.4061L98.2164 37.7061H98.6664V43.1061H105.266V43.8561H98.6664V52.7061C98.6664 54.9561 99.7164 56.3061 101.966 56.3061C104.966 56.3061 105.716 52.8561 105.716 52.8561L106.316 53.0061C106.316 53.0061 105.566 57.3561 101.366 57.3561C98.8164 57.3561 97.0164 55.7061 97.0164 52.7061V43.8561H92.8164V43.1061Z" fill="black"/>
<path d="M79.6758 50.006C79.6758 45.506 82.5258 42.656 86.4258 42.656C89.2758 42.656 91.3758 44.456 91.3758 46.406C91.3758 47.396 90.8358 47.906 90.1158 47.906C89.4558 47.906 88.9758 47.456 88.9758 46.736C88.9758 46.106 89.2758 45.806 89.2758 45.206C89.2758 44.456 88.5258 43.406 86.2758 43.406C83.8758 43.406 81.6258 45.356 81.6258 50.006C81.6258 54.356 84.3258 56.306 86.7258 56.306C90.4758 56.306 91.3758 52.856 91.3758 52.856L91.9758 53.006C91.9758 53.006 91.0758 57.356 86.1258 57.356C82.5258 57.356 79.6758 54.506 79.6758 50.006Z" fill="black"/>
<path d="M64.2891 43.7061V43.1061H64.4391C66.0891 43.1061 66.8391 42.9561 67.4391 42.5061H67.7391V53.7561C67.7391 55.1061 68.6391 56.3061 70.2891 56.3061C72.2391 56.3061 74.7891 53.6061 74.7891 53.6061V45.6561C74.7891 44.1561 74.4891 43.7061 73.1391 43.7061H72.9891V43.1061H73.1391C74.7891 43.1061 75.5391 42.9561 76.1391 42.5061H76.4391V54.3561C76.4391 55.8561 76.7391 56.3061 78.0891 56.3061H78.2391V56.9061H78.0891C76.4391 56.9061 75.6891 56.9661 75.0891 57.2061H74.7891V54.3561C74.7891 54.3561 71.9391 57.3561 69.6891 57.3561C67.2891 57.3561 66.0891 55.5561 66.0891 53.7561V45.6561C66.0891 44.1561 65.7891 43.7061 64.4391 43.7061H64.2891Z" fill="black"/>
<path d="M55.7945 57.3561C52.0445 57.3561 49.6445 54.5061 49.6445 50.0061C49.6445 45.6561 52.1945 42.6561 56.0945 42.6561C58.7945 42.6561 59.8445 44.1561 59.8445 44.1561V38.4561C59.8445 36.9561 59.5445 36.5061 58.1945 36.5061H58.0445V35.9061H58.1945C59.8445 35.9061 60.5945 35.6061 61.1945 35.0061H61.4945V54.3561C61.4945 55.8561 61.7945 56.3061 63.1445 56.3061H63.2945V56.9061H63.1445C61.4945 56.9061 60.7445 56.9661 60.1445 57.2061H59.8445V55.1061C59.8445 55.1061 58.6445 57.3561 55.7945 57.3561ZM56.0945 43.4061C53.3945 43.4061 51.5945 45.9561 51.5945 50.0061C51.5945 54.2061 53.3945 56.6061 56.0945 56.6061C58.4945 56.6061 59.8445 54.5061 59.8445 52.4061V46.7061C59.8445 45.2061 58.9445 43.4061 56.0945 43.4061Z" fill="black"/>
<path d="M41.5047 57.356C37.9047 57.356 35.0547 54.356 35.0547 50.006C35.0547 45.656 37.9047 42.656 41.5047 42.656C45.1047 42.656 47.9547 45.656 47.9547 50.006C47.9547 54.356 45.1047 57.356 41.5047 57.356ZM37.0047 50.006C37.0047 54.356 39.1047 56.606 41.5047 56.606C43.9047 56.606 46.0047 54.356 46.0047 50.006C46.0047 45.656 43.9047 43.406 41.5047 43.406C39.1047 43.406 37.0047 45.656 37.0047 50.006Z" fill="black"/>
<path d="M20.7188 43.1061H21.1688C23.4188 43.1061 24.4688 42.9561 25.0688 42.5061H25.3687V46.4061C25.3687 46.4061 27.9187 42.6561 30.3188 42.6561C32.1188 42.6561 33.6188 43.5561 33.6188 45.5061C33.6188 46.4961 33.0788 47.0061 32.3588 47.0061C31.6988 47.0061 31.2188 46.4961 31.2188 45.8361C31.2188 45.2061 31.5188 45.0561 31.5188 44.4561C31.5188 43.8561 31.0688 43.4061 30.0188 43.4061C28.0688 43.4061 25.3687 47.4561 25.3687 47.4561V54.0561C25.3687 56.0061 25.5187 56.3061 28.2188 56.3061H28.6688V56.9061H20.7188V56.3061H20.8687C23.5687 56.3061 23.7188 56.0061 23.7188 54.0561V45.0561C23.7188 43.8561 23.7187 43.7061 22.3687 43.7061H20.7188V43.1061Z" fill="black"/>
<path d="M6.16016 35.906H11.7102C15.9102 35.906 19.5102 37.406 19.5102 41.156C19.5102 44.906 15.9102 46.556 11.7102 46.556H10.0602V54.356C10.0602 55.856 10.3602 56.306 12.0102 56.306H12.1602V56.906H6.16016V56.306H6.31016C7.96016 56.306 8.26016 55.856 8.26016 54.356V38.456C8.26016 36.956 7.96016 36.506 6.31016 36.506H6.16016V35.906ZM10.0602 45.806H11.7102C14.4402 45.806 17.4102 44.756 17.4102 41.156C17.4102 37.556 14.4102 36.656 11.7102 36.656H11.4102C10.3602 36.656 10.0602 37.106 10.0602 38.456V45.806Z" fill="black"/>
<path d="M170.469 26.706C170.469 25.866 171.129 25.206 171.969 25.206C172.809 25.206 173.469 25.866 173.469 26.706C173.469 27.546 172.809 28.206 171.969 28.206C171.129 28.206 170.469 27.546 170.469 26.706ZM170.469 15.606C170.469 14.766 171.129 14.106 171.969 14.106C172.809 14.106 173.469 14.766 173.469 15.606C173.469 16.446 172.809 17.106 171.969 17.106C171.129 17.106 170.469 16.446 170.469 15.606Z" fill="black"/>
<path d="M157.02 28.2061L155.91 21.9061L156.51 21.7561C156.51 21.7561 158.16 27.6061 162.21 27.6061C164.16 27.6061 166.26 26.5561 166.26 23.5561C166.26 18.0061 156.21 17.1061 156.21 11.7061C156.21 8.25605 158.91 6.45605 161.76 6.45605C163.86 6.45605 165.06 7.50606 165.06 7.50606L166.5 6.60605L167.61 12.9061L167.01 13.0561C167.01 13.0561 165.66 7.20605 161.76 7.20605C160.11 7.20605 157.86 8.25605 157.86 10.9561C157.86 15.6061 167.91 16.6561 167.91 22.8061C167.91 26.5561 165.21 28.3561 162.21 28.3561C159.96 28.3561 158.46 27.1561 158.46 27.1561L157.02 28.2061Z" fill="black"/>
<path d="M140.927 7.50601H140.777V6.90601H146.777V7.50601H146.627C144.977 7.50601 144.677 7.95601 144.677 9.45601V22.956C144.677 25.956 146.327 27.306 148.427 27.306C150.527 27.306 152.177 25.956 152.177 22.956V10.056C152.177 8.70601 151.877 7.50601 150.077 7.50601H149.927V6.90601H155.177V7.50601H155.027C153.227 7.50601 152.927 8.70601 152.927 10.056V22.806C152.927 26.706 150.677 28.356 148.127 28.356C144.977 28.356 142.877 26.556 142.877 22.806V9.45601C142.877 7.95601 142.577 7.50601 140.927 7.50601Z" fill="black"/>
<path d="M130.879 6.90601H140.479V7.50601H139.129C136.879 7.50601 136.579 7.95601 136.579 9.75601V25.056C136.579 26.856 136.879 27.306 139.129 27.306H140.479V27.906H130.879V27.306H132.229C134.479 27.306 134.779 26.856 134.779 25.056V9.75601C134.779 7.95601 134.479 7.50601 132.229 7.50601H130.879V6.90601Z" fill="black"/>
<path d="M116.466 7.50601H116.316V6.90601H120.156L127.566 23.196V10.056C127.566 8.70601 127.266 7.50601 125.466 7.50601H125.316V6.90601H130.566V7.50601H130.416C128.616 7.50601 128.316 8.70601 128.316 10.056V27.906H127.716L119.316 9.45601V24.756C119.316 26.106 119.616 27.306 121.416 27.306H121.566V27.906H116.316V27.306H116.466C118.266 27.306 118.566 26.106 118.566 24.756V10.056C118.566 8.70601 118.266 7.50601 116.466 7.50601Z" fill="black"/>
<path d="M101.91 27.306H102.06C103.71 27.306 104.01 26.856 104.01 25.356V9.45601C104.01 7.95601 103.71 7.50601 102.06 7.50601H101.91V6.90601H113.85L114.96 11.706L114.36 11.856C113.46 8.85601 111.81 7.65601 109.56 7.65601H107.76C106.11 7.65601 105.81 8.10601 105.81 9.45601V16.806H107.91C109.26 16.806 110.46 16.506 110.46 14.706V14.556H111.06V19.806H110.46V19.656C110.46 17.856 109.26 17.556 107.91 17.556H105.81V25.356C105.81 26.706 106.11 27.156 107.76 27.156H109.86C112.11 27.156 113.76 25.956 114.66 22.956L115.26 23.106L114.15 27.906H101.91V27.306Z" fill="black"/>
<path d="M87.5234 17.4061C87.5234 10.5061 90.5234 6.45605 94.1234 6.45605C95.9234 6.45605 96.9734 7.50606 96.9734 7.50606L98.4134 6.60605L99.5234 12.9061L98.9234 13.0561C98.9234 13.0561 97.5734 7.20605 94.1234 7.20605C91.7234 7.20605 89.6234 10.6561 89.6234 17.4061C89.6234 24.4561 92.0234 27.3061 94.4234 27.3061C96.6734 27.3061 97.4234 24.6061 97.4234 24.6061V19.3561C97.4234 17.8561 97.1234 17.4061 95.4734 17.4061H95.3234V16.8061H101.323V17.4061H101.173C99.5234 17.4061 99.2234 17.8561 99.2234 19.3561V27.9061H98.6234L97.8734 25.2061C97.8734 25.2061 96.8234 28.3561 94.1234 28.3561C90.5234 28.3561 87.5234 24.3061 87.5234 17.4061Z" fill="black"/>
<path d="M69.2344 6.90601H78.8344V7.50601H77.4844C75.2344 7.50601 74.9344 7.95601 74.9344 9.75601V25.056C74.9344 26.856 75.2344 27.306 77.4844 27.306H78.8344V27.906H69.2344V27.306H70.5844C72.8344 27.306 73.1344 26.856 73.1344 25.056V9.75601C73.1344 7.95601 72.8344 7.50601 70.5844 7.50601H69.2344V6.90601Z" fill="black"/>
<path d="M59.782 27.906H54.832V27.306C56.632 27.306 57.052 26.196 57.382 24.756L61.792 6.60596H62.392L66.862 24.996C67.282 26.706 67.582 27.306 69.232 27.306V27.906H63.682V27.306H63.832C65.332 27.306 65.482 26.826 65.122 25.356L64.012 20.856H59.092L58.132 24.846C57.742 26.466 57.832 27.306 59.632 27.306H59.782V27.906ZM61.552 10.716L59.272 20.106H63.832L61.552 10.716Z" fill="black"/>
<path d="M222.588 46.2556C222.588 44.4558 221.388 42.6562 218.988 42.656C216.738 42.656 213.888 45.656 213.888 45.656V42.5056H213.588C212.988 42.9556 212.238 43.1062 210.588 43.1062H210.438V43.7058H210.588C211.938 43.7058 212.238 44.156 212.238 45.656V54.3562C212.238 55.856 211.938 56.3064 210.588 56.3064H210.438V56.906H215.688V56.3064H215.538C214.188 56.3064 213.888 55.856 213.888 54.3562V46.406C213.888 46.406 216.438 43.706 218.388 43.7058C220.038 43.7058 220.937 44.9058 220.938 46.2556V54.3562C220.937 55.856 220.638 56.3064 219.288 56.3064H219.138V56.906H224.388V56.3064H224.238C222.888 56.3064 222.588 55.856 222.588 54.3562V46.2556ZM204.443 57.156C205.918 57.6877 206.99 58.45 206.99 59.7556C206.99 60.2765 206.772 60.8149 206.351 61.2966C205.231 60.2541 204.51 58.7898 204.443 57.156ZM205.01 43.7361C204.829 43.6079 204.638 43.4884 204.438 43.3796V43.1062C204.438 39.7926 207.124 37.1064 210.438 37.1062H210.588C210.745 37.1062 210.876 37.1041 210.983 37.1013C211.791 36.7119 212.681 36.5056 213.588 36.5056H213.888C214.776 36.5056 215.619 36.6994 216.377 37.0457C217.143 36.8206 218.025 36.656 218.988 36.656L219.515 36.6687C222.133 36.7991 224.49 37.9024 226.172 39.7947C227.868 41.7027 228.588 44.0773 228.588 46.2556V52.0222C229.698 53.1111 230.388 54.6282 230.388 56.3064V56.906C230.388 60.2197 227.701 62.906 224.388 62.906H219.138C218.538 62.906 217.959 62.817 217.412 62.6531C216.866 62.8167 216.287 62.906 215.688 62.906H210.438C209.23 62.9059 208.106 62.5474 207.165 61.9333C207.987 61.2214 208.49 60.3241 208.49 59.3064C208.49 57.2582 206.66 56.1731 204.496 55.4763C204.682 54.1308 205.314 52.9285 206.238 52.0222V49.7898C206.63 49.1034 206.84 48.3096 206.84 47.4558C206.84 46.1361 206.33 44.9364 205.431 44.0964C205.671 43.7364 206.031 43.406 206.391 43.406C207.44 43.4062 207.53 44.366 208.49 44.366C209.12 44.366 209.54 43.8556 209.54 43.2556C209.54 42.6557 209.12 41.906 207.74 41.906C206.48 41.906 205.55 42.9561 205.01 43.7361Z" fill="white"/>
<path d="M207.74 41.906C206.48 41.906 205.55 42.9561 205.01 43.7361C204.08 43.0762 202.88 42.656 201.44 42.656C198.141 42.656 196.04 44.7559 196.04 47.4558C196.04 49.1657 196.85 50.606 198.26 51.446C197.42 51.8361 196.04 52.616 196.04 53.7556C196.04 54.7455 197.12 55.2858 198.59 55.7058C197.15 56.2459 195.141 57.3863 195.141 59.6062C195.141 62.1561 197.841 63.656 201.891 63.656C205.34 63.6559 208.49 61.8561 208.49 59.3064C208.49 54.2964 197.54 55.046 197.54 53.156C197.54 52.436 198.47 51.9259 198.83 51.7458C199.58 52.0758 200.45 52.2556 201.44 52.2556C204.74 52.2555 206.84 50.1558 206.84 47.4558C206.84 46.1361 206.33 44.9364 205.431 44.0964C205.671 43.7364 206.031 43.406 206.391 43.406C207.44 43.4062 207.53 44.366 208.49 44.366C209.12 44.366 209.54 43.8556 209.54 43.2556C209.54 42.6557 209.12 41.906 207.74 41.906ZM199.37 55.9158C202.61 56.6957 206.99 57.116 206.99 59.7556C206.99 61.2556 205.19 62.9059 201.891 62.906C198.741 62.906 196.79 61.5558 196.79 59.4558C196.79 57.206 198.38 56.3058 199.37 55.9158ZM201.44 43.406C203.69 43.4061 205.04 45.206 205.04 47.4558C205.04 49.7057 203.69 51.5055 201.44 51.5056C199.19 51.5056 197.84 49.7058 197.84 47.4558C197.84 45.2059 199.19 43.406 201.44 43.406ZM215.271 45.1619C215.003 46.117 214.537 47.0413 213.888 47.8396V46.406C213.888 46.406 214.461 45.8 215.271 45.1619ZM213.888 42.5056H213.588C212.988 42.9556 212.238 43.1062 210.588 43.1062H210.438V43.7058H210.588C211.938 43.7058 212.238 44.156 212.238 45.656V51.0232C212.046 51.5742 211.809 52.1084 211.527 52.6208C211.77 52.8466 212.01 53.0869 212.238 53.3464V54.3562C212.238 55.856 211.938 56.3064 210.588 56.3064H210.438V56.906H214.177C214.376 57.6403 214.49 58.4399 214.49 59.3064C214.49 63.3251 211.975 66.0675 209.685 67.5125C207.37 68.972 204.574 69.6559 201.891 69.656C199.245 69.656 196.382 69.1843 193.958 67.7605C191.397 66.2562 189.277 63.5811 189.146 59.9597L189.141 59.6062L189.145 59.3123C189.17 58.4463 189.311 57.6441 189.533 56.906H194.238V56.3064H192.288C190.977 56.3064 190.267 56.2345 189.884 55.9382C189.981 55.7129 190.087 55.4959 190.198 55.2849C190.097 54.8087 190.04 54.299 190.04 53.7556C190.04 52.6752 190.263 51.7299 190.598 50.9207C190.231 49.8235 190.04 48.6559 190.04 47.4558C190.04 44.4865 191.225 41.6654 193.44 39.6277C195.637 37.6067 198.505 36.656 201.44 36.656C202.264 36.656 203.065 36.7319 203.838 36.8787C204.88 36.3331 206.191 35.906 207.74 35.906L208.075 35.9119C209.767 35.9724 211.703 36.5036 213.281 37.9968C214.948 39.5731 215.54 41.5892 215.54 43.2556C215.54 43.5866 215.513 43.9217 215.464 44.2566C214.539 44.9718 213.888 45.656 213.888 45.656V42.5056Z" fill="white"/>
<path d="M196.79 59.4558C196.79 57.206 198.38 56.3058 199.37 55.9158C199.65 55.9832 199.939 56.0474 200.232 56.1111C200.234 56.1758 200.238 56.2411 200.238 56.3064V56.906C200.238 58.8736 199.29 60.6195 197.827 61.7136C197.156 61.1342 196.79 60.3654 196.79 59.4558ZM189.138 42.5056C188.538 42.9556 187.488 43.1062 185.238 43.1062H183.888V43.7058H186.438C187.788 43.7058 187.788 43.8564 187.788 45.0564V54.0564C187.788 56.006 187.637 56.3064 184.938 56.3064H182.988V56.906H194.238V56.3064H192.288C189.588 56.3064 189.438 56.006 189.438 54.0564V42.5056H189.138ZM176.988 56.3064C176.988 54.6163 177.687 53.0893 178.812 51.9988C179.218 52.4029 179.459 52.9202 179.459 53.6062C179.459 54.8092 178.687 56.011 176.988 56.4402V56.3064ZM198.402 51.989C199.082 52.6448 199.606 53.459 199.917 54.3728C198.531 54.0534 197.54 53.7246 197.54 53.156C197.54 52.6482 198.003 52.2458 198.402 51.989ZM177.888 43.1062C177.888 40.9476 179.028 39.0548 180.738 37.9978C180.743 33.8479 184.087 30.5056 188.238 30.5056L188.625 30.5154C192.597 30.7156 195.738 33.9819 195.738 38.0056C195.738 39.0006 195.543 39.9487 195.194 40.8162C195.351 41.3522 195.437 41.9188 195.438 42.5056V50.4255C196.374 50.6155 197.23 51.0249 197.952 51.5955C197.121 52.0196 196.04 52.7468 196.04 53.7556C196.04 54.7455 197.12 55.2858 198.59 55.7058C197.15 56.2459 195.141 57.3863 195.141 59.6062C195.141 60.7627 195.697 61.702 196.682 62.3845C195.935 62.7181 195.109 62.9059 194.238 62.906H182.988C179.778 62.906 177.157 60.3849 176.996 57.2146C179.409 56.7667 180.959 55.2722 180.959 53.156C180.959 52.233 180.691 51.5256 180.242 50.9705C180.723 50.7223 181.242 50.5363 181.788 50.4255V49.3269C179.812 48.5885 178.331 46.8393 177.973 44.7078C179.497 46.0369 180.06 47.906 180.06 47.906L180.659 47.7556L179.459 42.656L178.109 43.7058C178.109 43.7058 178.036 43.6409 177.888 43.5437V43.1062ZM188.238 33.5056C186.072 33.5056 184.248 35.0597 183.828 37.1072C183.848 37.107 183.868 37.1062 183.888 37.1062H185.238C185.741 37.1062 186.122 37.0973 186.414 37.0828C186.483 37.0793 186.544 37.0737 186.598 37.0701C186.851 36.9519 187.111 36.852 187.378 36.7703C186.989 37.0388 186.738 37.488 186.738 38.0056C186.738 38.8456 187.398 39.5056 188.238 39.5056C189.026 39.5054 189.655 38.9256 189.73 38.1609L189.738 38.0056C189.738 37.2709 189.233 36.6738 188.544 36.5359C188.741 36.5163 188.939 36.5056 189.138 36.5056H189.438C190.643 36.5056 191.765 36.8626 192.705 37.4744C192.449 35.3237 190.659 33.6237 188.469 33.5115L188.238 33.5056Z" fill="white"/>
<path d="M174.508 36.656C175.612 36.656 176.61 36.7846 177.495 36.988C178.761 36.5494 180.157 36.5393 181.456 36.9978C183.383 37.678 184.831 39.2928 185.299 41.282L185.727 43.1013C185.571 43.1031 185.408 43.1062 185.238 43.1062H183.887V43.7058H185.87L186.5 46.3816C186.767 47.5172 186.69 48.6537 186.339 49.6833C186.734 50.719 186.959 51.8779 186.959 53.156C186.959 54.2383 186.788 55.2703 186.473 56.2332C186.086 56.2863 185.585 56.3064 184.937 56.3064H182.988V56.906H186.226C185.552 58.5411 184.443 59.9464 183.021 61.0125C180.747 62.7179 177.989 63.3562 175.409 63.3562C174.22 63.3562 173.152 63.2045 172.224 62.988C170.931 63.462 169.496 63.4843 168.162 63.0134C166.235 62.3332 164.786 60.7194 164.318 58.7302L163.835 56.6794C166.182 55.4573 166.69 53.0056 166.69 53.0056L166.09 52.8562C166.087 52.8707 165.555 54.878 163.633 55.823L163.118 53.6306C162.766 52.1351 163.007 50.6365 163.69 49.3845C163.661 49.2922 163.633 49.1992 163.607 49.1062H166.99V48.8064C166.99 46.5253 165.967 44.3235 163.865 43.282C164.591 41.4083 165.886 39.926 167.292 38.906C169.399 37.3768 171.985 36.6561 174.508 36.656ZM178.109 43.7058C178.109 43.7058 176.908 42.656 174.508 42.656C171.659 42.6561 169.258 44.3065 169.258 46.5564C169.259 51.8059 179.459 49.1363 179.459 53.6062C179.458 55.1061 178.259 56.606 175.559 56.6062C170.931 56.6062 169.572 52.1481 169.559 52.1062L168.959 52.2556L170.159 57.3562L171.508 56.3064C171.508 56.3064 173.009 57.3562 175.409 57.3562C178.709 57.3562 180.959 55.706 180.959 53.156C180.959 47.4561 170.759 49.9459 170.758 46.1062C170.758 44.7563 172.109 43.4061 174.508 43.406C178.708 43.406 180.059 47.906 180.059 47.906L180.659 47.7556L179.459 42.656L178.109 43.7058ZM163.531 44.3357C164.488 45.1675 165.04 46.536 165.04 48.3562H163.429C163.335 47.8661 163.28 47.37 163.264 46.8718L163.258 46.5564L163.264 46.2341C163.287 45.5689 163.38 44.9356 163.531 44.3357Z" fill="white"/>
<path d="M160.99 36.656C164.629 36.656 167.826 38.0691 170.038 40.615C170.745 41.4287 171.307 42.3108 171.746 43.2263C170.264 43.8953 169.259 45.1003 169.259 46.5564C169.259 48.6801 170.929 49.5073 172.917 50.0359C172.838 50.5455 172.694 51.0333 172.495 51.4919C172.722 52.3583 172.76 53.2876 172.566 54.2214L170.684 53.8318C170.682 53.8331 170.68 53.8344 170.679 53.8357C172.565 54.2271 172.565 54.2261 172.564 54.2283C172.564 54.2295 172.564 54.2322 172.563 54.2341L172.555 54.2751C172.551 54.2943 172.546 54.3151 172.541 54.3367C172.531 54.3799 172.52 54.4284 172.507 54.4812C172.481 54.587 172.448 54.7126 172.407 54.8542C172.347 55.0647 172.266 55.3159 172.163 55.5984C170.224 54.281 169.568 52.1352 169.56 52.1062L168.959 52.2556L170.159 57.3562L171.509 56.3064C171.509 56.3064 171.61 56.3761 171.8 56.4802C171.478 57.1822 171.018 58.0142 170.362 58.8591C168.528 61.2234 165.395 63.3561 160.841 63.3562C155.305 63.3562 151.103 59.9798 149.323 55.2439C151.519 53.5528 152.953 50.5864 152.953 46.406C152.953 44.1326 152.527 42.2188 151.787 40.6726C151.857 40.5951 151.929 40.519 152.002 40.4431C154.404 37.928 157.656 36.656 160.99 36.656ZM160.99 42.656C157.39 42.6561 154.391 45.3559 154.391 50.0056C154.391 54.5056 157.241 57.3562 160.841 57.3562C165.79 57.356 166.69 53.0056 166.69 53.0056L166.091 52.8562C166.086 52.8751 165.18 56.3064 161.44 56.3064C159.04 56.3064 156.341 54.3556 156.341 50.0056C156.341 49.7058 156.34 49.406 156.37 49.1062H166.99V48.8064C166.99 45.6564 165.04 42.656 160.99 42.656ZM148.391 50.0056C148.391 47.2634 149.069 44.6642 150.432 42.4705C150.7 43.595 150.853 44.9011 150.853 46.406C150.853 49.8585 150.066 52.2661 148.875 53.8259C148.559 52.6119 148.391 51.3288 148.391 50.0056ZM160.841 43.406C163.391 43.4062 165.04 45.2064 165.04 48.3562H156.431C156.881 44.9962 158.741 43.406 160.841 43.406ZM172.089 44.0046C172.64 45.3981 172.919 46.8481 172.978 48.2468C171.685 47.842 170.759 47.2624 170.759 46.1062C170.759 45.3153 171.222 44.5241 172.089 44.0046Z" fill="white"/>
<path d="M152.954 46.406C152.954 39.5061 149.054 35.9061 144.254 35.906H139.004V36.5056H139.153C140.803 36.5056 141.103 36.956 141.104 38.4558V54.3562C141.103 55.856 140.803 56.3064 139.153 56.3064H139.004V56.906H144.254C148.904 56.9059 152.709 53.5272 152.942 47.0427L152.954 46.406ZM144.254 36.656C147.554 36.6561 150.854 39.3561 150.854 46.406L150.844 47.0544C150.649 53.622 147.48 56.1559 144.254 56.156C143.204 56.156 142.903 55.706 142.903 54.3562V38.4558C142.903 37.106 143.204 36.656 144.254 36.656ZM158.793 49.1062C158.577 50.8876 158.139 52.5796 157.47 54.1394C156.784 53.1352 156.342 51.7668 156.342 50.0056C156.342 49.7058 156.341 49.406 156.371 49.1062H158.793ZM156.432 48.3562C156.728 46.1419 157.637 44.6959 158.823 43.9675C158.91 44.7646 158.954 45.5786 158.954 46.406C158.954 47.0651 158.926 47.7158 158.871 48.3562H156.432ZM158.704 43.0496C156.205 43.9549 154.392 46.3905 154.392 50.0056C154.392 52.5003 155.268 54.4874 156.662 55.7634C156.155 56.6474 155.561 57.4773 154.878 58.2419C152.071 61.3834 148.216 62.906 144.254 62.906H139.004C135.69 62.906 133.004 60.2197 133.004 56.906V56.3064C133.004 54.4823 133.819 52.8492 135.104 51.7488V41.0623C133.819 39.9618 133.004 38.3295 133.004 36.5056V35.906C133.004 32.5923 135.69 29.906 139.004 29.906H144.254C148.216 29.9061 152.071 31.4286 154.878 34.5701C156.954 36.8929 158.206 39.8122 158.704 43.0496Z" fill="white"/>
<path d="M121.902 29.4558C126.506 29.4558 130.414 32.6179 130.979 37.1638C133.902 37.5667 136.152 40.0731 136.152 43.1062V43.7058C136.152 45.7698 135.11 47.59 133.523 48.6697C133.496 48.8117 133.466 48.9533 133.438 49.0955C134.903 50.1894 135.853 51.9365 135.853 53.906C135.853 54.1717 135.88 55.8493 135.346 57.5925C135.073 58.4827 134.518 59.8594 133.326 61.0818C131.976 62.4661 130.083 63.3562 127.902 63.3562C126.693 63.3561 125.635 63.061 124.772 62.6902C123.626 63.1179 122.367 63.3562 121.003 63.3562C117.973 63.3562 114.914 62.3025 112.598 59.9861C110.261 57.6499 109.152 54.5041 109.152 51.2058C109.152 47.441 110.567 44.6482 112.185 42.6052C112.071 41.874 112.003 41.1331 112.003 40.406C112.003 37.9764 112.605 35.3097 114.328 33.1082C116.17 30.7542 118.907 29.4559 121.902 29.4558ZM121.902 35.4558C119.503 35.456 118.003 37.4062 118.003 40.406C118.003 41.486 118.303 42.8962 118.783 44.3962C116.893 46.0462 115.152 48.0259 115.152 51.2058C115.152 55.1058 117.703 57.3562 121.003 57.3562C122.653 57.3561 123.913 56.6363 124.873 55.3464C125.983 56.576 127.062 57.356 127.902 57.3562C129.852 57.3562 129.853 54.446 129.853 53.906H129.253C129.253 54.056 129.283 55.556 128.203 55.5564C127.633 55.5564 126.793 54.836 125.833 53.696C126.703 51.8661 127.303 49.4362 127.812 46.5564C128.112 44.8765 128.353 43.706 130.152 43.7058V43.1062H125.322V43.7058H125.473C126.973 43.7058 127.333 44.7563 127.062 46.4363C126.673 48.8062 126.193 51.2062 125.353 53.0662C123.583 50.7563 121.603 47.1563 120.493 43.8865C122.653 41.9366 125.052 40.6761 125.053 38.3064C125.053 36.7464 123.852 35.4558 121.902 35.4558ZM119.112 45.3259C120.342 48.6259 122.382 52.3461 124.362 54.7761C123.612 55.7359 122.683 56.3063 121.453 56.3064C119.353 56.3064 117.253 54.8056 117.253 50.7556C117.253 48.3559 118.032 46.6758 119.112 45.3259ZM121.812 36.2058C122.772 36.2058 123.402 37.0159 123.402 38.4558C123.402 40.4057 121.933 41.7558 120.253 43.1658C119.863 41.8758 119.652 40.676 119.652 39.656C119.652 37.2562 120.703 36.206 121.812 36.2058Z" fill="white"/>
<path d="M98.667 31.7058C101.778 31.706 104.336 34.0743 104.637 37.1062H105.267C108.58 37.1062 111.267 39.7925 111.267 43.1062V43.8562C111.267 45.4596 110.636 46.9146 109.611 47.991C111.555 49.2684 112.645 51.6123 112.229 54.0251L106.722 53.075C106.725 53.0756 106.728 53.0763 106.73 53.0769C112.229 54.0251 112.229 54.0283 112.229 54.031C112.228 54.032 112.228 54.035 112.228 54.0369C112.227 54.0404 112.226 54.044 112.226 54.0476C112.224 54.0555 112.222 54.0645 112.221 54.073C112.218 54.0897 112.215 54.1076 112.211 54.1267C112.204 54.1654 112.195 54.2094 112.186 54.2576C112.166 54.3537 112.14 54.4688 112.108 54.6003C112.045 54.8622 111.955 55.1977 111.826 55.5828C111.576 56.3337 111.149 57.3799 110.436 58.4695C108.916 60.7893 105.984 63.3562 101.366 63.3562C98.7787 63.3561 96.0359 62.4917 93.9424 60.3474C92.3868 58.7539 91.5258 56.7991 91.1875 54.7869C91.8023 53.8452 91.9775 53.0056 91.9775 53.0056L91.377 52.8562C91.3741 52.867 91.2838 53.2005 91.0518 53.657C91.0283 53.3396 91.0166 53.0221 91.0166 52.7058V49.5808C88.5825 48.8162 86.8165 46.5426 86.8164 43.8562V43.4304C88.6484 43.5842 89.2772 44.5193 89.2773 45.2058C89.2773 45.8058 88.9775 46.1061 88.9775 46.7361C88.9776 47.456 89.4573 47.906 90.1172 47.906C90.8372 47.906 91.377 47.396 91.377 46.406C91.377 44.55 89.4748 42.8302 86.834 42.6687C87.044 39.7541 89.3343 37.4161 92.2285 37.1345L92.2979 36.7195C92.7801 33.8264 95.2838 31.7058 98.2168 31.7058H98.667V37.7058H98.2168L97.7666 40.406C97.3766 42.716 97.0166 43.1062 94.7666 43.1062H92.8164V43.8562H97.0166V52.7058C97.0166 55.7057 98.8164 57.356 101.366 57.3562C105.566 57.3562 106.316 53.0056 106.316 53.0056L105.717 52.8562C105.711 52.882 104.955 56.3062 101.967 56.3064C99.8573 56.3064 98.8022 55.1194 98.6787 53.1169L98.667 52.7058V43.8562H105.267V43.1062H98.667V31.7058Z" fill="white"/>
<path d="M86.4258 36.656C90.2047 36.6562 94.9057 38.7023 96.666 42.8269C96.2486 43.0438 95.6549 43.1062 94.7646 43.1062H92.8145V43.8562H97.0146V48.8171C96.9511 49.0221 96.8767 49.2271 96.793 49.4324C96.8702 49.5366 96.9443 49.6428 97.0146 49.7517V52.7058C97.0146 53.2003 97.0641 53.6581 97.1572 54.0779L93.1484 53.2478L93.1465 53.2488C95.369 53.7088 96.5408 53.9547 97.1592 54.0837C97.2535 54.5068 97.3929 54.8908 97.5723 55.2351C97.5066 55.4349 97.4299 55.6578 97.335 55.8972C97.019 56.694 96.4959 57.7656 95.6475 58.8591C93.8131 61.2235 90.6797 63.3562 86.125 63.3562C81.3388 63.3561 77.5515 60.8309 75.4629 57.0867C76.0156 56.9468 76.7598 56.906 78.0859 56.906H78.2363V56.3064H78.0859C76.7363 56.3063 76.4365 55.8559 76.4365 54.3562V42.5056H76.1367C75.9475 42.6476 75.7426 42.7595 75.5 42.8464C75.9762 42.0201 76.5484 41.2432 77.2188 40.531C79.6435 37.9548 82.959 36.656 86.4258 36.656ZM74.7861 55.6931C74.6528 55.3725 74.5312 55.0452 74.4209 54.7117C74.6465 54.4974 74.7807 54.3619 74.7861 54.3562V55.6931ZM73.6758 50.0056C73.6758 48.1116 74.0034 46.2585 74.6787 44.5525C74.7573 44.8327 74.7861 45.1946 74.7861 45.656V53.6062C74.7794 53.6133 74.5744 53.8249 74.2432 54.1296C73.8731 52.8266 73.6758 51.4398 73.6758 50.0056ZM89.2627 45.4177C89.2054 45.886 88.9756 46.1846 88.9756 46.7361C88.9756 47.456 89.4553 47.906 90.1152 47.906C90.7903 47.906 91.3073 47.4577 91.3691 46.5857L91.375 46.406C91.375 44.4561 89.2756 42.6562 86.4258 42.656C82.5259 42.656 79.6759 45.5058 79.6758 50.0056L79.6836 50.4226C79.854 54.681 82.6376 57.356 86.125 57.3562C91.075 57.3562 91.9756 53.0056 91.9756 53.0056L91.375 52.8562C91.3658 52.8911 90.4562 56.3063 86.7256 56.3064C84.3256 56.3064 81.625 54.3556 81.625 50.0056C81.6251 45.3559 83.8755 43.406 86.2754 43.406C88.5252 43.406 89.2753 44.4558 89.2754 45.2058L89.2627 45.4177Z" fill="white"/>
<path d="M67.7383 36.5056C68.9298 36.5056 70.0391 36.855 70.9727 37.4539C71.6027 37.2292 72.2811 37.1062 72.9883 37.1062H73.1387C73.2958 37.1062 73.4263 37.1041 73.5342 37.1013C74.3421 36.712 75.2319 36.5056 76.1387 36.5056H76.4385C79.7519 36.5057 82.4383 39.1922 82.4385 42.5056V43.8962C80.7337 45.1422 79.6778 47.2677 79.6777 50.0056C79.6777 53.6793 81.5771 56.2525 84.2334 57.074C84.1444 60.31 81.4958 62.906 78.2383 62.906H78.0879C77.7067 62.906 77.4165 62.9099 77.1885 62.9167C77.0476 62.921 76.9448 62.9277 76.8721 62.9324C76.2952 63.1121 75.6939 63.2058 75.0879 63.2058H74.7881C74.0585 63.2058 73.3596 63.0751 72.7129 62.8367C71.8577 63.1266 70.8299 63.3562 69.6885 63.3562C66.8604 63.3562 64.2982 62.236 62.5039 60.2175C61.6476 59.2542 61.0409 58.1713 60.6494 57.0554C61.1894 56.9397 61.9186 56.906 63.1455 56.906H63.2959V56.3064H63.1455C61.7957 56.3064 61.4961 55.856 61.4961 54.3562V37.7947C62.3301 37.3553 63.2799 37.1062 64.2881 37.1062H64.4385C64.5956 37.1062 64.7261 37.1041 64.834 37.1013C65.642 36.712 66.5317 36.5056 67.4385 36.5056H67.7383ZM82.4385 52.0232C83.3777 52.9444 84.0134 54.1715 84.1875 55.5437C82.7486 54.6131 81.627 52.8078 81.627 50.0056C81.627 48.2935 81.9332 46.9479 82.4385 45.9304V52.0232ZM58.293 43.905C59.4355 44.5451 59.8457 45.6935 59.8457 46.7058V47.738C58.9198 46.7184 58.341 45.3791 58.293 43.905ZM59.8457 44.156C59.8457 44.156 59.3844 43.4998 58.2891 43.0554C58.3017 41.5226 58.8885 40.1268 59.8457 39.073V44.156ZM66.0879 53.7556C66.0879 55.5556 67.2885 57.3562 69.6885 57.3562C71.9283 57.356 74.7627 54.3829 74.7881 54.3562V57.2058H75.0879C75.6878 56.9658 76.4381 56.906 78.0879 56.906H78.2383V56.3064H78.0879C76.7382 56.3063 76.4385 55.8559 76.4385 54.3562V42.5056H76.1387C75.5387 42.9556 74.7884 43.1062 73.1387 43.1062H72.9883V43.7058H73.1387C74.4883 43.7059 74.7881 44.1562 74.7881 45.656V53.6062C74.7641 53.6316 72.2288 56.3064 70.2881 56.3064C68.7415 56.3063 67.8541 55.2515 67.749 54.0076L67.7383 53.7556V42.5056H67.4385C66.8385 42.9556 66.0883 43.1062 64.4385 43.1062H64.2881V43.7058H64.4385C65.7883 43.7059 66.0879 44.1561 66.0879 45.656V53.7556Z" fill="white"/>
<path d="M61.4951 29.0056C64.8085 29.0058 67.4949 31.6922 67.4951 35.0056V42.5056H67.4375C66.8375 42.9556 66.0873 43.1062 64.4375 43.1062H64.2871V43.7058H64.4375C65.7873 43.7059 66.0869 44.1561 66.0869 45.656V53.7556C66.0869 55.45 67.1507 57.1437 69.2773 57.3367C69.0565 60.4492 66.4637 62.9059 63.2949 62.906H63.1445C62.7631 62.906 62.4723 62.9099 62.2441 62.9167C62.1036 62.921 62.0013 62.9277 61.9287 62.9324C61.3518 63.1121 60.7506 63.2058 60.1445 63.2058H59.8447C59.3579 63.2058 58.8849 63.1463 58.4316 63.0369C57.6265 63.2365 56.7474 63.3562 55.7949 63.3562C52.2789 63.3562 49.0067 61.9566 46.7148 59.2224C45.9657 58.3286 45.3741 57.3513 44.915 56.324C46.6596 55.1499 47.8363 53.0492 47.9453 50.4099L47.9541 50.0056C47.954 47.2059 46.7721 44.9666 44.9707 43.7253C45.4602 42.6694 46.0907 41.6701 46.8799 40.7625C48.3043 39.1245 50.095 37.9514 52.0967 37.2888C52.0633 37.0326 52.0449 36.771 52.0449 36.5056V35.906C52.0449 32.5951 54.7264 29.9106 58.0361 29.906C58.9774 29.3231 60.0693 29.0057 61.1943 29.0056H61.4951ZM56.0947 43.406C58.9446 43.406 59.8446 45.2059 59.8447 46.7058V52.406C59.8447 54.506 58.4947 56.6062 56.0947 56.6062C53.4791 56.6062 51.7077 54.3536 51.5996 50.3943L51.5947 50.0056C51.5948 45.9558 53.3948 43.406 56.0947 43.406ZM67.7373 52.2732C68.6688 53.2987 69.2479 54.6482 69.29 56.1326C68.2789 55.7552 67.7373 54.8018 67.7373 53.7556V52.2732ZM43.6445 50.0056C43.6446 48.2632 43.9168 46.5192 44.499 44.8796C45.412 45.9829 46.0038 47.6985 46.0039 50.0056L45.998 50.408C45.9325 52.5426 45.3418 54.1372 44.4629 55.1746C43.8962 53.5118 43.6445 51.7503 43.6445 50.0056ZM49.6445 50.0056C49.6445 54.5056 52.0449 57.3562 55.7949 57.3562C58.6319 57.3561 59.834 55.1263 59.8447 55.1062V57.2058H60.1445C60.7445 56.9658 61.4946 56.906 63.1445 56.906H63.2949V56.3064H63.1445C61.7947 56.3064 61.4951 55.856 61.4951 54.3562V35.0056H61.1943C60.5943 35.6056 59.8443 35.906 58.1943 35.906H58.0449V36.5056H58.1943C59.5443 36.5056 59.8447 36.956 59.8447 38.4558V44.156C59.8447 44.156 58.7947 42.656 56.0947 42.656C52.1948 42.656 49.6447 45.6558 49.6445 50.0056Z" fill="white"/>
<path d="M47.9551 50.0056C47.9549 45.6559 45.1047 42.6561 41.5049 42.656C37.905 42.656 35.0549 45.6558 35.0547 50.0056L35.0625 50.4099C35.2331 54.5406 38.0174 57.3562 41.5049 57.3562C44.9922 57.3561 47.7757 54.5405 47.9463 50.4099L47.9551 50.0056ZM37.0049 50.0056C37.005 45.6559 39.105 43.406 41.5049 43.406C43.9047 43.4062 46.0048 45.656 46.0049 50.0056L45.999 50.408C45.8735 54.4944 43.8297 56.6061 41.5049 56.6062C39.1799 56.6062 37.1363 54.4945 37.0107 50.408L37.0049 50.0056ZM51.5957 50.0056C51.5958 47.8054 52.1277 46.0485 53.0459 44.9021C53.6381 46.4967 53.955 48.2274 53.9551 50.0056C53.9551 51.7965 53.6326 53.5393 53.0322 55.1433C52.1751 54.0846 51.6574 52.4757 51.6006 50.3943L51.5957 50.0056ZM49.6455 50.0056C49.6455 52.9761 50.6919 55.2274 52.4814 56.4148C50.4859 60.4657 46.5817 63.3561 41.5049 63.3562C34.0036 63.3562 29.0547 57.0495 29.0547 50.0056C29.0547 47.676 29.5987 45.4284 30.5947 43.4617C31.2375 43.5987 31.5214 43.9794 31.5215 44.4558C31.5215 45.0557 31.2218 45.206 31.2217 45.8357C31.2217 46.4956 31.7015 47.0054 32.3613 47.0056C33.0813 47.0056 33.6221 46.4956 33.6221 45.5056C33.6219 43.8094 32.4862 42.9077 31.0059 42.7019C33.1134 39.1262 36.8096 36.656 41.5049 36.656C46.6245 36.6561 50.5534 39.5943 52.5332 43.699C50.7175 44.9348 49.6456 47.1863 49.6455 50.0056Z" fill="white"/>
<path d="M33.6191 45.5056C33.6189 43.5559 32.1182 42.656 30.3184 42.656C27.9281 42.6564 25.3895 46.3761 25.3691 46.406V42.5056H25.0684C24.4684 42.9556 23.4187 43.1062 21.1689 43.1062H20.7188V43.7058H22.3691C23.7188 43.7058 23.7188 43.8565 23.7188 45.0564V54.0564C23.7187 56.006 23.5686 56.3064 20.8691 56.3064H20.7188V56.906H28.6689V56.3064H28.2188C25.5189 56.3064 25.3692 56.006 25.3691 54.0564V47.4558C25.3964 47.4149 28.0785 43.4063 30.0186 43.406C31.0684 43.406 31.5185 43.8559 31.5186 44.4558C31.5186 45.0557 31.2188 45.206 31.2188 45.8357C31.2188 46.4956 31.6986 47.0054 32.3584 47.0056C33.0333 47.0056 33.5502 46.5579 33.6123 45.6863L33.6191 45.5056ZM37.002 50.0056C37.002 46.9438 38.0429 44.9235 39.4961 43.9949C39.5768 44.4888 39.6191 44.9937 39.6191 45.5056C39.6191 47.0632 39.1841 49.0041 37.7285 50.6296C37.5179 50.8648 37.2953 51.0788 37.0664 51.2761C37.0243 50.8749 37.002 50.4511 37.002 50.0056ZM14.7188 43.7058V43.1062C14.7188 41.3321 15.4889 39.7379 16.7129 38.6394C17.1465 39.2764 17.4072 40.0992 17.4072 41.156C17.4072 43.3095 16.3437 44.5494 14.9053 45.199C14.7831 44.7217 14.7188 44.2212 14.7188 43.7058ZM39.292 43.0603C36.8021 44.0169 35.0519 46.5968 35.0518 50.0056C35.0518 50.846 35.1588 51.6363 35.3564 52.364C34.784 52.6213 34.1942 52.7964 33.6064 52.8972C34.2761 53.8654 34.6689 55.0401 34.6689 56.3064V56.906C34.6689 60.2197 31.9826 62.9059 28.6689 62.906H20.7188C17.405 62.906 14.7188 60.2197 14.7188 56.906V56.3064C14.7188 54.0858 15.9257 52.1476 17.7188 51.1101V48.9011C16.6141 48.2619 15.7321 47.2818 15.2178 46.1033C17.7303 45.3854 19.5068 43.7899 19.5068 41.156C19.5068 39.6874 18.9534 38.5654 18.0293 37.7419C18.8383 37.3355 19.7516 37.1062 20.7188 37.1062H21.1689C21.6714 37.1062 22.0528 37.0973 22.3447 37.0828C22.4137 37.0793 22.4748 37.0737 22.5283 37.0701C23.319 36.7005 24.1856 36.5057 25.0684 36.5056H25.3691C26.2425 36.5057 27.0718 36.6935 27.8203 37.0291C28.5645 36.8058 29.403 36.656 30.3184 36.656L30.6621 36.6609C32.4061 36.7149 34.5083 37.1924 36.3379 38.6218C37.8191 39.7791 38.8147 41.3281 39.292 43.0603Z" fill="white"/>
<path d="M19.5098 41.156C19.5098 37.406 15.91 35.906 11.71 35.906H6.16016V36.5056H6.30957C7.9595 36.5056 8.25974 36.956 8.25977 38.4558V54.3562C8.25974 55.856 7.9595 56.3064 6.30957 56.3064H6.16016V56.906H12.1602V56.3064H12.0098C10.36 56.3064 10.0596 55.856 10.0596 54.3562V46.5564H11.71C15.7786 46.5564 19.2837 45.0076 19.499 41.5017L19.5098 41.156ZM11.71 36.656C14.41 36.656 17.4102 37.556 17.4102 41.156L17.4014 41.4861C17.2246 44.8206 14.3546 45.8064 11.71 45.8064H10.0596V38.4558C10.0596 37.106 10.3602 36.656 11.4102 36.656H11.71ZM25.5098 41.156C25.5098 41.7691 25.4615 42.3604 25.3721 42.9294V42.5056H25.0713C24.4713 42.9556 23.4217 43.1062 21.1719 43.1062H20.7217V43.7058H22.3721C23.7217 43.7058 23.7217 43.8565 23.7217 45.0564V47.1462C22.8339 48.4615 21.6678 49.5443 20.3408 50.365C19.0828 51.143 17.7209 51.6688 16.3477 52.0115C17.465 53.1012 18.1602 54.6224 18.1602 56.3064V56.906C18.1602 60.2197 15.4738 62.9059 12.1602 62.906H6.16016C2.84645 62.906 0.160156 60.2197 0.160156 56.906V56.3064C0.160156 54.4823 0.975155 52.8492 2.25977 51.7488V41.0623C0.975434 39.9618 0.160156 38.3295 0.160156 36.5056V35.906C0.160156 32.5923 2.84645 29.906 6.16016 29.906H11.71C14.3752 29.906 17.5338 30.358 20.2422 31.9617C23.2898 33.7662 25.5098 36.9368 25.5098 41.156Z" fill="white"/>
<path d="M176.469 26.7058C176.469 25.0268 175.534 23.555 174.161 22.782C173.468 22.9923 172.732 23.1062 171.969 23.1062C171.205 23.1062 170.469 22.9925 169.775 22.782C168.402 23.5551 167.469 25.0271 167.469 26.7058C167.469 29.1795 169.495 31.2058 171.969 31.2058C174.442 31.2058 176.469 29.1795 176.469 26.7058ZM166.02 22.1306C166.175 22.571 166.262 23.0439 166.262 23.5564C166.262 25.3576 165.504 26.4547 164.477 27.0447C164.472 26.9324 164.469 26.8193 164.469 26.7058C164.469 24.9806 165.047 23.3953 166.02 22.1306ZM176.463 15.3757C176.346 13.0841 174.491 11.2293 172.199 11.1121L171.969 11.1062C169.495 11.1062 167.469 13.1325 167.469 15.6062L167.475 15.8367C167.556 17.4188 168.466 18.7915 169.775 19.5291C170.469 19.3186 171.205 19.2058 171.969 19.2058C172.732 19.2058 173.468 19.3188 174.161 19.5291C175.471 18.7916 176.382 17.4192 176.463 15.8367L176.469 15.6062L176.463 15.3757ZM179.469 15.6062C179.469 17.8097 178.527 19.786 177.022 21.156C178.527 22.526 179.469 24.5023 179.469 26.7058C179.469 30.8595 176.122 34.2058 171.969 34.2058C168.236 34.2058 165.157 31.5039 164.57 27.9421C166.493 27.2157 167.912 25.5239 167.912 22.8064C167.912 20.4995 166.498 18.9097 164.73 17.5789C164.593 17.0699 164.506 16.5394 164.479 15.9929L164.469 15.6062L164.479 15.2195C164.563 13.5431 165.193 12.015 166.196 10.8083C166.768 12.0139 167.012 13.0564 167.012 13.0564L167.611 12.906L167.083 9.90894C168.394 8.78466 170.099 8.1062 171.969 8.1062L172.355 8.11597C176.328 8.31605 179.469 11.5822 179.469 15.6062Z" fill="white"/>
<path d="M161.761 0.455811C162.9 0.455811 163.923 0.6143 164.815 0.850342C166.164 0.455619 167.626 0.539187 168.941 1.12476C170.764 1.93619 172.064 3.60062 172.41 5.56519L173.52 11.865C173.703 12.9051 173.604 13.9327 173.279 14.8689C173.025 14.4105 172.538 14.1062 171.968 14.1062C171.128 14.1062 170.468 14.7662 170.468 15.6062C170.468 16.4461 171.128 17.1062 171.968 17.1062C172.092 17.1062 172.212 17.0897 172.327 17.0623C173.259 18.6309 173.911 20.5413 173.911 22.8064C173.911 24.0317 173.744 25.2136 173.419 26.3259C173.254 25.6755 172.676 25.2058 171.968 25.2058C171.128 25.2058 170.468 25.8659 170.468 26.7058C170.468 27.5458 171.128 28.2058 171.968 28.2058C172.279 28.2058 172.565 28.1139 172.803 27.9568C172.173 29.2985 171.282 30.5006 170.137 31.5027C167.781 33.5638 164.856 34.3562 162.211 34.3562C160.967 34.3562 159.852 34.1685 158.896 33.9041C157.568 34.3406 156.11 34.3083 154.777 33.7712C152.857 32.997 151.471 31.2863 151.111 29.2468L150.819 27.5906C152.071 26.7554 152.925 25.2081 152.925 22.8064V10.0564C152.925 8.70649 153.225 7.50579 155.024 7.50562H155.175V6.90601H151.233C151.885 5.48758 152.832 4.24108 154.02 3.22632C156.296 1.2809 159.13 0.455811 161.761 0.455811ZM161.761 6.45581C158.911 6.45581 156.211 8.25594 156.211 11.7058C156.211 17.1058 166.261 18.0064 166.261 23.5564C166.261 26.556 164.161 27.6061 162.211 27.6062C158.161 27.6062 156.511 21.7556 156.511 21.7556L155.911 21.906L157.021 28.2058L158.461 27.156C158.476 27.1681 159.972 28.3562 162.211 28.3562C165.211 28.3561 167.911 26.5561 167.911 22.8064C167.911 16.6564 157.86 15.6058 157.86 10.9558C157.861 8.25596 160.111 7.20581 161.761 7.20581C165.661 7.20581 167.011 13.0564 167.011 13.0564L167.61 12.906L166.501 6.6062L165.061 7.50562C165.039 7.48659 163.841 6.45581 161.761 6.45581ZM150.935 7.62476C151.977 7.9596 152.175 8.95865 152.175 10.0564V22.9558C152.175 24.7557 151.58 25.9606 150.651 26.6375L150.002 22.947C149.626 20.8142 150.428 18.731 151.959 17.3894C150.968 15.907 150.211 14.0208 150.211 11.7058C150.211 10.2535 150.463 8.88066 150.935 7.62476Z" fill="white"/>
<path d="M146.773 0.906006C147.319 0.906006 147.847 0.980702 148.349 1.11694C148.851 0.980638 149.379 0.906006 149.924 0.906006H155.174C158.346 0.906006 160.941 3.36733 161.157 6.48413C158.541 6.72043 156.21 8.50038 156.21 11.7058C156.21 13.5491 157.381 14.8676 158.924 16.0261V22.8064C158.924 23.8033 158.827 24.7927 158.625 25.7527C157.154 24.039 156.51 21.7556 156.51 21.7556L155.91 21.906L157.02 28.2058L158.171 27.366C157.661 28.7881 156.877 30.1082 155.768 31.241C153.548 33.5074 150.686 34.3562 148.124 34.3562C145.429 34.3562 142.414 33.5685 140.075 31.2302C139.08 30.2352 138.354 29.1047 137.847 27.906H140.478V27.3064H139.127C138.437 27.3064 137.931 27.2617 137.561 27.1511C137.079 25.7418 136.874 24.2604 136.874 22.8064V12.0632C136.772 11.9759 136.673 11.8856 136.577 11.7917V9.75562C136.577 7.95605 136.877 7.50567 139.127 7.50562H140.478V6.90601H134.773C134.773 3.59243 137.46 0.906217 140.773 0.906006H146.773ZM140.773 6.90601V7.50562H140.924C142.574 7.50562 142.874 7.95597 142.874 9.45581V22.8064C142.874 26.5561 144.974 28.3562 148.124 28.3562C150.674 28.3561 152.924 26.706 152.924 22.8064V10.0564C152.924 8.70649 153.224 7.50579 155.023 7.50562H155.174V6.90601H149.924V7.50562H150.074C151.874 7.50579 152.174 8.70649 152.174 10.0564V22.9558C152.174 25.9558 150.524 27.3064 148.424 27.3064C146.324 27.3064 144.674 25.9558 144.674 22.9558V9.45581C144.674 7.95597 144.974 7.50562 146.624 7.50562H146.773V6.90601H140.773ZM157.859 10.9558C157.859 8.56513 159.624 7.46966 161.174 7.24976V7.50562C161.174 9.39978 160.295 11.0876 158.924 12.1873V13.4031C158.27 12.6862 157.859 11.8946 157.859 10.9558Z" fill="white"/>
<path d="M130.879 6.90601V7.50562H132.229C134.479 7.50564 134.779 7.95599 134.779 9.75562V25.0564C134.779 26.856 134.479 27.3064 132.229 27.3064H130.879V27.906H140.479V27.3064H139.129C136.879 27.3063 136.579 26.856 136.579 25.0564V9.75562C136.579 7.95605 136.879 7.50567 139.129 7.50562H140.479V6.90601H130.879ZM144.677 23.0203C145.677 24.0004 146.335 25.3274 146.457 26.8074C145.393 26.1797 144.692 24.945 144.677 23.0203ZM127.567 23.196L127.26 22.5203C127.36 22.4445 127.463 22.372 127.567 22.3025V23.196ZM124.879 7.50562V6.90601C124.879 3.59243 127.565 0.906219 130.879 0.906006H140.479C143.793 0.906109 146.479 3.59236 146.479 6.90601H140.775V7.50562H140.926C142.576 7.50562 142.876 7.95597 142.876 9.45581V13.0066C142.778 13.0492 142.679 13.0902 142.579 13.1277V21.6833C142.679 21.7209 142.778 21.7618 142.876 21.8044V22.8064C142.876 25.8535 144.263 27.6124 146.473 28.1648C146.337 31.3584 143.706 33.9059 140.479 33.906H130.879C127.565 33.9058 124.879 31.2196 124.879 27.906V27.3064C124.879 26.0587 125.259 24.8991 125.911 23.9392L127.718 27.906H128.317V21.8787C128.468 21.8074 128.622 21.7421 128.779 21.6833V13.1277C128.622 13.0689 128.468 13.0036 128.317 12.9324V10.0564C128.317 8.7907 128.581 7.65694 130.098 7.52026L130.418 7.50562H130.567V6.90601H125.317V7.50562H125.468L125.788 7.52026C127.304 7.65718 127.567 8.79086 127.567 10.0564V12.5085C125.948 11.4341 124.879 9.59484 124.879 7.50562ZM146.479 7.50757C146.478 9.18651 145.788 10.703 144.676 11.7917V9.45581C144.676 8.00172 144.958 7.53473 146.479 7.50757Z" fill="white"/>
<path d="M120.156 0.906006C121.066 0.906006 121.942 1.1149 122.732 1.49097C123.515 1.11678 124.391 0.906036 125.316 0.906006H130.566C133.88 0.906006 136.566 3.5923 136.566 6.90601H130.878V7.50562H132.229C134.478 7.50564 134.778 7.95599 134.778 9.75562V11.7781C134.632 11.9225 134.477 12.0584 134.316 12.1873V26.8826C133.955 27.1988 133.322 27.3064 132.229 27.3064H130.878V27.906H134.316C134.316 31.2197 131.63 33.906 128.316 33.906H127.717C126.612 33.906 125.557 33.599 124.646 33.0554C123.745 33.5949 122.692 33.906 121.566 33.906H116.316C113.003 33.9059 110.316 31.2196 110.316 27.906H114.148L115.259 23.1062L114.658 22.9558C113.821 25.7465 112.335 26.978 110.32 27.1365C110.371 25.3111 111.236 23.6905 112.566 22.6238V12.1873C111.244 11.1267 110.381 9.51919 110.321 7.70679C112.183 7.96141 113.563 9.20631 114.358 11.8562L114.958 11.7058L113.849 6.90601H110.316C110.316 3.59236 113.003 0.906112 116.316 0.906006H120.156ZM116.316 6.90601V7.50562H116.467C118.267 7.5057 118.566 8.70644 118.566 10.0564V24.7556C118.566 26.1056 118.267 27.3063 116.467 27.3064H116.316V27.906H121.566V27.3064H121.417C119.617 27.3064 119.316 26.1056 119.316 24.7556V9.45581L127.717 27.906H128.316V10.0564C128.316 8.7064 128.617 7.50562 130.417 7.50562H130.566V6.90601H125.316V7.50562H125.467C127.267 7.5057 127.566 8.70644 127.566 10.0564V23.196L120.156 6.90601H116.316Z" fill="white"/>
<path d="M101.91 6.90601V7.50562H102.061C103.71 7.50565 104.011 7.95602 104.011 9.45581V25.3562C104.011 26.856 103.71 27.3064 102.061 27.3064H101.91V27.906H114.15L115.261 23.1062L114.66 22.9558C113.76 25.9558 112.11 27.156 109.86 27.156H107.761C106.111 27.156 105.811 26.706 105.811 25.3562V17.5564H107.91C109.26 17.5564 110.46 17.856 110.46 19.656V19.8064H111.061V14.5564H110.46V14.7058C110.46 16.5058 109.26 16.8064 107.91 16.8064H105.811V9.45581C105.811 8.10596 106.111 7.65601 107.761 7.65601H109.561C111.81 7.65607 113.46 8.85628 114.36 11.8562L114.96 11.7058L113.851 6.90601H101.91ZM119.318 18.6853C120.858 20.1006 121.61 22.2798 121.106 24.4578L120.481 27.1589C119.507 26.8001 119.318 25.8254 119.318 24.7556V18.6853ZM97.4248 24.6062C97.4213 24.6186 97.0186 26.0488 95.9307 26.822C96.0375 25.4833 96.5833 24.2687 97.4248 23.322V24.6062ZM119.318 9.45581L120.854 12.8289C120.638 13.9585 120.101 14.9992 119.318 15.8279V9.45581ZM96.9746 7.50562C96.9676 7.49868 96.5918 7.12892 95.9111 6.82983C95.9519 3.5513 98.622 0.906114 101.91 0.906006H113.851L114.111 0.911865C116.793 1.02759 119.087 2.91846 119.696 5.55444L120.009 6.90601H116.318V7.50562H116.469C118.269 7.5057 118.568 8.70644 118.568 10.0564V16.5007C118.116 16.8411 117.611 17.12 117.061 17.325V17.3835C117.606 17.5545 118.111 17.7964 118.568 18.0984V24.7556C118.568 26.1056 118.269 27.3063 116.469 27.3064H116.318V27.906H120.309L119.996 29.2576C119.367 31.9787 116.943 33.906 114.15 33.906H101.91C98.5965 33.9059 95.9102 31.2196 95.9102 27.906V27.824C97.3 26.9262 97.874 25.2058 97.874 25.2058L98.624 27.906H99.2246V19.3562C99.2246 17.8562 99.5248 17.406 101.175 17.406H101.324V16.8064H98.0107V12.0632C96.7941 11.0212 95.9979 9.50218 95.917 7.79468C98.0511 9.27774 98.9248 13.0564 98.9248 13.0564L99.5244 12.906L98.4141 6.6062L96.9746 7.50562Z" fill="white"/>
<path d="M94.5117 0.462646C95.3655 0.493809 96.1459 0.62752 96.8457 0.816162C98.161 0.460122 99.5767 0.556365 100.854 1.12476C102.676 1.93618 103.976 3.60058 104.322 5.56519L104.559 6.90601H101.909V7.50562H102.06C103.709 7.50565 104.01 7.95602 104.01 9.45581V25.3562C104.01 26.856 103.709 27.3064 102.06 27.3064H101.909V27.906H105.224C105.224 31.2197 102.537 33.9059 99.2236 33.906H98.623C98.1956 33.906 97.7767 33.8597 97.3711 33.7732C96.4242 34.1295 95.3433 34.3562 94.123 34.3562C89.813 34.356 86.4466 31.8696 84.4199 28.7029C82.4358 25.6027 81.5234 21.6493 81.5234 17.406C81.5234 13.1627 82.4358 9.2093 84.4199 6.10913C86.4466 2.94246 89.813 0.455962 94.123 0.455811L94.5117 0.462646ZM107.319 17.5564C107.283 19.0258 106.72 20.3629 105.81 21.3875V17.5564H107.319ZM105.81 12.823C106.751 13.8825 107.323 15.2776 107.323 16.8064H105.81V12.823ZM87.5322 18.0447C87.7116 24.555 90.6358 28.3559 94.123 28.3562C96.823 28.3562 97.873 25.2058 97.873 25.2058L98.623 27.906H99.2236V19.3562C99.2236 17.8562 99.5238 17.406 101.174 17.406H101.323V16.8064H95.3232V17.406H95.4736C97.1235 17.406 97.4238 17.8563 97.4238 19.3562V24.6062C97.4191 24.6232 96.6664 27.3061 94.4238 27.3064C92.0988 27.3064 89.7739 24.6313 89.6309 18.0544L89.623 17.406C89.623 10.6564 91.7232 7.20619 94.123 7.20581C97.573 7.20581 98.9238 13.0564 98.9238 13.0564L99.5234 12.906L98.4131 6.6062L96.9736 7.50562C96.9619 7.49398 95.913 6.45581 94.123 6.45581C90.5232 6.45611 87.5234 10.5063 87.5234 17.406L87.5322 18.0447Z" fill="white"/>
<path d="M78.835 0.906006C82.1486 0.906111 84.835 3.59236 84.835 6.90601V7.50562C84.835 10.0805 83.2126 12.2764 80.9346 13.1277V21.6833C83.2127 22.5345 84.835 24.7314 84.835 27.3064V27.906C84.835 31.2197 82.1486 33.9059 78.835 33.906H69.2344C65.9208 33.9058 63.2344 31.2196 63.2344 27.906V27.3064C63.2344 25.8312 63.7673 24.4802 64.6504 23.4353L65.125 25.3562C65.4849 26.826 65.3347 27.3064 63.835 27.3064H63.6846V27.906H69.2344V27.3064C67.5847 27.3063 67.2852 26.7057 66.8652 24.9958L66.1719 22.1462C66.4766 21.965 66.7983 21.8091 67.1348 21.6833V13.1277C64.8569 12.2764 63.2344 10.0805 63.2344 7.50562V6.90601C63.2344 3.59243 65.9208 0.906217 69.2344 0.906006H78.835ZM69.2344 6.90601V7.50562H70.585C72.8346 7.50564 73.1347 7.95599 73.1348 9.75562V25.0564C73.1347 26.856 72.8346 27.3064 70.585 27.3064H69.2344V27.906H78.835V27.3064H77.4844C75.2349 27.3063 74.9346 26.856 74.9346 25.0564V9.75562C74.9346 7.95604 75.2349 7.50567 77.4844 7.50562H78.835V6.90601H69.2344Z" fill="white"/>
<path d="M62.3916 0.606201C65.1594 0.606201 67.5679 2.49969 68.2217 5.18921L72.3516 22.1804C72.6272 22.3486 72.8878 22.5388 73.1318 22.7478V25.0564C73.1318 26.856 72.8317 27.3064 70.582 27.3064H69.2314V27.906H75.2314C75.2314 31.2197 72.5452 33.906 69.2314 33.906H63.6816C62.9987 33.906 62.3431 33.79 61.7314 33.5798C61.1201 33.7899 60.4648 33.906 59.7822 33.906H54.832C51.5183 33.906 48.832 31.2197 48.832 27.906V27.3064C48.832 25.0771 50.0479 23.1319 51.8525 22.0974L55.9619 5.18921L56.0283 4.93921C56.7665 2.38299 59.1106 0.606201 61.792 0.606201H62.3916ZM61.792 6.6062L57.3818 24.7556C57.0518 26.1956 56.6319 27.3063 54.832 27.3064V27.906H59.7822V27.3064H59.6318C57.832 27.3064 57.7419 26.4662 58.1318 24.8464L59.0918 20.8562H64.0117L65.1221 25.3562C65.482 26.826 65.3318 27.3064 63.832 27.3064H63.6816V27.906H69.2314V27.3064C67.5818 27.3063 67.2823 26.7057 66.8623 24.9958L62.3916 6.6062H61.792ZM74.9385 25.4539C75.0626 25.8364 75.1503 26.2353 75.1953 26.6472C75.0233 26.3673 74.9573 25.9806 74.9385 25.4539ZM63.832 20.1062H59.2715L61.5518 10.7156L63.832 20.1062Z" fill="white"/>
</svg>
