<svg width="1183" height="280" viewBox="0 0 1183 280" fill="none" xmlns="http://www.w3.org/2000/svg">
<path d="M79.6197 0C90.4244 0.0864374 101.233 -0.00720268 112.037 0.0792347C123.213 0.284524 134.396 0.100842 145.575 0.0324127C157.813 0.0540221 170.055 0.0360182 182.293 0.0252136C182.318 5.33391 182.297 10.6426 182.304 15.9513C192.986 15.7712 203.675 15.9405 214.361 15.8757C214.383 21.2276 214.329 26.5795 214.394 31.9278C219.782 31.7586 225.177 31.9963 230.565 31.8378C230.557 37.1357 230.579 42.4336 230.554 47.7315C235.895 47.4469 241.258 47.6991 246.61 47.5946C246.494 58.1292 246.595 68.6637 246.595 79.1983C251.879 79.1479 257.162 79.1839 262.446 79.1731C262.323 105.378 262.424 131.587 262.406 157.795C257.155 157.716 251.897 157.871 246.649 157.727C246.703 162.971 246.732 168.214 246.66 173.458C241.297 173.368 235.917 173.617 230.561 173.332C230.565 178.688 230.572 184.043 230.557 189.399C225.155 189.395 219.749 189.428 214.347 189.352C214.386 194.679 214.368 200.005 214.372 205.332C201.284 205.289 188.192 205.437 175.108 205.289C175.093 220.912 175.104 236.54 175.101 252.167C169.579 252.224 164.055 252.127 158.533 252.167C158.613 236.54 158.544 220.912 158.569 205.285C153.315 205.365 148.057 205.354 142.802 205.303C142.928 194.614 142.773 183.924 142.87 173.235C131.288 173.48 119.698 173.278 108.112 173.368C101.506 173.159 94.8903 173.332 88.2814 173.282C85.4002 173.332 82.5117 173.177 79.6377 173.39C79.5729 168.135 79.5584 162.873 79.6557 157.619C74.862 157.64 70.0683 157.608 65.2783 157.633C64.7812 157.633 64.295 157.557 63.8124 157.471C63.8412 152.169 63.7944 146.861 63.8917 141.559C54.985 141.779 46.0603 141.613 37.1465 141.603C30.109 141.905 23.05 141.646 16.0053 141.793C16.0377 136.532 15.9009 131.266 16.0774 126.011C10.7182 126.047 5.35912 126.015 0 126.022C0.0936405 110.395 0.0576245 94.7714 0.0108042 79.1443C5.35192 79.2199 10.6894 79.1299 16.0305 79.1947C15.8829 70.3204 16.1818 61.4426 16.0017 52.5684C15.9981 50.9152 16.0089 49.2621 16.0089 47.609C21.3789 47.663 26.7488 47.5262 32.1187 47.6486C31.9854 42.3832 32.0899 37.1105 32.1187 31.845C37.5102 31.8702 42.9018 31.845 48.2933 31.8774C48.2609 26.5507 48.2753 21.224 48.2717 15.8937C58.7054 16.0161 69.1463 16.0377 79.5837 16.0197C79.5332 10.6822 79.4684 5.33751 79.6197 0Z" fill="white"/>
<path d="M376.986 0C412.716 0.0591089 448.449 0.0236453 484.178 0.00788288C484.178 4.59868 484.178 9.18553 484.178 13.7724C493.817 13.7251 503.456 13.8 513.094 13.7409C513.063 18.4617 513.134 23.1865 513.043 27.9112C517.744 27.9112 522.445 27.9112 527.147 27.9112C527.119 32.64 527.135 37.3687 527.135 42.1013C531.864 42.0934 536.588 42.1013 541.317 42.0974C541.313 46.6961 541.321 51.2947 541.313 55.8934C545.912 55.8855 550.51 55.8934 555.109 55.8895C555.105 64.9528 555.113 74.0162 555.105 83.0796C559.834 83.0756 564.563 83.0796 569.295 83.0796C569.287 106.428 569.311 129.78 569.283 153.128C564.559 153.108 559.834 153.104 555.109 153.124C555.109 157.793 555.105 162.467 555.109 167.14C550.514 167.05 545.92 167.156 541.325 167.085C541.309 171.794 541.317 176.503 541.321 181.208C536.592 181.196 531.864 181.193 527.135 181.216C527.139 185.937 527.115 190.666 527.162 195.391C509.272 195.383 491.378 195.391 473.488 195.387C473.582 209.049 473.495 222.711 473.531 236.373C477.649 236.361 481.767 236.369 485.889 236.369C485.81 250.661 485.9 264.954 485.841 279.242C481.483 279.152 477.117 279.168 472.759 279.215C472.743 265.194 472.751 251.174 472.751 237.153C468.152 237.161 463.553 237.153 458.955 237.157C458.966 227.829 458.951 218.502 458.962 209.175C454.364 209.183 449.765 209.175 445.166 209.179C445.166 199.851 445.163 190.524 445.17 181.196C440.702 181.212 436.233 181.181 431.768 181.212C431.768 176.507 431.768 171.802 431.768 167.097C413.378 167.129 394.991 167.073 376.6 167.125C376.6 162.459 376.6 157.793 376.6 153.128C371.875 153.124 367.147 153.08 362.422 153.151C362.402 148.537 362.418 143.922 362.414 139.308C348.504 139.383 334.597 139.3 320.687 139.355C320.738 134.634 320.691 129.91 320.699 125.189C316.084 125.224 311.466 125.169 306.852 125.232C306.852 106.715 306.852 88.1984 306.852 69.6816C311.45 69.6855 316.053 69.6776 320.655 69.6855C320.659 60.4881 320.659 51.2947 320.652 42.0974C325.073 42.0895 329.49 42.1131 333.912 42.0856C333.833 37.3608 333.908 32.636 333.86 27.9112C338.577 27.9152 343.298 27.9073 348.015 27.9112C347.999 23.1983 348.066 18.4853 347.976 13.7763C357.646 13.7448 367.32 13.7645 376.994 13.7645C376.99 9.17371 377.002 4.58685 376.986 0Z" fill="white"/>
<path d="M720.43 0.0252024C725.895 0.00315081 731.361 0.0598544 736.824 0C736.836 4.37567 736.798 8.75134 736.846 13.1239C736.723 13.6814 736.071 13.6216 735.642 13.5838C720.181 13.5365 704.716 13.6342 689.255 13.5397C689.277 15.6724 689.249 17.8019 689.261 19.9347C700.706 19.9347 712.148 19.9347 723.593 19.9347C724.749 19.9315 725.911 19.9536 727.067 19.8717C727.014 24.2851 727.124 28.7112 727.011 33.1184C724.642 33.2286 722.257 33.1341 719.885 33.1656C719.938 35.4747 719.872 37.7839 719.91 40.0961C717.67 40.0961 715.43 40.0993 713.194 40.093C713.194 44.5663 713.191 49.0365 713.197 53.5098C709.65 53.4783 706.106 53.4878 702.559 53.513C702.615 51.2479 702.552 48.9766 702.615 46.7116C700.246 46.7085 697.877 46.7053 695.508 46.7085C695.502 42.1942 695.489 37.6799 695.508 33.1656C691.218 33.1656 686.927 33.1625 682.64 33.1688C682.633 35.4779 682.652 37.787 682.624 40.0961C684.791 40.0961 686.955 40.0961 689.12 40.0961C689.031 44.5379 689.025 48.9861 689.113 53.431C686.855 53.5791 684.59 53.4373 682.328 53.5098C682.321 55.7843 682.325 58.0619 682.325 60.3363C692.61 60.1536 702.908 60.3175 713.197 60.2513C713.191 66.977 713.2 73.6996 713.194 80.4222C715.446 80.4128 717.695 80.4411 719.945 80.4096C719.872 85.031 719.945 89.6555 719.894 94.2769C714.123 94.2832 708.349 94.2769 702.577 94.2801C702.599 91.9489 702.565 89.6146 702.596 87.2834C700.347 87.3086 698.098 87.2708 695.852 87.296C695.877 82.8006 695.867 78.3021 695.867 73.8067C693.577 73.8004 691.287 73.8036 689 73.8036C689.038 80.523 689.063 87.2456 689.003 93.965C691.287 93.965 693.574 93.9619 695.861 93.9682C695.861 96.2742 695.874 98.5833 695.858 100.892C693.618 100.889 691.378 100.896 689.135 100.886C689.145 103.094 689.151 105.303 689.12 107.511C693.618 107.59 698.12 107.546 702.622 107.517C702.502 105.211 702.64 102.899 702.546 100.59C710.714 100.618 718.886 100.593 727.058 100.603C727.058 102.905 727.052 105.205 727.061 107.508C729.26 107.511 731.459 107.52 733.661 107.505C733.642 105.205 733.658 102.905 733.617 100.603C736.071 100.656 738.525 100.606 740.982 100.615C740.894 98.5045 741.023 96.3907 740.887 94.2832C756.333 94.2769 771.782 94.2801 787.227 94.2801C787.227 91.8638 787.227 89.4508 787.227 87.0345C789.423 87.0282 791.616 87.044 793.811 87.0251C793.84 82.6179 793.814 78.2108 793.824 73.8036C791.609 73.8036 789.395 73.8036 787.18 73.8036C787.23 76.015 787.167 78.2265 787.224 80.438C780.505 80.4443 773.785 80.4317 767.066 80.4443C767.078 78.2297 767.044 76.0182 767.085 73.8036C764.87 73.8004 762.659 73.8067 760.447 73.8036C760.453 76.0182 760.444 78.2328 760.457 80.4506C758.264 80.4222 756.071 80.4726 753.879 80.4128C753.932 82.7187 753.91 85.0247 753.879 87.3307C747.068 87.1763 740.254 87.2834 733.443 87.2047C733.541 89.5642 733.393 91.9268 733.532 94.2864C731.282 94.2675 729.036 94.2958 726.79 94.2675C726.847 89.6587 726.759 85.0468 726.837 80.4411C724.56 80.4947 722.276 80.501 719.998 80.4443C720.222 75.5079 720.049 70.5557 720.099 65.613C720.09 57.1137 720.099 48.6143 720.099 40.1119C722.418 40.0835 724.736 40.0993 727.055 40.0993C727.011 37.976 727.02 35.8559 727.042 33.7327C727.08 33.6256 727.159 33.4113 727.2 33.3042C729.184 32.9766 731.276 33.2601 733.305 33.1656C733.185 30.8533 733.339 28.5348 733.22 26.2225C734.338 26.6698 735.554 26.5155 736.729 26.5344C736.682 22.4013 736.764 18.2682 736.679 14.1351C736.738 13.6594 737.243 13.4641 737.668 13.5302C739.908 13.5743 742.144 13.5365 744.384 13.5649C744.384 9.05061 744.384 4.53633 744.384 0.0220515C750.181 0.0189013 755.98 0.0409537 761.777 0.0031509C761.695 2.23351 761.742 4.46702 761.723 6.70054C759.515 6.65643 757.303 6.66589 755.098 6.64069C755.092 11.0731 755.095 15.5054 755.095 19.941C752.931 20.0071 750.766 20.0166 748.602 19.9441C748.653 24.3513 748.574 28.7616 748.65 33.1656C746.388 33.1625 744.126 33.1656 741.864 33.1656C741.848 37.6736 741.845 42.1847 741.861 46.6927C739.445 46.7211 737.031 46.6896 734.622 46.7148C734.615 53.5382 734.625 60.3647 734.615 67.1881C737.031 67.1881 739.451 67.185 741.867 67.1881C741.864 60.3584 741.88 53.5287 741.864 46.699C744.173 46.699 746.482 46.7085 748.794 46.7116C748.794 42.1973 748.798 37.6799 748.791 33.1656C750.984 33.1593 753.176 33.1656 755.369 33.1656C755.344 28.7553 755.378 24.345 755.356 19.9347C757.546 19.9378 759.735 19.9315 761.925 19.9347C761.78 15.5306 761.962 11.1203 761.789 6.71944C774.365 6.69109 786.937 6.74149 799.513 6.69424C799.51 8.99706 799.516 11.303 799.51 13.6058C804.591 13.5019 809.676 13.6436 814.757 13.5302C814.511 15.6503 814.681 17.7956 814.641 19.9252C818.912 19.9441 823.187 19.9284 827.459 19.9347C827.33 21.9666 827.497 24.0079 827.345 26.0398C829.825 26.2005 832.32 26.0934 834.808 26.1186C834.793 28.4655 834.811 30.8155 834.805 33.1656C837.187 33.1656 839.571 33.1656 841.959 33.1656C841.843 35.4716 841.997 37.787 841.881 40.0961C844.205 40.0961 846.533 40.0993 848.858 40.093C848.758 44.6073 848.906 49.1278 848.792 53.6421C851.161 53.5854 853.533 53.6862 855.902 53.5697C855.902 58.1091 855.902 62.6486 855.902 67.1881C858.107 67.185 860.313 67.1913 862.518 67.1881C862.518 71.5984 862.518 76.0087 862.518 80.4191C864.824 80.4222 867.13 80.4254 869.439 80.4191C869.423 87.1921 869.445 93.965 869.442 100.738C871.669 100.662 873.9 100.785 876.124 100.637C876.127 111.972 876.102 123.306 876.149 134.641C873.909 134.575 871.666 134.616 869.426 134.603C869.445 139.117 869.42 143.632 869.442 148.149C867.133 148.149 864.827 148.149 862.521 148.149C862.546 150.354 862.53 152.559 862.537 154.764C860.328 154.764 858.12 154.764 855.915 154.764C855.981 156.976 855.849 159.191 855.997 161.399C844.52 161.377 833.041 161.38 821.565 161.399C821.565 159.187 821.565 156.976 821.565 154.764C803.504 154.764 785.441 154.764 767.381 154.764C767.475 156.982 767.393 159.203 767.469 161.424C749.267 161.345 731.065 161.408 712.863 161.386C712.901 159.178 712.869 156.973 712.879 154.764C704.893 154.761 696.907 154.764 688.921 154.764C688.924 152.559 688.931 150.354 688.921 148.149C686.725 148.146 684.527 148.155 682.331 148.143C682.325 145.852 682.321 143.562 682.328 141.272C680.123 141.294 677.917 141.241 675.712 141.288C675.737 134.581 675.706 127.877 675.722 121.17C677.921 121.129 680.123 121.139 682.325 121.183C682.306 118.83 682.366 116.477 682.29 114.127C684.574 114.127 686.858 114.127 689.145 114.127C689.013 111.921 689.23 109.707 688.994 107.511C686.766 107.511 684.542 107.508 682.318 107.511C682.331 105.284 682.318 103.06 682.325 100.833C680.132 100.877 677.936 100.833 675.744 100.864C675.674 98.5644 675.722 96.2647 675.709 93.965C673.513 93.965 671.321 93.9651 669.128 93.9682C669.188 91.6559 669.163 89.3437 669.147 87.0345C666.923 87.0345 664.702 87.0345 662.478 87.0345C662.475 91.6591 662.481 96.2836 662.475 100.908C666.885 100.877 671.299 100.905 675.709 100.896C675.709 105.41 675.709 109.924 675.709 114.442C668.987 114.442 662.267 114.442 655.544 114.442C655.551 112.221 655.544 110.003 655.548 107.785C653.194 107.902 650.838 107.735 648.491 107.895C648.658 103.359 648.491 98.8164 648.595 94.2801C646.188 94.2801 643.778 94.2801 641.372 94.2801C641.372 101.034 641.372 107.785 641.372 114.539C643.797 114.454 646.226 114.555 648.652 114.482C648.655 116.703 648.671 118.921 648.642 121.142C655.56 121.126 662.481 121.211 669.399 121.104C669.342 123.41 669.352 125.716 669.383 128.022C657.731 128.025 646.078 127.988 634.422 128.041C634.457 125.719 634.432 123.394 634.441 121.073C632.157 121.111 629.876 121.038 627.592 121.12C627.69 118.896 627.586 116.666 627.681 114.442C625.337 114.442 622.99 114.442 620.646 114.442C620.763 109.899 620.753 105.35 620.653 100.807C622.974 100.817 625.299 100.713 627.615 100.848C627.643 98.6305 627.662 96.4159 627.64 94.1982C629.905 94.3147 632.176 94.2202 634.444 94.2801C634.432 89.6618 634.451 85.0405 634.438 80.4191C636.791 80.4254 639.148 80.4191 641.501 80.4191C641.324 78.2171 641.498 76.0056 641.4 73.7973C643.832 73.8067 646.261 73.8067 648.693 73.7973C648.608 76.0056 648.69 78.2171 648.639 80.4285C657.661 80.4191 666.684 80.4285 675.709 80.4222C675.709 76.0119 675.709 71.5984 675.709 67.1849C677.914 67.1912 680.119 67.1913 682.325 67.1881C682.325 64.9798 682.325 62.7683 682.325 60.56C677.914 60.5821 673.504 60.5726 669.094 60.5695C669.185 55.9512 669.106 51.333 669.16 46.7148C666.933 46.7022 664.705 46.7116 662.478 46.699C662.478 53.5287 662.478 60.3584 662.478 67.1881C664.775 67.1881 667.074 67.1881 669.374 67.1913C669.333 69.3964 669.298 71.6016 669.38 73.8067C664.768 73.8004 660.156 73.8036 655.548 73.8067C655.551 71.5984 655.544 69.3933 655.548 67.1881C653.201 67.1881 650.854 67.185 648.51 67.1913C648.605 64.9073 648.501 62.6203 648.579 60.3332C646.179 60.2922 643.775 60.3111 641.372 60.2985C641.375 62.5951 641.368 64.8916 641.372 67.1913C638.962 67.1818 636.555 67.1944 634.145 67.1849C634.239 69.3901 634.12 71.6016 634.208 73.8099C632.012 73.7973 629.817 73.8067 627.621 73.8036C627.678 78.3651 627.602 82.9298 627.652 87.4913C625.296 87.4094 622.936 87.5071 620.577 87.4189C620.627 89.7091 620.596 91.9993 620.602 94.2895C618.309 94.2706 616.015 94.2832 613.722 94.2801C613.785 89.6618 613.832 85.0341 613.703 80.4159C616.053 80.4254 618.4 80.4128 620.75 80.438C620.637 76.0213 620.804 71.6016 620.668 67.1849C622.99 67.1912 625.312 67.185 627.63 67.1881C627.599 62.6549 627.728 58.1186 627.596 53.5886C634.589 53.6799 641.589 53.5634 648.586 53.639C648.523 49.1278 648.582 44.6199 648.535 40.1119C646.154 40.0741 643.772 40.115 641.394 40.0867C641.378 37.7807 641.397 35.4716 641.381 33.1656C643.788 33.1751 646.195 33.1562 648.601 33.1719C648.611 35.481 648.671 37.7902 648.545 40.0961C650.876 40.0961 653.21 40.0993 655.544 40.093C655.551 37.7839 655.548 35.4747 655.548 33.1656C662.267 33.1688 668.99 33.1625 675.709 33.1688C675.709 30.9605 675.706 28.7553 675.712 26.5501C668.99 26.5501 662.27 26.5501 655.548 26.5501C655.541 24.3387 655.557 22.1272 655.538 19.9158C660.081 19.9567 664.623 19.9252 669.166 19.9315C669.109 17.802 669.21 15.6724 669.106 13.546C673.513 13.5995 677.924 13.5208 682.331 13.5838C682.315 11.2841 682.334 8.98131 682.318 6.68164C695.02 6.72574 707.722 6.71629 720.423 6.68794C720.433 4.46702 720.442 2.24611 720.43 0.0252024ZM780.297 13.6058C780.297 15.7133 780.3 17.8208 780.294 19.9284C778.088 20.026 775.883 19.9819 773.681 19.9504C773.678 24.2568 773.688 28.56 773.678 32.8663C771.473 32.8317 769.268 32.942 767.066 32.8853C767.066 37.4909 767.069 42.0934 767.063 46.699C764.861 46.7085 762.655 46.699 760.453 46.7085C760.45 51.2227 760.444 55.7402 760.457 60.2576C762.659 60.2576 764.864 60.2576 767.069 60.2576C767.059 55.7402 767.075 51.2227 767.066 46.7053C769.381 46.7053 771.697 46.7053 774.012 46.7116C773.999 42.169 774.009 37.6232 774.012 33.0806C776.183 32.9672 778.359 33.0491 780.533 33.0365C780.552 28.6702 780.457 24.2977 780.596 19.9347C786.893 19.9347 793.194 19.9347 799.494 19.9347C799.453 17.8366 799.488 15.7385 799.447 13.6373C793.065 13.5428 786.679 13.6153 780.297 13.6058ZM675.712 20.0827C675.709 22.2375 675.703 24.3922 675.715 26.547C680.252 26.5281 684.788 26.5155 689.321 26.547C689.217 24.367 689.309 22.1839 689.268 20.0008C684.75 20.1331 680.23 20.0103 675.712 20.0827ZM793.843 32.8537C793.843 37.472 793.846 42.0902 793.843 46.7085C791.631 46.7085 789.423 46.6927 787.215 46.7116C787.227 48.964 787.211 51.2164 787.211 53.4657C784.802 53.4941 782.392 53.5067 779.982 53.4783C779.985 55.737 779.979 57.9989 779.982 60.2576C784.597 60.2639 789.215 60.2544 793.833 60.2607C793.773 58.0367 793.89 55.8095 793.764 53.5886C798.307 53.6642 802.852 53.5949 807.398 53.6358C807.467 49.1215 807.389 44.6104 807.411 40.0961C805.095 40.0961 802.78 40.0961 800.465 40.0961C800.477 37.6894 800.452 35.2794 800.477 32.8727C798.266 32.8632 796.054 32.8789 793.843 32.8537ZM814.319 32.8632C814.322 37.494 814.316 42.1217 814.326 46.7526C819.045 46.8219 823.767 46.8061 828.486 46.7652C828.432 55.7748 828.47 64.7876 828.476 73.7973C830.688 73.8004 832.899 73.813 835.111 73.791C835.111 75.9993 835.111 78.2076 835.111 80.4159C837.376 80.4285 839.641 80.46 841.909 80.4222C841.887 87.1732 841.833 93.9273 841.931 100.681C839.663 100.581 837.391 100.675 835.123 100.64C835.098 105.24 835.117 109.842 835.111 114.442C832.902 114.438 830.697 114.442 828.492 114.442C828.502 118.956 828.495 123.473 828.495 127.988C830.7 127.984 832.906 127.988 835.111 127.988C835.108 125.71 835.111 123.432 835.108 121.155C837.379 121.186 839.65 121.057 841.918 121.215C841.865 116.662 841.918 112.107 841.884 107.555C844.171 107.565 846.455 107.536 848.742 107.546C848.758 105.246 848.802 102.946 848.751 100.65C851.029 100.754 853.322 100.489 855.587 100.795C855.587 98.6211 855.584 96.4506 855.587 94.2801C853.297 94.2801 851.007 94.2801 848.72 94.2801C848.849 87.4567 848.713 80.627 848.78 73.8036C846.467 73.8036 844.155 73.8036 841.843 73.8036C841.978 71.5984 841.802 69.387 841.928 67.1818C839.657 67.1913 837.382 67.185 835.111 67.1881C835.111 58.1564 835.111 49.1278 835.111 40.0961C830.515 40.0867 825.915 40.1182 821.319 40.0772C821.275 37.6799 821.376 35.2794 821.284 32.8821C818.963 32.8506 816.641 32.8758 814.319 32.8632ZM807.729 53.5476C807.675 60.2985 807.713 67.0495 807.707 73.8004C809.912 73.8067 812.114 73.8036 814.319 73.8036C814.329 67.0211 814.291 60.2418 814.319 53.4625C812.124 53.5634 809.925 53.4058 807.729 53.5476ZM821.855 87.3212C821.826 91.763 821.804 96.208 821.861 100.653C819.473 100.625 817.082 100.647 814.691 100.615C814.732 102.912 814.71 105.211 814.669 107.511C812.347 107.511 810.025 107.508 807.704 107.511C807.704 109.82 807.697 112.132 807.71 114.442C789.766 114.419 771.823 114.486 753.882 114.407C754.018 116.647 753.775 118.899 754.055 121.126C740.431 120.997 726.803 121.129 713.178 121.066C713.203 123.379 713.187 125.694 713.197 128.006C707.319 128.006 701.44 128.025 695.562 128.006C695.546 132.407 695.559 136.811 695.559 141.215C697.899 141.215 700.243 141.218 702.587 141.209C702.555 139.007 702.618 136.805 702.546 134.606C708.39 134.616 714.233 134.609 720.077 134.609C719.973 132.401 720.222 130.18 719.948 127.988C733.45 127.988 746.948 127.988 760.45 127.988C760.447 125.7 760.45 123.417 760.45 121.129C778.507 121.211 796.568 121.111 814.625 121.174C814.593 118.918 814.65 116.662 814.603 114.41C816.928 114.476 819.256 114.419 821.584 114.448C821.543 112.158 821.574 109.864 821.565 107.571C823.874 107.555 826.186 107.502 828.495 107.587C828.495 100.839 828.495 94.0911 828.495 87.3433C826.281 87.2992 824.066 87.3338 821.855 87.3212ZM848.817 114.442C848.798 121.177 848.858 127.915 848.814 134.65C851.07 134.628 853.329 134.631 855.587 134.66C855.587 127.918 855.584 121.18 855.587 114.442C853.332 114.442 851.073 114.442 848.817 114.442ZM774.343 134.603C774.44 136.827 774.299 139.057 774.434 141.285C767.592 141.253 760.75 141.297 753.904 141.266C753.983 143.559 753.851 145.856 753.983 148.149C745.008 148.149 736.033 148.146 727.058 148.152C727.058 150.37 727.058 152.591 727.058 154.809C738.188 154.818 749.321 154.787 760.45 154.818C760.447 152.581 760.45 150.348 760.45 148.111C767.296 148.168 774.141 148.077 780.983 148.14C780.889 145.834 780.987 143.524 780.93 141.219C792.255 141.193 803.58 141.269 814.905 141.181C814.773 143.496 814.902 145.818 814.839 148.133C821.596 148.127 828.353 148.111 835.111 148.136C835.111 145.84 835.108 143.547 835.114 141.253C830.596 141.31 826.082 141.237 821.565 141.285C821.562 139.057 821.565 136.833 821.565 134.606C805.823 134.609 790.081 134.606 774.343 134.603Z" fill="white"/>
<path d="M648.508 26.531C650.842 26.5499 653.18 26.5184 655.514 26.5499C655.464 28.7551 655.492 30.9571 655.514 33.1622C653.202 33.1685 650.889 33.1622 648.58 33.1654C648.492 30.9539 648.628 28.7425 648.508 26.531Z" fill="white"/>
<path d="M634.127 40.0959C636.544 40.0959 638.957 40.0959 641.373 40.0959C641.367 42.2948 641.382 44.4968 641.37 46.6957C638.954 46.7177 636.537 46.6957 634.121 46.7114C634.134 44.5063 634.124 42.3011 634.127 40.0959Z" fill="white"/>
<path d="M774.252 161.374C787.748 161.386 801.24 161.367 814.733 161.38C814.673 163.585 814.742 165.793 814.701 168.002C823.84 168.024 832.982 168.039 842.121 167.995C842.077 170.304 842.02 172.62 842.165 174.926C830.679 174.92 819.19 174.897 807.705 174.923C807.698 172.651 807.702 170.38 807.689 168.109C796.543 168.118 785.395 168.159 774.246 168.099C774.274 165.856 774.252 163.616 774.252 161.374Z" fill="white"/>
<path d="M748.164 167.995C754.55 168.042 760.935 168.02 767.321 168.011C767.273 172.503 767.355 176.995 767.299 181.488C769.598 181.491 771.895 181.484 774.194 181.522C774.16 179.216 774.254 176.91 774.15 174.611C783.1 174.601 792.05 174.63 801 174.595C800.735 176.895 801.063 179.216 800.817 181.519C812.353 181.431 823.889 181.525 835.425 181.466C835.425 183.699 835.422 185.933 835.425 188.166C819.359 188.144 803.293 188.166 787.227 188.157C787.28 185.951 787.132 183.74 787.309 181.541C782.984 181.544 778.655 181.538 774.33 181.544C774.292 183.775 774.314 186.005 774.311 188.238C776.519 188.21 778.731 188.27 780.942 188.204C780.914 197.191 780.92 206.179 780.939 215.167C783.138 215.189 785.343 215.208 787.542 215.135C787.539 221.892 787.545 228.65 787.542 235.407C789.646 235.382 791.751 235.432 793.855 235.366C793.861 242.063 793.814 248.767 793.893 255.464C791.77 255.553 789.646 255.565 787.526 255.546C787.432 248.843 787.539 242.136 787.46 235.432C785.283 235.388 783.103 235.413 780.926 235.416C780.926 228.694 780.926 221.971 780.926 215.249C778.639 215.252 776.352 215.239 774.065 215.255C774.27 210.845 774.062 206.422 774.163 202.005C771.781 202.021 769.4 202.014 767.018 202.018C767.122 199.708 767.043 197.396 767.065 195.087C764.86 195.084 762.655 195.087 760.45 195.087C760.45 190.57 760.45 186.052 760.45 181.538C758.352 181.551 756.254 181.529 754.156 181.551C754.175 179.342 754.168 177.134 754.165 174.926C752.165 174.926 750.164 174.922 748.167 174.935C748.174 172.623 748.167 170.307 748.164 167.995Z" fill="white"/>
<path d="M794.036 255.386C796.292 255.304 798.55 255.38 800.809 255.358C800.774 257.629 800.781 259.9 800.818 262.175C798.553 262.118 796.288 262.137 794.023 262.153C794.027 259.897 794.039 257.642 794.036 255.386Z" fill="white"/>
<path d="M1049.58 0.389362C1052.56 0.229766 1055.55 0.478736 1058.51 0.0605948C1061.33 -0.0383547 1064.17 0.00632985 1067 0.038249C1067.1 1.19053 1067.08 2.35239 1067.03 3.50787C1065.38 3.53021 1063.65 3.36423 1062.17 4.21647C1062.15 5.35279 1062.14 6.48912 1062.17 7.62225C1058.12 8.59578 1053.96 8.05635 1049.84 8.17126C1049.77 6.59764 1050.02 4.98572 1049.61 3.44403C1049.44 2.43538 1049.51 1.40439 1049.58 0.389362Z" fill="white"/>
<path d="M1025.58 0.647705C1031 0.647705 1036.43 0.647705 1041.85 0.647705C1041.96 2.349 1041.61 4.04391 1041.82 5.73881C1041.88 8.04019 1041.86 10.3448 1041.83 12.6493C1040.13 12.6334 1038.42 12.7163 1036.73 12.477C1033.02 12.4259 1029.29 12.477 1025.58 12.4578C1025.57 10.8874 1025.58 9.31695 1025.57 7.74653C1023.33 7.78164 1021.09 7.72419 1018.87 8.07211C1015.24 8.1136 1011.6 8.0753 1007.97 8.14233C1008.05 6.39635 1008 4.64399 1008.03 2.89482C1013.88 2.8597 1019.73 2.89801 1025.58 2.89162C1025.57 2.14152 1025.58 1.39461 1025.58 0.647705Z" fill="white"/>
<path d="M1067.3 3.84937C1075.44 3.88767 1083.59 3.89086 1091.74 3.89405C1091.73 5.1006 1091.7 6.30714 1091.73 7.51369C1095.11 7.67328 1098.49 7.65094 1101.87 7.68924C1102.73 7.76585 1103.6 7.73074 1104.44 7.53284C1104.38 9.25647 1104.48 10.9865 1104.36 12.7069C1102.03 12.8155 1099.71 12.7452 1097.39 12.7484C1095.5 12.8378 1093.65 12.193 1091.76 12.5282C1090.25 12.8729 1088.71 12.7612 1087.18 12.7772C1087.18 13.9486 1087.18 15.1168 1087.18 16.2883C1085.8 16.2883 1084.41 16.2851 1083.03 16.2915C1083.06 17.6768 1083.14 19.0652 1083.07 20.4505C1081.72 20.4952 1080.37 20.4314 1079.03 20.4729C1078.96 20.7027 1078.81 21.1591 1078.74 21.389C1077.62 21.4017 1076.5 21.3921 1075.37 21.3953C1075.52 23.9489 1075.15 26.5343 1075.65 29.0655C1075.5 28.4718 1075.36 27.8717 1075.12 27.31C1074.75 29.2826 1074.77 31.2999 1074.58 33.2916C1073.37 33.6076 1072.13 33.7353 1070.89 33.7672C1070.94 35.9281 1070.53 38.0859 1070.85 40.2404C1070.84 42.0694 1071.46 43.8345 1071.35 45.6667C1072.71 45.6794 1074.07 45.6858 1075.42 45.4975C1075.48 42.9025 1075.38 40.3074 1075.51 37.7188C1076.85 37.7156 1078.18 37.6422 1079.52 37.7092C1079.4 35.7398 1079.82 33.7608 1079.51 31.8042C1079.03 32.5032 1079.07 33.3586 1079.02 34.1694C1078.74 30.9519 1078.99 27.7345 1079.16 24.517C1079.34 25.066 1079.48 25.6246 1079.64 26.1768C1080.25 24.6415 1082.06 25.1267 1083.35 24.9256C1083.35 23.4829 1083.35 22.0369 1083.35 20.5942C1084.81 20.5974 1086.26 20.4537 1087.72 20.3739C1087.69 19.1387 1087.66 17.9034 1087.63 16.6681C1093.09 16.5372 1098.55 16.6298 1104.02 16.6202C1103.92 17.9321 1103.88 19.2504 1103.98 20.5654C1106.36 20.4058 1108.75 20.4346 1111.13 20.441C1111.86 20.3356 1112.31 21.1176 1113.03 21.0634C1114.32 21.0921 1115.61 21.0793 1116.9 21.0538C1116.8 22.8764 1116.96 24.6894 1117.13 26.5024C1118.45 26.5024 1119.77 26.5024 1121.1 26.5024C1121.49 24.45 1121.62 22.3625 1121.6 20.2782C1120.08 20.5495 1118.52 20.425 1116.98 20.4058C1116.9 19.1514 1116.88 17.8938 1116.87 16.6394C1113.91 16.6713 1110.95 16.5277 1108 16.6521C1108.22 15.1583 1108.27 13.6454 1108.25 12.1388C1110.04 12.11 1111.83 12.1994 1113.62 12.0877C1114.71 11.9409 1115.81 11.8866 1116.9 12.1132C1116.89 13.4985 1116.76 14.8774 1116.79 16.2627C1118.18 16.4957 1119.58 16.4734 1120.98 16.566C1121.22 17.1629 1121.51 17.7406 1121.77 18.3279C1121.92 19.0365 1121.79 19.7707 1121.8 20.492C1125.47 20.6899 1129.15 20.5942 1132.83 20.7633C1132.82 22.1454 1132.84 23.5275 1132.81 24.9096C1134.41 24.9033 1136.01 24.9064 1137.61 24.9064C1137.61 26.2375 1137.61 27.5685 1137.61 28.9027C1138.99 28.8102 1140.37 28.7208 1141.76 28.7304C1141.87 31.718 1141.65 34.6929 1141.52 37.6741C1144.26 37.6805 1147 37.6582 1149.74 37.6869C1149.77 39.069 1149.7 40.4511 1149.55 41.8236C1151.06 41.8268 1152.59 41.8108 1154.11 41.8364C1154.31 44.1856 1153.78 46.503 1153.89 48.849C1153.9 50.5503 1153.85 52.2516 1153.85 53.9529C1155.31 53.9529 1156.77 53.9529 1158.23 53.9529C1158.22 55.3956 1158.29 56.8384 1158.42 58.2748C1159.67 58.2652 1160.92 58.2173 1162.18 58.2013C1162.12 59.6569 1162.14 61.1156 1162.12 62.5711C1163.53 62.5711 1164.93 62.5679 1166.34 62.5711C1166.34 65.3768 1166.34 68.1793 1166.34 70.985C1167.68 70.9594 1169.02 70.9211 1170.36 71.0392C1170.34 71.9202 1170.29 72.8107 1170.41 73.6885C1170.8 75.5845 1170.63 77.5316 1170.69 79.4563C1172.07 79.3925 1173.46 79.118 1174.84 79.3765C1174.65 82.1822 1175.05 84.9815 1174.89 87.7872C1176.33 87.7808 1177.76 87.816 1179.19 87.7138C1179.06 90.3025 1179.32 92.9039 1179.05 95.4861C1178.97 95.3202 1178.8 94.9914 1178.72 94.8286C1178.57 92.5783 1178.78 90.3152 1178.62 88.0649C1178.53 91.9335 1178.68 95.8021 1178.47 99.6707C1177.18 99.6229 1175.88 99.6452 1174.6 99.6452C1174.59 101.193 1174.61 102.741 1174.6 104.289C1177.34 104.283 1180.09 104.222 1182.82 104.331C1182.89 108.707 1182.78 113.09 1182.79 117.469C1183.2 122.78 1182.88 128.111 1182.89 133.432C1181.46 133.441 1180.03 133.409 1178.6 133.454C1178.78 137.584 1178.96 141.743 1178.5 145.864C1177.11 145.89 1175.72 145.877 1174.33 145.88C1174.47 147.259 1174.48 148.648 1174.58 150.03C1173.15 150.03 1171.72 150.03 1170.29 150.03C1170.68 151.37 1170.92 152.749 1171.1 154.131C1169.62 154.217 1168.14 154.163 1166.66 154.179C1166.66 155.769 1166.66 157.358 1166.66 158.951C1154.52 158.865 1142.39 158.983 1130.25 158.935C1129.78 158.916 1129.31 158.881 1128.85 158.849C1128.82 157.486 1128.8 156.123 1128.69 154.77C1126.12 154.843 1123.55 154.907 1121.01 154.505C1106.9 154.492 1092.8 154.502 1078.69 154.498C1078.67 155.935 1079.16 157.307 1079.14 158.747C1082.89 158.609 1086.63 158.712 1090.37 158.798C1097.5 158.68 1104.63 158.744 1111.76 158.728C1116.13 158.795 1120.49 158.498 1124.86 158.664C1124.87 160.119 1124.8 161.572 1124.75 163.027C1131.88 162.944 1139.02 162.925 1146.16 163.04C1146.06 164.432 1146.32 165.814 1146.4 167.202C1147.52 167.221 1148.63 167.218 1149.75 167.234C1149.73 168.607 1149.8 169.982 1149.64 171.348C1145.44 171.534 1141.22 171.307 1137.02 171.467C1137.4 172.778 1138.27 174.78 1136.8 175.677C1136.71 174.467 1136.73 173.254 1136.54 172.057C1136.5 173.241 1136.44 174.429 1136.48 175.619C1133.36 175.942 1130.21 175.648 1127.08 175.744C1119.19 175.709 1111.29 175.792 1103.39 175.702C1103.38 174.272 1103.33 172.842 1103.35 171.415C1100.84 171.428 1098.32 171.39 1095.81 171.431C1094.13 171.591 1092.45 171.693 1090.77 171.738C1090.9 173.174 1090.54 174.585 1090.53 176.018C1093.56 175.817 1096.59 175.881 1099.63 175.884C1100.92 175.897 1102.22 175.756 1103.5 175.961C1103.62 177.206 1103.61 178.463 1103.53 179.714C1114.57 179.711 1125.61 179.714 1136.66 179.714C1136.66 178.39 1136.64 177.065 1136.68 175.741C1139.73 175.993 1142.8 175.651 1145.86 175.76C1145.79 177.049 1145.57 178.323 1145.53 179.616C1144.28 179.73 1143.02 179.718 1141.76 179.714C1141.76 181.036 1141.77 182.361 1141.74 183.685C1139.94 183.676 1138.14 183.714 1136.34 183.717C1133.89 183.647 1131.45 184.068 1129 183.918C1129.01 185.358 1128.94 186.804 1129.08 188.24C1130.73 188.09 1132.39 188.084 1134.04 188.24C1134 189.179 1134 190.12 1133.86 191.055C1133.61 190.187 1133.71 189.281 1133.63 188.4C1133.3 189.657 1133.22 190.969 1133.14 192.265C1125.38 192.048 1117.61 192.217 1109.84 192.163C1106.12 192.224 1102.38 191.984 1098.68 192.431C1096.31 192.437 1093.95 192.329 1091.58 192.236C1091.69 190.947 1091.64 189.654 1091.65 188.365C1090.31 188.39 1088.96 188.262 1087.62 188.441C1086.18 188.776 1084.69 188.61 1083.22 188.655C1083.22 189.099 1083.22 189.549 1083.23 189.999C1082.89 190.142 1082.57 190.302 1082.26 190.478C1081.92 191.454 1082.37 192.437 1082.37 193.424C1082.38 194.493 1082.36 195.562 1082.38 196.635C1083.87 196.625 1085.37 196.632 1086.86 196.632C1086.91 199.399 1086.95 202.166 1086.75 204.931C1086.98 207.724 1086.84 210.529 1086.87 213.332C1088.35 213.383 1089.84 213.437 1091.33 213.52C1091.27 217.574 1091.44 221.628 1091.33 225.681C1092.71 225.675 1094.1 225.678 1095.48 225.678C1095.41 231.21 1095.63 236.751 1095.35 242.276C1096.8 242.276 1098.25 242.273 1099.7 242.276C1099.67 246.432 1099.69 250.591 1099.64 254.747C1101.05 254.766 1102.48 254.654 1103.87 254.942C1104.22 255.286 1104.01 255.858 1104.09 256.301C1103.98 258.753 1103.95 261.207 1103.91 263.662C1102.52 263.662 1101.12 263.659 1099.73 263.662C1099.71 262.178 1099.7 260.697 1099.67 259.216C1098.39 259.014 1097.11 258.804 1095.8 258.871C1095.78 255.963 1095.85 253.058 1095.78 250.154C1094.4 250.262 1093.02 250.103 1091.65 250.189C1091.64 244.689 1091.67 239.193 1091.63 233.696C1090.26 233.639 1088.88 233.661 1087.5 233.658C1087.47 231.031 1087.56 228.404 1087.46 225.783C1086.09 225.646 1084.7 225.681 1083.33 225.678C1083.38 221.679 1083.34 217.679 1083.34 213.68C1081.94 213.597 1080.54 213.51 1079.14 213.549C1078.95 210.58 1078.72 207.574 1079.16 204.618C1077.69 204.602 1076.21 204.611 1074.73 204.611C1074.73 203.331 1074.73 202.055 1074.74 200.781C1073.26 200.759 1071.79 200.842 1070.33 200.695C1070.25 197.959 1070.25 195.218 1070.32 192.482C1068.96 192.482 1067.59 192.482 1066.22 192.482C1066.06 189.609 1066.1 186.73 1066.15 183.858C1066.37 182.479 1066.44 181.087 1066.37 179.695C1065.01 179.711 1063.64 179.718 1062.28 179.714C1062.28 178.38 1062.19 177.03 1062.48 175.718C1061.09 175.779 1059.69 175.785 1058.3 175.836C1058.3 174.263 1058.3 172.689 1058.45 171.125C1057.05 171.154 1055.65 171.131 1054.25 171.096C1054.12 169.823 1054.1 168.54 1054.22 167.266C1052.76 167.269 1051.3 167.307 1049.84 167.339C1049.84 165.884 1049.83 164.428 1049.85 162.976C1054.1 162.804 1058.35 163.184 1062.6 163.078C1065.23 163.024 1067.85 163.123 1070.47 163.139C1070.47 165.472 1070.7 167.825 1070.36 170.145C1070.17 171.518 1070.44 172.89 1070.57 174.256C1070.61 176.095 1070.57 177.937 1070.58 179.775C1071.87 179.679 1073.16 179.724 1074.44 179.714C1074.89 181.138 1074.7 182.635 1074.71 184.1C1076.08 183.902 1077.51 184.196 1078.84 183.829C1079.22 182.549 1078.81 181.16 1078.96 179.836C1081.47 179.606 1083.99 179.759 1086.5 179.714C1086.46 178.339 1086.51 176.966 1086.55 175.594C1084.11 175.779 1081.66 175.836 1079.21 175.814C1079.29 177.011 1079.32 178.208 1079.3 179.408C1077.87 179.963 1076.31 179.625 1074.82 179.705C1074.8 176.625 1075.2 173.525 1074.74 170.461C1074.71 168.016 1074.47 165.562 1074.72 163.123C1076.19 163.129 1077.68 162.973 1079.14 163.219C1079.27 164.572 1079.32 165.929 1079.33 167.288C1090.46 167.304 1101.59 167.288 1112.72 167.301C1112.72 165.874 1112.72 164.451 1112.72 163.027C1104.63 163.056 1096.55 163.027 1088.46 163.011C1085.22 163.014 1081.96 163.148 1078.72 162.883C1078.75 161.584 1078.81 160.285 1078.88 158.989C1074.73 158.945 1070.57 158.957 1066.42 158.967C1064.92 159.034 1063.48 158.479 1061.97 158.645C1058.35 158.52 1054.74 158.903 1051.12 158.836C1047.96 158.865 1044.8 158.833 1041.65 158.839C1041.64 160.196 1041.69 161.552 1041.84 162.903C1039.19 162.89 1036.53 162.982 1033.88 162.8C1028.03 162.778 1022.18 162.852 1016.33 162.951C1016.31 161.479 1016.32 160.008 1016.33 158.539C1013.78 158.744 1011.23 158.91 1008.67 158.785C1005.59 158.533 1002.5 158.696 999.41 158.641C999.391 157.157 999.42 155.673 999.397 154.189C996.723 154.166 994.045 154.186 991.37 154.179C991.363 152.893 991.232 151.619 991.07 150.349C989.726 150.352 988.382 150.326 987.038 150.39C987.287 149.008 987.144 147.61 986.927 146.238C985.666 146.305 984.402 146.356 983.141 146.432C983.036 145.29 982.601 144.188 982.681 143.036C982.748 141.332 983.029 139.637 982.917 137.929C981.462 137.971 980.006 138.098 978.548 138.041C978.567 132.512 978.302 126.949 979.106 121.465C980.326 121.178 981.708 121.449 982.841 120.964C983.09 119.496 982.908 117.996 982.985 116.514C984.335 116.511 985.688 116.514 987.041 116.514C987.057 114.063 987.313 111.609 987.98 109.24C990.444 108.879 992.927 108.672 995.369 108.139C995.334 106.932 995.232 105.726 995.42 104.526C996.738 104.36 998.063 104.583 999.385 104.577C1002.47 104.593 1005.57 104.577 1008.66 104.58C1008.68 103.096 1008.75 101.548 1008.05 100.191C1007.98 98.9302 1008.04 97.6662 1008.02 96.4086C1005.28 96.0958 1002.61 96.9576 999.876 96.7246C999.95 98.0141 999.902 99.3069 999.975 100.596C996.908 100.81 993.843 100.6 990.786 100.386C990.786 99.0579 990.786 97.7332 990.786 96.4086C988.229 96.399 985.675 96.4277 983.122 96.3958C982.953 95.001 982.854 93.6029 982.783 92.2016C981.175 91.9782 979.55 91.924 977.932 91.7835C977.964 90.1652 976.329 89.23 975.71 87.8447C973.785 87.733 971.857 87.8096 969.93 87.7872C969.872 89.2683 969.821 90.7493 969.805 92.2336C971.369 92.2719 972.936 92.2495 974.504 92.2559C974.14 93.6157 974.159 95.0233 974.175 96.4182C977.041 96.5139 979.911 96.3895 982.777 96.4086C982.825 97.7843 982.799 99.1632 982.799 100.542C984.287 100.466 985.777 100.469 987.268 100.443C987.287 103.3 987.188 106.157 986.946 109.004C985.761 109.017 984.584 109.116 983.403 109.109C983.023 110.443 983.004 111.835 982.975 113.211C980.769 113.345 978.43 112.754 976.349 113.693C975.595 113.916 974.791 113.779 974.018 113.846C973.913 115.295 974.603 116.645 974.625 118.082C974.507 121.05 974.389 124.031 974.647 126.994C975.171 124.354 974.587 121.599 974.963 118.928C975.318 122.669 975.027 126.445 974.95 130.195C973.511 130.355 972.09 130.045 970.68 129.818C966.406 129.643 962.132 129.56 957.855 129.589C957.931 128.21 957.944 126.831 957.928 125.452C953.695 125.458 949.463 125.436 945.23 125.465C945.278 123.971 945.294 122.477 945.275 120.983C942.466 121.06 939.673 121.392 936.861 121.302C936.778 119.812 936.695 118.324 936.797 116.834C935.428 116.834 934.062 116.834 932.693 116.834C932.693 114.127 932.689 111.417 932.696 108.71C931.422 108.707 930.152 108.717 928.881 108.672C928.731 105.921 929.073 103.179 928.971 100.434C927.624 100.398 926.277 100.402 924.93 100.363C924.429 98.9047 924.959 97.4492 925.131 95.9968C923.602 96.0224 922.089 95.7926 920.563 95.7511C920.57 93.156 920.554 90.5642 920.573 87.9692C923.328 87.6883 926.101 87.816 928.866 87.7872C928.869 85.4603 928.84 83.1334 928.878 80.8097C928.85 80.3788 929.293 80.1298 929.491 79.7979C928.045 79.817 926.583 79.9447 925.153 79.651C925.016 80.9246 924.959 82.2109 924.821 83.4877C924.499 82.2684 924.652 80.9948 924.579 79.75C923.976 80.8544 923.407 82.0258 922.431 82.8557C921.767 83.0345 921.167 82.6929 920.64 82.329C920.487 79.4627 920.592 76.59 920.567 73.7204C920.506 72.9129 920.946 71.9106 921.888 71.9745C922.862 71.7063 924.138 72.15 924.872 71.3329C923.64 71.2403 922.408 71.3137 921.176 71.3233C922.469 71.052 923.794 71.0903 925.096 71.2722C926.315 71.4031 927.665 70.7775 928.792 71.2531C928.926 73.9503 928.897 76.7049 928.779 79.418C930.244 79.2265 931.722 79.1435 933.203 79.1435C933.194 77.0209 933.251 74.8951 933.283 72.7724C933.207 72.1149 933.663 71.6106 933.937 71.0616C936.108 70.969 938.288 70.8062 940.459 71.0073C938.971 71.202 937.461 71.1733 935.961 71.2435L935.929 71.7159C937.691 71.6042 939.45 71.9202 941.209 71.7734C941.576 71.4925 941.432 70.9499 941.518 70.5541C941.55 69.2901 941.589 68.0229 941.585 66.7589C938.735 66.9919 935.856 66.9695 933.002 66.8099C933.012 68.275 933.028 69.7401 932.986 71.202C931.85 71.4797 930.682 71.5787 929.517 71.4989C929.086 71.1318 928.601 70.7966 928.281 70.3274C928.211 69.4656 928.275 68.6006 928.326 67.7388C928.645 64.7224 928.572 61.6805 928.444 58.6546C929.871 58.6769 931.266 58.3482 932.686 58.2556C932.705 56.8703 932.744 55.4754 932.44 54.1189C938.154 54.138 943.871 54.3359 949.584 54.2338C949.642 51.2653 949.594 48.2968 949.613 45.3315C949.651 44.1697 949.358 43.0174 949.546 41.8587C948.129 41.5491 946.609 41.9641 945.148 41.8172C945.298 44.7059 945.128 47.5978 945.224 50.4833C943.402 50.0205 941.292 50.3588 939.715 49.1874C939.083 48.2872 938.346 47.4031 938.036 46.3306C937.835 44.8591 938.259 43.4036 938.231 41.9321C939.201 41.8938 940.171 41.8204 941.142 41.8108C941.145 40.4351 941.138 39.0594 941.116 37.6837C942.546 37.6965 943.982 37.6997 945.393 37.4156C945.275 36.1133 945.313 34.7982 945.176 33.4959C946.731 33.3044 948.301 33.3682 949.865 33.3842C949.926 32.034 949.852 30.6838 949.817 29.3336C951.005 29.2889 952.195 29.2506 953.386 29.2187C953.485 27.8941 953.415 26.5631 953.453 25.2384C954.822 25.1458 956.255 25.4172 957.574 24.9447C958.528 24.0063 957.845 22.5636 957.88 21.3953C960.762 21.3698 963.657 21.5166 966.527 21.1208C966.527 19.7228 966.527 18.3247 966.527 16.9267C970.676 16.8564 974.845 17.1309 978.975 16.6266C978.969 15.353 978.995 14.0795 978.95 12.8091C981.647 12.5952 984.325 12.1356 987.041 12.3335C985.777 11.9377 984.379 12.2665 983.163 11.7143C984.43 11.3791 985.749 11.3855 987.048 11.427C987.07 10.412 987.134 9.40011 987.179 8.38827C989.767 8.27336 992.359 8.39147 994.948 8.2989C999.164 7.80415 1003.42 8.01482 1007.66 8.02759C1007.71 9.39692 1007.7 10.7663 1007.69 12.1388C1006.07 12.1547 1004.44 12.0334 1002.85 12.4133C1000.43 12.5154 997.993 12.4292 995.564 12.458C995.127 13.805 994.916 15.203 994.929 16.6202C992.273 16.799 989.621 17.1022 986.955 17.0033C986.942 18.1492 986.965 19.2951 987.032 20.441C985.091 20.6708 983.109 20.6963 981.213 21.2134C980.578 21.3123 979.933 21.3698 979.295 21.44C979.295 22.5955 979.295 23.7478 979.295 24.9033C977.571 24.7213 975.911 25.3437 974.194 25.2256C971.404 25.2416 968.614 25.1905 965.825 25.2607C965.911 26.279 965.895 27.3291 966.281 28.2899C966.102 28.641 965.94 28.9953 965.777 29.3528C963.137 29.4102 960.488 29.2443 957.877 29.7199C957.858 30.8817 957.925 32.0468 957.944 33.2086C956.456 33.3555 954.959 33.3555 953.466 33.3906C953.545 34.811 953.609 36.2346 953.574 37.6582C952.253 37.6901 950.931 37.7954 949.61 37.7443C949.773 39.0307 949.275 40.467 949.789 41.6481C950.963 41.9194 952.218 41.6002 953.424 41.6991C953.453 40.4415 953.13 39.0594 953.785 37.9103C953.855 39.235 953.747 40.5788 954.024 41.8906C954.34 40.6171 954.19 39.2924 954.209 37.9965C955.489 37.7667 956.782 37.6071 958.084 37.6741C958.081 36.3495 958.052 35.0216 958.046 33.697C960.874 33.6523 963.699 33.4863 966.527 33.3778C966.527 32.1106 966.524 30.8434 966.53 29.5762C970.252 29.4134 973.977 29.3432 977.705 29.3719C979.311 29.4294 980.884 29.0176 982.487 29.04C982.487 27.7504 982.483 26.4609 982.487 25.1746C984.194 25.0309 985.915 25.0373 987.606 24.7373C987.632 23.4765 987.619 22.2189 987.597 20.958C990.217 20.9038 992.838 20.7761 995.455 20.6516C995.427 19.41 995.411 18.1683 995.423 16.9298C999.63 16.866 1003.83 16.5628 1008.05 16.6553C1008.01 15.3626 1008.03 14.0699 1008.02 12.7772C1012.07 12.7708 1016.11 12.7931 1020.16 12.7676C1021.87 12.5888 1023.58 12.3782 1025.3 12.4835C1025.52 14.0795 1025.29 15.685 1025.33 17.2873C1028.02 16.8181 1030.75 16.9426 1033.46 16.9267C1033.5 20.8591 1033.39 24.7947 1033.39 28.7272C1031.97 28.7559 1030.55 28.6953 1029.13 28.7846C1029.06 30.2465 1029.1 31.7084 1029.09 33.1703C1027.59 33.1639 1026.12 33.5917 1024.62 33.5534C1024.61 34.9003 1024.64 36.2473 1024.6 37.5943C1023.27 38.0763 1021.86 38.0125 1020.47 37.9933C1020.38 42.1109 1020.52 46.2285 1020.51 50.346C1016.77 50.595 1013.01 50.3971 1009.28 50.1226C1007.54 50.3875 1005.78 50.5088 1004.02 50.4322C1004.06 47.8468 1004.01 45.2422 1003.65 42.679C1003.58 42.5897 1003.44 42.4077 1003.38 42.3184C1002.3 42.1109 1001.19 42.1683 1000.1 42.079C999.921 39.2573 1000.22 36.4165 999.863 33.6076C999.701 32.1585 999.87 30.6998 999.994 29.2538C997.032 28.9761 994.07 29.3113 991.105 29.2538C991.105 30.6487 991.105 32.0436 991.098 33.4384C992.525 33.4033 993.955 33.4161 995.388 33.3938C995.395 34.8078 995.267 36.2218 995.385 37.6358C995.73 40.3011 995.401 42.9855 995.481 45.6635C996.892 45.705 998.299 45.6252 999.694 45.4145C999.713 46.87 999.704 48.3256 999.723 49.7843C998.306 49.8449 996.901 50.0907 995.484 50.1545C995.513 51.543 995.443 52.9347 995.468 54.3232C1000.99 54.2083 1006.52 54.154 1012.05 54.2753C1012.13 55.8425 1012.11 57.4129 1012.13 58.9802C1014.83 58.7057 1017.53 58.7216 1020.24 58.7408C1020.2 62.8232 1020.44 66.9121 1020.19 70.9914C1021.45 70.9786 1022.71 71.0392 1023.97 70.9626C1023.93 72.3192 1024.29 73.647 1024.3 75.0004C1024.31 76.4974 1024.29 77.9944 1024.31 79.4946C1025.65 79.4116 1027 79.3191 1028.34 79.3638C1028.3 76.6474 1028.46 73.9279 1028.1 71.2276C1026.96 71.2116 1025.83 71.2084 1024.7 71.1956C1024.58 65.9705 1024.07 60.7517 1024.38 55.5233C1024.76 52.2357 1024.55 48.9224 1024.64 45.622C1024.98 43.0717 1025.1 40.5022 1025.22 37.9359C1026.62 37.805 1028.02 37.7507 1029.41 37.5433C1029.41 36.209 1029.41 34.8748 1029.41 33.5438C1030.7 33.5119 1031.98 33.3331 1033.28 33.3076C1033.44 32.05 1032.9 30.5146 1033.61 29.4326C1034.94 29.3432 1036.26 29.0751 1037.59 28.8963C1037.64 26.0364 1037.34 23.1381 1037.89 20.3101C1038.09 19.2025 1038.01 18.0757 1038.03 16.9618C1039.24 16.882 1040.44 16.6426 1041.65 16.5723C1041.84 15.3977 1041.27 13.805 1042.31 12.9431C1046.31 12.7197 1050.31 12.7835 1054.32 12.7772C1055.67 12.825 1056.99 12.4356 1058.34 12.3431C1058.69 15.2158 1058.28 18.1204 1058.56 20.9963C1058.87 22.2699 1058.82 23.5946 1058.6 24.8777C1057.26 24.9288 1055.93 24.8969 1054.59 24.9064C1054.6 27.5525 1054.87 30.1859 1054.51 32.8224C1053.21 32.9756 1051.9 33.0395 1050.6 33.0075C1050.65 34.4886 1050.69 35.9792 1050.47 37.4539C1049.3 37.5305 1048.13 37.6358 1046.96 37.6837C1046.93 38.9317 1047.04 40.1894 1046.89 41.431C1046.61 42.1524 1045.74 42.2226 1045.08 42.2258C1043.9 42.2034 1042.72 42.1173 1041.54 42.1428C1041.54 47.7127 1041.54 53.2826 1041.54 58.8493C1042.92 58.8238 1044.31 58.6897 1045.69 58.8525C1045.79 54.5179 1045.44 50.1545 1045.98 45.8422C1047.3 45.7816 1048.63 45.7656 1049.94 45.4975C1051 43.0238 1050.02 40.2819 1050.79 37.7571C1052.06 37.639 1053.35 37.6805 1054.63 37.6741C1054.63 36.209 1054.59 34.7407 1054.67 33.2757C1055.97 33.1767 1057.27 33.2214 1058.56 33.1767C1058.55 32.101 1058.61 31.0285 1058.73 29.9624C1058.9 28.392 1058.55 26.8152 1058.78 25.248C1060.14 25.2288 1061.51 25.2448 1062.86 25.0756C1062.82 21.4911 1062.98 17.9066 1062.76 14.3252C1062.64 12.292 1062.9 10.2683 1063.07 8.24464C1064.46 8.06589 1065.86 8.0595 1067.25 8.1808C1067.26 6.73486 1067.24 5.29211 1067.3 3.84937ZM1121.23 17.9768C1121.05 18.5513 1120.89 19.6302 1121.34 20.0196C1121.51 19.4578 1121.73 18.3183 1121.23 17.9768ZM1121.84 33.6044C1121.67 34.8716 1122.24 36.4005 1121.5 37.4986C1121.39 36.5218 1121.35 35.5355 1121.19 34.5652C1120.74 35.5355 1120.93 36.624 1120.82 37.6518C1122.32 37.6614 1123.82 37.6773 1125.32 37.6773C1125.31 39.1647 1125.32 40.6554 1125.37 42.1428C1127.13 42.2864 1128.83 41.6959 1130.59 41.8236C1132.94 41.9066 1135.27 41.731 1137.61 41.5236C1137.61 40.3234 1137.61 39.1264 1137.61 37.9295C1134.75 37.6837 1131.87 37.8178 1129 37.7954C1129.01 36.5984 1128.96 35.4047 1128.88 34.2109C1127.97 34.8748 1126.82 34.6418 1125.77 34.6546C1126.08 34.2875 1126.4 33.9268 1126.71 33.5597C1125.09 33.4608 1123.46 33.6012 1121.84 33.6044ZM1100.55 37.2273C1100.5 40.1191 1100.69 43.0078 1100.58 45.8997L1100.27 45.9061C1100.3 43.9079 1100.2 41.9098 1100.21 39.9117C1100.18 39.0626 1100.47 38.0955 1099.86 37.3805C1099.74 38.6508 1100.04 39.9085 1100.01 41.1788C1099.98 42.7301 1099.94 44.2846 1099.93 45.8359C1098.47 45.7848 1097.01 45.8422 1095.55 45.855C1095.63 47.3265 1095.53 48.8011 1095.45 50.2726C1094.06 50.745 1092.59 50.6971 1091.19 51.0642C1091.16 51.7281 1091.1 52.3952 1091.1 53.0624C1091.32 52.3761 1091.04 51.4058 1091.75 50.9716C1091.86 52.0665 1091.87 53.1709 1091.93 54.2721C1090.29 54.3359 1088.65 54.3679 1087.02 54.2657C1087.06 55.6478 1087.07 57.0299 1087.08 58.4152C1089.96 58.3131 1092.84 58.2907 1095.73 58.4216C1095.79 56.9342 1095.8 55.4435 1095.83 53.9561C1099.96 54.0391 1104.11 53.7135 1108.22 54.2529C1109.72 54.2944 1111.22 54.2593 1112.72 54.2721C1112.72 55.7595 1112.71 57.247 1112.72 58.7344C1114.04 58.7887 1115.4 58.5269 1116.67 58.9993C1117.88 59.3951 1119.15 59.1462 1120.4 59.21C1119.06 59.3185 1117.72 59.2834 1116.38 59.1876C1116.56 60.1995 1116.92 61.189 1116.87 62.2295C1116.84 65.447 1116.9 68.6645 1116.89 71.8787C1118.29 71.8468 1119.69 71.8085 1121.08 71.9936C1120.96 67.493 1121.05 62.9924 1121.02 58.4918C1119.54 58.4535 1118.07 58.4088 1116.6 58.5078C1116.65 55.6638 1116.65 52.823 1116.73 49.9822C1115.52 50.1322 1114.31 50.0939 1113.11 50.1513C1112.6 50.4641 1112.1 50.8504 1111.47 50.7578C1108.74 50.6971 1106.01 50.9493 1103.3 50.5631C1103.39 49.5034 1103.02 48.2426 1103.77 47.368C1103.87 48.3128 1103.62 49.2289 1103.47 50.1545C1104.65 47.451 1103.8 44.4474 1104.19 41.6161C1104.43 40.1319 1104.26 38.6285 1104.14 37.1443C1102.95 37.24 1101.75 37.2368 1100.55 37.2273ZM1137.78 41.8651C1137.32 44.6197 1137.19 47.3999 1137.29 50.1896C1138.67 50.1034 1140.06 50.1226 1141.44 50.1226C1141.38 58.5684 1141.5 67.0142 1141.45 75.4568C1143.53 75.575 1145.7 75.3483 1147.7 76.0857C1147.65 77.0879 1147.62 78.0902 1147.7 79.0924C1147.43 79.2233 1147.16 79.3574 1146.9 79.4914C1150.73 79.4468 1154.59 79.6415 1158.41 79.3414C1156.92 79.0893 1155.4 79.1946 1153.89 79.1563C1153.9 77.9529 1153.88 76.7496 1153.87 75.543C1152.49 75.6133 1151.12 75.4856 1149.74 75.4281C1149.74 74.2918 1149.74 73.1523 1149.74 72.016C1148.27 72.016 1146.81 72.0351 1145.34 72C1146.8 71.8532 1148.28 71.9904 1149.74 71.9681C1149.74 71.783 1149.74 71.4127 1149.74 71.2276C1148.26 71.2212 1146.78 71.218 1145.3 71.3137C1145.43 69.6699 1145.18 68.0005 1145.53 66.3758C1145.73 63.5191 1145.52 60.6559 1145.35 57.8024C1145.37 53.7295 1145.26 49.6566 1145.27 45.5805C1143.87 45.5997 1142.49 45.8422 1141.09 45.8071C1141.08 44.4059 1140.99 43.0078 1141.06 41.6098C1139.96 41.6927 1138.87 41.8045 1137.78 41.8651ZM974.532 45.7976C974.494 50.2215 974.028 54.6296 974.188 59.06C975.627 59.0312 977.07 59.0472 978.513 59.028C978.5 60.1165 978.471 61.2113 978.624 62.2966C979.014 60.7134 978.64 59.0855 978.659 57.4832C978.653 53.6082 978.659 49.7364 978.656 45.8614C977.281 45.8135 975.905 45.8454 974.532 45.7976ZM1066.44 45.8167C1066.44 50.0013 1066.42 54.1891 1066.44 58.3769C1067.93 58.4375 1069.42 58.4216 1070.9 58.4216C1070.9 54.2051 1070.9 49.9917 1070.91 45.7752C1069.42 45.8614 1067.92 45.8007 1066.44 45.8167ZM991.734 54.2721C990.112 54.2051 988.519 54.719 986.898 54.4764C987.163 55.8074 987.37 57.1448 987.274 58.511C984.606 58.6163 981.95 58.8397 979.276 58.7408C979.256 61.5656 979.416 64.4 979.177 67.2153C978.765 68.441 978.235 69.6476 978.289 70.9786C974.37 71.068 970.434 70.8222 966.53 71.2212C966.524 69.7689 966.527 68.3165 966.527 66.8642C965.049 66.9025 963.568 66.8546 962.09 66.778C962.157 65.3768 962.052 63.9723 962.055 62.5711C959.294 62.5679 956.533 62.5838 953.772 62.5615C954.018 63.9468 953.932 65.364 953.897 66.7653C955.291 66.7365 956.689 66.7174 958.088 66.7206C958.027 68.141 958.043 69.5678 957.982 70.9882C959.383 70.9977 960.785 70.9435 962.186 70.9531C962.157 72.4628 962.243 73.9662 962.393 75.4696C964.835 75.4792 967.283 75.6101 969.716 75.3579C974.066 74.9302 978.395 75.8303 982.745 75.6579C982.697 72.5331 982.582 69.3763 983.135 66.2865C984.456 66.1077 985.787 66.0503 987.121 66.0854C987.121 64.8693 987.191 63.6563 987.29 62.4466C988.618 62.1274 989.978 61.8593 991.338 62.1529C991.197 60.924 991.054 59.6888 991.194 58.4535C992.573 58.428 993.955 58.3833 995.318 58.1311C995.226 56.7969 995.251 55.4563 995.372 54.1221C994.156 54.1444 992.95 54.2881 991.734 54.2721ZM1066.53 75.0228C1066.55 76.4017 1066.55 77.7838 1066.49 79.1627C1064.45 79.1754 1062.41 79.1659 1060.37 79.1691C1060.37 80.5926 1060.37 82.0162 1060.37 83.443C1057.29 83.5643 1054.2 83.7111 1051.11 83.625C1049.34 83.7048 1047.55 83.2547 1045.81 83.7175C1044.44 84.1293 1042.98 83.8548 1041.58 84.0335C1041.32 86.6349 1042.07 89.23 1041.66 91.825L1041.48 92.0261C1037.77 92.2304 1034.06 92.374 1030.35 92.1761C1027.9 92.1857 1025.46 91.7675 1023.01 92.074C1019.45 91.9878 1015.91 92.3644 1012.34 92.2495C1012.31 90.7621 1012.31 89.2747 1012.36 87.7872C1010.8 87.7872 1009.25 87.7936 1007.7 87.7649C1007.97 83.6313 1007.63 79.4851 1007.97 75.3515C1006.5 75.2558 1005.02 75.3068 1003.55 75.2526C1003.59 77.0592 1003.44 78.885 1003.73 80.6788C1004.08 83.3409 1003.92 86.0317 1004.02 88.7065C1005.2 88.965 1006.35 89.3832 1007.56 89.5045C1007.57 90.2801 1007.37 91.1132 1007.67 91.8537C1008.47 93.2263 1008.03 94.8829 1008.17 96.3958C1011.19 96.3703 1014.24 96.5395 1017.25 96.2075C1022.15 96.0415 1027.06 96.2203 1031.96 96.1245C1033.72 96.5139 1035.53 96.3799 1037.32 96.4214C1037.43 97.9088 1037.37 99.4026 1037.4 100.893C1038.8 101.05 1040.2 101.053 1041.6 100.989C1041.97 99.5079 1041.82 98.0141 1041.51 96.5427C1042.88 96.2458 1044.29 96.1341 1045.69 96.2075C1045.69 94.4934 1045.64 92.7762 1045.82 91.0717C1047.16 90.9345 1048.5 90.893 1049.84 91.0717C1049.84 89.9737 1049.84 88.8757 1049.84 87.7808C1051.55 87.7808 1053.26 87.8064 1054.97 87.7681C1060.15 87.1712 1065.38 87.5957 1070.59 87.5223C1072.51 87.4904 1074.41 87.8606 1076.33 87.7872C1081.4 87.7872 1086.48 87.7872 1091.55 87.7872C1091.68 88.8789 1091.78 89.9737 1091.78 91.0717C1093.05 91.1068 1094.33 91.1132 1095.61 91.1579C1095.63 88.7448 1096.01 86.3445 1095.87 83.9282C1097.2 83.7048 1098.54 83.6282 1099.88 83.6601C1099.79 82.345 1099.89 81.0331 1099.86 79.7181C1101.27 79.7436 1102.69 79.683 1104.1 79.5393C1104.1 78.2019 1104.1 76.8645 1104.1 75.5271C1101.23 75.6962 1098.36 75.3515 1095.48 75.4313C1095.43 76.7496 1095.59 78.0902 1095.4 79.3957C1094.56 80.4873 1094.12 81.8247 1093.28 82.8972C1091.94 83.0632 1091 81.8662 1090.56 80.7554C1090.57 81.5406 1090.59 82.329 1090.49 83.1111C1089.51 83.2643 1088.51 83.2228 1087.53 83.1398C1087.78 82.744 1088.06 82.3673 1088.31 81.9779C1087.66 82.4886 1087.17 83.3696 1086.23 83.3217C1082.47 83.4462 1078.69 83.4877 1074.95 83.9473C1074.98 82.4248 1074.96 80.9055 1074.95 79.3829C1073.56 79.2552 1072.15 79.3223 1070.75 79.3191C1071.04 77.9019 1071 76.4559 1071 75.0196C1069.51 75.0228 1068.02 75.0132 1066.53 75.0228ZM1153.87 79.8394C1153.82 86.6956 1153.96 93.5518 1153.86 100.408C1152.49 100.45 1151.12 100.593 1149.75 100.564C1149.82 101.841 1149.6 103.099 1149.4 104.35L1149.54 104.554C1151.05 104.57 1152.57 104.42 1154.08 104.567C1154.08 103.22 1154.1 101.87 1154.11 100.523C1156.78 100.402 1159.45 100.542 1162.12 100.421C1162.04 99.2877 1162.12 98.1546 1162.03 97.0246C1161.96 97.9854 1161.99 98.9462 1161.96 99.9069L1161.51 99.7058C1161.24 98.7355 1161.41 97.7141 1161.43 96.7278C1160.37 96.7342 1159.31 96.6767 1158.25 96.6225C1158.27 91.0334 1158.27 85.4444 1158.24 79.8585C1156.78 79.8425 1155.32 79.8425 1153.87 79.8394ZM1008.18 87.5957C1008.48 86.1402 1008.64 84.6049 1008.33 83.1366C1007.81 84.5634 1008.18 86.1179 1008.18 87.5957ZM945.46 84.2187C945.448 89.7535 945.486 95.285 945.441 100.82C946.83 100.766 948.218 100.721 949.61 100.718C949.578 102.668 949.69 104.618 949.572 106.565C949.39 107.58 949.233 108.599 949.281 109.633C950.772 109.527 952.265 109.55 953.759 109.495C953.756 110.641 953.785 111.787 953.689 112.93C955.965 112.933 958.244 112.413 960.507 112.873C964.123 112.936 967.743 112.949 971.363 112.863C971.235 111.522 971.168 110.175 971.2 108.832C969.211 108.988 967.194 109.237 965.225 108.825C962.764 108.63 960.264 109.058 957.832 108.484C957.922 107.264 957.95 106.042 958.183 104.838C956.76 104.829 955.342 104.867 953.922 104.88C953.75 102.16 953.507 99.4409 953.718 96.715C952.403 96.7342 951.084 96.7214 949.769 96.7246C950.255 92.5591 949.584 88.3777 949.805 84.2027C948.355 84.174 946.909 84.2857 945.46 84.2187ZM1134.1 87.7872C1134.1 89.1183 1134.11 90.4493 1134.09 91.7803C1132.53 92.0293 1130.98 91.4739 1129.42 91.742C1129.39 93.0954 1129.46 94.4488 1129.41 95.8021C1127.98 95.9266 1126.59 96.3097 1125.17 96.4565C1125.17 97.8099 1125.17 99.16 1125.17 100.513C1123.99 100.558 1122.82 100.647 1121.65 100.587C1121.64 101.793 1121.7 103.006 1121.56 104.21C1121.11 103.613 1121.26 102.824 1121.17 102.132C1121.16 102.92 1121.18 103.709 1121.05 104.491C1120.06 104.519 1119.03 104.491 1118.13 104.947C1117.64 105.218 1117.08 105.253 1116.54 105.263C1116.54 106.485 1116.65 107.708 1116.62 108.934C1115.32 109.081 1114.02 109.135 1112.72 109.045C1112.71 110.188 1112.72 111.331 1112.69 112.474C1112.56 112.93 1113.04 113.473 1113.51 113.297C1114.62 113.128 1115.75 113.102 1116.87 113.131C1116.87 111.765 1116.84 110.402 1116.91 109.039C1119.69 109.215 1122.39 108.401 1125.17 108.535C1125.18 107.181 1125.12 105.831 1125.22 104.481C1126.58 104.35 1127.95 104.315 1129.31 104.369C1129.36 103.019 1129.2 101.656 1129.43 100.322C1129.78 99.0323 1129.59 97.6822 1129.62 96.3639C1130.59 96.3607 1131.57 96.4309 1132.52 96.1596C1134.1 95.6617 1135.76 96.0415 1137.38 95.9777C1137.82 93.2773 1138.05 90.5387 1137.89 87.8032C1136.63 87.7713 1135.37 87.7936 1134.1 87.7872ZM1046.77 91.6175L1046.79 91.9559C1047.8 91.9463 1048.82 91.9367 1049.84 91.9527L1049.84 91.6431C1048.81 91.6239 1047.79 91.608 1046.77 91.6175ZM1091.6 92.0931C1092.84 92.2623 1094.11 92.2623 1095.36 92.125C1095.43 91.9718 1095.58 91.6654 1095.65 91.509C1094.33 91.8282 1092.78 91.3462 1091.6 92.0931ZM1145.58 104.408C1146.72 104.388 1148 104.909 1149.06 104.347C1149.03 104.267 1148.96 104.104 1148.93 104.025C1147.8 104.098 1146.69 104.248 1145.58 104.408ZM1141.76 105.107C1141.73 106.916 1141.87 108.742 1141.61 110.542C1141.36 112.531 1141.5 114.542 1141.47 116.543C1140.17 116.454 1138.88 116.569 1137.61 116.808C1137.61 118.091 1137.61 119.374 1137.61 120.661C1136.01 120.68 1134.43 120.942 1132.83 121.002C1132.82 122.487 1132.82 123.968 1132.86 125.452C1134.45 125.516 1136.03 125.286 1137.61 125.136C1137.61 123.859 1137.61 122.589 1137.61 121.315C1138.89 121.293 1140.17 121.334 1141.45 121.242C1141.57 119.901 1141.49 118.557 1141.55 117.214C1142.74 117.118 1143.94 117.076 1145.13 116.965C1146.29 115.959 1145.39 114.204 1145.59 112.869C1146.97 112.777 1148.36 112.796 1149.75 112.805C1149.7 110.214 1149.1 107.673 1149.23 105.071C1146.74 105.043 1144.25 105.247 1141.76 105.107ZM1149.59 104.845C1149.69 106.24 1149.31 107.73 1150.04 109.013C1150.93 108.081 1150.44 106.718 1150.51 105.576C1151.26 105.416 1152.02 105.285 1152.77 105.129C1151.72 104.973 1150.65 104.902 1149.59 104.845ZM1057.62 113.054C1057.7 114.532 1057.5 115.997 1057.48 117.472C1053.87 117.364 1050.23 117.708 1046.64 117.217C1043.66 117.242 1040.68 117.108 1037.71 117.268C1037.7 118.605 1037.68 119.949 1037.86 121.28C1034.94 121.27 1032.01 121.133 1029.09 121.264C1024.81 121.047 1020.52 121.12 1016.25 121.334C1016.25 122.598 1016.22 123.862 1016.25 125.126C1021.48 125.155 1026.71 125.101 1031.94 125.155C1033.93 125.666 1036 125.378 1038.03 125.452C1038.03 124.143 1038.02 122.834 1038.03 121.526C1039.41 121.491 1040.8 121.618 1042.17 121.36C1043.34 121.156 1044.49 121.567 1045.66 121.612C1049.8 121.835 1053.95 121.714 1058.1 121.74C1058.58 120.444 1058.18 118.873 1058.34 117.472C1076.51 117.469 1094.68 117.475 1112.85 117.472C1112.88 116.262 1112.87 115.049 1112.88 113.843C1112.67 112.821 1111.49 113.358 1110.8 113.316C1107.28 113.319 1103.76 113.393 1100.24 113.265C1096.32 112.888 1092.37 113.163 1088.45 113.083C1086.95 112.997 1085.49 113.383 1084 113.332C1078.57 113.307 1073.14 113.527 1067.71 113.291C1064.35 113.383 1060.98 113.281 1057.62 113.054ZM1153.76 112.997C1153.79 117.137 1153.8 121.274 1153.81 125.414C1156.6 124.964 1159.38 125.943 1162.18 125.72C1162.22 127.865 1162.1 130.016 1162.35 132.152C1162.58 134.016 1162.5 135.896 1162.53 137.769C1163.87 137.639 1165.23 137.709 1166.58 137.766C1166.74 133.914 1166.69 130.048 1166.47 126.199C1166.24 124.545 1166.38 122.876 1166.34 121.216C1163.89 121.229 1161.44 121.293 1158.99 121.242C1158.06 121.382 1158.14 120.313 1158.07 119.703C1158.01 117.45 1158.13 115.196 1158.05 112.943C1156.62 112.917 1155.19 112.946 1153.76 112.997ZM971.321 114.101C971.015 114.385 971.133 115.043 971.567 115.136C972.126 115.053 971.921 113.766 971.321 114.101ZM1008.25 125.678C1008.35 126.981 1008.34 128.286 1008.32 129.589C1006.73 129.611 1005.14 129.598 1003.55 129.598C1003.55 130.872 1003.55 132.148 1003.55 133.422C1004.45 133.416 1005.36 133.377 1006.25 133.572C1008.17 133.958 1010.21 133.802 1012.01 133.01C1012.15 131.861 1012.18 130.706 1012.17 129.55C1013.5 129.531 1014.82 129.477 1016.14 129.356C1016.07 127.948 1016.08 126.534 1016.26 125.136C1013.56 124.903 1010.93 125.573 1008.25 125.678ZM1122.95 133.78C1105.49 133.732 1088.02 133.748 1070.55 133.764C1070.7 135.158 1070.93 136.557 1070.79 137.964C1077.63 137.817 1084.48 137.942 1091.33 137.9C1101.22 137.9 1111.12 137.9 1121.01 137.9C1120.99 139.282 1121.02 140.665 1121.01 142.047C1126.54 142.146 1132.07 141.999 1137.6 142.069C1137.66 143.448 1137.57 144.827 1137.43 146.199C1140.11 146.199 1142.79 146.199 1145.47 146.199C1145.33 144.82 1145.24 143.435 1145.27 142.05C1143.94 142.05 1142.62 142.05 1141.29 142.05C1141.3 140.61 1141.29 139.168 1141.44 137.738C1137.2 137.715 1132.96 137.84 1128.73 137.702C1128.57 136.301 1128.99 134.775 1128.25 133.495C1126.47 133.422 1124.72 133.674 1122.95 133.78ZM1062.74 138.101C1062.77 139.417 1062.7 140.732 1062.7 142.05C1052.87 142.117 1043.06 141.922 1033.24 141.98C1033.24 143.387 1033.24 144.792 1033.24 146.199C1043.04 146.199 1052.85 146.199 1062.65 146.199C1062.58 144.929 1062.57 143.652 1062.68 142.385C1065.41 142.621 1068.17 142.816 1070.9 142.449C1070.91 140.99 1070.92 139.531 1070.94 138.076C1068.22 138.43 1065.47 138.031 1062.74 138.101ZM1003.55 150.01C1003.55 151.479 1003.55 152.944 1003.55 154.412C1007.81 154.297 1012.07 154.377 1016.32 154.179C1016.32 152.835 1016.32 151.492 1016.32 150.148C1012.07 150.215 1007.81 149.848 1003.55 150.01ZM1116.34 167.122C1116.13 168.54 1116.27 169.979 1116.23 171.406C1121.12 171.463 1126.02 171.32 1130.91 171.505C1132.83 171.495 1134.76 171.291 1136.68 171.534C1136.94 170.123 1136.8 168.686 1136.77 167.266C1130.11 167.307 1123.44 167.183 1116.77 167.333C1116.77 168.616 1116.92 169.922 1116.68 171.192C1116.48 169.842 1116.84 168.421 1116.34 167.122ZM1087.21 179.829C1087.84 181.138 1087.75 182.587 1087.69 184.001C1090.27 184.084 1092.85 183.985 1095.44 184.068C1095.48 182.696 1095.48 181.326 1095.48 179.957C1092.74 179.6 1089.96 179.785 1087.21 179.829ZM1095.47 184.183C1096.24 185.227 1095.92 186.59 1096.06 187.8C1095.89 187.286 1095.76 186.762 1095.59 186.258C1095.56 186.947 1095.57 187.64 1095.55 188.336C1105.42 188.326 1115.29 188.339 1125.17 188.329C1125.16 186.963 1125.17 185.597 1125.11 184.234C1121.3 184.221 1117.47 184.375 1113.69 183.902C1109.64 183.928 1105.59 183.909 1101.55 183.905C1099.51 183.874 1097.5 184.282 1095.47 184.183ZM1079.24 184.221C1078.82 185.466 1079.21 186.832 1079.04 188.128C1080.36 188.128 1081.7 188.087 1083.02 188.317C1083.14 186.951 1083.09 185.581 1083.07 184.218C1081.8 184.298 1080.48 183.953 1079.24 184.221Z" fill="white"/>
<path d="M1141.53 74.5792C1144.08 74.4579 1146.62 74.7036 1149.17 74.86C1146.81 75.1186 1144.43 75.2367 1142.06 75.0962C1141.93 74.9686 1141.66 74.7068 1141.53 74.5792Z" fill="white"/>
<path d="M1057.86 115.694C1058.22 115.991 1058.26 116.904 1058.04 117.363C1057.49 117.178 1057.66 116.135 1057.86 115.694Z" fill="white"/>
</svg>
