<svg width="765" height="86" viewBox="0 0 765 86" fill="none" xmlns="http://www.w3.org/2000/svg">
<path d="M722.637 30.8403V29.5603H722.957C726.477 29.5603 728.077 29.2403 729.357 28.2803H729.997V35.0003C729.997 35.0003 736.077 28.6003 740.877 28.6003C745.997 28.6003 748.557 32.4403 748.557 36.2803V53.5603C748.557 56.7603 749.197 57.7203 752.077 57.7203H752.397V59.0003H741.197V57.7203H741.517C744.397 57.7203 745.037 56.7603 745.037 53.5603V36.2803C745.037 33.4003 743.117 30.8403 739.597 30.8403C735.437 30.8403 729.997 36.6003 729.997 36.6003V53.5603C729.997 56.7603 730.637 57.7203 733.517 57.7203H733.837V59.0003H722.637V57.7203H722.957C725.837 57.7203 726.477 56.7603 726.477 53.5603V35.0003C726.477 31.8003 725.837 30.8403 722.957 30.8403H722.637Z" fill="black"/>
<path d="M704.4 73.4C695.76 73.4 690 70.2 690 64.76C690 60.024 694.288 57.592 697.36 56.44C694.224 55.544 691.92 54.392 691.92 52.28C691.92 49.848 694.864 48.184 696.656 47.352C693.648 45.56 691.92 42.488 691.92 38.84C691.92 33.08 696.4 28.6 703.44 28.6C706.512 28.6 709.072 29.496 711.056 30.904C712.208 29.24 714.192 27 716.88 27C719.824 27 720.72 28.6 720.72 29.88C720.72 31.16 719.824 32.248 718.48 32.248C716.432 32.248 716.24 30.2 714 30.2C713.232 30.2 712.464 30.904 711.952 31.672C713.872 33.464 714.96 36.024 714.96 38.84C714.96 44.6 710.48 49.08 703.44 49.08C701.328 49.08 699.472 48.696 697.872 47.992C697.104 48.376 695.12 49.464 695.12 51C695.12 55.032 718.48 53.432 718.48 64.12C718.48 69.56 711.76 73.4 704.4 73.4ZM693.52 64.44C693.52 68.92 697.68 71.8 704.4 71.8C711.44 71.8 715.28 68.28 715.28 65.08C715.28 59.448 705.936 58.552 699.024 56.888C696.912 57.72 693.52 59.64 693.52 64.44ZM703.44 30.2C698.64 30.2 695.76 34.04 695.76 38.84C695.76 43.64 698.64 47.48 703.44 47.48C708.24 47.48 711.12 43.64 711.12 38.84C711.12 34.04 708.24 30.2 703.44 30.2Z" fill="black"/>
<path d="M688.074 59H664.074V57.72H668.234C673.994 57.72 674.314 57.08 674.314 52.92V33.72C674.314 31.16 674.314 30.84 671.434 30.84H665.994V29.56H668.874C673.674 29.56 675.914 29.24 677.194 28.28H677.834V52.92C677.834 57.08 678.154 57.72 683.914 57.72H688.074V59ZM675.274 21.88C673.482 21.88 672.074 20.472 672.074 18.68C672.074 16.888 673.482 15.48 675.274 15.48C677.066 15.48 678.474 16.888 678.474 18.68C678.474 20.472 677.066 21.88 675.274 21.88Z" fill="black"/>
<path d="M634.148 49.0801L635.428 48.7601C635.428 48.7601 638.308 58.3601 648.228 58.3601C653.988 58.3601 656.548 55.1601 656.548 51.9601C656.548 42.4241 634.788 48.1201 634.788 36.9201C634.788 32.1201 639.908 28.6001 645.988 28.6001C651.108 28.6001 653.668 30.8401 653.668 30.8401L656.548 28.6001L659.108 39.4801L657.828 39.8001C657.828 39.8001 654.948 30.2001 645.988 30.2001C640.868 30.2001 637.988 33.0801 637.988 35.9601C637.988 44.1521 659.748 38.8401 659.748 51.0001C659.748 56.4401 654.948 59.9601 647.908 59.9601C642.788 59.9601 639.588 57.7201 639.588 57.7201L636.708 59.9601L634.148 49.0801Z" fill="black"/>
<path d="M616.826 59.9601C609.146 59.9601 603.066 53.8801 603.066 44.2801C603.066 34.3601 609.466 28.6001 617.146 28.6001C625.786 28.6001 629.946 35.0001 629.946 41.7201V42.3601H607.29C607.226 43.0001 607.226 43.6401 607.226 44.2801C607.226 53.5601 612.986 57.7201 618.106 57.7201C626.106 57.7201 628.026 50.3601 628.026 50.3601L629.306 50.6801C629.306 50.6801 627.386 59.9601 616.826 59.9601ZM607.418 40.7601H625.786C625.786 34.0401 622.266 30.2001 616.826 30.2001C612.346 30.2001 608.378 33.5921 607.418 40.7601Z" fill="black"/>
<path d="M570.242 59.0002V57.7202H570.562C574.082 57.7202 574.722 56.7602 574.722 53.5602V19.6402C574.722 16.4402 574.082 15.4802 570.562 15.4802H570.242V14.2002H581.442C591.682 14.2002 600.002 21.8802 600.002 36.6002C600.002 51.3202 591.682 59.0002 581.442 59.0002H570.242ZM578.562 19.6402V53.5602C578.562 56.4402 579.202 57.4002 581.442 57.4002C588.546 57.4002 595.522 51.6402 595.522 36.6002C595.522 21.5602 588.482 15.8002 581.442 15.8002C579.202 15.8002 578.562 16.7602 578.562 19.6402Z" fill="black"/>
<path d="M531.839 59.9602C524.799 59.9602 519.359 55.1602 519.359 46.8402C519.359 40.0562 523.071 35.8322 527.103 32.3122C526.079 29.1122 525.439 26.1042 525.439 23.8002C525.439 17.4002 528.639 13.2402 533.759 13.2402C537.919 13.2402 540.479 15.9922 540.479 19.3202C540.479 24.3762 535.359 27.0642 530.751 31.2242C533.119 38.2002 537.343 45.8802 541.119 50.8082C542.911 46.8402 543.935 41.7202 544.767 36.6642C545.343 33.0802 544.575 30.8402 541.375 30.8402H541.055V29.5602H551.359V30.8402C547.519 30.8402 547.007 33.3362 546.367 36.9202C545.279 43.0642 543.999 48.2482 542.143 52.1522C544.191 54.5842 545.983 56.1202 547.199 56.1202C549.503 56.1202 549.439 52.9202 549.439 52.6002H550.719C550.719 53.7522 550.719 59.9602 546.559 59.9602C544.767 59.9602 542.463 58.2962 540.095 55.6722C538.047 58.4242 535.359 59.9602 531.839 59.9602ZM527.807 34.2962C525.503 37.1762 523.839 40.7602 523.839 45.8802C523.839 54.5202 528.319 57.7202 532.799 57.7202C535.423 57.7202 537.407 56.5042 539.007 54.4562C534.783 49.2722 530.431 41.3362 527.807 34.2962ZM533.567 14.8402C531.199 14.8402 528.959 17.0802 528.959 22.2002C528.959 24.3762 529.407 26.9362 530.239 29.6882C533.823 26.6802 536.959 23.8002 536.959 19.6402C536.959 16.5682 535.615 14.8402 533.567 14.8402Z" fill="black"/>
<path d="M471.707 29.56H475.867C480.667 29.56 481.435 28.728 482.267 23.8L483.227 18.04H484.187V29.56H498.267V31.16H484.187V50.04C484.187 54.84 486.427 57.72 491.227 57.72C497.627 57.72 499.227 50.36 499.227 50.36L500.507 50.68C500.507 50.68 498.907 59.96 489.947 59.96C484.507 59.96 480.667 56.44 480.667 50.04V31.16H471.707V29.56Z" fill="black"/>
<path d="M443.676 44.2801C443.676 34.6801 449.756 28.6001 458.076 28.6001C464.156 28.6001 468.636 32.4401 468.636 36.6001C468.636 38.7121 467.484 39.8001 465.948 39.8001C464.54 39.8001 463.516 38.8401 463.516 37.3041C463.516 35.9601 464.156 35.3201 464.156 34.0401C464.156 32.4401 462.556 30.2001 457.756 30.2001C452.636 30.2001 447.836 34.3601 447.836 44.2801C447.836 53.5601 453.596 57.7201 458.716 57.7201C466.716 57.7201 468.636 50.3601 468.636 50.3601L469.916 50.6801C469.916 50.6801 467.996 59.9601 457.436 59.9601C449.756 59.9601 443.676 53.8801 443.676 44.2801Z" fill="black"/>
<path d="M410.848 30.8403V29.5603H411.168C414.688 29.5603 416.288 29.2403 417.568 28.2803H418.208V52.2803C418.208 55.1603 420.128 57.7203 423.648 57.7203C427.808 57.7203 433.248 51.9603 433.248 51.9603V35.0003C433.248 31.8003 432.608 30.8403 429.728 30.8403H429.408V29.5603H429.728C433.248 29.5603 434.848 29.2403 436.128 28.2803H436.768V53.5603C436.768 56.7603 437.408 57.7203 440.288 57.7203H440.608V59.0003H440.288C436.768 59.0003 435.168 59.1283 433.888 59.6403H433.248V53.5603C433.248 53.5603 427.168 59.9603 422.368 59.9603C417.248 59.9603 414.688 56.1203 414.688 52.2803V35.0003C414.688 31.8003 414.048 30.8403 411.168 30.8403H410.848Z" fill="black"/>
<path d="M392.729 59.9603C384.729 59.9603 379.609 53.8803 379.609 44.2803C379.609 35.0003 385.049 28.6003 393.369 28.6003C399.129 28.6003 401.369 31.8003 401.369 31.8003V19.6403C401.369 16.4403 400.729 15.4803 397.849 15.4803H397.529V14.2003H397.849C401.369 14.2003 402.969 13.5603 404.249 12.2803H404.889V53.5603C404.889 56.7603 405.529 57.7203 408.409 57.7203H408.729V59.0003H408.409C404.889 59.0003 403.289 59.1283 402.009 59.6403H401.369V55.1603C401.369 55.1603 398.809 59.9603 392.729 59.9603ZM393.369 30.2003C387.609 30.2003 383.769 35.6403 383.769 44.2803C383.769 53.2403 387.609 58.3603 393.369 58.3603C398.489 58.3603 401.369 53.8803 401.369 49.4003V37.2403C401.369 34.0403 399.449 30.2003 393.369 30.2003Z" fill="black"/>
<path d="M362.24 59.9601C354.56 59.9601 348.48 53.5601 348.48 44.2801C348.48 35.0001 354.56 28.6001 362.24 28.6001C369.92 28.6001 376 35.0001 376 44.2801C376 53.5601 369.92 59.9601 362.24 59.9601ZM352.64 44.2801C352.64 53.5601 357.12 58.3601 362.24 58.3601C367.36 58.3601 371.84 53.5601 371.84 44.2801C371.84 35.0001 367.36 30.2001 362.24 30.2001C357.12 30.2001 352.64 35.0001 352.64 44.2801Z" fill="black"/>
<path d="M317.906 29.5603H318.866C323.666 29.5603 325.906 29.2403 327.186 28.2803H327.826V36.6003C327.826 36.6003 333.266 28.6003 338.386 28.6003C342.226 28.6003 345.426 30.5203 345.426 34.6803C345.426 36.7923 344.274 37.8803 342.738 37.8803C341.33 37.8803 340.306 36.7923 340.306 35.3843C340.306 34.0403 340.946 33.7203 340.946 32.4403C340.946 31.1603 339.986 30.2003 337.746 30.2003C333.586 30.2003 327.826 38.8403 327.826 38.8403V52.9203C327.826 57.0803 328.146 57.7203 333.906 57.7203H334.866V59.0003H317.906V57.7203H318.226C323.986 57.7203 324.306 57.0803 324.306 52.9203V33.7203C324.306 31.1603 324.306 30.8403 321.426 30.8403H317.906V29.5603Z" fill="black"/>
<path d="M286.84 14.2002H298.68C307.64 14.2002 315.32 17.4002 315.32 25.4002C315.32 33.4002 307.64 36.9202 298.68 36.9202H295.16V53.5602C295.16 56.7602 295.8 57.7202 299.32 57.7202H299.64V59.0002H286.84V57.7202H287.16C290.68 57.7202 291.32 56.7602 291.32 53.5602V19.6402C291.32 16.4402 290.68 15.4802 287.16 15.4802H286.84V14.2002ZM295.16 35.3202H298.68C304.504 35.3202 310.84 33.0802 310.84 25.4002C310.84 17.7202 304.44 15.8002 298.68 15.8002H298.04C295.8 15.8002 295.16 16.7602 295.16 19.6402V35.3202Z" fill="black"/>
<path d="M258.707 56.4401C258.707 54.6481 260.115 53.2401 261.907 53.2401C263.699 53.2401 265.107 54.6481 265.107 56.4401C265.107 58.2321 263.699 59.6401 261.907 59.6401C260.115 59.6401 258.707 58.2321 258.707 56.4401ZM258.707 32.7601C258.707 30.9681 260.115 29.5601 261.907 29.5601C263.699 29.5601 265.107 30.9681 265.107 32.7601C265.107 34.5521 263.699 35.9601 261.907 35.9601C260.115 35.9601 258.707 34.5521 258.707 32.7601Z" fill="black"/>
<path d="M230.02 59.6402L227.652 46.2002L228.932 45.8802C228.932 45.8802 232.452 58.3602 241.092 58.3602C245.252 58.3602 249.732 56.1202 249.732 49.7202C249.732 37.8802 228.292 35.9602 228.292 24.4402C228.292 17.0802 234.052 13.2402 240.132 13.2402C244.612 13.2402 247.172 15.4802 247.172 15.4802L250.244 13.5602L252.612 27.0002L251.332 27.3202C251.332 27.3202 248.452 14.8402 240.132 14.8402C236.612 14.8402 231.812 17.0802 231.812 22.8402C231.812 32.7602 253.252 35.0002 253.252 48.1202C253.252 56.1202 247.492 59.9602 241.092 59.9602C236.292 59.9602 233.092 57.4002 233.092 57.4002L230.02 59.6402Z" fill="black"/>
<path d="M195.683 15.4802H195.363V14.2002H208.163V15.4802H207.843C204.323 15.4802 203.683 16.4402 203.683 19.6402V48.4402C203.683 54.8402 207.203 57.7202 211.683 57.7202C216.163 57.7202 219.683 54.8402 219.683 48.4402V20.9202C219.683 18.0402 219.043 15.4802 215.203 15.4802H214.883V14.2002H226.083V15.4802H225.763C221.923 15.4802 221.283 18.0402 221.283 20.9202V48.1202C221.283 56.4402 216.483 59.9602 211.043 59.9602C204.323 59.9602 199.843 56.1202 199.843 48.1202V19.6402C199.843 16.4402 199.203 15.4802 195.683 15.4802Z" fill="black"/>
<path d="M174.25 14.2002H194.73V15.4802H191.85C187.05 15.4802 186.41 16.4402 186.41 20.2802V52.9202C186.41 56.7602 187.05 57.7202 191.85 57.7202H194.73V59.0002H174.25V57.7202H177.13C181.93 57.7202 182.57 56.7602 182.57 52.9202V20.2802C182.57 16.4402 181.93 15.4802 177.13 15.4802H174.25V14.2002Z" fill="black"/>
<path d="M143.504 15.4802H143.184V14.2002H151.376L167.184 48.9522V20.9202C167.184 18.0402 166.544 15.4802 162.704 15.4802H162.384V14.2002H173.584V15.4802H173.264C169.424 15.4802 168.784 18.0402 168.784 20.9202V59.0002H167.504L149.584 19.6402V52.2802C149.584 55.1602 150.224 57.7202 154.064 57.7202H154.384V59.0002H143.184V57.7202H143.504C147.344 57.7202 147.984 55.1602 147.984 52.2802V20.9202C147.984 18.0402 147.344 15.4802 143.504 15.4802Z" fill="black"/>
<path d="M112.449 57.7202H112.769C116.289 57.7202 116.929 56.7602 116.929 53.5602V19.6402C116.929 16.4402 116.289 15.4802 112.769 15.4802H112.449V14.2002H137.921L140.289 24.4402L139.009 24.7602C137.089 18.3602 133.569 15.8002 128.769 15.8002H124.929C121.409 15.8002 120.769 16.7602 120.769 19.6402V35.3202H125.249C128.129 35.3202 130.689 34.6802 130.689 30.8402V30.5202H131.969V41.7202H130.689V41.4002C130.689 37.5602 128.129 36.9202 125.249 36.9202H120.769V53.5602C120.769 56.4402 121.409 57.4002 124.929 57.4002H129.409C134.209 57.4002 137.729 54.8402 139.649 48.4402L140.929 48.7602L138.561 59.0002H112.449V57.7202Z" fill="black"/>
<path d="M81.7578 36.6002C81.7578 21.8802 88.1578 13.2402 95.8378 13.2402C99.6778 13.2402 101.918 15.4802 101.918 15.4802L104.99 13.5602L107.358 27.0002L106.078 27.3202C106.078 27.3202 103.198 14.8402 95.8378 14.8402C90.7178 14.8402 86.2378 22.2002 86.2378 36.6002C86.2378 51.6402 91.3578 57.7202 96.4778 57.7202C101.278 57.7202 102.878 51.9602 102.878 51.9602V40.7602C102.878 37.5602 102.238 36.6002 98.7178 36.6002H98.3978V35.3202H111.198V36.6002H110.878C107.358 36.6002 106.718 37.5602 106.718 40.7602V59.0002H105.438L103.838 53.2402C103.838 53.2402 101.598 59.9602 95.8378 59.9602C88.1578 59.9602 81.7578 51.3202 81.7578 36.6002Z" fill="black"/>
<path d="M42.7383 14.2002H63.2183V15.4802H60.3383C55.5383 15.4802 54.8983 16.4402 54.8983 20.2802V52.9202C54.8983 56.7602 55.5383 57.7202 60.3383 57.7202H63.2183V59.0002H42.7383V57.7202H45.6183C50.4183 57.7202 51.0583 56.7602 51.0583 52.9202V20.2802C51.0583 16.4402 50.4183 15.4802 45.6183 15.4802H42.7383V14.2002Z" fill="black"/>
<path d="M22.5756 59.0001H12.0156V57.7201C15.8556 57.7201 16.7516 55.3521 17.4556 52.2801L26.8636 13.5601H28.1436L37.6796 52.7921C38.5756 56.4401 39.2156 57.7201 42.7356 57.7201V59.0001H30.8956V57.7201H31.2156C34.4156 57.7201 34.7356 56.6961 33.9676 53.5601L31.5996 43.9601H21.1036L19.0556 52.4721C18.2236 55.9281 18.4156 57.7201 22.2556 57.7201H22.5756V59.0001ZM26.3516 22.3281L21.4876 42.3601H31.2156L26.3516 22.3281Z" fill="black"/>
<path d="M748.553 36.2803C748.553 32.4403 745.993 28.5996 740.873 28.5996C736.073 28.5997 729.993 35 729.993 35V28.2803H729.354C728.074 29.2403 726.473 29.5596 722.953 29.5596H722.633V30.8398H722.953C725.833 30.8398 726.474 31.8 726.474 35V53.5596C726.474 56.7596 725.833 57.7197 722.953 57.7197H722.633V59H733.833V57.7197H733.513C730.633 57.7196 729.993 56.7594 729.993 53.5596V36.5996C730.03 36.5606 735.447 30.8402 739.593 30.8398C743.113 30.8398 745.033 33.4003 745.033 36.2803V53.5596C745.033 56.7596 744.393 57.7197 741.513 57.7197H741.193V59H752.394V57.7197H752.073C749.193 57.7197 748.553 56.7596 748.553 53.5596V36.2803ZM710.663 59.8496C713.38 60.9678 715.278 62.5422 715.278 65.0801C715.278 65.9669 714.982 66.8772 714.405 67.7314C712.277 65.7249 710.88 62.9506 710.663 59.8496ZM711.055 30.9043C710.917 30.8067 710.776 30.7117 710.633 30.6191V29.5596C710.633 22.9325 716.006 17.5598 722.633 17.5596H722.953C723.385 17.5596 723.728 17.5514 724 17.542C725.654 16.7173 727.486 16.2803 729.354 16.2803H729.993C731.872 16.2803 733.651 16.7123 735.234 17.4824C736.875 16.9748 738.784 16.5996 740.873 16.5996C746.689 16.5996 751.934 18.9001 755.603 23.0273C759.075 26.9337 760.553 31.8034 760.553 36.2803V48.9229C762.914 51.1143 764.393 54.2439 764.394 57.7197V59C764.394 65.6273 759.021 70.9998 752.394 71H741.193C739.909 71 738.673 70.7963 737.513 70.4229C736.353 70.7961 735.117 71 733.833 71H722.633C720.287 70.9999 718.101 70.3245 716.252 69.1611C717.647 67.7422 718.478 66.031 718.479 64.1201C718.479 59.996 715 57.7025 710.728 56.208C711.088 53.3419 712.46 50.7915 714.474 48.9229V41.9951C714.791 41.0056 714.958 39.9466 714.958 38.8398C714.958 36.0239 713.87 33.4638 711.95 31.6719C712.462 30.904 713.23 30.2003 713.998 30.2002C716.238 30.2002 716.431 32.248 718.479 32.248C719.822 32.2479 720.718 31.1598 720.718 29.8799C720.718 28.5999 719.822 27 716.878 27C714.19 27.0002 712.207 29.2404 711.055 30.9043Z" fill="white"/>
<path d="M716.88 27C714.192 27.0002 712.209 29.2404 711.057 30.9043C709.073 29.4963 706.512 28.5997 703.44 28.5996C696.4 28.5996 691.92 33.0799 691.92 38.8398C691.92 42.4878 693.648 45.5596 696.656 47.3516C694.864 48.1836 691.92 49.8483 691.92 52.2803C691.92 54.3921 694.224 55.5445 697.36 56.4404C694.288 57.5924 690 60.0239 690 64.7598C690 70.1998 695.76 73.4004 704.4 73.4004C711.76 73.4003 718.48 69.56 718.48 64.1201C718.48 53.4321 695.12 55.032 695.12 51C695.12 49.4641 697.104 48.3763 697.872 47.9922C699.472 48.6962 701.328 49.0801 703.44 49.0801C710.48 49.08 714.96 44.5998 714.96 38.8398C714.96 36.0239 713.872 33.4638 711.952 31.6719C712.464 30.904 713.232 30.2003 714 30.2002C716.24 30.2002 716.432 32.248 718.48 32.248C719.824 32.2479 720.72 31.1598 720.72 29.8799C720.72 28.5999 719.824 27 716.88 27ZM699.024 56.8877C705.936 58.5517 715.28 59.4481 715.28 65.0801C715.28 68.28 711.44 71.7997 704.4 71.7998C697.681 71.7998 693.521 68.9202 693.521 64.4404C693.521 59.6404 696.912 57.7197 699.024 56.8877ZM703.44 30.2002C708.24 30.2003 711.12 34.04 711.12 38.8398C711.12 43.6398 708.24 47.4803 703.44 47.4805C698.64 47.4805 695.76 43.6398 695.76 38.8398C695.76 34.0399 698.64 30.2002 703.44 30.2002ZM731.798 34.8984C731.352 36.1015 730.749 37.2639 729.995 38.3359V36.5996C730.008 36.5857 730.711 35.8451 731.798 34.8984ZM729.995 28.2803H729.355C728.075 29.2403 726.475 29.5596 722.955 29.5596H722.635V30.8398H722.955C725.835 30.8398 726.476 31.8 726.476 35V43.498C725.99 45.798 725.142 47.9976 723.952 50.0195C724.834 50.7924 725.69 51.6671 726.476 52.6494V53.5596C726.476 56.7596 725.835 57.7197 722.955 57.7197H722.635V59H729.777C730.223 60.5601 730.48 62.2646 730.48 64.1201C730.48 72.3278 725.347 77.9567 720.603 80.9492C715.811 83.9713 709.998 85.4004 704.4 85.4004C698.84 85.4004 692.889 84.4079 687.883 81.4678C682.437 78.2695 678 72.5322 678 64.7598C678 62.6634 678.326 60.7429 678.876 59H688.075V57.7197H683.915C681.785 57.7197 680.399 57.6313 679.498 57.3105C679.743 56.7354 680.013 56.1834 680.302 55.6533C680.098 54.7812 679.969 53.853 679.932 52.8672L679.92 52.2803L679.932 51.6904C680.009 49.6282 680.491 47.8205 681.169 46.2656C680.35 43.9233 679.92 41.4194 679.92 38.8398C679.92 32.7212 682.36 26.919 686.915 22.7285C691.434 18.5714 697.35 16.5996 703.44 16.5996C705.245 16.5996 706.996 16.7766 708.678 17.1152C710.846 15.9376 713.603 15.0001 716.88 15C720.507 15 724.746 16.0217 728.15 19.2422C731.52 22.4299 732.72 26.5069 732.72 29.8799C732.72 30.8378 732.613 31.8111 732.409 32.7773C730.954 33.9933 729.995 35 729.995 35V28.2803Z" fill="white"/>
<path d="M693.52 64.4404C693.52 59.6404 696.911 57.7197 699.023 56.8877C699.363 56.9694 699.709 57.0473 700.059 57.126C700.068 57.3227 700.074 57.5206 700.074 57.7197V59C700.074 62.9814 698.134 66.5075 695.148 68.6904C694.09 67.5357 693.52 66.0982 693.52 64.4404ZM677.194 28.2803C675.914 29.2403 673.674 29.5596 668.874 29.5596H665.994V30.8398H671.435C674.314 30.8399 674.314 31.1601 674.314 33.7197V52.9199C674.314 57.0799 673.994 57.7197 668.234 57.7197H664.074V59H688.074V57.7197H683.914C678.154 57.7197 677.834 57.0799 677.834 52.9199V28.2803H677.194ZM652.074 57.7197C652.074 54.3578 653.458 51.3202 655.686 49.1416C656.233 49.9009 656.546 50.8206 656.546 51.96C656.546 54.3295 655.142 56.6963 652.074 57.7666V57.7197ZM696.3 48.9873C697.587 50.2003 698.605 51.6936 699.258 53.3711C696.799 52.7544 695.119 52.0811 695.119 51C695.119 50.1926 695.668 49.5099 696.3 48.9873ZM654.414 33.9893C656.462 36.2136 657.456 38.741 657.737 39.543C656.166 38.0518 654.998 36.1416 654.414 33.9893ZM653.994 29.5596C653.994 25.0832 656.447 21.1816 660.08 19.1191C660.08 19.1038 660.079 19.0885 660.079 19.0732L660.074 18.6797L660.079 18.2861C660.287 10.0501 666.987 3.48047 675.274 3.48047L675.668 3.48535C683.904 3.6929 690.474 10.3921 690.475 18.6797C690.475 20.7965 690.045 22.8098 689.27 24.6377C689.635 25.7866 689.834 27.0103 689.834 28.2803V45.8486C691.837 46.143 693.679 46.9318 695.232 48.0879C693.627 49.0209 691.919 50.4281 691.919 52.2803C691.919 54.3921 694.224 55.5445 697.359 56.4404C694.287 57.5924 689.999 60.0239 689.999 64.7598C689.999 66.9257 690.914 68.7347 692.559 70.1299C691.173 70.6888 689.66 71 688.074 71H664.074C657.612 71 652.343 65.8914 652.085 59.4922C656.777 58.3672 659.746 55.2782 659.746 51C659.746 49.3794 659.359 48.0693 658.689 46.9961C659.809 46.4328 661.028 46.0377 662.314 45.8486V42.2627C660.688 41.7392 659.214 40.879 657.973 39.7627L659.106 39.4805L656.546 28.5996L653.994 30.584V29.5596ZM675.274 9.87988C670.818 9.87988 667.105 13.2471 666.549 17.5596H668.874C669.954 17.5596 670.782 17.5416 671.423 17.5098C671.64 17.499 671.824 17.4853 671.977 17.4736C672.11 17.409 672.246 17.3476 672.382 17.2881C672.184 17.7069 672.074 18.1784 672.074 18.6797L672.078 18.8467C672.162 20.5585 673.538 21.8799 675.274 21.8799C677.01 21.8797 678.386 20.5584 678.47 18.8467L678.475 18.6797C678.475 17.7141 678.063 16.8626 677.405 16.2803H677.834C680.107 16.2803 682.233 16.9126 684.045 18.0107C683.711 13.6325 680.131 10.1172 675.725 9.8916L675.274 9.87988Z" fill="white"/>
<path d="M652.398 17.3398C654.988 16.3859 657.867 16.3406 660.541 17.2842C664.395 18.6446 667.292 21.8731 668.228 25.8516L669.1 29.5586C669.026 29.5588 668.95 29.5596 668.875 29.5596H665.995V30.8398H669.402L670.788 36.7314C671.346 39.1045 671.156 41.4802 670.373 43.6113C671.246 45.8011 671.747 48.2663 671.747 51C671.747 53.3497 671.357 55.5834 670.637 57.6553C669.966 57.7016 669.173 57.7197 668.235 57.7197H664.075V59H670.116C668.723 62.2238 666.497 64.9975 663.667 67.1201C658.989 70.6285 653.286 71.96 647.907 71.96C645.335 71.96 643.033 71.6235 641.053 71.1436C638.413 72.1697 635.455 72.2433 632.712 71.2754C628.859 69.915 625.962 66.6864 625.026 62.708L623.942 58.1035C628.33 55.3955 629.306 50.6797 629.306 50.6797L628.027 50.3604C628.017 50.3973 627.019 54.1646 623.516 56.2939L622.465 51.8281C621.734 48.718 622.287 45.604 623.78 43.042C623.703 42.816 623.632 42.5885 623.564 42.3604H629.947V41.7197C629.947 37.1181 627.996 32.6666 623.992 30.3174C625.47 26.4384 628.142 23.3645 631.06 21.2471C635.404 18.0959 640.749 16.5996 645.987 16.5996V28.5996C639.907 28.5996 634.787 32.12 634.787 36.9199C634.787 48.1199 656.546 42.424 656.546 51.96C656.546 55.1599 653.987 58.3602 648.227 58.3604C638.307 58.3604 635.426 48.7598 635.426 48.7598L634.147 49.0801L636.707 59.96L639.587 57.7197C639.587 57.7197 642.787 59.96 647.907 59.96C654.947 59.9599 659.747 56.44 659.747 51C659.747 38.84 637.987 44.152 637.987 35.96C637.987 33.08 640.867 30.2002 645.987 30.2002L646.402 30.207C655.014 30.4967 657.812 39.7517 657.827 39.7998L659.107 39.4805L656.546 28.5996L653.667 30.8398C653.642 30.8188 651.24 28.7372 646.46 28.6064L645.987 28.5996V16.5996C648.371 16.5996 650.512 16.889 652.398 17.3398ZM623.235 32.8389C624.863 34.6406 625.787 37.3222 625.787 40.7598H623.164C622.91 39.4967 622.787 38.211 622.787 36.9199C622.787 35.4897 622.947 34.1282 623.235 32.8389Z" fill="white"/>
<path d="M617.146 16.5996C624.694 16.5997 631.288 19.5254 635.845 24.7695C637.305 26.45 638.471 28.2717 639.379 30.166C636.612 31.6424 634.786 34.0531 634.786 36.9199C634.786 41.1725 637.924 42.9884 641.815 44.1279C641.646 45.2727 641.313 46.3633 640.845 47.3789C641.364 49.1885 641.464 51.1453 641.058 53.1113L637.188 52.3105C635.917 50.3919 635.426 48.7598 635.426 48.7598L634.146 49.0801L636.706 59.96L639.449 57.8252C638.785 59.2627 637.841 60.9564 636.507 62.6758C632.726 67.5494 626.266 71.96 616.826 71.96C605.305 71.96 596.548 64.8849 592.91 54.9316C597.225 51.2495 599.999 45.0982 599.999 36.5996C599.999 32.133 599.231 28.3154 597.878 25.1631C598.097 24.9157 598.32 24.6715 598.549 24.4316C603.514 19.2337 610.238 16.5996 617.146 16.5996ZM617.146 28.5996C609.466 28.5996 603.066 34.3603 603.066 44.2803C603.067 53.8801 609.146 59.96 616.826 59.96C627.386 59.9599 629.306 50.6797 629.306 50.6797L628.026 50.3604C628.013 50.4119 626.078 57.7195 618.106 57.7197C612.986 57.7197 607.227 53.5601 607.227 44.2803C607.227 43.6404 607.226 43.0002 607.29 42.3604H629.946V41.7197C629.946 34.9999 625.786 28.5998 617.146 28.5996ZM637.19 52.3145C641.056 53.1166 641.056 53.1196 641.055 53.124C641.054 53.1263 641.053 53.1324 641.052 53.1367C641.05 53.1453 641.048 53.1541 641.046 53.1631C641.042 53.1811 641.038 53.2004 641.034 53.2197C641.026 53.2584 641.017 53.2999 641.007 53.3438C640.987 53.4315 640.964 53.5297 640.938 53.6377C640.885 53.8536 640.817 54.1101 640.733 54.4014C640.624 54.7808 640.482 55.2255 640.306 55.7227C638.957 54.6706 637.939 53.4432 637.19 52.3145ZM591.066 44.2803C591.066 38.8613 592.337 33.7323 594.871 29.3447C595.288 31.4748 595.52 33.886 595.52 36.5996C595.52 43.3634 594.107 48.2499 591.908 51.5801C591.356 49.25 591.066 46.8019 591.066 44.2803ZM616.826 30.2002C622.266 30.2002 625.786 34.0399 625.786 40.7598H607.418C608.378 33.5919 612.346 30.2002 616.826 30.2002ZM640.146 31.9385C641.205 34.669 641.762 37.5047 641.906 40.2568C639.581 39.4039 637.986 38.1773 637.986 35.96C637.986 34.4921 638.735 33.025 640.146 31.9385Z" fill="white"/>
<path d="M600.002 36.5996C600.002 21.88 591.682 14.2003 581.442 14.2002H570.242V15.4805H570.562C574.082 15.4805 574.722 16.44 574.722 19.6396V53.5596C574.722 56.7595 574.082 57.7197 570.562 57.7197H570.242V59H581.442C591.682 58.9999 600.002 51.3195 600.002 36.5996ZM581.442 15.7998C588.482 15.7999 595.522 21.5601 595.522 36.5996L595.517 37.2979C595.304 51.8183 588.435 57.4003 581.442 57.4004C579.202 57.4004 578.562 56.4396 578.562 53.5596V19.6396C578.563 16.7599 579.202 15.7998 581.442 15.7998ZM611.654 42.3604C611.222 45.8608 610.383 49.1879 609.12 52.2686C607.955 50.222 607.23 47.5737 607.229 44.2803C607.229 43.6404 607.229 43.0002 607.293 42.3604H611.654ZM607.421 40.7598C607.99 36.514 609.614 33.5929 611.774 31.917C611.926 33.4489 612.002 35.0116 612.002 36.5996C612.002 38.0073 611.942 39.3956 611.823 40.7598H607.421ZM611.505 29.7412C606.572 31.8784 603.069 36.9411 603.069 44.2803C603.069 49.2393 604.692 53.2588 607.319 55.9863C606.241 57.8931 604.974 59.678 603.51 61.3164C597.685 67.8343 589.686 70.9999 581.442 71H570.242C563.615 71 558.242 65.6274 558.242 59V57.7197C558.242 53.9403 559.991 50.5706 562.722 48.3711V24.8281C559.991 22.6286 558.242 19.2596 558.242 15.4805V14.2002C558.242 7.57278 563.615 2.2002 570.242 2.2002H581.442C589.686 2.20026 597.685 5.36583 603.51 11.8838C607.856 16.748 610.48 22.8913 611.505 29.7412Z" fill="white"/>
<path d="M533.759 1.24023C543.415 1.24023 551.532 7.9978 552.4 17.6045C558.54 18.1322 563.359 23.2831 563.359 29.5596V30.8398C563.359 35.0842 561.154 38.8109 557.828 40.9443C557.718 41.5263 557.605 42.1087 557.486 42.6904C560.645 44.8518 562.719 48.483 562.719 52.5996C562.719 53.1669 562.773 56.6371 561.672 60.2295C561.11 62.0628 559.977 64.8672 557.557 67.3496C554.821 70.1557 550.986 71.9599 546.56 71.96C543.973 71.96 541.72 71.2913 539.907 70.4746C537.467 71.4289 534.77 71.96 531.839 71.96C525.559 71.9599 519.246 69.7776 514.474 65.0049C509.662 60.1926 507.359 53.6962 507.359 46.8398C507.359 38.8689 510.413 32.9966 513.874 28.7148C513.605 27.0781 513.439 25.4197 513.439 23.7998C513.439 18.7406 514.694 13.2425 518.229 8.72461C522.004 3.90132 527.608 1.24035 533.759 1.24023ZM533.759 13.2402C528.639 13.2405 525.44 17.4001 525.439 23.7998C525.439 26.1037 526.08 29.1117 527.104 32.3115C523.072 35.8315 519.359 40.0559 519.359 46.8398C519.359 55.1597 524.799 59.9598 531.839 59.96C535.359 59.96 538.047 58.4238 540.095 55.6719C542.463 58.2959 544.768 59.96 546.56 59.96C550.719 59.9596 550.719 53.7516 550.719 52.5996H549.439C549.439 52.9196 549.503 56.1201 547.199 56.1201C545.983 56.1201 544.191 54.5841 542.144 52.1523C544 48.2483 545.279 43.0639 546.367 36.9199C547.007 33.336 547.519 30.8398 551.359 30.8398V29.5596H541.056V30.8398H541.375C544.575 30.8398 545.344 33.0801 544.768 36.6641C543.936 41.7199 542.911 46.8397 541.119 50.8076C537.343 45.8796 533.119 38.1995 530.751 31.2236C535.359 27.0638 540.479 24.3761 540.479 19.3203C540.479 15.9923 537.919 13.2402 533.759 13.2402ZM527.808 34.2959C530.432 41.3358 534.783 49.2721 539.007 54.4561C537.407 56.5039 535.423 57.7197 532.799 57.7197C528.319 57.7196 523.839 54.5196 523.839 45.8799C523.839 40.7599 525.504 37.1759 527.808 34.2959ZM533.567 14.8398C535.615 14.8399 536.959 16.568 536.959 19.6396C536.959 23.7996 533.823 26.6805 530.239 29.6885C529.407 26.9366 528.959 24.3762 528.959 22.2002C528.959 17.0802 531.199 14.8398 533.567 14.8398Z" fill="white"/>
<path d="M484.187 6.04004C490.653 6.04004 495.924 11.1549 496.176 17.5596H498.267C504.894 17.5596 510.266 22.9324 510.267 29.5596V31.1602C510.267 34.7306 508.705 37.9347 506.23 40.1328C510.655 42.5312 513.224 47.5456 512.332 52.7188L501.404 50.834C501.407 50.8346 501.409 50.8354 501.412 50.8359C512.044 52.6694 512.324 52.723 512.33 52.7295L512.324 52.7646C512.321 52.7803 512.318 52.7966 512.315 52.8135C512.309 52.8476 512.302 52.8846 512.295 52.9238C512.28 53.0023 512.263 53.0911 512.243 53.1895C512.203 53.3862 512.15 53.6232 512.085 53.8945C511.955 54.4342 511.767 55.1272 511.501 55.9248C510.982 57.481 510.099 59.6448 508.624 61.8965C505.489 66.6812 499.461 71.96 489.946 71.96C484.601 71.9599 478.969 70.1765 474.68 65.7822C471.245 62.2637 469.452 57.8747 468.877 53.377C469.67 51.8587 469.916 50.6797 469.916 50.6797L468.67 50.3682C468.669 50.2587 468.667 50.1494 468.667 50.04V42.7705C463.512 41.4245 459.707 36.7372 459.707 31.1602V30.3428C463 30.8592 464.156 32.6803 464.156 34.04C464.156 35.3199 463.517 35.9599 463.517 37.3037C463.517 38.8397 464.54 39.7998 465.948 39.7998C467.484 39.7998 468.636 38.7116 468.636 36.5996C468.635 32.8287 464.955 29.3203 459.737 28.6973C460.166 22.6599 465.061 17.8569 471.138 17.5732L471.39 16.0674L471.492 15.5293C472.668 10.0201 477.544 6.0401 483.227 6.04004H484.187V18.04H483.227L482.267 23.7998C481.435 28.7278 480.666 29.5596 475.866 29.5596H471.707V31.1602H480.667V50.04L480.678 50.6318C480.908 56.6565 484.677 59.9598 489.946 59.96C498.906 59.96 500.507 50.6797 500.507 50.6797L499.227 50.3604C499.214 50.4196 497.601 57.7197 491.227 57.7197C486.577 57.7197 484.329 55.0172 484.193 50.4844L484.187 50.04V31.1602H498.267V29.5596H484.187V6.04004Z" fill="white"/>
<path d="M458.076 16.5996C465.927 16.5996 475.555 20.8338 479.171 29.2559C478.351 29.4854 477.285 29.5596 475.866 29.5596H471.707V31.1602H479.86C480.36 32.8304 480.636 34.6433 480.636 36.5996C480.636 38.6101 480.28 40.9198 479.277 43.1768C479.817 43.8504 480.284 44.5789 480.667 45.3516V50.04C480.667 51.095 480.773 52.0712 480.972 52.9668L471.024 50.9082L471.023 50.9092C477.387 52.2261 479.945 52.7606 480.974 52.9766C481.079 53.4483 481.208 53.8979 481.364 54.3242C481.357 54.3495 481.351 54.3755 481.344 54.4014C481.177 54.9813 480.939 55.7158 480.606 56.5537C479.953 58.2017 478.87 60.4162 477.117 62.6758C473.336 67.5494 466.876 71.9599 457.437 71.96C447.65 71.96 439.86 66.8553 435.506 59.2188C436.601 59.0515 438.059 59 440.286 59H440.606V57.7197H440.286C437.406 57.7197 436.767 56.7596 436.767 53.5596V28.2803H436.151C436.987 26.9869 437.94 25.7598 439.018 24.6152C444.027 19.2926 450.883 16.5996 458.076 16.5996ZM433.246 54.1396C433.198 53.9949 433.15 53.85 433.104 53.7041C433.196 53.6103 433.246 53.5596 433.246 53.5596V54.1396ZM431.676 44.2803C431.676 40.8595 432.188 37.5113 433.235 34.377C433.242 34.5745 433.246 34.782 433.246 35V51.96C433.244 51.9625 433.061 52.1539 432.74 52.4668C432.043 49.8743 431.676 47.1237 431.676 44.2803ZM464.149 34.2725C464.079 35.4025 463.517 36.0438 463.517 37.3037C463.517 38.8397 464.54 39.7998 465.948 39.7998C467.484 39.7998 468.636 38.7116 468.636 36.5996C468.635 32.4398 464.156 28.5996 458.076 28.5996C449.756 28.5996 443.676 34.6803 443.676 44.2803L443.681 44.7275C443.867 54.0686 449.877 59.96 457.437 59.96C467.996 59.9598 469.916 50.6797 469.916 50.6797L468.636 50.3604C468.619 50.4255 466.68 57.7197 458.716 57.7197C453.676 57.7195 448.016 53.6887 447.841 44.7109L447.836 44.2803C447.836 34.3605 452.636 30.2004 457.756 30.2002C462.556 30.2002 464.156 32.44 464.156 34.04L464.149 34.2725Z" fill="white"/>
<path d="M418.208 16.2803C420.734 16.2803 423.076 17.0618 425.01 18.3945C426.372 17.8575 427.855 17.5596 429.408 17.5596H429.729C430.16 17.5596 430.503 17.5514 430.774 17.542C432.429 16.7172 434.26 16.2803 436.128 16.2803H436.769C443.396 16.2805 448.769 21.653 448.769 28.2803V31.874C445.603 34.5908 443.678 38.8786 443.678 44.2803C443.678 51.7478 447.357 57.0851 452.606 59.0879C452.559 65.6748 447.206 70.9999 440.608 71H440.288C439.47 71 438.842 71.0075 438.344 71.0225C437.983 71.0333 437.731 71.0482 437.56 71.0605C436.374 71.4416 435.136 71.6396 433.888 71.6396H433.248C431.69 71.6396 430.202 71.3394 428.836 70.7988C427.023 71.4397 424.82 71.96 422.368 71.96C416.552 71.96 411.308 69.6594 407.64 65.5322C405.92 63.5973 404.689 61.4262 403.885 59.1836C404.95 59.0448 406.352 59 408.41 59H408.73V57.7197H408.41C405.531 57.7196 404.891 56.7594 404.891 53.5596V19.1445C406.646 18.1382 408.679 17.5597 410.848 17.5596H411.168C411.6 17.5596 411.943 17.5514 412.215 17.542C413.869 16.7173 415.7 16.2803 417.568 16.2803H418.208ZM448.769 48.9238C450.598 50.6218 451.896 52.8826 452.389 55.4316C449.77 53.3048 447.838 49.6516 447.838 44.2803C447.838 41.6527 448.178 39.4301 448.769 37.5811V48.9238ZM398.887 31.8135C400.697 33.227 401.371 35.3457 401.371 37.2402V38.1963C399.978 36.4044 399.079 34.2093 398.887 31.8135ZM401.371 31.7998C401.371 31.7998 400.613 30.719 398.848 29.8135V29.5596C398.848 26.7862 399.791 24.2342 401.371 22.2021V31.7998ZM414.695 52.6396C414.85 56.3561 417.408 59.96 422.368 59.96C427.168 59.9599 433.248 53.5596 433.248 53.5596V59.6396H433.888C435.168 59.1277 436.768 59 440.288 59H440.608V57.7197H440.288C437.408 57.7197 436.769 56.7596 436.769 53.5596V28.2803H436.128C434.848 29.2401 433.248 29.5595 429.729 29.5596H429.408V30.8398H429.729C432.608 30.8399 433.248 31.8001 433.248 35V51.96C433.235 51.9739 427.803 57.7195 423.648 57.7197C420.238 57.7197 418.33 55.3174 418.214 52.5488L418.208 52.2803V28.2803H417.568C416.288 29.2403 414.688 29.5596 411.168 29.5596H410.848V30.8398H411.168C414.048 30.8398 414.688 31.8 414.688 35V52.2803L414.695 52.6396Z" fill="white"/>
<path d="M404.89 0.280273C411.517 0.280273 416.89 5.65286 416.89 12.2803V28.707C415.697 29.3358 414.098 29.5596 411.167 29.5596H410.847V30.8398H411.167C414.047 30.8398 414.688 31.8 414.688 35V52.2803C414.688 55.6781 416.692 59.0733 420.701 59.8105C420.284 66.0599 415.084 71 408.729 71H408.409C407.592 71 406.964 71.0075 406.466 71.0225C406.105 71.0333 405.852 71.0482 405.681 71.0605C404.496 71.4415 403.258 71.6396 402.01 71.6396H401.37C400.328 71.6396 399.317 71.5073 398.354 71.2578C396.644 71.698 394.768 71.96 392.729 71.96C385.448 71.9599 378.7 69.067 373.974 63.4287C372.391 61.5407 371.139 59.4716 370.179 57.2881C373.626 54.6439 375.885 50.2026 375.998 44.7129L376.002 44.2803C376.002 38.6527 373.766 34.0847 370.293 31.3604C371.317 29.1178 372.648 27.0028 374.314 25.0859C377.407 21.5299 381.336 19.0322 385.736 17.7061C385.601 16.9848 385.529 16.241 385.529 15.4805V14.2002C385.529 7.5729 390.902 2.20039 397.529 2.2002H397.743C399.668 0.957771 401.924 0.280273 404.25 0.280273H404.89ZM393.37 30.2002C399.45 30.2004 401.37 34.0403 401.37 37.2402V49.4004C401.37 53.8801 398.49 58.3601 393.37 58.3604C387.79 58.3604 384.012 53.5549 383.781 45.1084L383.77 44.2803C383.77 35.6403 387.61 30.2002 393.37 30.2002ZM418.207 50.3633C419.643 52.2099 420.551 54.4854 420.705 56.9668C419.073 55.9993 418.207 54.2127 418.207 52.2803V50.3633ZM367.609 44.2803C367.609 40.8203 368.119 37.3669 369.209 34.1094C370.825 36.462 371.842 39.863 371.842 44.2803L371.829 45.1367C371.704 49.1978 370.688 52.3418 369.141 54.5449C368.082 51.2418 367.609 47.7525 367.609 44.2803ZM379.613 44.7275C379.77 54.0685 384.855 59.9599 392.729 59.96C398.809 59.96 401.37 55.1602 401.37 55.1602V59.6396H402.01C403.29 59.1277 404.89 59 408.409 59H408.729V57.7197H408.409C405.53 57.7196 404.89 56.7594 404.89 53.5596V12.2803H404.25C402.97 13.5603 401.37 14.2002 397.85 14.2002H397.529V15.4805H397.85C400.73 15.4805 401.37 16.4399 401.37 19.6396V31.7998C401.37 31.7998 399.13 28.5998 393.37 28.5996C385.05 28.5996 379.609 35.0003 379.609 44.2803L379.613 44.7275Z" fill="white"/>
<path d="M376.004 44.2803C376.004 35.0003 369.924 28.5996 362.244 28.5996C354.564 28.5996 348.484 35.0003 348.484 44.2803L348.488 44.7129C348.674 53.7584 354.684 59.96 362.244 59.96C369.804 59.9599 375.814 53.7584 376 44.7129L376.004 44.2803ZM352.645 44.2803C352.645 35.0003 357.124 30.2002 362.244 30.2002C367.364 30.2002 371.844 35.0003 371.844 44.2803L371.831 45.1367C371.563 53.8552 367.204 58.3603 362.244 58.3604C357.284 58.3604 352.925 53.8553 352.657 45.1367L352.645 44.2803ZM383.771 44.2803C383.771 40.0594 384.69 36.6032 386.299 34.1709C387.411 37.3412 388.004 40.7629 388.004 44.2803C388.004 47.8266 387.401 51.2755 386.271 54.4678C384.783 52.2283 383.891 49.0699 383.783 45.1084L383.771 44.2803ZM379.615 44.7275C379.712 50.4767 381.675 54.919 385.007 57.4854C380.886 65.9447 372.77 71.9599 362.244 71.96C346.762 71.96 336.485 58.948 336.484 44.2803C336.484 39.3836 337.63 34.6715 339.732 30.5664C340.568 30.9594 340.947 31.6368 340.947 32.4404C340.947 33.72 340.307 34.0401 340.307 35.3838C340.307 36.7918 341.331 37.8799 342.739 37.8799C344.275 37.8798 345.427 36.7916 345.427 34.6797C345.427 31.389 343.424 29.5012 340.687 28.8555C345.079 21.5825 352.665 16.5996 362.244 16.5996C372.863 16.5996 381.033 22.7216 385.118 31.2998C381.642 34.0169 379.611 38.6113 379.611 44.2803L379.615 44.7275Z" fill="white"/>
<path d="M345.426 34.6797C345.426 30.5199 342.226 28.5996 338.386 28.5996C333.284 28.6 327.864 36.5448 327.826 36.5996V28.2803H327.187C325.907 29.2403 323.666 29.5596 318.866 29.5596H317.906V30.8398H321.426C324.306 30.8398 324.306 31.16 324.306 33.7197V52.9199C324.306 57.0798 323.986 57.7197 318.227 57.7197H317.906V59H334.866V57.7197H333.906C328.146 57.7197 327.826 57.0799 327.826 52.9199V38.8398C327.851 38.8019 333.595 30.2002 337.746 30.2002C339.986 30.2002 340.946 31.1604 340.946 32.4404L340.938 32.6689C340.868 33.7639 340.306 34.1239 340.306 35.3838C340.306 36.7037 341.206 37.7424 342.479 37.8672L342.738 37.8799C344.274 37.8798 345.426 36.7916 345.426 34.6797ZM352.644 44.2803C352.644 38.2724 354.522 34.1432 357.235 31.9775C357.361 32.8632 357.426 33.7656 357.426 34.6797C357.426 37.861 356.539 41.7926 353.598 45.0771C353.307 45.4021 353.005 45.7081 352.696 45.9971C352.661 45.443 352.644 44.8707 352.644 44.2803ZM305.906 30.8398V29.5596C305.906 26.0645 307.402 22.9196 309.786 20.7266C310.454 21.9749 310.841 23.5138 310.841 25.4004C310.841 29.6172 308.929 32.1908 306.242 33.6572C306.025 32.7534 305.906 31.8104 305.906 30.8398ZM356.786 29.7764C351.872 32.0293 348.483 37.3519 348.483 44.2803C348.483 45.775 348.642 47.1948 348.938 48.5254C347.299 49.2824 345.581 49.7014 343.906 49.833C345.748 51.9422 346.866 54.6997 346.866 57.7197V59C346.866 65.6274 341.494 71 334.866 71H317.906C311.279 71 305.906 65.6274 305.906 59V57.7197C305.906 53.1155 308.5 49.1186 312.306 47.1064V41.4521C309.936 40.1992 308.039 38.1774 306.943 35.7178C311.891 34.0862 315.321 30.7453 315.321 25.4004C315.321 22.6063 314.383 20.3983 312.782 18.707C314.336 17.9721 316.073 17.5596 317.906 17.5596H318.866C319.947 17.5596 320.774 17.5416 321.415 17.5098C321.633 17.4989 321.816 17.4853 321.969 17.4736C323.587 16.6924 325.37 16.2803 327.187 16.2803H327.826C329.68 16.2803 331.436 16.7003 333.004 17.4512C334.597 16.9464 336.404 16.5997 338.386 16.5996C342.118 16.5996 346.751 17.5125 350.733 20.624C353.779 23.0037 355.822 26.1968 356.786 29.7764Z" fill="white"/>
<path d="M315.32 25.4004C315.32 17.4004 307.64 14.2002 298.68 14.2002H286.84V15.4805H287.16C290.68 15.4805 291.32 16.4399 291.32 19.6396V53.5596C291.32 56.7596 290.68 57.7197 287.16 57.7197H286.84V59H299.641V57.7197H299.32C295.8 57.7197 295.16 56.7596 295.16 53.5596V36.9199H298.68C307.5 36.9199 315.08 33.5091 315.314 25.7715L315.32 25.4004ZM298.68 15.7998C304.44 15.7998 310.84 17.7204 310.84 25.4004L310.836 25.7559C310.643 33.1494 304.413 35.3203 298.68 35.3203H295.16V19.6396C295.16 16.76 295.8 15.7998 298.04 15.7998H298.68ZM327.32 25.4004C327.32 26.3984 327.258 27.3683 327.142 28.3096C325.855 29.2453 323.613 29.5596 318.865 29.5596H317.905V30.8398H321.425C324.305 30.8398 324.305 31.16 324.305 33.7197V36.6895C322.414 39.8733 319.755 42.4595 316.672 44.3662C313.697 46.2058 310.434 47.3761 307.16 48.0693V48.3701C309.891 50.5696 311.641 53.94 311.641 57.7197V59C311.641 65.6273 306.268 70.9997 299.641 71H286.84C280.213 70.9998 274.84 65.6273 274.84 59V57.7197C274.84 53.9399 276.589 50.5696 279.32 48.3701V24.8291C276.589 22.6296 274.84 19.26 274.84 15.4805V14.2002C274.84 7.57288 280.213 2.20036 286.84 2.2002H298.68C304.29 2.2002 310.867 3.15494 316.474 6.47461C322.759 10.1962 327.32 16.7119 327.32 25.4004Z" fill="white"/>
<path d="M270.695 55.9893C270.491 51.9964 267.585 48.6807 263.783 47.8447C263.168 47.9198 262.542 47.96 261.906 47.96C261.27 47.9599 260.644 47.9199 260.029 47.8447C256.086 48.7123 253.106 52.2488 253.106 56.4404L253.118 56.8906C253.355 61.5192 257.222 65.24 261.906 65.2402C266.591 65.2402 270.458 61.5193 270.695 56.8906L270.707 56.4404L270.695 55.9893ZM249.497 47.6387C249.65 48.2977 249.731 48.9899 249.731 49.7197C249.731 53.0869 248.49 55.3007 246.709 56.6445L246.707 56.4404L246.712 56.0469C246.791 52.9131 247.809 50.02 249.497 47.6387ZM270.695 32.3096C270.458 27.6808 266.591 23.96 261.906 23.96C257.071 23.9602 253.107 27.9246 253.106 32.7598C253.106 36.9513 256.086 40.4858 260.029 41.3535C260.644 41.2784 261.271 41.2403 261.906 41.2402L262.3 41.2451C262.801 41.2577 263.296 41.294 263.783 41.3535C267.584 40.5174 270.491 37.2035 270.695 33.2109L270.707 32.7598L270.695 32.3096ZM277.106 32.7598C277.106 37.555 274.906 41.8175 271.457 44.5996C274.906 47.3817 277.106 51.645 277.106 56.4404C277.106 64.8596 270.326 71.6396 261.906 71.6396C254.277 71.6394 247.993 66.0717 246.881 58.7617C250.592 57.0664 253.252 53.5547 253.252 48.1201C253.252 43.6913 250.808 40.503 247.571 37.8398C247.053 36.3696 246.753 34.7947 246.712 33.1533L246.707 32.7598L246.712 32.3662C246.798 28.9535 247.998 25.8267 249.965 23.335C250.921 25.5458 251.332 27.3203 251.332 27.3203L252.611 27L251.646 21.5264C254.347 19.0602 257.945 17.5597 261.906 17.5596C270.326 17.5596 277.106 24.3405 277.106 32.7598Z" fill="white"/>
<path d="M240.134 1.24023C242.579 1.24025 244.763 1.59293 246.654 2.11133C249.411 1.24667 252.425 1.39466 255.127 2.59766C258.772 4.2205 261.371 7.54854 262.063 11.4775L264.432 24.918C264.766 26.8147 264.632 28.691 264.113 30.4268C263.543 29.8885 262.771 29.5596 261.908 29.5596C260.116 29.5598 258.709 30.968 258.709 32.7598C258.709 34.5156 260.06 35.9018 261.801 35.957C263.827 39.2573 265.254 43.3012 265.254 48.1201C265.254 50.3371 264.991 52.4819 264.479 54.5195C263.9 53.7398 262.973 53.2402 261.908 53.2402C260.116 53.2405 258.709 54.6486 258.709 56.4404C258.709 58.2321 260.117 59.6394 261.908 59.6396C262.136 59.6396 262.357 59.6165 262.57 59.5732C261.304 62.0164 259.6 64.2122 257.476 66.0713C252.624 70.316 246.583 71.9599 241.094 71.96C238.422 71.96 236.035 71.5391 234.006 70.958C231.289 71.914 228.278 71.8752 225.535 70.7695C221.694 69.2211 218.923 65.8014 218.204 61.7227L217.512 57.7939C219.784 55.9191 221.283 52.7696 221.283 48.1201V20.9199C221.283 18.04 221.924 15.4805 225.764 15.4805H226.084V14.2002H218.562C219.898 11.4158 221.788 8.96466 224.138 6.95703C228.828 2.94866 234.683 1.24023 240.134 1.24023ZM240.134 13.2402C234.054 13.2402 228.294 17.0804 228.294 24.4404C228.294 35.96 249.733 37.8801 249.733 49.7197C249.733 56.1197 245.254 58.3603 241.094 58.3604C232.454 58.3604 228.934 45.8799 228.934 45.8799L227.653 46.2002L230.021 59.6396L233.094 57.4004C233.127 57.4268 236.319 59.96 241.094 59.96C247.494 59.9599 253.254 56.12 253.254 48.1201C253.254 35.0001 231.813 32.7598 231.813 22.8398C231.814 17.08 236.614 14.8398 240.134 14.8398C248.454 14.84 251.334 27.3203 251.334 27.3203L252.613 27L250.246 13.5596L247.174 15.4805C247.174 15.4805 244.614 13.2403 240.134 13.2402ZM219.684 48.4404C219.684 51.7995 218.712 54.187 217.143 55.6992L215.836 48.2822C215.09 44.0483 216.666 39.9136 219.684 37.2285V48.4404ZM219.684 35.8125C217.742 32.805 216.294 29.0306 216.294 24.4404C216.294 21.4543 216.809 18.6348 217.771 16.0566C219.356 16.9712 219.684 18.8633 219.684 20.9199V35.8125Z" fill="white"/>
<path d="M208.164 2.2002C209.331 2.20024 210.457 2.37019 211.523 2.68066C212.59 2.37008 213.717 2.2002 214.884 2.2002H226.084C232.44 2.20038 237.641 7.14233 238.056 13.3936C232.804 14.172 228.294 17.9275 228.294 24.4404C228.294 28.0471 230.396 30.7124 233.283 33.0361V48.1201C233.283 49.9732 233.125 51.8085 232.794 53.5947C230.118 50.0699 228.934 45.8799 228.934 45.8799L227.653 46.2002L230.021 59.6396L231.282 58.7197C230.236 61.2191 228.756 63.535 226.777 65.5557C222.221 70.2083 216.338 71.9599 211.044 71.96C205.444 71.96 199.238 70.3248 194.438 65.5254C192.483 63.5695 191.028 61.3555 189.989 59H194.731V57.7197H191.852C190.882 57.7197 190.082 57.6791 189.423 57.585C188.314 54.5413 187.844 51.3084 187.844 48.1201V24.8291C187.33 24.415 186.85 23.9598 186.411 23.4678V20.2803C186.411 16.6803 186.974 15.6117 190.999 15.4922L191.852 15.4805H194.731V14.2002H183.363C183.363 7.5729 188.736 2.20039 195.363 2.2002H208.164ZM195.363 14.2002V15.4805H195.684C199.203 15.4805 199.844 16.4399 199.844 19.6396V48.1201C199.844 56.12 204.324 59.96 211.044 59.96C216.484 59.9598 221.283 56.4399 221.283 48.1201V20.9199C221.283 18.04 221.924 15.4805 225.764 15.4805H226.084V14.2002H214.884V15.4805H215.204C219.044 15.4807 219.684 18.0401 219.684 20.9199V48.4404C219.683 54.8401 216.163 57.7197 211.684 57.7197C207.204 57.7197 203.684 54.8401 203.684 48.4404V19.6396C203.684 16.4399 204.324 15.4805 207.844 15.4805H208.164V14.2002H195.363ZM231.813 22.8398C231.814 18.1472 235 15.7912 238.084 15.0791V15.4805C238.084 19.4062 236.198 22.8909 233.283 25.0801V27.082C232.363 25.8132 231.813 24.4252 231.813 22.8398Z" fill="white"/>
<path d="M174.25 14.2002V15.4805H177.13C181.93 15.4805 182.57 16.4403 182.57 20.2803V52.9199C182.57 56.7599 181.93 57.7197 177.13 57.7197H174.25V59H194.73V57.7197H191.851C187.051 57.7197 186.41 56.7599 186.41 52.9199V20.2803C186.41 16.4403 187.051 15.4805 191.851 15.4805H194.73V14.2002H174.25ZM203.741 49.8008C205.253 51.5191 206.282 53.6709 206.613 56.0479C205.05 54.7588 203.991 52.7029 203.741 49.8008ZM167.186 48.9521L166.87 48.2598C166.974 48.1787 167.079 48.0992 167.186 48.0215V48.9521ZM162.25 15.4805V14.2002C162.25 7.57283 167.623 2.20028 174.25 2.2002H194.73C201.358 2.20036 206.73 7.57288 206.73 14.2002H195.362V15.4805H195.683L196.31 15.4912C199.28 15.6084 199.843 16.64 199.843 19.6396V26.3369C199.381 26.5549 198.902 26.7439 198.41 26.9023V46.2969C198.902 46.4553 199.381 46.6443 199.843 46.8623V48.1201C199.843 54.2493 202.474 57.9329 206.726 59.3223C206.555 65.8006 201.25 70.9998 194.73 71H174.25C167.623 70.9999 162.25 65.6274 162.25 59V57.7197C162.25 55.4021 162.909 53.2389 164.047 51.4043L167.505 59H168.785V47.0371C169.355 46.7448 169.952 46.496 170.57 46.2969V26.9023C169.951 26.7031 169.356 26.4536 168.785 26.1611V20.9199C168.785 18.1301 169.386 15.6403 172.914 15.4873L173.266 15.4805H173.585V14.2002H162.385V15.4805H162.705L163.056 15.4873C166.584 15.6401 167.186 18.1299 167.186 20.9199V25.1768C164.195 22.9945 162.25 19.4658 162.25 15.4805ZM206.729 15.5215C206.719 18.5734 205.569 21.3556 203.683 23.4678V19.6396C203.683 16.8115 204.183 15.7338 206.729 15.5215Z" fill="white"/>
<path d="M151.379 2.2002C153.334 2.2002 155.213 2.67597 156.883 3.53809C158.532 2.68508 160.402 2.20026 162.387 2.2002H173.587C180.214 2.2002 185.587 7.57278 185.587 14.2002H174.252V15.4805H177.132C181.932 15.4805 182.572 16.4403 182.572 20.2803V23.4297C182.034 24.0373 181.437 24.5909 180.787 25.0791V57.2861C179.976 57.6017 178.807 57.7197 177.132 57.7197H174.252V59H180.787C180.787 65.6274 175.415 71 168.787 71H167.507C165.127 70.9999 162.859 70.2953 160.946 69.0459C159.061 70.2796 156.808 71 154.387 71H143.188C136.56 71 131.188 65.6274 131.188 59H138.562L140.93 48.7598L139.649 48.4404C137.976 54.0174 135.088 56.6766 131.196 57.2686C131.335 53.5273 133.185 50.2231 135.987 48.1182V25.0801C133.215 22.9973 131.374 19.7419 131.201 16.0498C134.768 16.83 137.43 19.4952 139.01 24.7598L140.29 24.4404L137.922 14.2002H131.188C131.188 7.57278 136.56 2.2002 143.188 2.2002H151.379ZM143.188 14.2002V15.4805H143.507C147.347 15.4805 147.987 18.04 147.987 20.9199V52.2803C147.987 55.1602 147.347 57.7197 143.507 57.7197H143.188V59H154.387V57.7197H154.067C150.228 57.7197 149.587 55.1602 149.587 52.2803V19.6396L167.507 59H168.787V20.9199C168.787 18.04 169.428 15.4805 173.268 15.4805H173.587V14.2002H162.387V15.4805H162.707C166.547 15.4805 167.187 18.04 167.188 20.9199V48.9521L151.379 14.2002H143.188Z" fill="white"/>
<path d="M112.445 14.2002V15.4805H112.766C116.285 15.4805 116.926 16.4399 116.926 19.6396V53.5596C116.926 56.7596 116.286 57.7197 112.766 57.7197H112.445V59H138.558L140.926 48.7598L139.646 48.4404C137.725 54.8401 134.205 57.4004 129.405 57.4004H124.926C121.406 57.4004 120.766 56.4396 120.766 53.5596V36.9199H125.246C128.126 36.92 130.686 37.5606 130.686 41.4004V41.7197H131.966V30.5195H130.686V30.8398C130.686 34.6797 128.126 35.3203 125.246 35.3203H120.766V19.6396C120.766 16.7599 121.406 15.7998 124.926 15.7998H128.766C133.566 15.7998 137.086 18.3599 139.006 24.7598L140.286 24.4404L137.918 14.2002H112.445ZM149.583 40.4531C152.292 43.281 153.563 47.3725 152.617 51.4639L151.327 57.041C149.887 56.0923 149.583 54.2622 149.583 52.2803V40.4531ZM102.876 51.96C102.876 51.96 102.242 54.2369 100.578 55.9277C100.881 53.9021 101.693 52.043 102.876 50.4814V51.96ZM149.583 19.6396L152.24 25.4775C152.03 27.9001 151.087 30.177 149.583 32.0234V19.6396ZM100.445 14.2002C100.445 7.57291 105.818 2.20041 112.445 2.2002H137.918L138.439 2.21094C143.803 2.44228 148.39 6.22416 149.609 11.4961L150.234 14.2002H143.184V15.4805H143.503C147.343 15.4805 147.983 18.04 147.983 20.9199V33.6465C146.828 34.6143 145.474 35.3758 143.966 35.8604V37.1523C145.455 37.5421 146.807 38.1974 147.983 39.0537V52.2803C147.983 55.1602 147.343 57.7197 143.503 57.7197H143.184V59H150.874L150.249 61.7041C148.99 67.1461 144.143 71 138.558 71H112.445C105.818 70.9998 100.445 65.6273 100.445 59V58.2344C102.822 56.2512 103.828 53.2638 103.836 53.2402L105.436 59H106.716V40.7598C106.716 37.56 107.356 36.5996 110.876 36.5996H111.195V35.3203H104.926V24.8291C102.509 22.8825 100.86 20.0197 100.514 16.7666C104.448 20.2686 106.076 27.3203 106.076 27.3203L107.355 27L104.987 13.5596L101.916 15.4805C101.916 15.4805 101.401 14.9687 100.445 14.4336V14.2002Z" fill="white"/>
<path d="M96.6367 1.25488C98.4783 1.32212 100.154 1.61768 101.646 2.03613C104.335 1.25628 107.25 1.43067 109.871 2.59766C113.516 4.22052 116.115 7.54857 116.808 11.4775L117.287 14.2002H112.447V15.4805H112.768C116.287 15.4805 116.928 16.4399 116.928 19.6396V53.5596C116.928 56.7596 116.288 57.7197 112.768 57.7197H112.447V59H118.718C118.718 65.6274 113.345 70.9999 106.718 71H105.438C104.503 71 103.588 70.8894 102.707 70.6836C100.715 71.4625 98.4297 71.9599 95.8379 71.96C86.9774 71.96 80.0241 66.8522 75.8105 60.2686C71.6823 53.8182 69.7578 45.5462 69.7578 36.5996C69.7579 27.6532 71.6824 19.3819 75.8105 12.9316C80.0241 6.34801 86.9774 1.24023 95.8379 1.24023L96.6367 1.25488ZM123.193 36.9199C123.125 39.5156 122.232 41.9048 120.768 43.8379V36.9199H123.193ZM120.768 28.082C122.292 30.0943 123.197 32.6013 123.197 35.3203H120.768V28.082ZM81.7627 37.2852C81.9582 51.5877 88.2778 59.96 95.8379 59.96C101.583 59.9598 103.826 53.2756 103.838 53.2402L105.438 59H106.718V40.7598C106.718 37.56 107.358 36.5996 110.878 36.5996H111.197V35.3203H98.3975V36.5996H98.7178C102.238 36.5996 102.878 37.56 102.878 40.7598V51.96C102.878 51.96 101.278 57.7197 96.4775 57.7197C91.3576 57.7196 86.2373 51.6395 86.2373 36.5996C86.2374 22.1999 90.7179 14.8398 95.8379 14.8398C103.198 14.8401 106.078 27.3203 106.078 27.3203L107.357 27L104.989 13.5596L101.918 15.4805C101.918 15.4805 99.6777 13.2403 95.8379 13.2402C88.158 13.2402 81.7579 21.8798 81.7578 36.5996L81.7627 37.2852Z" fill="white"/>
<path d="M42.7383 14.2002V15.4805H45.6182C50.4182 15.4805 51.0586 16.4403 51.0586 20.2803V52.9199C51.0586 56.7599 50.4182 57.7197 45.6182 57.7197H42.7383V59H63.2188V57.7197H60.3389C55.5389 57.7197 54.8984 56.7599 54.8984 52.9199V20.2803C54.8984 16.4403 55.5389 15.4805 60.3389 15.4805H63.2188V14.2002H42.7383ZM75.2188 15.4805C75.2185 20.8237 71.7251 25.3486 66.8984 26.9023V46.2969C71.7253 47.8506 75.2186 52.3763 75.2188 57.7197V59C75.2188 65.6274 69.8461 70.9999 63.2188 71H42.7383C36.111 70.9998 30.7383 65.6273 30.7383 59V57.7197C30.7383 54.9816 31.6573 52.4588 33.2012 50.4395L33.9707 53.5596C34.7387 56.6955 34.4186 57.7197 31.2188 57.7197H30.8984V59H42.7383V57.7197C39.2186 57.7196 38.5786 56.4399 37.6826 52.792L36.4033 47.5293C37.2272 47.016 38.1172 46.5999 39.0586 46.2969V26.9023C34.232 25.3485 30.7385 20.8236 30.7383 15.4805V14.2002C30.7383 7.5729 36.111 2.20038 42.7383 2.2002H63.2188C69.8461 2.20026 75.2188 7.57282 75.2188 14.2002V15.4805Z" fill="white"/>
<path d="M28.1436 1.55957L28.6602 1.57129C33.9768 1.79835 38.537 5.51466 39.8037 10.7256L48.6943 47.3047C49.5541 47.7976 50.3465 48.3935 51.0557 49.0762V52.9199C51.0557 56.7599 50.4152 57.7197 45.6152 57.7197H42.7354V59H54.7354C54.7354 65.6274 49.3628 71 42.7354 71H30.8955C29.4327 71 28.0316 70.737 26.7354 70.2578C25.4394 70.7368 24.0386 70.9999 22.5762 71H12.0156C5.38824 71 0.015625 65.6274 0.015625 59V57.7197C0.0157271 53.1391 2.58289 49.1588 6.35645 47.1367L15.2031 10.7266L15.3359 10.2275C16.812 5.11456 21.5003 1.55976 26.8633 1.55957H28.1436ZM26.8633 13.5596L17.4561 52.2803C16.7521 55.3522 15.8555 57.7197 12.0156 57.7197V59H22.5762V57.7197H22.2559C18.4159 57.7197 18.2237 55.9277 19.0557 52.4717L21.1035 43.96H31.5996L33.9678 53.5596C34.7358 56.6955 34.4157 57.7197 31.2158 57.7197H30.8955V59H42.7354V57.7197C39.2157 57.7196 38.5757 56.4399 37.6797 52.792L28.1436 13.5596H26.8633ZM31.2158 42.3604H21.4873L26.3516 22.3281L31.2158 42.3604Z" fill="white"/>
</svg>
