<svg preserveAspectRatio="none" width="100%" height="100%" overflow="visible" style="display: block;" viewBox="0 0 106.039 26" fill="none" xmlns="http://www.w3.org/2000/svg">
<g id="UTair_logo_3 2">
<path id="UTair" fill-rule="evenodd" clip-rule="evenodd" d="M89.7882 7.42731L80.4775 25.6376H73.5735C76.4743 19.9758 79.2214 14.6064 82.1223 8.94512C82.4713 8.43406 82.2346 8.62826 82.8531 7.97708C83.2176 7.62099 83.9727 7.49176 84.37 7.42714L89.7882 7.42731ZM68.2348 17.1392C67.5852 17.1506 66.7835 17.2857 66.127 17.4568C65.4704 17.6295 64.8796 17.8541 64.3474 18.1306C63.8982 18.3742 63.525 18.6575 63.214 18.9875C62.9134 19.3123 62.6819 19.6683 62.5195 20.0518C62.326 20.5131 62.3243 20.8846 62.516 21.1748C62.7078 21.4651 63.157 21.5653 63.5769 21.5653C64.3923 21.5653 65.2597 21.1766 66.0648 20.4025C66.8699 19.6216 68.2348 17.1392 68.2348 17.1392ZM64.3785 7.83609C64.9072 7.45824 65.9231 7.36822 66.0026 7.36822L72.3364 7.37375C73.4163 7.37444 74.3302 7.46843 75.068 7.65157C76.5745 8.02511 77.3935 8.8285 77.5714 10.3109C77.6647 11.0859 77.4954 12.0016 77.0531 13.0537C76.9477 13.3078 76.813 13.7508 76.5815 14.1292C76.3517 14.5077 71.8147 23.1393 70.391 25.6376H63.798C63.798 25.6376 65.3098 22.8559 65.4082 22.69L65.2061 22.6814C65.2061 22.6814 62.1981 25.8915 58.3263 25.9209C57.5177 25.9278 56.8698 25.8034 56.3774 25.5667C55.8919 25.33 55.5274 24.9586 55.2924 24.4489C55.0661 23.9876 54.971 23.4382 54.9987 22.7937C55.0246 22.1562 55.1905 21.4651 55.4997 20.7256C55.7848 20.0466 56.1615 19.4022 56.6228 18.7923C57.0841 18.191 57.6214 17.6399 58.2313 17.1442C58.7893 16.7007 59.4027 16.3109 60.0868 15.9618C60.7676 15.6192 61.5226 15.312 62.3502 15.0455C63.297 14.7441 64.4269 14.4901 65.7452 14.2777C67.0634 14.0644 68.4594 13.9229 69.9314 13.8519C70.4014 13.0991 70.4653 12.9605 70.4653 12.4526C70.467 12.0956 70.0351 11.7268 69.4788 11.7268C69.0658 11.7268 61.8716 11.9412 61.9027 11.8807L63.2486 9.26527C63.3799 9.01008 63.9777 8.12238 64.3785 7.83609ZM76.6592 1.16793C76.8804 0.496935 76.381 0.0177159 75.8541 0.0177159L37.2273 0.109925C36.0697 0.107333 34.4457 0.707079 33.625 2.12687L23.7579 20.2715C23.1273 21.4325 21.5966 22.2773 20.1522 22.2773L17.1516 22.2739C16.2472 22.2791 15.4875 21.2908 16.043 20.2715L25.9332 2.0664C26.3634 1.27424 25.8554 0.123401 24.798 0.115453C24.3454 0.111912 17.1786 0.115367 16.0982 0.115367C14.8384 0.115367 13.5132 0.725686 12.6634 2.21283C12.018 3.34224 0.428112 23.0959 0.428112 23.0959C-0.305412 24.307 0.680601 25.6373 1.83949 25.6477L25.1914 25.646C26.7861 25.6443 28.1493 24.8322 28.8352 23.6643L38.6677 5.51797C39.5178 3.95472 40.4386 3.47234 42.2908 3.47234L44.8426 3.47476C45.7808 3.47476 46.5479 4.44021 45.9587 5.51762L36.3733 23.1283C35.772 24.2324 36.5789 25.6301 37.8159 25.637L45.9725 25.6301C47.4636 25.6335 49.0462 24.7507 49.6837 23.5793L59.4626 5.52281C60.4803 3.65064 61.2405 3.47338 63.0563 3.47338L74.5992 3.43813C75.375 3.46664 75.6531 2.92085 75.8156 2.69072L76.6587 1.16741M85.8018 0.655368C85.9746 0.377636 86.3478 0.0320906 87.0181 0.0320906C87.6885 0.0320906 91.4066 0.0459124 91.8195 0.0420251C92.2514 0.0379217 92.9166 0.511967 92.5399 1.28922C92.3084 1.76828 91.0576 4.34263 90.9055 4.60162C90.7517 4.85974 90.3872 5.22394 89.8689 5.22394C89.3523 5.22394 85.2541 5.22602 85.0053 5.22602C84.1691 5.22602 83.9428 4.40241 84.1397 4.00693C84.506 3.27507 85.8018 0.655368 85.8018 0.655368ZM91.0161 25.6471H84.0015C84.0015 25.6471 91.3737 10.6407 92.2704 8.85545C92.9442 7.5137 93.7735 7.4344 94.5493 7.4344H98.8842C98.8842 7.4344 96.6329 11.9381 96.5344 12.1044L96.7349 12.1124C96.7349 12.1124 99.7826 7.27752 103.879 7.15139C105.501 7.10129 107.362 9.11185 104.207 11.7554C102.004 11.3149 97.7335 12.2679 95.5203 16.3681C94.8862 17.544 91.0161 25.6471 91.0161 25.6471Z" fill="var(--fill-0, black)"/>
</g>
</svg>
