<svg preserveAspectRatio="none" width="100%" height="100%" overflow="visible" style="display: block;" viewBox="0 0 150.222 26" fill="none" xmlns="http://www.w3.org/2000/svg">
<g id="orig 3" clip-path="url(#clip0_0_123)">
<path id="Vector" d="M31.537 2.8588V21.7803H34.7903V5.41796H40.5978V21.7803H43.8512V2.8588H31.537Z" fill="var(--fill-0, black)"/>
<path id="Vector_2" d="M49.4873 8.08598H46.5297V25.7278H49.7292V20.1739C50.5359 21.3991 51.7189 22.0525 53.0901 22.0525C56.209 22.0525 58.3598 19.5206 58.3598 14.9195C58.3598 10.3456 56.2627 7.81373 53.2514 7.81373C51.7457 7.81373 50.509 8.52159 49.6486 9.8556L49.4873 8.08598ZM52.2834 19.4933C50.5896 19.4933 49.7292 18.1048 49.7292 14.9467C49.7292 11.7614 50.6434 10.3729 52.4448 10.3729C54.1924 10.3729 55.0528 11.7614 55.0528 14.9195C55.0528 18.1048 54.1387 19.4933 52.2834 19.4933Z" fill="var(--fill-0, black)"/>
<path id="Vector_3" d="M70.4763 12.4421C70.4763 9.12063 68.8094 7.86827 65.4216 7.86827C63.2976 7.86827 61.6306 8.5489 60.6626 9.12063V11.8159C61.5231 11.1625 63.4052 10.4547 65.0452 10.4547C66.5777 10.4547 67.2769 10.9992 67.2769 12.4694V13.2316H66.766C61.8726 13.2316 59.6948 14.8651 59.6948 17.6421C59.6948 20.419 61.3618 21.9709 63.8353 21.9709C65.7173 21.9709 66.524 21.3447 67.1424 20.6913H67.2769C67.3037 21.0452 67.4113 21.508 67.5188 21.7804H70.6377C70.5301 20.6641 70.4763 19.5478 70.4763 18.4316V12.4421ZM67.2769 18.5133C66.8735 19.1123 66.1207 19.6023 64.9914 19.6023C63.6471 19.6023 62.9749 18.84 62.9749 17.6694C62.9749 16.1175 64.0773 15.5457 66.8197 15.5457H67.2769V18.5133Z" fill="var(--fill-0, black)"/>
<path id="Vector_4" d="M80.9805 21.7802H84.6102L79.4748 14.5111L83.9917 8.08597H80.7653L76.2484 14.5111V8.08597H73.0488V21.7802H76.2484V15.1645L80.9805 21.7802Z" fill="var(--fill-0, black)"/>
<path id="Vector_5" d="M95.3369 10.6451V8.08597H84.6091V10.6451H88.3732V21.7802H91.5728V10.6451H95.3369Z" fill="var(--fill-0, black)"/>
<path id="Vector_6" d="M97.2315 8.08597V21.7802H100.081L104.975 13.3132V21.7802H108.067V8.08597H105.216L100.324 16.553V8.08597H97.2315Z" fill="var(--fill-0, black)"/>
<path id="Vector_7" d="M118.685 21.7802H122.315L117.179 14.5111L121.697 8.08597H118.47L113.953 14.5111V8.08597H110.753V21.7802H113.953V15.1645L118.685 21.7802Z" fill="var(--fill-0, black)"/>
<path id="Vector_8" d="M125.129 26.0001C128.115 26.0001 129.216 23.8494 130.131 21.0451L134.352 8.08597H131.26L128.275 18.377L125.291 8.08597H121.93L126.582 22.3792C126.232 23.0326 125.722 23.441 124.834 23.441C124.243 23.441 123.731 23.2504 123.383 22.8964V25.5373C123.383 25.5373 123.866 26.0001 125.129 26.0001Z" fill="var(--fill-0, black)"/>
<path id="Vector_9" d="M147.1 21.7802H150.219L150.165 8.08597H145.783L142.851 17.2064L140.217 8.08597H135.566V21.7802H138.281V11.5436L141.212 21.7802H143.819L147.1 11.5436V21.7802Z" fill="var(--fill-0, black)"/>
<path id="Vector_10" d="M12.5185 25.037C19.4323 25.037 25.037 19.4323 25.037 12.5185C25.037 5.60473 19.4323 0 12.5185 0C5.60473 0 0 5.60473 0 12.5185C0 19.4323 5.60473 25.037 12.5185 25.037Z" fill="var(--fill-0, black)"/>
<path id="Vector_11" d="M14.489 20.3426H17.218V4.69444H13.2455C9.24997 4.69444 7.15434 6.73951 7.15434 9.76117C7.15434 12.3692 8.51304 13.8398 10.9196 15.4368L12.3819 16.4019L10.5051 14.8278L6.78588 20.3426H9.74508L13.7176 14.4142L12.3358 13.4951C10.6663 12.3692 9.8487 11.4959 9.8487 9.60029C9.8487 7.93437 11.0232 6.80844 13.257 6.80844H14.4776V20.3426H14.489Z" fill="var(--fill-0, white)"/>
</g>
<defs>
<clipPath id="clip0_0_123">
<rect width="150.222" height="26" fill="white"/>
</clipPath>
</defs>
</svg>
