<svg preserveAspectRatio="none" width="100%" height="100%" overflow="visible" style="display: block;" viewBox="0 0 89.44 25.8514" fill="none" xmlns="http://www.w3.org/2000/svg">
<g id="Group">
<path id="Vector" d="M82.2714 10.3629H84.7228V7.54H86.9886V10.3629H89.44V3.30571H86.9886V5.79429H84.7228V3.30571H82.2714V10.3629ZM67.3028 5.31143C67.8228 4.97714 68.5286 4.71714 69.1228 4.71714C69.42 4.71714 70.1257 4.75429 70.1257 5.34857C70.1257 5.94286 69.5314 5.94286 69.3086 5.94286H68.0828V7.46571H69.16C69.4943 7.46571 70.1628 7.50286 70.1628 8.06C70.1628 8.28286 70.0143 8.72857 69.16 8.72857C68.3057 8.72857 67.7486 8.50571 67.0428 8.06L66.4114 9.73143C67.7486 10.5114 68.9743 10.5857 69.5686 10.5857C72.3914 10.5857 72.7257 8.95143 72.7257 8.43143C72.7257 7.68857 72.28 6.94571 71.3143 6.68571C71.9457 6.42571 72.3171 5.79429 72.3171 5.05143C72.3171 3.41714 70.5714 3.08286 69.5314 3.08286C68.5286 3.08286 67.4143 3.38 66.6714 3.78857L67.3028 5.31143ZM61.9914 2.41429C63.1057 2.41429 64.2571 1.96857 64.7771 0.78L63.18 0.185714C62.9943 1.00286 62.2886 1.04 61.9914 1.04C61.6943 1.04 61.0257 1.00286 60.84 0.185714L59.2428 0.78C59.6886 1.96857 60.8771 2.41429 61.9914 2.41429ZM58.1286 3.30571V10.3257H60.5428L62.9943 6.46286V10.3257H65.4457V3.30571H63.0686L60.6171 7.05714V3.30571H58.1286ZM41.7486 8.84V4.94C40.9314 4.94 40.0771 5.53429 40.0771 6.90857C40.0771 8.20857 40.9314 8.84 41.7486 8.84ZM43.94 4.94V8.84C44.7571 8.84 45.6114 8.24571 45.6114 6.90857C45.6114 5.53429 44.7571 4.94 43.94 4.94ZM41.6 13.4086V10.4743C40.1143 10.4743 37.7 9.88 37.7 6.83429C37.7 3.82571 40.1143 3.19429 41.6 3.23143V0.148571H44.0514V3.19429C45.5371 3.19429 47.9514 3.78857 47.9514 6.79714C47.9514 9.84286 45.5371 10.4371 44.0514 10.4371V13.3714H41.6V13.4086ZM30.68 8.84V4.94C29.8629 4.94 29.0086 5.53429 29.0086 6.90857C28.9714 8.20857 29.8257 8.84 30.68 8.84ZM32.8343 4.94V8.84C33.6514 8.84 34.5057 8.24571 34.5057 6.90857C34.5057 5.53429 33.6514 4.94 32.8343 4.94ZM30.4943 13.4086V10.4743C29.0086 10.4743 26.5943 9.88 26.5943 6.83429C26.5943 3.82571 29.0086 3.19429 30.4943 3.23143V0.148571H32.9457V3.19429C34.4314 3.19429 36.8457 3.78857 36.8457 6.79714C36.8457 9.84286 34.4314 10.4371 32.9457 10.4371V13.3714H30.4943V13.4086ZM21.9886 2.41429C23.1029 2.41429 24.2543 1.96857 24.7743 0.78L23.1771 0.185714C22.9914 1.00286 22.2857 1.04 21.9886 1.04C21.6914 1.04 21.0229 1.00286 20.8 0.185714L19.2029 0.78C19.7229 1.96857 20.8743 2.41429 21.9886 2.41429ZM18.1257 3.30571V10.3257H20.5029L22.9543 6.46286V10.3257H25.4057V3.30571H23.0286L20.5771 7.05714V3.30571H18.1257ZM3.08286 2.22857V4.56857H3.97429C5.2 4.56857 5.31143 3.82571 5.31143 3.38C5.31143 2.89714 5.16286 2.22857 3.97429 2.22857H3.19428H3.08286ZM0.408571 10.3629V0H4.56857C7.39143 0 8.17143 2.00571 8.17143 3.41714C8.17143 4.82857 7.35429 6.83429 4.56857 6.83429H3.04572V10.3629H0.408571ZM56.6057 3.30571V10.3257H54.1543V9.54571H54.1171C53.6714 10.2514 52.8171 10.5486 52.0371 10.5486C49.9943 10.5486 48.5457 8.80286 48.5457 6.79714C48.5457 4.79143 49.9571 3.04571 52.0371 3.04571C52.8171 3.04571 53.6714 3.34286 54.1914 3.97429V3.30571H56.6057ZM52.6314 5.23714C51.6286 5.23714 51.0343 5.98 51.0343 6.83429C51.0343 7.72571 51.6286 8.39429 52.6314 8.39429C53.6343 8.39429 54.2286 7.68857 54.2286 6.83429C54.2286 5.98 53.6343 5.23714 52.6314 5.23714ZM16.6029 3.30571V10.3257H14.1514V9.54571H14.1143C13.6686 10.2514 12.8143 10.5486 12.0343 10.5486C9.99143 10.5486 8.54286 8.80286 8.54286 6.79714C8.54286 4.79143 9.95428 3.04571 12.0343 3.04571C12.8143 3.04571 13.6686 3.34286 14.1886 3.97429V3.30571H16.6029ZM12.6286 5.23714C11.6257 5.23714 11.0314 5.98 11.0314 6.83429C11.0314 7.72571 11.6257 8.39429 12.6286 8.39429C13.6314 8.39429 14.2257 7.68857 14.2257 6.83429C14.2257 5.98 13.6314 5.23714 12.6286 5.23714ZM81.0457 7.13143V7.39143H75.8828C75.8828 8.39429 76.4028 8.95143 77.4057 8.95143C77.9257 8.95143 78.2971 8.76571 78.5943 8.32H80.9714C80.5628 9.99143 79.04 10.7343 77.4428 10.7343C75.14 10.7343 73.4314 9.43428 73.4314 6.98286C73.4314 4.64286 75.0286 3.23143 77.2571 3.23143C79.6714 3.23143 81.0457 4.71714 81.0457 7.13143ZM75.92 5.94286H78.78C78.6686 5.27429 78.0371 4.82857 77.3686 4.82857C76.6628 4.82857 76.0686 5.23714 75.92 5.94286ZM4.34572 21.58H3.60286L3.23143 23.7714H3.93714C5.57143 23.7714 5.86857 23.3257 5.98 22.7314C6.09143 22.0629 5.94286 21.58 4.34572 21.58ZM8.80286 22.7314C8.69143 23.4371 8.46857 24.1429 7.94857 24.6257C6.83429 25.74 5.16286 25.8143 4.12286 25.8514H0L1.74572 15.5257H8.80286L8.46857 17.5686H4.19714L3.86286 19.6486H5.08857C6.01714 19.6486 7.16857 19.76 7.98571 20.4657C8.65428 20.9857 8.98857 21.7657 8.80286 22.7314ZM16.2314 24.0686H12.3314L11.2914 25.8514H8.28286L14.1886 15.5257H17.2714L19.6486 25.8514H16.64L16.2314 24.0686ZM15.8229 21.9886L15.2286 18.6829H15.1914L13.4829 21.9886H15.8229ZM35.4343 15.5257H32.5743L30.8657 25.8514H33.6886L34.4314 21.3571H34.4686L37.3657 25.8514H41.0429L37.2171 20.4286L42.3429 15.5257H38.8514L34.7286 19.7971H34.6914L35.4343 15.5257ZM24.5143 15.5257L23.8829 19.3886H27.6343L28.2657 15.5257H31.0143L29.3429 25.8514H26.5943L27.3 21.3943H23.5486L22.8429 25.8514H20.0943L21.7657 15.5257H24.5143Z" fill="var(--fill-0, black)"/>
</g>
</svg>
