<svg preserveAspectRatio="none" width="100%" height="100%" overflow="visible" style="display: block;" viewBox="0 0 25.8514 25.8514" fill="none" xmlns="http://www.w3.org/2000/svg">
<g id="Group">
<path id="Vector" d="M24.9971 0.854286H0.854286V24.9971H24.9971V0.854286Z" fill="var(--fill-0, white)"/>
<path id="Vector_2" d="M0.854286 0.854286H24.9971V24.9971H0.854286V0.854286ZM0 25.8514H25.8514V0H0V25.8514Z" fill="var(--fill-0, black)"/>
<g id="Group_2">
<path id="Vector_3" d="M12.9257 15.86L5.49714 23.2886L2.56286 20.3543L9.99143 12.9257L8.43143 11.3657V8.32L7.35428 7.24286V9.91714L6.42571 10.8457L2.63714 7.09429L1.70857 8.02286C1.70857 7.31714 1.85714 5.27429 3.56571 3.60286C5.42286 1.82 7.42857 2.63714 8.13428 3.30571L11.9229 7.05714L10.9571 8.02286L12.9257 9.99143L14.8943 8.02286L13.9286 7.05714L17.7171 3.26857C18.4229 2.6 20.4286 1.78286 22.2857 3.56571C23.9943 5.27429 24.1429 7.28 24.1429 7.98572L23.2143 7.05714L19.4257 10.8457L18.4971 9.91714V7.24286L17.42 8.32V11.3657L15.86 12.9257L23.2886 20.3543L20.3543 23.2886L12.9257 15.86Z" fill="var(--fill-0, black)"/>
</g>
</g>
</svg>
