<svg preserveAspectRatio="none" width="100%" height="100%" overflow="visible" style="display: block;" viewBox="0 0 43.2782 26.0004" fill="none" xmlns="http://www.w3.org/2000/svg">
<g id="Group">
<path id="Vector" d="M4.47811 26.0002H38.5921L21.6256 9.03398L4.47811 26.0002Z" fill="var(--fill-0, black)"/>
<path id="Vector_2" d="M3.82626 25.1655L6.48405 22.5727L5.59878 21.6648L3.92944 23.294L0.9887 20.2789L0 21.2434L3.82626 25.1655Z" fill="var(--fill-0, black)"/>
<path id="Vector_3" d="M7.06741 21.9821L9.79071 19.3245L9.04284 18.5585L7.31366 20.2453L6.4833 19.394L7.86896 18.0421L7.08637 17.2405L5.70071 18.5917L4.98929 17.8625L6.66159 16.2306L5.91421 15.4648L3.19954 18.1135L7.06741 21.9821Z" fill="var(--fill-0, black)"/>
<path id="Vector_4" d="M15.9809 9.38415C14.8826 8.25829 12.9774 8.39299 12.0599 9.28836C11.1421 10.1837 10.6737 11.9691 11.9697 13.2976C13.3933 14.7566 15.087 14.2267 16.0048 13.3318C17.358 12.0117 16.8763 10.3019 15.9809 9.38415ZM15.1737 12.5608C14.5662 13.1535 13.8235 12.9927 12.9749 12.1227C12.2618 11.3918 12.3046 10.6575 12.8232 10.1515C13.1798 9.80352 13.904 9.49226 14.7657 10.3756C15.7487 11.3832 15.7812 11.9681 15.1737 12.5608Z" fill="var(--fill-0, black)"/>
<path id="Vector_5" d="M19.0442 10.319L20.0489 9.33842L18.5374 7.78925L17.6327 4.02505L16.4809 5.14894L17.0801 7.28444L15.0559 6.53903L13.9699 7.59841L17.4209 8.70654L19.0442 10.319Z" fill="var(--fill-0, black)"/>
<path id="Vector_6" d="M13.6871 15.5511C13.6871 15.5511 11.2418 14.7168 11.1256 14.737C11.0879 14.7432 11.6509 13.2452 10.3861 12.5813C10.3861 12.5813 9.44765 12.0733 8.50845 12.9266L6.50667 14.8993L10.3657 18.7856L11.3866 17.7896L9.29842 15.6496L12.674 16.5396L13.6871 15.5511ZM9.89977 15.0175C9.3324 15.5701 9.25582 15.6137 9.25582 15.6137C9.25582 15.6137 8.36636 14.7021 8.33484 14.6698C8.30332 14.6375 8.97091 14.0652 9.07606 13.9626C9.12063 13.919 9.5363 13.6479 9.88031 14.0002C9.88031 14.0002 10.4669 14.4639 9.89977 15.0175Z" fill="var(--fill-0, black)"/>
<path id="Vector_7" d="M18.7324 4.76669L17.8395 3.8664L21.7376 0L23.0134 1.28617L21.6091 4.0501L24.4722 2.75703L25.6998 3.99494L21.8016 7.86134L20.8607 6.91278L22.9184 4.87209L20.1035 6.14915L19.5216 5.56233L20.8299 2.75014L18.7324 4.76669Z" fill="var(--fill-0, black)"/>
<path id="Vector_8" d="M25.5008 11.5906L22.7979 8.86581L26.6963 4.99941L29.4068 7.73231L28.6193 8.51343L26.9212 6.80148L26.2861 7.43115L27.6254 8.78159L26.8054 9.59472L25.4742 8.2524L24.6222 9.09729L26.3043 10.7932L25.5008 11.5906Z" fill="var(--fill-0, black)"/>
<path id="Vector_9" d="M34.4133 12.7804L35.4178 13.7934L32.468 16.7189L34.1181 18.3821L33.1695 19.3235L30.5149 16.647L34.4133 12.7804Z" fill="var(--fill-0, black)"/>
<path id="Vector_10" d="M33.8711 20.0307L37.7695 16.1643L38.7501 17.1528L34.8517 21.0189L33.8711 20.0307Z" fill="var(--fill-0, black)"/>
<path id="Vector_11" d="M36.6294 22.8125L35.7124 21.8878L39.611 18.0216L40.9425 19.3632L39.8048 23.3776L42.3853 20.8181L43.2782 21.7184L39.3801 25.5845L38.2158 24.4114L39.2183 20.197L36.6294 22.8125Z" fill="var(--fill-0, black)"/>
<path id="Vector_12" d="M32.6518 11.0044L30.2841 8.61694L26.3775 12.4755L27.382 13.488L29.5118 11.3757L28.7452 14.8626L29.7736 15.8996C29.7736 15.8996 30.5842 13.4053 30.6091 13.3014C30.6091 13.3014 31.4875 13.7853 32.4513 12.9566C32.4513 12.9566 33.3758 12.0558 32.6518 11.0044ZM31.206 12.1351C31.206 12.1351 30.7084 12.4693 30.2698 12.0273L29.5847 11.3038C29.5847 11.3038 30.4124 10.4828 30.5168 10.3791C30.5168 10.3791 31.1546 11.0223 31.2343 11.1026C31.3139 11.1829 31.8167 11.5611 31.206 12.1351Z" fill="var(--fill-0, black)"/>
</g>
</svg>
