<svg preserveAspectRatio="none" width="100%" height="100%" overflow="visible" style="display: block;" viewBox="0 0 228.247 26" fill="none" xmlns="http://www.w3.org/2000/svg">
<g id="Frame 534815604">
<path id="Vector" fill-rule="evenodd" clip-rule="evenodd" d="M7.49136 10.0842L11.97 10.5729C16.7471 11.0886 19.2171 12.9886 19.2171 16.1913C19.2171 19.91 15.7971 21.9999 9.5542 21.9999C3.14863 21.9999 0 19.91 0 15.6757H4.36998C4.36998 17.5215 6.26998 18.5529 9.66287 18.5529C13.0829 18.5529 14.6028 17.9284 14.6028 16.3271C14.6028 15.1329 13.5171 14.6171 11.5628 14.4L7.27422 13.9386C2.79575 13.45 0.542881 11.6313 0.542881 8.50998C0.542881 5.17152 4.15287 3 9.28286 3C14.9557 3 18.3213 5.17152 18.3213 8.75422H14.06C13.87 7.17999 12.3229 6.36575 9.3642 6.36575C6.40575 6.36575 5.04863 7.07151 5.04863 8.37422C5.04863 9.51422 5.9171 9.92148 7.49136 10.0842ZM134.221 18.2543C130.557 18.2543 128.412 16.1371 128.412 12.5C128.412 8.8629 130.557 6.74578 134.221 6.74578C137.071 6.74578 138.754 7.85849 139.351 10.0571H144.02C143.558 5.85002 139.568 3.00003 134.221 3.00003C127.843 3.00003 123.69 6.74578 123.69 12.5C123.69 18.2813 127.815 22 134.221 22C139.785 22 143.666 19.0413 144.074 14.5084H139.405C139.134 16.87 137.234 18.2543 134.221 18.2543ZM108.681 14.21L112.018 5.47003H112.154L115.476 14.21H108.681ZM108.544 3.46139L101.649 21.5385H105.884L107.387 17.6028H116.765L118.261 21.5385H122.957L116.035 3.46139H108.544ZM40.877 3.46142H36.0999L29.0699 10.6H26.9528V3.46142H22.6641V21.5385H26.9528V14.02H29.0699L36.0184 21.5385H41.5827L32.6142 11.8578L40.877 3.46142ZM52.9826 3.46142H57.2713V18.0642H67.0425V21.5385H52.9826V3.46142ZM74.2086 3.46142H69.9197V21.5385H83.9795V18.0642H74.2086V3.46142ZM91.1454 6.93569H101.948V3.46146H86.8565V21.5385H91.1454V14.8885H100.102V11.4143H91.1454V6.93569ZM48.3685 21.5385H44.0799V3.46147H48.3685V21.5385ZM170.294 3.46147H181.236V7.61434H170.294V3.46147ZM170.294 7.61434V17.3856H165.761V7.61432L170.294 7.61434ZM181.236 7.61434L185.769 7.61432V17.3856H181.236V7.61434ZM199.856 12.2285H194.02V6.93566H199.856C201.865 6.93566 203.113 7.96719 203.113 9.59565C203.113 11.2243 201.865 12.2285 199.856 12.2285ZM207.564 9.59565C207.564 5.82295 204.633 3.46144 199.856 3.46144H189.704V21.5385H194.02V15.7027H198.253L203.113 21.5385H208.351L202.816 14.8907C205.814 14.1696 207.564 12.2798 207.564 9.59565ZM223.66 3.46142L218.53 11.4956L213.4 3.46142H208.406L216.169 15.3501V21.5385H220.457V15.3501L228.247 3.46142H223.66ZM152.298 6.93569H145.513V3.46146H163.399V6.93569H156.586V21.5385H152.298V6.93569ZM181.236 21.5385H170.294V17.3856H181.236V21.5385Z" fill="var(--fill-0, black)"/>
</g>
</svg>
