<svg width="365" height="102" viewBox="0 0 365 102" fill="none" xmlns="http://www.w3.org/2000/svg">
<path d="M19.3641 27.2376C19.6037 32.0539 19.9024 38.3994 20.1283 43.2485C20.1981 44.7565 19.9648 44.0231 20.0059 45.0601C20.0503 46.1507 20.1371 47.1874 20.2223 48.2468C20.2955 49.1548 20.3755 50.0996 20.4236 51.0402C20.4579 51.7162 20.0948 50.8988 20.1373 51.6099C20.3704 55.4644 20.8657 59.114 21.2382 63.0113C21.3443 64.1269 21.4527 65.2759 21.5555 66.3925C21.6708 67.6473 21.7846 68.8324 21.9074 70.0897C22.6365 76.7991 23.4761 83.9716 26.1593 89.0819C26.9884 90.6215 28.1028 91.5799 29.8642 93.5153C29.4278 93.0579 29.2845 93.0933 29.2991 93.0828C29.3114 93.0895 29.4187 93.1234 29.5726 93.1543C29.8541 93.2133 30.2855 93.2664 30.6915 93.3006C31.5357 93.3724 32.51 93.401 33.427 93.4146C35.3451 93.4398 37.2623 93.4103 39.2244 93.3751C43.1528 93.2998 47.1063 93.1926 51.0636 93.1076C57.5242 92.9603 65.3974 93.1519 72.0804 92.8868C72.8742 92.8548 72.3971 92.4854 72.5479 92.4521C74.8407 91.9419 74.0837 92.7145 75.6178 92.7967C79.381 93.0014 83.4153 93.0827 87.359 93.0839C89.5891 93.0844 92.0268 93.0553 94.1188 93.0002C96.5969 92.937 94.1273 92.1616 96.6189 92.5974C96.7856 92.6269 96.1784 93.0406 96.833 93.0855C98.3354 93.1867 101.266 93.1182 102.455 93.1539C104.824 93.2253 105.076 93.2216 107.303 93.2325C110.244 93.2504 113.75 93.4714 116.97 93.3871C117.659 93.3678 116.767 92.9311 117.83 92.8605C118.877 92.7899 121.785 92.8362 122.742 92.9423C123.693 93.0484 123.287 93.3894 123.455 93.4685C124.827 94.1366 128.21 93.232 128.602 93.2103C132.827 93.0156 136.751 93.0912 140.588 93.2062C143.826 93.3023 146.984 93.4242 150.333 93.4368C155.848 93.4563 161.791 93.3032 167.049 93.3416C173.321 93.3889 178.645 93.6371 184.74 93.6035C185.383 93.6004 184.63 93.085 185.415 93.0802C193.763 93.0292 202.053 93.0834 210.363 93.411C211.192 93.4443 210.125 93.8984 210.953 93.9586C216.074 94.3187 224.119 95.1735 227.151 93.1891C230.598 93.2457 234.788 93.2936 237.891 93.6605C239.873 93.8966 237.933 94.4068 240.39 94.1728C240.949 94.1204 240.218 93.6976 241.054 93.6514C244.539 93.4577 248.307 93.5504 251.791 93.2731C252.491 93.2158 252.292 92.8335 252.489 92.7609C253.021 92.571 253.664 92.5342 254.304 92.5731C255.734 92.6533 257.158 93.0703 257.57 93.1091C262.114 93.5361 265.553 93.2838 269.851 93.2336C270.86 93.2221 269.662 92.722 270.63 92.6925C275.484 92.5488 280.84 92.5258 285.607 92.7062C286.719 92.747 285.701 93.1978 286.233 93.2399C288.576 93.4206 289.031 92.5848 291.211 92.7457C291.686 92.7785 291.421 93.1577 291.509 93.1983C292.868 93.8367 293.992 92.9079 294.326 92.8852C298.625 92.5774 301.379 93.5246 305.515 93.3803C306.017 93.3623 304.888 92.8873 306.293 92.866C307.447 92.8482 308.598 92.8357 309.803 92.8288C318.027 92.7911 326.582 92.9812 334.644 93.707C336.098 93.8444 335.04 94.1395 335.132 94.188C336.565 94.947 337.562 94.1128 338.049 94.1181C339.607 94.1357 341.172 94.4048 342.523 94.6361C344.46 94.9533 346.203 95.2002 347.639 94.7003C349.27 94.8882 350.867 94.9526 352.35 94.7377C352.994 94.6445 353.614 94.4987 354.201 94.292C355.309 93.9493 356.778 91.4715 357.297 89.5312C357.365 89.2766 357.427 89.0163 357.483 88.7566C357.664 87.9208 357.787 87.0614 357.864 86.1878C358.308 78.6162 356.931 70.4622 356.777 62.4538C356.736 61.1973 356.708 59.927 356.696 58.6455C356.693 58.4513 357.139 58.769 357.132 58.3816C357.064 53.6615 356.471 54.5938 355.512 51.5118C355.322 50.8768 355.817 49.2622 356.067 48.4644C356.135 48.251 356.184 48.1031 356.197 48.0568C356.425 47.2618 357.083 48.0489 357.123 47.7843C357.427 45.6125 355.382 46.0795 355.251 43.195C355.251 43.1061 355.647 43.4608 355.674 43.2212C355.76 42.4973 355.572 41.719 355.667 40.9865C355.721 40.5725 355.82 40.2264 355.928 39.9022C356.209 39.0225 356.553 38.2717 356.314 36.9166C356.271 36.667 356.209 36.3994 356.125 36.1112C356.028 35.7831 354.881 36.3741 354.771 33.7912C354.736 32.7997 354.389 28.2812 354.352 27.0092C354.323 25.7439 354.785 26.5756 354.794 26.4876C354.964 23.8597 355.183 23.9579 355.561 23.3775C355.672 23.1954 355.794 22.9343 355.929 22.5257C356.513 20.7516 354.741 21.3946 354.462 20.7515C354.184 20.0669 354.275 17.565 354.315 16.9384C354.363 16.3081 354.736 17.0208 354.73 16.4711C354.615 12.8021 353.534 15.0816 353.01 14.0249C351.97 12.026 352.07 10.2983 351.54 8.24504C351.456 7.83862 351.292 7.44219 351.021 7.10536C350.618 6.64519 350.752 7.20821 350.347 6.89875C349.394 6.2508 348.438 5.89283 347.316 5.63616C346.533 5.46748 345.572 5.41106 344.401 5.53722C343.942 5.57531 341.737 6.39596 340.271 5.82029C340.063 5.73625 340.634 5.36775 339.598 5.3186C338.029 5.24186 335.212 5.32425 333.542 5.57939C332.316 5.76591 333.777 6.22907 332.209 6.18031C331.512 6.1609 332.763 5.70691 331.452 5.70092C331.012 5.69962 330.349 5.73675 329.614 5.79738C328.158 5.9154 326.423 6.13608 325.593 6.25389C324.343 6.43175 325.088 6.77935 324.99 6.82208C324.402 7.0677 322.052 7.63326 321.844 7.67091C319.153 8.11249 316.518 8.57428 313.947 9.11779C306.115 11.0685 298.452 10.381 290.636 10.958C289.791 11.0031 290.368 11.4514 290.24 11.4631C287.42 11.7435 289.627 10.4381 287.625 10.081C287.938 11.0181 286.755 10.8815 284.776 11.0362C283.796 11.1119 284.338 11.4644 284.25 11.5041C282.818 12.0966 281.857 11.4001 281.581 11.2596C280.596 10.7419 279.598 11.4031 278.961 11.0556C278.314 10.7108 279.78 10.1474 277.864 10.1954C277.327 10.5454 278.789 11.3994 277.314 11.574C271.769 12.237 261.653 11.7082 257.195 11.699C252.784 11.691 251.407 11.7712 248.813 11.6835C244.143 11.5232 245.923 12.1561 243.019 12.4929C241.723 12.6422 241.264 12.4039 241.132 12.0627C241.051 11.8484 241.092 11.5935 241.123 11.3686C241.149 11.1926 241.169 11.035 241.118 10.9296C241.105 10.9009 241.086 10.876 241.062 10.8557C240.655 10.5137 240.219 10.8759 239.713 10.6906C239.209 10.5053 240.294 10.258 239.111 10.1987C237.92 10.1407 234.684 10.7805 234.266 11.1445C233.378 11.9173 234.852 12.7189 231.693 12.4475C231.513 12.4313 232.094 12.005 231.407 11.9643C225.895 11.6542 220.206 11.6122 214.718 11.2783C213.962 11.2316 214.642 10.7652 214.202 10.7327C209.624 10.3895 211.267 11.1997 208.741 12.0572C209.318 10.8865 207.934 10.1537 204.471 10.1023C202.379 10.0703 202.729 10.5885 201.381 10.9319C200.976 11.0354 199.506 10.6611 199.234 10.8986C198.34 11.6748 199.71 12.5811 196.141 12.1729C195.984 12.1537 196.49 11.7294 195.949 11.6945C193.8 11.5545 192.79 11.8091 191.469 12.0345C190.64 12.1755 189.68 12.3048 188.217 12.3167C185.24 12.3417 179.972 11.7352 176.583 11.5832C176.676 10.263 173.487 10.4999 172.167 11.3833C169.964 11.2994 167.605 11.3001 165.478 11.1277C164.749 11.0689 165.237 10.6969 165.145 10.6536C163.751 9.97461 162.777 10.8397 162.302 10.864C157.156 11.0884 152.991 10.3235 148.072 10.8707C147.898 10.8904 147.597 11.8007 146.301 11.1025C146.218 11.0545 147.845 10.6732 145.541 10.5901C143.233 10.5068 138.899 9.92091 135.689 10.2775C134.912 10.3632 132.937 11.065 131.377 10.4518C131.169 10.3686 131.404 10.1108 131.104 9.95847C130.136 9.47288 129.583 10.387 128.45 9.57787C127.318 8.76887 124.936 8.13266 121.699 8.61344C121.596 8.62728 120.817 9.34534 119.801 9.31482C119.333 9.30058 118.808 9.2742 118.257 9.24334C116.903 9.16739 115.395 9.06448 114.19 9.04706C113.379 9.03563 113.89 9.49907 113.749 9.50496C108.303 9.66657 104.423 9.20039 98.5929 8.95081C97.5167 8.90415 94.4483 9.48455 92.3739 8.97616C90.1019 8.42106 92.4648 6.22073 87.2262 6.70899C85.1094 6.90677 82.4235 9.69299 78.6439 8.22676C76.5581 8.32194 74.4995 8.33152 72.4862 8.31018C67.3774 8.25571 62.3978 7.95988 57.1202 8.27182C56.7867 8.2912 55.7509 9.05312 54.9562 9.03301C53.7917 9.00204 53.1641 8.63332 52.3449 8.59886C48.8686 8.44435 45.7221 8.69943 42.3712 8.58554C42.2176 8.58041 42.0895 8.57057 41.9801 8.55716C41.1854 8.45979 41.385 8.17611 40.0511 8.13051C38.5206 8.0788 37.5466 8.54137 35.4777 8.25846C33.9462 8.04278 32.4054 7.03215 30.3777 6.88114C30.2882 7.82798 28.8464 7.77459 26.3547 7.9485C25.8676 7.98164 26.379 8.31895 26.1481 8.35093C25.2086 8.48607 24.3637 8.19394 23.4883 8.34255C23.2702 8.37777 23.2506 8.68666 23.0722 8.73217C21.5577 9.12699 19.1405 8.34291 18.7188 8.21511C17.1395 7.71625 16.3448 8.07243 15.1253 7.8561C13.9075 7.64444 15.7452 7.49653 14.317 7.34762C11.3283 7.04314 7.48308 6.97147 4.44453 6.86013C3.24146 6.81849 4.04998 7.18512 3.87745 7.18714C1.3542 7.17562 -1.13919 6.75318 -2.56869 7.32975C-3.55132 6.34546 -3.88961 6.55831 -4.73615 6.7982C-5.33495 6.97418 -6.15952 7.15247 -7.65354 6.96048C-7.93171 6.91577 -8.27337 6.30878 -7.18671 6.1888C-6.50934 6.11727 -5.644 6.16803 -4.71618 6.21191C-4.12714 6.23864 -3.53027 6.24903 -2.9516 6.19643C-2.59469 6.16911 -0.525164 5.48466 -0.248222 5.43975C1.96858 5.1171 2.20302 6.33195 2.32373 6.40445C3.6241 7.16992 6.1391 6.41335 6.78757 6.36074C9.81774 6.15856 12.328 6.40082 14.8637 6.24557C16.4933 6.14342 16.7126 5.21447 17.9887 5.25543C22.2803 5.38254 23.7122 6.81221 27.7927 5.65715C28.6613 5.40858 27.8375 4.27752 30.9135 5.19328C31.0927 5.24818 33.4108 6.10217 34.7278 5.60165C34.8958 5.53824 34.8986 5.20336 35.1191 5.17812C36.6052 5.01537 37.5783 5.29747 39.1874 5.19374C40.0739 5.13699 41.0519 5.063 42.05 5.03243C42.8782 5.00712 43.7468 5.01056 44.5725 5.07621C45.6639 5.16282 47.0779 5.81971 47.6114 5.98337C49.0961 6.45443 50.7018 5.73872 51.6346 6.29447C52.5621 6.85346 50.7302 7.6618 53.1619 8.04653C53.2637 7.15768 53.4831 6.2465 53.6398 5.35272C59.0046 5.43979 64.2827 5.7581 69.6689 5.72083C70.3349 5.71516 69.6541 5.23217 70.369 5.21335C71.0887 5.19482 71.7906 5.19972 72.4862 5.21593C74.6789 5.26771 76.8062 5.44398 79.1893 5.34477C81.6202 5.2422 84.2933 4.73924 86.8386 4.6249C88.3947 5.66964 92.1579 5.34743 94.9019 5.47041C95.8601 5.51293 95.7931 5.78981 96.4743 5.88767C99.0469 6.2512 97.8512 5.31935 98.56 5.18266C101.598 4.60071 101.827 6.6847 105.4 6.68372C105.588 6.68431 107.916 5.60721 108.236 5.54288C110.269 5.12222 108.565 5.93463 109.832 6.03629C112.14 6.2225 113.741 6.51464 116.46 6.23593C116.86 6.1942 117.543 6.00558 118.318 5.90137C119.08 5.79895 119.931 5.77806 120.688 6.05811C120.889 6.13212 120.77 6.49802 120.933 6.52258C123.868 6.93674 123.967 5.78226 125.658 5.42273C127.349 5.06335 129.929 5.9138 130.453 6.15488C131.824 6.7785 129.388 6.38802 129.312 6.44507C128.419 7.12299 130.315 7.04109 131.762 7.12956C131.948 8.26864 133.973 8.24251 133.261 7.21679C133.18 7.10467 132.051 7.18733 131.762 7.12956C133.055 6.04209 135.284 5.94484 137.717 7.03788C138.857 7.55028 137.758 8.0958 141.256 7.96271C142.842 7.90295 142.247 7.10758 143.65 6.92456C146.859 6.50704 150.997 7.32819 154.29 7.28571C155.487 7.27027 154.331 6.81611 155.15 6.79078C157.326 6.72225 159.221 7.08565 161.409 6.9686C161.607 6.95744 161.134 6.49817 161.812 6.50723C166.937 6.56665 171.416 6.95072 176.765 7.06783C179.36 7.12471 183.995 6.96774 186.666 7.06646C188.213 7.12291 189.881 7.24371 191.55 7.37555C194.922 7.64082 198.34 7.95032 200.993 7.88203C203.57 7.81663 203.021 7.35897 204.134 7.06753C206.281 6.50276 210.056 7.6079 210.565 7.77716C210.582 7.78303 208.349 7.86503 209.538 8.1086C210.225 8.59681 210.54 7.77897 210.565 7.77716C210.892 7.88808 215.35 8.0306 216.228 7.9496C216.707 7.9061 216.442 7.47822 216.691 7.46355C222.643 7.12414 228.593 7.02892 234.616 7.19324C234.721 7.20122 234.565 7.67874 234.814 7.69155C237.287 7.82873 239.197 7.552 241.073 7.24348C241.848 7.122 242.623 6.99615 243.44 6.88844C246.31 6.50645 248.59 6.59221 250.324 7.38722C252.435 7.25589 255.658 7.57214 257.401 7.76579C259.13 7.95977 259.457 7.02642 259.598 7.00599C264.463 6.34374 267.405 6.82696 272.447 6.81529C274.984 6.80912 279.631 6.57785 282.343 6.40988C284.36 6.27935 285.659 6.46344 287.571 6.2706C287.833 6.24459 287.557 5.83895 287.636 5.82078C289.751 5.26499 288.748 6.30449 289.189 6.47215C290.82 7.07864 291.823 7.39963 294.505 6.99127C295.174 6.89584 296.9 5.37053 298.045 5.23123C299.484 5.0543 299.011 5.60096 300.507 5.39429C300.638 5.37633 300.618 5.05684 301.545 5.01588C305.431 4.81599 308.71 4.75153 312.658 3.6523C313.363 3.48978 314.074 3.3312 314.771 3.17813C315.424 3.03767 314.483 2.71245 315.423 2.50429C319.847 1.53378 324.701 0.860816 329.045 0.651475C329.057 0.650905 329.069 0.650399 329.08 0.649954C330.097 0.612834 329.485 1.02764 329.723 1.10893C331.192 1.60379 333.117 0.515454 333.452 0.475477C338.667 -0.118524 342.599 -0.250978 348.258 0.621719C350.326 0.995859 354.452 2.37955 356.105 6.15796C356.351 6.66663 356.647 7.23999 356.965 7.89897C357.229 8.24381 359.467 11.9052 358.889 13.6685C358.86 13.7895 358.333 15.5063 359.092 16.7497C359.139 16.835 359.433 15.8026 359.626 17.485C359.782 18.8866 360.214 20.9568 360.168 22.9272C360.159 23.2751 360.136 23.6288 360.093 23.9828C360.006 24.7232 359.315 26.3968 360.112 28.4397C360.172 28.5481 361.845 31.6818 360.882 32.8742C360.723 33.0629 359.646 32.9544 360.319 35.3718C360.448 35.8358 360.645 34.9625 360.854 36.2029C360.878 36.3514 360.9 36.5047 360.92 36.6626C361.033 37.5556 361.032 38.5644 361.104 39.6408C361.177 40.6857 361.29 41.8939 361.56 42.9325C361.662 43.3111 362.462 45.0721 361.978 46.4417C361.903 46.6626 361.532 46.2632 361.525 46.9999C361.521 47.4071 361.522 47.821 361.528 48.2413C361.569 51.3102 361.91 54.4699 361.909 57.5574C361.91 58.7841 361.291 58.2011 361.232 59.5021C361.202 60.1372 361.203 61.1379 361.257 62.1004C361.315 63.096 361.426 64.0657 361.618 64.7332C361.999 66.04 362.786 64.513 363.044 66.5148C363.79 72.9775 364.692 79.2266 364.083 86.7219C363.969 87.808 363.802 88.9271 363.544 90.0527C363.464 90.4021 363.375 90.7557 363.278 91.1042C362.817 92.7093 362.27 93.9162 361.517 95.2519C361.065 96.0219 361.065 96.135 361.033 96.3425C360.972 96.5531 360.977 96.8472 359.903 98.0615C359.163 98.8378 358.186 99.7817 356.446 100.45C355.469 100.816 354.435 101.087 353.398 101.264C349.086 101.979 345.033 101.239 341.714 100.823C337.712 100.226 333.963 100.027 331.168 99.589C326.312 98.8577 332.466 98.5752 328.745 98.2327C326.916 98.0701 324.936 99.1767 324.506 99.2067C320.202 99.5099 317.237 98.9899 313.367 99.132C312.562 99.1621 313.352 99.6284 312.662 99.649C311.661 99.6794 310.773 99.6632 309.795 99.6356C308.347 99.5954 307.015 99.5326 305.677 99.5575C304.673 99.5776 304.817 99.9321 303.927 99.9071C301.794 99.8519 299.772 99.7123 297.669 99.3924C297.473 99.3633 298.794 98.9138 297.157 98.9074C294.506 98.8985 291.196 98.5969 288.235 98.9649C287.339 99.0758 287.289 99.8873 285.341 99.3475C284.94 99.2349 285.455 98.2545 283.232 99.1213C282.86 99.2649 279.057 100.446 277.224 99.7382C276.732 99.5519 275.461 98.771 274.345 98.9116C274.203 98.9336 274.78 99.3617 273.91 99.4162C270.839 99.601 267.43 99.6053 264.236 99.7929C263.363 99.8442 264.673 100.275 263.369 100.337C260.547 100.47 257.496 100.474 254.442 100.438C253.569 100.426 252.709 100.409 251.89 100.389C250.595 100.356 251.484 99.968 251.389 99.9288C249.845 99.2906 248.989 100.196 248.497 100.256C245.392 100.611 243.056 100.218 240.159 100.36C239.356 100.397 239.93 100.818 239.77 100.858C238.167 101.245 239.358 100.468 238.337 100.393C235.446 100.182 232.249 100.242 229.299 100.316C228.216 100.344 229.426 100.831 228.472 100.85C222.785 100.972 216.875 100.95 211.298 100.693C210.258 100.643 210.911 100.26 210.694 100.174C209.201 99.5689 206.995 100.404 206.485 100.484C204.17 100.85 203.295 100.514 201.254 100.579C191.304 100.905 179.04 100.667 169.66 100.505C158.974 100.323 150.348 99.9923 140.558 99.9406C139.176 99.9333 137.755 99.931 136.293 99.935C135.551 99.9365 136.296 100.448 135.657 100.456C127.391 100.532 119.367 100.269 111.039 100.334C110.356 100.338 111.336 100.822 110.243 100.845C108.059 100.894 105.177 100.837 102.944 100.663C101.824 100.579 103.326 100.191 102.203 100.115C99.6446 99.9379 96.9353 99.8775 94.2108 99.9258C93.1028 99.9475 94.7646 100.44 93.3373 100.431C91.3096 100.419 89.249 100.41 87.3505 100.399C79.4075 100.359 71.6387 100.302 63.5891 99.9143C62.918 99.8803 62.2498 98.9682 60.8136 99.1641C60.7102 99.42 60.7221 99.7192 60.6803 99.9917C55.1431 100.115 49.6915 100.21 44.1776 100.286C41.4155 100.322 38.6474 100.356 35.8407 100.342C34.4426 100.333 33.0226 100.315 31.5144 100.235C30.7364 100.191 29.9949 100.14 29.0905 100.013C28.6249 99.9442 28.1474 99.8642 27.5428 99.6944C26.8884 99.4398 26.1672 99.4735 24.7216 98.0047C23.7908 96.9057 21.5123 94.8057 20.2829 92.4561C19.4656 90.9978 18.8837 89.5087 18.4269 88.0686C18.2219 87.4029 18.1476 88.6948 17.7611 87.4021C16.1517 81.5678 15.767 76.2078 15.579 70.6469C15.5442 69.3878 15.5234 68.1942 15.5043 66.9203C15.5005 66.6396 15.4977 66.36 15.496 66.0814C15.4924 65.3949 16.1639 65.673 15.9378 63.6338C15.8974 63.2843 15.6266 60.1824 15.4479 59.3897C15.422 59.2839 15.1647 59.8678 15.1027 58.8792C14.8966 55.5541 14.7093 52.0914 14.4884 48.6938C14.325 46.1761 14.1879 43.6467 14.088 41.1761C14.051 40.2385 14.4052 41.2135 14.3818 40.5486C14.2112 35.8095 13.7071 30.6546 13.8424 26.0934C13.9405 23.045 14.4666 24.1605 14.9268 22.5395C14.9905 22.3107 14.9842 20.4317 15.2695 20.334C15.9823 20.0829 16.7698 20.9819 17.5289 20.6064C17.6541 20.5458 17.5732 19.0477 17.7153 19.0474C17.7154 19.0474 17.7154 19.0474 17.7154 19.0474C17.7571 19.0475 17.8174 19.1777 17.9081 19.5123C17.9333 19.6153 18.0747 21.4169 18.2162 21.857C18.3128 22.1647 18.5949 21.605 18.7217 22.2333C18.8489 22.8582 18.6172 23.5518 18.7805 24.593C18.948 25.6279 19.2599 25.1635 19.3641 27.2376ZM265.514 8.62022C267.18 9.03802 267.393 7.40171 265.611 7.82234C265.524 7.84461 265.428 8.59979 265.514 8.62022ZM64.255 6.951C66.4049 7.66404 67.9153 6.63194 66.3767 6.08466C64.8449 5.53823 63.6025 6.73506 64.255 6.951ZM41.7118 7.19208C41.8132 7.21603 41.9113 7.23543 42.006 7.25061C44.2524 7.60891 44.5708 5.61803 42.0317 5.9537C42.0064 5.95706 41.9807 5.96064 41.9548 5.96447C41.7967 5.98714 41.5647 7.15754 41.7118 7.19208ZM15.2808 30.0029C15.2925 29.9791 15.2516 28.6319 15.2378 28.5995C14.8884 27.8933 14.9699 30.5918 15.2808 30.0029ZM19.3346 7.21266C20.1359 7.50669 22.4052 7.25462 21.4381 6.88718C20.6727 6.59693 18.3498 6.85369 19.3346 7.21266ZM351.55 6.52809C351.574 6.54983 352.149 7.3669 352.236 7.29666C352.408 7.15904 352.264 6.77424 352.032 6.53748C351.802 6.29777 351.533 6.22308 351.55 6.52809ZM-18.6949 6.50251C-18.4331 6.50574 -18.1846 6.50936 -17.9423 6.51335C-12.7656 6.4181 -9.96317 7.27187 -15.7938 6.69931C-16.9037 6.6374 -13.3938 6.76272 -14.8096 6.65963C-15.9864 6.5966 -16.969 6.588 -17.9432 6.58079C-19.1275 6.57638 -20.3061 6.57648 -21.7339 6.55636C-22.2161 6.54598 -19.0233 6.49309 -18.6848 6.50247C-18.6881 6.50248 -18.6915 6.50249 -18.6949 6.50251ZM266.502 10.5647C266.539 10.5857 267.846 10.5838 267.873 10.5619C268.57 10.0316 265.941 10.0351 266.502 10.5647ZM357.37 62.1871C357.364 62.1995 357.363 62.2748 357.368 62.4072C357.39 63.1448 357.552 65.3826 357.593 65.4593C358.272 66.584 358.207 63.5193 357.853 62.3689C357.725 61.9652 357.559 61.8142 357.37 62.1871ZM176.53 11.5468C175.064 12.0375 173.324 12.0623 172.173 11.3841C173.623 11.4495 175.076 11.4849 176.53 11.5468Z" fill="black"/>
</svg>
