<svg width="840" height="119" viewBox="0 0 840 119" fill="none" xmlns="http://www.w3.org/2000/svg">
<path d="M88.0657 46.5402C88.7158 56.2084 89.7251 68.9492 90.4416 78.6597C90.5998 80.7909 90.4914 80.676 90.4664 81.1641C90.4564 81.365 90.4608 81.6748 90.5068 82.2721C90.673 84.4125 90.9157 86.4564 91.2151 88.4738C91.4804 90.2532 91.7956 92.0171 92.1735 93.7675C92.4507 95.0069 91.7874 93.5425 92.094 94.8359C92.5902 96.8468 93.2351 98.7404 94.1297 100.297C95.0143 101.904 96.2059 102.885 97.9841 104.783C99.2052 106.066 102.586 107.22 105.598 107.95C107.71 108.468 109.854 108.864 112.04 109.203C123.83 110.945 135.954 111.12 148.076 111.137C152.203 111.131 156.39 111.14 160.567 111.166C180.409 111.293 200.344 111.394 220.501 111.439C233.417 111.469 249.059 111.788 262.425 111.534C263.991 111.504 263.053 111.134 263.35 111.101C267.952 110.593 266.426 111.365 269.468 111.446C281.513 111.763 294.887 111.688 306.463 111.416C311.355 111.299 306.43 110.578 311.385 110.958C311.731 110.984 310.482 111.412 311.836 111.441C314.951 111.507 320.681 111.367 323.095 111.371C327.686 111.382 328.395 111.369 332.755 111.318C338.654 111.252 345.698 111.367 352.051 111.179C353.414 111.137 351.601 110.73 353.778 110.624C355.925 110.518 361.629 110.468 363.587 110.539C365.532 110.611 364.701 110.967 365.046 111.04C367.825 111.66 374.468 110.634 375.32 110.596C378.807 110.45 382.216 110.351 385.581 110.281C390.202 110.185 394.807 110.147 399.267 110.125C405.712 110.091 412.066 110.083 418.735 109.958C429.776 109.75 441.617 109.348 452.15 109.163C464.682 108.945 475.327 108.967 487.511 108.675C488.797 108.645 487.28 108.162 488.849 108.124C505.534 107.72 522.107 107.427 538.731 107.419C540.399 107.419 538.26 107.916 539.927 107.943C550.123 108.097 566.271 108.64 572.286 106.545C579.185 106.473 587.574 106.371 593.759 106.634C597.756 106.802 593.897 107.377 598.78 107.062C599.879 106.992 598.44 106.592 600.088 106.519C607.058 106.211 614.673 106.187 621.554 105.817C622.947 105.741 622.557 105.364 622.95 105.286C626.286 104.652 631.877 105.462 633.069 105.504C642.341 105.81 649.042 105.469 657.645 105.301C659.647 105.262 657.272 104.795 659.194 104.739C669.14 104.457 679.42 104.29 689.206 104.324C691.355 104.334 689.39 104.813 690.416 104.84C694.965 104.954 696.047 104.101 700.347 104.197C701.28 104.216 700.763 104.603 700.934 104.641C703.635 105.239 705.889 104.275 706.559 104.242C713.322 103.895 718.248 104.357 723.964 104.433C725.564 104.452 727.204 104.444 728.929 104.386C729.904 104.352 727.701 103.912 730.434 103.847C732.766 103.792 735.165 103.741 737.437 103.697C753.86 103.388 771.016 103.307 787.037 103.677C789.958 103.747 787.874 104.091 788.061 104.135C790.953 104.826 792.908 103.939 793.822 103.916C799.724 103.816 805.39 104.31 810.059 104.624C811.128 104.672 812.143 104.632 813.086 104.492C816.403 104.772 819.749 104.714 823.032 104.278C825.526 103.944 827.993 103.394 830.312 102.562C831.586 102.104 832.169 101.274 832.605 99.6244C833.159 97.4883 833.104 94.9217 832.943 92.4077C832.819 90.5859 832.619 88.7378 832.396 86.8889C830.923 75.5992 829.294 64.0944 829.016 52.575C828.885 47.9878 828.785 43.3824 828.723 38.8333C828.687 36.2885 828.663 33.7673 828.648 31.2421C828.644 30.8466 829.092 31.537 829.083 30.752C828.964 21.3267 828.409 23.1509 827.256 17.0245C827.001 15.4612 827.405 10.8177 827.281 10.4246C827.168 8.96236 828.156 10.2523 828.079 9.76539C827.931 8.89938 827.66 8.27461 827.35 7.81003C826.81 7.02371 826.121 6.812 825.411 6.69965C824.674 6.59413 823.92 6.57196 822.41 6.39669C822.107 6.36585 821.741 6.33566 821.333 6.31238C821.175 6.29785 821.862 5.96477 821.441 5.89717C820.095 5.69542 818.669 5.9687 817.239 6.01769C816.437 6.04595 815.746 6.03688 815.086 6.02123C813.373 5.98461 811.878 5.88474 809.21 6.6404C808.739 6.77454 808.226 6.93753 807.68 7.13106C807.062 7.35588 808.297 8.26784 803.289 9.40658C802.258 9.64008 799.422 10.3276 796.556 11.0013C793.776 11.689 790.858 11.9446 789.639 12.0158C787.063 12.1497 788.8 11.6155 788.608 11.6154C783.302 11.5853 783.58 11.2911 782.458 10.9241C782.124 10.8107 781.6 10.6864 780.846 10.5399C777.403 9.9021 778.375 11.69 777.012 11.9412C775.577 12.1959 770.6 11.9014 769.348 11.7781C768.126 11.657 769.644 11.3697 768.552 11.3102C761.283 10.9129 765.325 12.2969 762.989 12.6412C757.363 13.4559 752.94 12.1556 747.757 12.0993C746.376 12.0842 747.512 12.3829 746.271 12.4321C741.319 12.6233 738.384 12.2291 732.755 12.7088C731.857 12.7862 727.319 13.6966 724.366 13.1136C723.94 13.0293 725.147 12.6621 722.994 12.6111C721.39 12.57 719.095 12.5485 716.693 12.5608C714.621 12.5705 712.479 12.6081 710.83 12.6841C708.327 12.8011 711.186 13.3499 708.083 13.2054C706.697 13.1407 709.264 12.7701 706.653 12.6769C705.782 12.6455 704.416 12.6353 702.93 12.6363C700.085 12.6374 696.456 12.6862 694.828 12.7115C692.322 12.7504 693.697 13.1777 693.496 13.2097C692.286 13.3934 687.352 13.6584 686.966 13.6618C665.316 13.9398 645.332 13.3757 624.268 13.7983C622.612 13.8308 623.719 14.2877 623.466 14.2974C617.789 14.5396 622.238 13.2637 618.295 12.8813C618.871 13.8224 616.551 13.6702 612.55 13.8061C610.62 13.8723 611.674 14.2301 611.498 14.269C608.652 14.848 606.671 14.145 606.156 14.0021C604.266 13.4763 602.205 14.1311 600.919 13.7797C599.635 13.4309 602.579 12.8765 598.762 12.9127C597.694 13.2595 600.537 14.1224 597.637 14.288C586.68 14.9154 566.215 14.366 557.401 14.3509C548.602 14.3367 545.78 14.4164 540.638 14.3259C531.392 14.161 534.774 14.7965 529.029 15.1306C523.279 15.464 526.069 13.8335 525.239 13.4913C524.419 13.149 523.529 13.5112 522.514 13.3262C521.503 13.1412 523.688 12.893 521.313 12.8347C518.942 12.7766 512.456 13.4286 511.613 13.7957C509.842 14.5735 512.757 15.3655 506.499 15.114C506.136 15.099 507.314 14.6686 505.921 14.6328C494.95 14.3615 483.523 14.3923 472.551 14.1434C471.058 14.1084 472.391 13.6315 471.523 13.6058C462.297 13.3361 465.703 14.12 460.615 15.02C461.729 13.8398 458.992 13.1297 452.02 13.1403C447.834 13.1457 448.632 13.6575 445.881 14.0254C445.056 14.1363 442.103 13.7889 441.58 14.0314C440.384 14.5754 441.301 15.1606 439.717 15.3638C438.967 15.4566 437.67 15.4698 435.432 15.3619C435.12 15.3455 436.114 14.9121 435.035 14.8871C430.812 14.7861 428.695 15.0589 426.123 15.308C424.482 15.4639 422.491 15.6103 419.628 15.6481C413.653 15.7259 403.12 15.2095 396.351 15.1131C396.518 13.7917 390.135 14.081 387.51 14.9859C383.178 14.9383 378.352 14.9775 374.154 14.8421C372.678 14.7959 373.649 14.4155 373.463 14.3737C370.637 13.7191 368.734 14.6019 367.781 14.6349C357.53 14.9558 349.154 14.2792 339.368 14.9958C339.019 15.022 338.474 15.9409 335.843 15.2928C335.674 15.2483 338.9 14.8036 334.301 14.8109C329.695 14.8165 320.994 14.4465 314.616 15.0234C313.067 15.1603 309.171 16.0004 306.023 15.5128C305.6 15.4463 306.053 15.1703 305.44 15.0422C303.483 14.6351 302.429 15.5936 300.12 14.8837C298.688 14.4467 296.333 14.1173 293.186 14.1207C291.278 14.1209 289.015 14.2519 286.568 14.5613C286.365 14.5856 284.852 15.3815 282.838 15.4567C281.908 15.4913 280.829 15.5218 279.746 15.549C277.041 15.6176 274.029 15.68 271.606 15.7974C269.999 15.8757 271.049 16.2813 270.77 16.3027C259.902 17.0735 252.135 17.0652 240.476 17.4899C238.326 17.5677 232.234 18.5005 228.065 18.2274C223.501 17.9283 228.046 15.4733 217.638 16.5397C213.441 16.968 208.249 20.0423 200.609 18.962C185.943 20.0359 172.356 19.9183 157.637 20.9454C156.967 20.9916 154.922 21.8346 153.351 21.8743C151.026 21.9318 149.771 21.6086 148.103 21.6338C145.615 21.667 143.168 21.7471 140.806 21.8362C136.562 21.9954 132.446 22.1857 128.195 22.211C127.887 22.2129 127.625 22.2089 127.404 22.2004C125.801 22.1381 126.169 21.8475 123.517 21.8553C120.487 21.8624 118.493 22.3604 114.39 22.1335C111.314 21.9579 108.208 20.9805 104.119 20.8536C103.953 21.8003 101.144 21.7701 96.1335 21.9462C95.1791 21.9798 96.1969 22.3168 95.7453 22.349C93.8763 22.4843 92.1893 22.1893 90.4108 22.3316C89.9831 22.3654 89.9574 22.6743 89.6093 22.7186C86.6167 23.1043 81.7325 22.282 80.8974 22.1461C77.6731 21.6176 76.1734 21.9583 73.6939 21.7135C71.2402 21.4733 74.9199 21.3681 72.0523 21.1857C66.0896 20.8144 58.3816 20.6253 52.3148 20.529C49.8849 20.4963 51.5384 20.857 51.1901 20.8603C49.8916 20.866 48.5753 20.8482 47.327 20.8375C43.7224 20.8051 40.3907 20.7965 38.3438 21.2934C36.2993 20.3803 35.6083 20.6202 33.9672 20.9272C32.7946 21.1521 31.141 21.3976 28.1565 21.3498C27.5928 21.3328 26.8521 20.7599 29.0163 20.5357C30.3446 20.4007 32.0996 20.3726 33.9532 20.3407C35.1155 20.3196 36.3171 20.2838 37.4803 20.1894C38.1856 20.1332 42.2653 19.3181 42.8266 19.2614C45.3926 19.0045 46.679 19.3178 47.3262 19.636C47.7815 19.8589 47.9432 20.0821 48.0379 20.1094C50.6616 20.825 55.6448 20.0802 56.9695 20.0391C62.982 19.8749 68.084 20.1955 73.1031 20.0954C76.3985 20.0313 76.7499 19.1045 79.3085 19.1705C87.865 19.3714 90.8208 20.8162 98.9188 19.6507C100.633 19.3955 98.9525 18.2782 105.127 19.1592C105.513 19.2132 110.091 20.0308 112.77 19.4965C113.1 19.429 113.09 19.0942 113.526 19.0635C116.475 18.8626 118.446 19.1151 121.648 18.9532C123.41 18.864 125.343 18.7508 127.36 18.6753C129.03 18.6127 130.71 18.575 132.39 18.5974C134.574 18.6282 137.449 19.2025 138.498 19.334C139.239 19.4283 139.998 19.4489 140.749 19.4338C142.976 19.3895 145.169 19.0127 146.55 19.3826C148.434 19.8752 144.792 20.8146 149.724 21.0226C149.877 20.1275 150.263 19.2015 150.526 18.2974C161.26 17.987 171.812 17.842 182.585 17.3136C183.921 17.2469 182.534 16.8268 183.961 16.7427C189.996 16.3876 195.282 16.4778 201.537 16.0291C206.378 15.6798 211.667 14.8947 216.729 14.5024C219.879 15.377 227.381 14.6343 232.85 14.4429C234.769 14.3755 234.656 14.6592 236.022 14.6787C241.17 14.7458 238.722 13.9535 240.122 13.7356C246.128 12.8049 246.76 14.855 253.878 14.4413C254.262 14.4196 258.809 13.0779 259.449 12.9769C263.461 12.3251 260.133 13.3299 262.664 13.2867C267.291 13.2093 270.514 13.319 275.907 12.7444C276.707 12.6589 278.068 12.3961 279.598 12.2097C281.099 12.0266 282.826 11.9149 284.339 12.1168C284.743 12.17 284.534 12.5472 284.862 12.5549C290.017 12.6524 290.771 11.7857 293.076 11.2165C293.421 11.1332 293.8 11.0565 294.229 10.9905C297.557 10.4717 302.819 11.0987 303.873 11.2985C306.642 11.8095 301.772 11.6179 301.609 11.6835C299.863 12.4369 303.658 12.1904 306.559 12.1663C307.01 13.2873 311.054 13.1099 309.56 12.1391C309.383 12.0329 307.145 12.2007 306.559 12.1663C309.05 10.9796 313.529 10.7152 318.462 11.6579C320.768 12.1032 318.61 12.7026 325.592 12.3821C328.763 12.2425 327.522 11.4772 330.325 11.2291C336.713 10.6639 345.036 11.3511 351.621 11.2279C354.027 11.1828 351.684 10.7572 353.326 10.7119C357.662 10.5912 361.465 10.9156 365.848 10.757C366.237 10.742 365.285 10.2918 366.624 10.288C376.901 10.2523 385.838 10.5671 396.538 10.5954C401.742 10.6096 410.994 10.3742 416.327 10.4259C419.499 10.4553 422.704 10.5465 426.122 10.6484C430.737 10.7896 435.42 10.9513 439.711 10.999C441.564 11.0205 443.348 11.0192 445.002 10.9832C450.235 10.8708 449.027 10.4234 451.259 10.112C455.612 9.50821 463.131 10.5486 464.167 10.7097C464.225 10.715 459.714 10.835 462.118 11.0583C463.531 11.5348 464.111 10.7119 464.167 10.7097C464.801 10.8145 473.759 10.8853 475.496 10.7921C476.457 10.7414 475.918 10.3176 476.419 10.2992C488.328 9.87184 500.258 9.70739 512.338 9.84258C512.551 9.85005 512.232 10.3283 512.733 10.34C519.734 10.5145 524.22 9.90601 529.967 9.52623C535.751 9.14624 540.295 9.23404 543.729 10.0309C548.069 9.90081 554.326 10.222 557.914 10.4177C561.507 10.6133 562.003 9.68175 562.319 9.6613C572.173 9.00704 577.869 9.49788 588.103 9.50497C592.955 9.51013 602.608 9.30155 607.872 9.15805C612.003 9.0435 614.559 9.24042 618.37 9.07015C618.886 9.04734 618.361 8.63831 618.518 8.62111C622.783 8.09151 620.746 9.11869 621.631 9.29187C624.863 9.92131 626.79 10.2549 632.302 9.89915C633.578 9.81756 637.208 8.33124 639.529 8.22575C642.537 8.09134 641.41 8.62285 644.539 8.46873C644.805 8.45602 644.75 8.13479 646.67 8.13177C655.677 8.11265 665.475 8.20815 674.802 8.08354C676.084 8.06765 674.437 7.5736 676.286 7.54225C684.933 7.39576 694.366 7.31592 702.804 7.46019C702.827 7.46061 702.85 7.46108 702.872 7.4616C704.859 7.50572 703.591 7.87038 704.042 7.97026C706.888 8.5804 710.655 7.60686 711.374 7.58156C713.21 7.50927 714.957 7.45597 716.63 7.41729C729.698 7.12098 740.358 7.63289 754.298 7.10419C755.134 7.06965 761.724 6.01219 764.647 6.78962C764.86 6.84182 767.79 7.63586 770.306 7.00518C770.457 6.96578 768.638 6.57071 771.811 6.54718C774.495 6.52423 778.437 6.23112 782.256 6.29956C782.92 6.31352 783.641 6.33676 784.283 6.37908C785.608 6.44837 788.993 7.18387 792.58 6.00381C792.703 5.96336 793.738 5.51034 795.125 4.93677C797.036 4.18184 799.446 3.40306 800.813 3.6679C801.219 3.74846 801.067 4.87451 805.757 3.23346C806.654 2.92267 804.92 3.06474 807.329 2.37523C807.619 2.29307 807.905 2.21566 808.214 2.13618C809.991 1.67897 812.033 1.29998 814.226 0.910563C816.519 0.524528 818.867 0.0881157 821.777 0.0132847C822.089 0.0116158 822.689 -0.0316248 823.601 0.0520053C824.522 0.131262 825.866 0.258488 827.556 1.05674C829.239 1.79904 831.114 3.67663 831.727 5.51497C831.786 5.67766 831.788 5.75281 831.766 5.79082C831.661 5.9157 831.344 5.64662 831.889 7.12678C834.101 15.8416 833.614 22.3314 833.865 29.577C833.873 32.0514 833.251 30.8236 833.194 33.4235C833.165 34.7224 833.162 36.6709 833.214 38.6682C833.265 40.6267 833.371 42.6233 833.557 43.9832C833.929 46.6679 834.731 43.7038 834.97 47.7475C835.062 49.3037 835.145 50.7551 835.228 52.3213C835.788 63.5639 837.205 74.593 838.593 86.1335C838.803 88.0412 839.004 89.979 839.126 91.9852C839.259 94.7811 839.434 97.6745 838.563 101.191C838.491 101.46 838.41 101.743 838.315 102.038C837.679 103.886 837.456 104.201 837.309 104.649C837.061 104.983 836.969 106.334 833.628 108.222C833.269 108.402 832.907 108.556 832.546 108.689C829.947 109.647 827.046 110.369 823.951 110.824C819.332 111.505 814.269 111.569 809.235 110.927C799.254 109.821 787.606 110.196 780.574 109.703C770.696 109.164 783.132 108.64 775.587 108.443C771.899 108.351 767.982 109.528 767.107 109.574C758.457 110.031 752.46 109.611 744.711 109.882C743.07 109.939 744.658 110.379 743.32 110.422C741.475 110.483 739.514 110.498 737.544 110.503C734.851 110.507 731.859 110.492 729.328 110.557C727.35 110.609 727.723 110.958 725.864 110.962C725.265 110.965 724.67 110.965 724.078 110.964C720.497 110.952 716.901 110.867 713.281 110.646C712.89 110.623 715.513 110.133 712.262 110.177C706.922 110.251 700.434 110.048 694.376 110.508C692.559 110.646 692.491 111.458 688.651 110.975C687.834 110.874 688.876 109.879 684.345 110.812C683.561 110.968 676.064 112.257 672.321 111.602C671.348 111.43 668.844 110.684 666.663 110.855C666.367 110.881 667.563 111.292 665.754 111.373C659.468 111.646 652.836 111.74 646.328 112.015C644.58 112.09 647.193 112.485 644.59 112.582C637.545 112.847 628.63 112.923 621.68 112.932C619.128 112.934 620.883 112.522 620.697 112.486C617.695 111.888 615.93 112.82 614.931 112.894C608.776 113.34 603.988 113.023 598.337 113.257C596.766 113.321 597.889 113.723 597.577 113.768C594.335 114.21 596.741 113.392 594.678 113.352C588.897 113.238 582.471 113.412 576.662 113.593C574.525 113.66 576.939 114.102 575.02 114.157C563.643 114.489 551.83 114.697 540.729 114.662C538.639 114.655 539.945 114.246 539.508 114.168C536.49 113.624 532.108 114.548 531.101 114.649C526.512 115.108 524.704 114.809 520.648 114.958C500.805 115.694 476.284 115.979 457.539 116.214C436.179 116.484 418.948 116.516 399.388 116.858C396.63 116.906 393.757 116.961 390.861 117.022C389.382 117.053 390.881 117.535 389.608 117.568C388.302 117.6 387.002 117.629 385.708 117.657C370.566 117.977 355.596 118.02 340.39 118.309C339.034 118.333 340.994 118.788 338.819 118.843C334.407 118.958 328.678 118.982 324.214 118.866C321.995 118.811 324.965 118.384 322.733 118.338C317.567 118.227 312.02 118.233 306.762 118.339C304.519 118.384 307.927 118.841 304.98 118.862C285.013 119.018 265.404 119.114 245.243 118.496C243.854 118.454 242.629 117.533 239.727 117.705C239.503 117.96 239.516 118.259 239.419 118.531C213.026 118.611 186.906 118.183 160.548 117.942C157.838 117.918 155.152 117.887 152.502 117.853C151.281 117.837 153.42 118.31 151.005 118.279C150.005 118.265 149.026 118.252 148.068 118.239C135.744 118.031 123.7 117.548 111.098 115.203C110.531 115.094 109.944 114.975 109.395 114.856C107.968 114.524 108.81 114.113 104.645 113.209C103.895 113.117 97.603 111.252 95.8182 109.919C95.694 109.846 95.8959 110.078 95.8577 110.142C95.8244 110.19 95.5616 110.202 94.4547 109.25C94.2132 109.032 93.9533 108.771 93.7232 108.503C91.9166 106.748 88.7208 102.911 87.7847 99.5175C86.5982 96.075 86.0095 92.6655 85.5252 89.3121C85.1646 86.7474 84.9095 84.192 84.7126 81.6707C84.5162 79.1472 84.3298 76.6622 84.1535 74.2082C84.0184 72.3208 84.4764 74.2984 84.3835 72.9621C83.7334 63.5396 82.6574 53.2996 82.4454 44.2172C82.3324 38.1281 82.9388 40.3597 83.3181 37.123C83.3666 36.6638 83.3078 32.914 83.5968 32.7149C84.3052 32.2118 85.1089 34.0123 85.8611 33.2598C85.9816 33.1367 85.8874 30.144 86.0328 30.143C86.0328 30.143 86.0328 30.143 86.0328 30.143C86.0746 30.1432 86.1344 30.4032 86.2269 31.0725C86.248 31.2779 86.4195 34.8776 86.5821 35.7599C86.6898 36.3727 86.9513 35.2562 87.1015 36.5105C87.2538 37.7619 87.0539 39.1493 87.2835 41.2319C87.5222 43.3099 87.7931 42.3727 88.0657 46.5402ZM574.095 11.2881C577.425 11.7102 577.904 10.0743 574.309 10.4904C574.134 10.5125 573.923 11.2675 574.095 11.2881ZM171.807 19.0281C176.177 19.55 179.11 18.3835 176.019 17.9745C172.943 17.565 170.472 18.8702 171.807 19.0281ZM126.791 20.8484C126.997 20.8678 127.196 20.8828 127.388 20.8937C131.878 21.1474 132.404 19.1429 127.372 19.5967C127.321 19.6012 127.269 19.6059 127.217 19.6109C126.899 19.6406 126.493 20.8203 126.791 20.8484ZM84.2215 52.0163C84.2303 51.9697 84.0661 49.2948 84.0496 49.2193C83.6348 47.8084 83.9633 53.1849 84.2215 52.0163ZM82.0832 21.1531C83.6713 21.4614 88.2313 21.236 86.279 20.857C84.6832 20.558 80.1186 20.7782 82.0832 21.1531ZM747.608 11.3213C747.652 11.3446 749.569 11.3366 749.543 11.2025C749.369 10.7724 746.747 10.9334 747.608 11.3213ZM6.08252 22.4062C6.60914 22.3538 7.07714 22.3105 7.58919 22.2656C17.8498 21.2828 23.5634 21.8627 11.8939 22.0829C9.67566 22.1877 16.6512 21.7934 13.8355 21.8972C11.5075 22.0036 9.53839 22.1549 7.59515 22.3328C5.22659 22.5979 2.87296 22.6772 0.104779 23.4595C-0.879123 23.4875 5.42366 22.3721 6.10276 22.404C6.09601 22.4047 6.08925 22.4054 6.08252 22.4062ZM576.025 13.2352C576.092 13.2564 578.761 13.2578 578.825 13.2359C580.266 12.7074 574.889 12.7042 576.025 13.2352ZM829.318 38.3728C829.312 38.3953 829.312 38.5636 829.315 38.8116C829.332 40.2332 829.478 44.7563 829.517 44.901C830.188 47.2454 830.151 41.1206 829.801 38.7937C829.676 37.9744 829.508 37.6236 829.318 38.3728ZM396.246 15.0777C393.326 15.5925 389.897 15.6459 387.524 14.9866C390.471 15.0282 393.332 15.0398 396.246 15.0777Z" fill="black"/>
</svg>
