<svg width="40" height="40" viewBox="0 0 40 40" fill="none" xmlns="http://www.w3.org/2000/svg">
<rect width="40" height="40" rx="20" fill="black"/>
<g clip-path="url(#clip0_24001_34907)">
<path fill-rule="evenodd" clip-rule="evenodd" d="M14.5701 13.6133C14.756 13.6133 14.9174 13.4852 14.9596 13.3042L15.492 11.0224C15.6505 10.3436 16.2557 9.86328 16.9528 9.86328H23.1972C23.8943 9.86328 24.4996 10.3436 24.658 11.0224L25.1904 13.3042C25.2326 13.4852 25.394 13.6133 25.5799 13.6133H30.5C31.3285 13.6133 32 14.2849 32 15.1133V28.6347C32 29.4631 31.3285 30.1347 30.5 30.1347H9.5C8.67157 30.1347 8 29.4631 8 28.6347V15.1133C8 14.2849 8.67157 13.6133 9.5 13.6133H14.5701ZM17.317 13.6133C17.0593 13.6133 16.8689 13.3733 16.9274 13.1224L17.1783 12.0474C17.2205 11.8664 17.3819 11.7383 17.5678 11.7383H22.5822C22.7681 11.7383 22.9295 11.8664 22.9718 12.0474L23.2226 13.1224C23.2812 13.3733 23.0907 13.6133 22.8331 13.6133H17.317ZM10.275 15.4883C10.0541 15.4883 9.875 15.6674 9.875 15.8883V18.8383C9.875 19.0592 10.0541 19.2383 10.275 19.2383H29.725C29.946 19.2383 30.125 19.0592 30.125 18.8383V15.8883C30.125 15.6674 29.946 15.4883 29.725 15.4883H10.275ZM30.125 21.5133C30.125 21.2924 29.946 21.1133 29.725 21.1133H23.4C23.1791 21.1133 23 21.2924 23 21.5133V21.5258C23 22.3542 22.3284 23.0258 21.5 23.0258H18.5C17.6716 23.0258 17 22.3542 17 21.5258V21.5133C17 21.2924 16.8209 21.1133 16.6 21.1133H10.275C10.0541 21.1133 9.875 21.2924 9.875 21.5133V27.8597C9.875 28.0806 10.0541 28.2597 10.275 28.2597H29.725C29.946 28.2597 30.125 28.0806 30.125 27.8597V21.5133Z" fill="white"/>
</g>
<defs>
<clipPath id="clip0_24001_34907">
<rect width="24" height="24" fill="white" transform="translate(8 8)"/>
</clipPath>
</defs>
</svg>
