<svg width="40" height="41" viewBox="0 0 40 41" fill="none" xmlns="http://www.w3.org/2000/svg">
<rect y="0.25293" width="40" height="40" rx="20" fill="#CFBEFF"/>
<path d="M23.771 23.7361C23.8989 23.6547 24.0254 23.5718 24.149 23.4806L26.7357 21.5824V25.0221C26.8849 25.0362 27.0343 25.0446 27.1862 25.0446C27.3527 25.0446 27.5175 25.0362 27.6795 25.0193V21.5698C28.7098 22.3265 29.7403 23.0818 30.7708 23.8386C30.8759 23.7221 30.9869 23.5873 31.0962 23.4356C31.1844 23.3121 31.2624 23.1928 31.3293 23.0804C30.4368 22.4248 29.5428 21.7705 28.6503 21.1149H31.976C31.9916 20.9604 32.0001 20.8046 32.0001 20.646C32.0001 20.4873 31.9916 20.3315 31.976 20.177H28.6503L31.3251 18.2143C31.2441 18.0795 31.1474 17.9335 31.0352 17.7833C30.9442 17.6625 30.8531 17.5544 30.7666 17.4575L27.681 19.7221V16.2782C27.519 16.2614 27.354 16.2529 27.1877 16.2529C27.0356 16.2529 26.8849 16.2614 26.7372 16.2754V19.7109L24.1505 17.8127C24.0268 17.7215 23.9003 17.6386 23.7724 17.5572C22.8088 16.9479 21.9347 16.7205 21.632 16.6474C21.2283 16.5506 20.6726 16.4565 20.0032 16.4579C20.0032 16.771 20.0032 17.0855 20.0032 17.3986C21.0535 17.3958 22.1052 17.6667 23.049 18.2171C23.1257 18.262 23.2025 18.3083 23.2778 18.3575C23.383 18.4249 23.4881 18.4923 23.5891 18.5681L25.7835 20.1784H22.398H22.3739V21.1163H22.398H25.7835L23.5891 22.7266C23.4867 22.8011 23.3815 22.8699 23.2778 22.9372C23.2025 22.985 23.1257 23.0327 23.049 23.0776C22.1052 23.628 21.0535 23.899 20.0032 23.8962V24.841C20.0103 24.841 20.0174 24.8424 20.0245 24.8424C21.3235 24.8396 22.624 24.4704 23.771 23.7361Z" fill="black"/>
<path d="M16.2292 23.7361C16.1013 23.6547 15.9748 23.5718 15.8511 23.4806L13.2644 21.5824V25.0235C13.1152 25.0376 12.9659 25.046 12.8139 25.046C12.6476 25.046 12.4827 25.0376 12.3207 25.0207V21.5698C11.2903 22.3265 10.2598 23.0818 9.2294 23.8386C9.12423 23.7221 9.01337 23.5873 8.90393 23.4356C8.81581 23.3121 8.73764 23.1928 8.67084 23.0804C9.5634 22.4248 10.4574 21.7705 11.3499 21.1149H8.02416C8.00853 20.9618 8 20.806 8 20.6474C8 20.4887 8.00853 20.3329 8.02416 20.1784H11.3499L8.67511 18.2143C8.75612 18.0795 8.85277 17.9335 8.96505 17.7833C9.05601 17.6625 9.14697 17.5544 9.23367 17.4575L12.3193 19.7221V16.2782C12.4827 16.2614 12.6476 16.2529 12.8139 16.2529C12.9659 16.2529 13.1166 16.2614 13.2644 16.2754V19.7109L15.8511 17.8127C15.9748 17.7215 16.1013 17.6386 16.2292 17.5572C17.1928 16.9479 18.0669 16.7205 18.3696 16.6474C18.7733 16.5506 19.329 16.4565 19.9984 16.4579C19.9984 16.771 19.9984 17.0855 19.9984 17.3986C18.9495 17.3972 17.8978 17.6667 16.954 18.2171C16.8773 18.262 16.8005 18.3083 16.7252 18.3575C16.62 18.4249 16.5149 18.4923 16.414 18.5681L14.2181 20.1784H17.6036H17.6277V21.1163H17.6036H14.2181L16.4125 22.7266C16.5149 22.801 16.62 22.8699 16.7238 22.9372C16.7991 22.985 16.8759 23.0327 16.9526 23.0776C17.8964 23.628 18.9481 23.899 19.9984 23.8962V24.841C19.9913 24.841 19.9842 24.8424 19.9771 24.8424C18.6766 24.8396 17.3762 24.4704 16.2292 23.7361Z" fill="black"/>
</svg>
