<svg width="28" height="29" viewBox="0 0 28 29" fill="none" xmlns="http://www.w3.org/2000/svg">
<path fill-rule="evenodd" clip-rule="evenodd" d="M1.95639 2.66732C0 4.62371 0 7.77246 0 14.07V15.1832C0 21.4807 0 24.6295 1.95639 26.5859C3.91277 28.5423 7.06153 28.5423 13.359 28.5423H14.4723C20.7698 28.5423 23.9186 28.5423 25.8749 26.5859C27.8313 24.6295 27.8313 21.4807 27.8313 15.1832V14.07C27.8313 7.77246 27.8313 4.62371 25.8749 2.66732C23.9186 0.710938 20.7698 0.710938 14.4723 0.710938H13.359C7.06153 0.710938 3.91277 0.710938 1.95639 2.66732ZM4.69642 9.17653C4.84718 16.4127 8.46521 20.7613 14.8084 20.7613H15.168V16.6214C17.4989 16.8533 19.2614 18.558 19.9688 20.7613H23.2622C22.3577 17.4679 19.9803 15.6473 18.496 14.9515C19.9803 14.0934 22.0677 12.006 22.5663 9.17653H19.5744C18.925 11.4726 17.0002 13.5599 15.168 13.7571V9.17653H12.176V17.2012C10.3206 16.7373 7.97819 14.4877 7.87382 9.17653H4.69642Z" fill="#7C7C7C"/>
</svg>
