<svg width="28" height="29" viewBox="0 0 28 29" fill="none" xmlns="http://www.w3.org/2000/svg">
<path fill-rule="evenodd" clip-rule="evenodd" d="M0.108398 14.6258C0.108398 22.3109 6.33819 28.5423 14.0233 28.5423V28.5407C21.7084 28.5407 27.9381 22.3109 27.9381 14.6258C27.9381 6.9407 21.7084 0.710938 14.0233 0.710938C6.33819 0.710938 0.108398 6.9407 0.108398 14.6258ZM13.8713 1.49955L12.0707 13.4255L2.56135 21.1105C0.277842 17.0629 0.30159 12.1095 2.6342 8.08562C4.95413 4.06181 9.23137 1.55971 13.8713 1.49955ZM2.7308 21.405L14.028 16.7288L25.3743 21.3322C23.018 25.345 18.717 27.8091 14.0771 27.8217C9.42457 27.8455 5.11092 25.4052 2.7308 21.405ZM15.9251 13.5838L25.5438 21.0266C27.7798 16.9791 27.7307 12.0605 25.3981 8.06196C23.0782 4.06343 18.8373 1.57402 14.2086 1.50118L15.9236 13.5838H15.9251Z" fill="#7C7C7C"/>
</svg>
