<svg width="42" height="29" viewBox="0 0 42 29" fill="none" xmlns="http://www.w3.org/2000/svg">
<path fill-rule="evenodd" clip-rule="evenodd" d="M30.7617 11.7426C30.7702 11.7103 30.7744 11.6806 30.7744 11.6534C30.7744 11.6296 30.7702 11.6067 30.7617 11.5846C29.1682 5.20316 24.1151 0.710938 13.6214 0.710938H0.952881L2.67634 12.663C3.96384 23.4525 7.97931 26.9275 15.0822 28.2022C15.1145 28.2107 15.1468 28.2107 15.1791 28.2022C15.2165 28.1971 15.2462 28.1827 15.2683 28.1589C15.2955 28.1368 15.3168 28.107 15.3321 28.0696C15.3406 28.0374 15.3448 28.0051 15.3448 27.9728C15.3448 27.9243 15.3321 27.8759 15.304 27.8402C15.2836 27.7994 15.2479 27.7714 15.2072 27.751C10.8239 25.8581 9.98461 20.0204 9.09328 13.8204C9.00736 13.2227 8.92095 12.6217 8.83084 12.0205L8.0354 6.57224H15.2683C15.4015 6.57224 15.534 6.5722 15.666 6.57216C22.1402 6.57002 27.1504 6.56837 30.3461 11.7579C30.3699 11.7936 30.3996 11.8234 30.4353 11.8472C30.4727 11.8693 30.5118 11.8829 30.5526 11.888C30.5849 11.888 30.6155 11.8812 30.6444 11.8676C30.6716 11.854 30.6945 11.8378 30.7132 11.8191C30.737 11.7953 30.7532 11.7698 30.7617 11.7426ZM23.3404 23.1704L26.331 28.2847H29.8544L25.2168 20.8172L29.7295 13.4339H26.2264L23.4245 18.2091L20.4748 13.4339H16.8137L21.4104 20.5827L16.9029 28.2847H20.4059L23.3404 23.1704ZM35.7335 28.5422C38.8694 28.5422 41.2634 26.5001 41.2634 23.2393V23.2469C41.2634 20.1034 39.0148 18.3264 36.4321 18.3264C34.2931 18.3264 33.5869 19.1779 33.5869 19.1779L33.8571 16.325H40.5852L40.8963 13.439H31.4886L30.4994 22.0563H33.3651C33.7322 21.4189 34.5429 20.8249 35.759 20.8249C37.2199 20.8249 38.2729 21.7376 38.2729 23.1985C38.2729 24.5956 37.5947 25.6817 36.0293 25.6817C34.7698 25.6817 33.6149 25.0392 33.4058 23.5503H30.4153C30.6447 26.9692 32.9775 28.5422 35.7335 28.5422Z" fill="#7C7C7C"/>
</svg>
