<svg width="28" height="29" viewBox="0 0 28 29" fill="none" xmlns="http://www.w3.org/2000/svg">
<path fill-rule="evenodd" clip-rule="evenodd" d="M27.3677 12.1431C27.5231 12.9315 27.6008 13.7594 27.6008 14.6266C27.6008 22.2743 21.5022 28.5423 13.9275 28.5423C6.35278 28.5423 0.215332 22.3138 0.215332 14.6266C0.215332 6.93949 6.35278 0.710938 13.9275 0.710938C17.1516 0.710938 20.1426 1.85415 22.5121 3.78579L19.8319 5.79628C18.1227 4.61364 16.1028 3.94348 13.8886 3.94348C8.10079 3.94348 3.36174 8.75287 3.36174 14.6266C3.36174 20.5004 8.10079 25.3098 13.8886 25.3098C19.6765 25.3098 24.4155 20.5004 24.4155 14.6266V14.3507L27.3677 12.1431ZM26.359 8.87204C25.9317 7.88651 25.3879 6.97983 24.7275 6.11256L13.8899 14.1939L8.6847 10.8825V14.9035L13.9287 18.2149L26.359 8.87204Z" fill="#7C7C7C"/>
</svg>
